<svg id="svg-clouds" xmlns="http://www.w3.org/2000/svg" vviewBox="0 0 800 800">
  <title>svg-clouds2</title>
  <g id="cloudGroup02">
    <path id="cloud-06" d="M46.23-396.34c-1.21,4.4-3,8.71-3.54,13.22-1.54,11.9-2.22,23.95-4,35.8-1.06,7.2-3.43,14.16-5.29,21.2-0.7,2.64-1.87,3.29-4.55,2.36-8.34-2.91-10-11.19-11.8-18.92-2.65-11.58-3.45-23.39-3.81-35.52-0.74-25.27,2.3-50.32,1.84-75.5Q14.91-465.44,14-477.14c-0.14-1.92-1.5-3.73-2.29-5.59a8.18,8.18,0,0,1-1-2.44c-0.33-5.51-.65-11-0.75-16.54-0.14-7.79-.06-15.59-0.12-23.38a9.24,9.24,0,0,0-1-2.34,48.35,48.35,0,0,0-6.4,3.57c-3.49,2.66-6.09,2.49-8.45-1.61-5.41-9.37-7.51-19.85-7.84-31-0.68-22.6,2.13-44.88,4.77-67.14,2.2-18.57,5.26-37,8.11-55.48,0.46-3,1.87-5.73,2.68-8.66,1.64-6,3.75-11.85,4.62-18,2.65-18.66,5.35-37.36,7-56.16,2.08-23.42,3.09-47,4.7-70.44,0.38-5.51,2.24-11.08,1.77-16.43-0.8-9.11,4.7-15.91,5.47-24.43s3.12-16.78,4.58-25.21c1.42-8.14,2.52-16.35,3.93-24.48A49.57,49.57,0,0,1,36-929.59l1.48,0.33c0.19,2.15.38,4.3,0.56,6.45,1,12.23,2,24.47,3,36.69,0.38,4.43,1.2,8.82,1.47,13.26,0.31,5,.18,10.11.33,15.17,0.17,6,1.29,6.95,6.05,5.53,4.26-1.26,8.15,0,10.36,4.1,2.8,5.14,5.69,10.67,6.8,16.47a190.66,190.66,0,0,1,2.22,55c-2.75,27.53-4.51,55.19-6.39,82.83-0.42,6.22.37,12.55,0.62,19.25,3.81,0.56,5.44,3.84,6,7.84,1.18,8.63,2.56,17.27,3.09,26,0.51,8.38,4.61,11.75,11.23,8.2,6-3.22,13.88.82,16,9.12a116.88,116.88,0,0,1,3.46,21.68,153.85,153.85,0,0,1-.61,23c-1.59,17.64-3.7,35.22-5.32,52.86-0.35,3.85.41,7.85,0.8,11.77,0.36,3.64,1.56,7.33,1.28,10.88-1.74,21.47-4,42.88-9.13,63.72-0.15.59-.29,1.18-0.46,1.77A79.19,79.19,0,0,0,86-419.32c-0.75,16-3.12,31.85-5,47.74a39.37,39.37,0,0,1-2,7.47c-2.78,8.54-9.06,9.66-14.65,2.9-4.68-5.65-7.26-12.33-9.24-19.7-1.46-5.42-4.34-10.34-6.58-15.48Z" transform="translate(13.88 932.17)" fill="#fff"/>
    <path id="cloud-05" d="M448.36-609a354.49,354.49,0,0,1,11.59-67.73c0-.16.12-0.32,0.16-0.48,0.65-2.77.49-6.49,2.22-8,1.35-1.2,5,.27,7.68.61,6.7,0.86,12-4,12.73-10.74,1.74-15.44,4.41-30.78,5.8-46.25,2.7-30.23,4.34-60.55,7.28-90.75,1.76-18.1,5.55-36,7.7-54.06,1.68-14.1,2.21-28.33,3.39-42.5,0.1-1.14,1.26-2.2,1.92-3.29,0.77,0.88,1.55,1.76,2.31,2.66a0.91,0.91,0,0,1,.14.48c2.37,25.5,8.62,50.39,7.93,76.48s0.45,52.64,8.87,77.95c2.27,6.81,5.66,13.26,7.58,20.15,1.65,5.92,1.75,12.27,2.92,18.35,0.6,3.13,2,6.11,3.11,9.14,0.28,0.76.9,1.41,1.12,2.18,3.07,10.8,6.62,21.5,9,32.46a126.69,126.69,0,0,1,2.38,24c0.17,9.1-.73,18.21-1,27.32a9.2,9.2,0,0,0,1.43,4.69c5.33,8.79,10.27,17.9,16.43,26.06,3.27,4.33,8.58,7.19,13.23,10.3,2.59,1.73,5.76,2.53,8.59,3.92a6.6,6.6,0,0,1,4,7.41c-2.25,15.35-4.42,30.7-6.83,46-0.84,5.31-2.53,10.47-3.37,15.78-0.5,3.12-1.83,3.83-4.68,3.64-7.39-.5-13.46,4.46-14.54,12.05-1.84,12.87-3.7,25.75-5.07,38.67-5.47,51.5-10.3,103.07-16.33,154.5-2.19,18.69-6.46,37.22-11,55.51-1.83,7.42-6.33,14.39-10.65,20.86-2.88,4.32-9.77,3.77-13-.53-7.71-10.26-10.54-22.3-10.56-34.95-0.05-24.74,2.07-49.44,0-74.24-1.37-16.36-4.54-32.23-8.39-48.05-0.32-1.3-1.76-3.19-2.8-3.28-3.68-.31-4.43-2.45-5.12-5.62-3.65-16.63-1.47-33.24-.61-49.93,1.36-26.39,4.72-52.89-1.22-79.17a138.2,138.2,0,0,0-4.31-14.53c-1-2.91-8.3-3.81-13.2-2.3-3.26,1-6.81,2.19-10,1.75-2.07-.28-5.09-3.17-5.4-5.23a288.37,288.37,0,0,1-3.15-31.1C446.36-595.45,447.72-602.22,448.36-609Z" transform="translate(13.88 932.17)" fill="#fff"/>
    <path id="cloud-04" d="M788.91-727.26c-0.65,10.89-1.1,20.06-1.77,29.2-1,13.29-3.16,26.47-2.17,39.92,0.59,8.06,2.11,16.14,1.86,24.15-0.22,7-2,14.08-3.7,20.88-1.21,4.87-3.84,6-7.77,4.85-5.71-1.72-9.89-7.38-10.8-14.91q-2.55-21.12-4.94-42.26c-0.35-3.09-.93-4.9-3.89-5-1.41,0-3.16-2.26-4.05-4.07a16.52,16.52,0,0,1-1.34-6.63c-0.34-18.11-1.7-36.36-.39-54.28,0.88-12,2.69-24.57,7.82-35.54A29.42,29.42,0,0,0,760.12-781c0.71-10.38,6.29-14.48,12.8-17.66,2.78-1.36,5.54-2.78,8.32-4.16,8.61-4.3,11.38-13.22,11.55-24.21,0.17-10.62.13-21.25,0.61-31.85a260.2,260.2,0,0,1,3.84-35c1.55-8.52.79-17.74,1-26.65,0.08-3,0-6.07,0-9.11l0.9,0q0,2.45,0,4.9c0,20.66.29,41.34-.07,62-0.24,14.16.94,27.89,4.54,41.26a82.23,82.23,0,0,1,2.67,23.55c-0.56,23.52-.84,47-1.44,70.56-0.07,2.65-1,6.87-2.33,7.46-1.72.77-4.31-1.11-6.37-2.29C793.77-723.51,791.55-725.37,788.91-727.26Z" transform="translate(13.88 932.17)" fill="#fff"/>
    <path id="cloud-03" d="M286.29-569c3.55,7.24,7.9,6.67,12.33,3.36,1.23-.92,2.24-3.11,1.91-4.45-3.2-13.2-2.36-26.17.29-39.47,2.37-11.9,2.08-24.2,3.44-36.28,1.15-10.19,2.75-20.35,4.56-30.47,2.27-12.67,5.49-25.23,7.25-38,1-7-.32-14.24-0.45-21.38-0.12-6.86-.06-13.72-0.09-20.58,0-2.22-.07-4.43-0.14-6.65,0-1.22-.76-2.84-0.13-3.6,6.62-8.09,2.17-17.35,3.62-26,1.42-8.41,1.73-17,3-25.4,0.59-3.86,3.17-7.54,3.4-11.37,0.55-9.26-.17-18.58.41-27.84,0.4-6.37,2.68-12.64,3.12-19,0.82-11.94,1.42-23.93,1.07-35.87-0.14-4.87-1.59-9.61,1.13-14.21a39.9,39.9,0,0,1,2.83-3.48c0.31,2.46.55,3.7,0.6,4.94,0.37,8.41.9,16.82,1,25.24,0.16,11.91,0,23.83,0,35.75a35.48,35.48,0,0,0,.44,4.69c1.18,8.7,2.78,17.38,3.47,26.12,0.53,6.67-.31,13.41-0.12,20.11,0.15,5.18.94,10.35,1.46,15.52a18.79,18.79,0,0,1,.36,3c-0.59,9.13-1.26,18.27-1.83,27.4a2.8,2.8,0,0,0,.84,2.33c5.34,2.9,4.55,7.92,5,12.19,1.63,14.8,2.49,29.67,4.18,44.46,1.37,12,3.51,23.91,5.3,35.82,8.57,0.55,8.11.67,9.36,8.49,1.37,8.59,4,17,5.74,25.56,0.74,3.59,2.21,3.61,5.62,2.38a92.41,92.41,0,0,1,14.59-3.83c6.51-1.2,8.36,0,8.62,6,0.37,8.54.84,17.17-.07,25.65-2.4,22.26.12,44.33,2.13,66.44,1.15,12.71,3.22,25.46,2.93,38.15a474.68,474.68,0,0,1-4.29,50c-2.75,21.25-6.84,42.36-9.62,63.61-1.08,8.27,0,16.74-.22,25.12-0.44,17.38.46,34.86-4.79,51.92-1,3.2-2.14,5.75-6.15,6-4.73.23-10,2-13.58-2.56a34,34,0,0,0-2.67-3.41c-4.62-4.48-9.43-4.3-11.94,1.24-6.8,15-13,30.19-19.3,45.37-1.43,3.47-.7,8-6.16,9.15-5,1-13-2.45-15.17-7.23a92.12,92.12,0,0,1-5.21-16c-6-23.42-5.23-47.09-1.89-70.66,1.78-12.57-1.63-24.24-4.79-36.1-0.58-2.19-1.4-4.34-2.18-6.49-1.37-3.79-3.86-5.77-8.78-4.91-4.55.8-6.35-2.18-7.33-5.36-4.23-13.63-4.56-27.5-3.14-41.49C278-461.56,280-478,280.91-494.51c0.64-10.94-.87-22-0.39-32.93,0.53-12.15,2.19-24.27,3.47-36.39C284.13-565.06,285-566.22,286.29-569Z" transform="translate(13.88 932.17)" fill="#fff"/>
    <path id="cloud-02" d="M672.85-929.59c0.1,1.42.14,2.85,0.3,4.27,1.92,17.9.82,35.79,0.19,53.73-0.65,18.51-2,37.11.29,55.6,0.46,3.7,2.56,7.29,2.43,10.85-1.29,37.43,4.38,74.27,5.24,111.47,0.19,8.26-2,17-4.21,24.9-4.79,17-2.72,33.94-1.24,51a9.14,9.14,0,0,0,5.87,7.92c4,1.78,5.9,5.23,6.27,10.54,0.69,9.92,1.67,19.7-.65,29.66-1.12,4.83-1,10.36-.62,15.5q1.38,20.69,3.51,41.29a65.85,65.85,0,0,0,3.18,13.05,6.18,6.18,0,0,0,3.24,3.71c2.84,0.86,3.47,3.23,3.68,6.35q1.37,20.51,2.78,41c0.55,8,3.5,11.05,9.7,10.46,10.16-1,8.52-3,9.83,10.89a120.85,120.85,0,0,1-1.56,31.89,25.89,25.89,0,0,0-.27,5.88c1,15.68,2.24,31.33,3,47a60.75,60.75,0,0,1-1.32,13.51,4.88,4.88,0,0,1-3.15,3.32c-0.89.15-2.15-1.75-3-3-1.43-2.16-2.55-4.65-4-6.81-2.68-4.05-5.76-7.73-8.16-12-1.55-2.78-3.21-2.26-5-1.67-2.95,1-4.75,3.65-4.81,7.54-0.07,4.6.86,9.31,0.4,13.81-1.51,14.95-3.45,29.82-5.19,44.73a21.16,21.16,0,0,0-.23,5c2.91,22.94-.36,45.05-5.24,67-0.75,3.37-2.08,4.77-4.83,5.54-10.81,3-15.54-5.32-17.1-18.48-2.79-23.57-3.74-47.53-5-71.37-0.26-5,2-10,2.36-15.15a271.89,271.89,0,0,0,0-45.83C658-374,657-391.52,656-409a63.12,63.12,0,0,1,1.25-15.89c1.82-8.68,1.5-17.26.9-26-2.66-38.55-5.34-77.1-7.72-115.68-0.49-7.87.9-15.94,0.3-23.77-1.14-14.91-1.39-29.64,1.32-44.3a7.24,7.24,0,0,0,0-2.75c-1.82-8.23,1-14.95,4.15-21.57a3.48,3.48,0,0,1,.57-1.16c6.8-5.15,5-14.18,5.68-21.87,0.84-10.16.92-20.43,1.26-30.65,0.24-7.33.27-14.67,0.59-22,0.16-3.77.69-7.53,1.17-11.27,0.57-4.5,2.09-9.08,1.74-13.43-0.72-9,.84-17.65,1.43-26.46,0.8-11.87.91-23.82,1.28-35.73,0.55-17.51.81-35,1.66-52.54,0.83-16.9,1.46-33.75-.06-50.62-0.11-1.22-.16-2.45-0.15-3.68a3.46,3.46,0,0,1,.43-1.12Z" transform="translate(13.88 932.17)" fill="#fff"/>
    <path id="cloud-01" d="M230.29-929.58a38.9,38.9,0,0,1,.74,5.5q-0.22,39.7-.57,79.4c-0.18,18.94-.73,37.89-0.6,56.83a28.88,28.88,0,0,0,3.44,12.75c3.41,6.28,1.65,12.61,1.43,19-0.2,6-1.45,12.27-.33,17.79a22.13,22.13,0,0,0,7.24,11.78c6.5,5.19,8.94,12,8.79,21.53s2,17.53,9.43,22.23c1.88,1.19,3.23,5.12,3.81,8.12,1.52,7.73,2.67,15.61,3.57,23.51,0.48,4.19.82,8.77,0,12.76-2.7,13.16-5.85,26.17-9.09,39.14a22,22,0,0,1-3.8,7.46c-5.14,6.95-13.9,5.38-16.45-3.56-2.22-7.8-2.89-16.31-4.56-24.4-0.75-3.61-2.28-6.95-3.45-10.41-1.61,3.1-3.56,6-4.74,9.34-1.61,4.57-2.49,9.56-3.94,14.24-2.24,7.28-6.2,8.8-9.56,2.4-3.53-6.73-5.33-15.07-7.46-22.9a49.57,49.57,0,0,1-1.33-11.59c-0.2-8.58-4.13-13.77-9.39-17.64-3.22-2.37-4.31-5.59-4.29-10.16,0.11-17.46-.22-34.94.27-52.37,0.12-4.44,2.11-9.28,4.21-13a182.48,182.48,0,0,1,13.16-20.27c5.59-7.45,8.07-16.36,8.67-26.27,0.81-13.61.67-27.35,2-40.85,1.3-12.76,1.41-25.7,5.69-38.1,5-14.49,5.32-30.51,5.15-46.32-0.07-6.57-.13-13.14-0.07-19.71a58.91,58.91,0,0,1,.69-6.23h1.27Z" transform="translate(13.88 932.17)" fill="#fff"/>
    <circle id="single-star" cx="400" cy="-291.16" r="1.5" transform="translate(336.92 1129.73) rotate(-45)" fill="#fff"/>
    <g id="speedline">
      <line x1="413.88" y1="340.2" x2="413.88" y2="622.34" fill="none" stroke="#fff" stroke-linecap="round" stroke-miterlimit="10"/>
      <circle id="_circle_" data-name="&lt;circle&gt;" cx="400" cy="-302.58" r="1.5" transform="translate(345 1126.39) rotate(-45)" fill="#fff"/>
    </g>
    <circle id="cGuide02" cx="413.88" cy="1332.17" r="399.65" fill="none" stroke="#ff2703" stroke-miterlimit="10" stroke-width="0.7"/>
    <line id="cGuide-" x1="413.88" y1="1233.17" x2="413.88" y2="1431.17" fill="none" stroke="#ff2703" stroke-miterlimit="10" stroke-width="0.7"/>
    <line id="cGuide--2" data-name="cGuide-" x1="314.88" y1="1332.17" x2="512.88" y2="1332.17" fill="none" stroke="#ff2703" stroke-miterlimit="10" stroke-width="0.7"/>
  </g>
</svg>
