<svg id="svg-landscape" xmlns="http://www.w3.org/2000/svg" xmlns:xlink="http://www.w3.org/1999/xlink" viewBox="0 0 800 800">
  <defs>
    <linearGradient id="linear-gradient" x1="2315.48" x2="2315.48" y2="622.5" gradientUnits="userSpaceOnUse">
      <stop offset="0" stop-opacity="0.8"/>
      <stop offset="1" stop-opacity="0"/>
    </linearGradient>
    <linearGradient id="linear-gradient-2" x1="368.87" y1="559.15" x2="405.09" y2="702.77" gradientUnits="userSpaceOnUse">
      <stop offset="0.39" stop-color="#324450"/>
      <stop offset="0.4" stop-color="#415562"/>
    </linearGradient>
  </defs>
  <title>svg-neon</title>
  <g id="landscape-clouds">
    <path id="cloud" d="M166.25,253.27a41.55,41.55,0,0,0-5.8-1.63c-5.22-.71-10.51-1-15.72-1.83a82.75,82.75,0,0,1-9.31-2.44c-1.16-.32-1.45-0.86-1-2.1,1.28-3.85,4.91-4.63,8.31-5.44a76.42,76.42,0,0,1,15.59-1.76c11.1-.34,22.09,1.06,33.15.85q5.15-.1,10.29-0.5a8.29,8.29,0,0,0,2.45-1.06,3.5,3.5,0,0,1,1.07-.46c2.42-.15,4.84-0.3,7.26-0.35,3.42-.06,6.84,0,10.26-0.06a3.94,3.94,0,0,0,1-.44,22.66,22.66,0,0,0-1.57-3c-1.17-1.61-1.1-2.81.7-3.9a27.31,27.31,0,0,1,13.61-3.62c9.92-.31,19.7,1,29.47,2.2,8.15,1,16.25,2.43,24.36,3.74a33.68,33.68,0,0,1,3.8,1.23,61.86,61.86,0,0,0,7.89,2.13c8.19,1.22,16.4,2.47,24.65,3.24,10.28,1,20.62,1.43,30.93,2.17,2.42,0.17,4.86,1,7.21.81,4-.37,7,2.17,10.72,2.52s7.37,1.44,11.07,2.12,7.18,1.16,10.75,1.81a21,21,0,0,1,3,1l-0.15.68-2.83.26c-5.37.46-10.74,0.9-16.11,1.39-1.95.18-3.87,0.55-5.82,0.68-2.21.14-4.44,0.08-6.66,0.15-2.62.08-3.05,0.59-2.43,2.79a3.92,3.92,0,0,1-1.8,4.78,25.08,25.08,0,0,1-7.23,3.14,79.7,79.7,0,0,1-24.17,1c-12.09-1.27-24.23-2.08-36.36-2.95a78.77,78.77,0,0,0-8.45.28c-0.25,1.76-1.69,2.51-3.44,2.76-3.79.54-7.58,1.18-11.4,1.42s-5.16,2.13-3.6,5.18c1.41,2.77-.36,6.41-4,7.39a49,49,0,0,1-9.52,1.6,64.28,64.28,0,0,1-10.1-.28c-7.75-.73-15.46-1.71-23.21-2.46a26.38,26.38,0,0,0-5.17.37c-1.6.17-3.22,0.72-4.78,0.59-9.43-.81-18.82-1.82-28-4.21l-0.78-.21a33.21,33.21,0,0,0-8-1.29c-7-.35-14-1.44-21-2.3a16.62,16.62,0,0,1-3.28-.93c-3.75-1.28-4.24-4.18-1.27-6.76a21.7,21.7,0,0,1,8.65-4.27,48.68,48.68,0,0,0,6.8-3Z" fill="#fff"/>
    <path id="cloud-2" data-name="cloud" d="M670.78,270.43c-1.83,0-3.67,0-5.5,0-12.7.47-25.41,1.06-38.11,1.41-4.56.13-9.15,0.77-13.71-.36-3.77-.94-7.6-1.64-11.41-2.42a6.78,6.78,0,0,0-1.81-.18c-13.06.92-26.14,1.62-39,4.37A88.89,88.89,0,0,1,549,274.56c-12.15.87-24.31,1.54-36.44,2.54-4.21.35-8.34,1.48-12.52,2.19-4.51.77-9.09,1.26-13.53,2.26a103.06,103.06,0,0,0-13.14,3.78c-9.42,3.48-19.14,4.24-29.09,3.28-8.2-.79-16.41-1.54-24.58-2.59-6.08-.79-12.09-2-18.12-3.09a7.28,7.28,0,0,1-2.24-.84,2.4,2.4,0,0,1,.19-4.27c2.79-1,5.69-1.83,8.55-2.68,5.33-1.59,10.71-3,16-4.76,2.41-.78,4.25-4.42,3.59-6.73a2.88,2.88,0,0,0-1.91-1.55,94.05,94.05,0,0,0-11.35-2c-7.42-.6-14.41-2.72-21.52-4.46-3.82-.93-7.59-1.75-10.86-3.92a10.28,10.28,0,0,1-4.55-5.76c-0.57-2,.12-3.58,2.32-4.07,4.59-1,9.2-2.24,13.87-2.59,12.75-1,25.54-1.57,38.32-2.2a46.5,46.5,0,0,1,6.42.56,21,21,0,0,0,3,.23c12.84-.69,25.68-1.62,38.53-2.05A107.65,107.65,0,0,1,496,236.95c4.2,0.49,5.51,3.94,2.94,7.09-1.33,1.64-2.82,3.17-4.22,4.77-1,1.11-.69,1.71.86,2a59.4,59.4,0,0,0,16.34.79c2.4-.19,4.16.09,5.14,2.5,0.31,0.75,1.9,1.31,3,1.47,4,0.57,8.07.78,12,1.44a10.17,10.17,0,0,1,4.31,2.11,5.3,5.3,0,0,0,4,1.36c12-1,24.1-2,36.15-3,3.9-.32,7.38.11,10.54,2.72,2.42,2,5.7.92,8.62,0.68,2.42-.19,4.82-0.55,7.22-0.86,2.63-.34,4.59,1.23,6.85,2a24.09,24.09,0,0,0,5.65,1.29c5.05,0.35,10.12.41,15.18,0.67,2.54,0.13,5,.33,7.25,1.9,1.22,0.84,3.18.92,4.84,1.06,4,0.34,7.94.53,11.91,0.75a23.67,23.67,0,0,0,4.25.07c4.25-.54,8.09.66,11.89,2.1v0.57Z" fill="#fff"/>
    <path id="cloud-3" data-name="cloud" d="M827,456.82A130,130,0,0,1,845.16,459l0.13,0a6,6,0,0,1,2.14.42c0.32,0.26-.07,1-0.16,1.46-0.23,1.28,1.07,2.28,2.87,2.43,4.13,0.33,8.23.84,12.36,1.1,8.08,0.51,16.19.83,24.26,1.39,4.84,0.34,9.62,1.06,14.45,1.47,3.77,0.32,7.58.42,11.36,0.65a2.89,2.89,0,0,1,.88.37l-0.71.44a0.32,0.32,0,0,1-.13,0c-6.82.45-13.47,1.64-20.45,1.51s-14.07.08-20.84,1.69c-1.82.43-3.55,1.08-5.39,1.44-1.58.31-3.28,0.33-4.91,0.56a21.38,21.38,0,0,0-2.44.59c-0.2.05-.38,0.17-0.58,0.21-2.89.59-5.75,1.26-8.68,1.71a47.12,47.12,0,0,1-6.42.45c-2.43,0-4.87-.14-7.31-0.19a3.21,3.21,0,0,0-1.25.27c-2.35,1-4.78,2-7,3.13a11.28,11.28,0,0,0-2.75,2.52,12.18,12.18,0,0,0-1,1.64,2,2,0,0,1-2,.76c-4.1-.43-8.21-0.84-12.3-1.3-1.42-.16-2.8-0.48-4.22-0.64-0.83-.09-1-0.35-1-0.89,0.13-1.41-1.19-2.56-3.22-2.77-3.44-.35-6.88-0.71-10.34-1-13.77-1-27.56-2-41.31-3.11-5-.42-9.95-1.23-14.84-2.09a22.22,22.22,0,0,1-5.58-2c-1.16-.55-1-1.86.14-2.48a19.72,19.72,0,0,1,9.34-2c6.61,0,13.22.39,19.85,0a115,115,0,0,0,12.85-1.6,1.25,1.25,0,0,0,.88-0.53c0.08-.7.66-0.84,1.5-1,4.45-.7,8.89-0.28,13.35-0.12,7.06,0.26,14.14.9,21.17-.23,1.32-.21,2.61-0.51,3.88-0.82,0.78-.19,1-1.58.62-2.52a3.53,3.53,0,0,1-.47-1.91,1.91,1.91,0,0,1,1.4-1c2.75-.29,5.53-0.52,8.32-0.6C823.44,456.44,825.25,456.7,827,456.82Z" fill="#fff"/>
    <path id="cloud-4" data-name="cloud" d="M482,520c-0.23,0-.46.06-0.69,0.07l-22.48.4c-2.37,0-4.75.14-7.12,0.11-2.82,0-5.65-.18-8.47-0.28a2.45,2.45,0,0,0-.77,0c-1.64.55-3.38,0.32-5.08,0.37-3.27.1-6.55,0.1-9.82,0.2a7.83,7.83,0,0,0-4.63,1.29,5.35,5.35,0,0,1-3.83.67,2.73,2.73,0,0,1-1.31-.7,2.83,2.83,0,0,0-1.71-.68,8.89,8.89,0,0,1-2.08-.48,19.66,19.66,0,0,0-6.82-1.27q-6.93.15-13.87,0.25c-0.69,0-1.11.05-1.12,0.68s-0.74,1-1.57,1.3a19.61,19.61,0,0,1-6.66.87,27.57,27.57,0,0,0-6.77.58,5.62,5.62,0,0,0-2.76,1.43,2,2,0,0,1-1.17.45c-3.13.09-6.26,0.21-9.38,0.16-1.74,0-3.48-.35-5.22-0.54-0.14,0-.28,0-0.42-0.05-2.83-.08-5.65-0.16-8.48-0.22-5.58-.11-11.15-0.34-16.75-0.23a43.85,43.85,0,0,1-6.51-.84c-1.31-.18-2.64-0.28-3.94-0.5a23.29,23.29,0,0,1-3.21-.74,1.09,1.09,0,0,1-.67-0.86c0-.45.64-0.4,1.13-0.41l47.09-.85,0.94,0a3.6,3.6,0,0,0-1.42-2c-0.48-.26-0.71-0.73-1.18-1a21.84,21.84,0,0,0-2.67-1.39c-1.43-.61-1.91-1.47-1.14-2.39a1.44,1.44,0,0,1,.9-0.41c4.88-.11,9.76-0.27,14.64-0.25,3.06,0,6.12.34,9.19,0.5,1.28,0.07,2.59,0,3.85.09,3.69,0.39,7.37,0,11.06,0,1.35,0,2.7,0,4-.07,0.94,0,1.2-.21,1.2-0.88s0-1,0-1.57,0.23-.61.87-0.61a25,25,0,0,1,3.35,0,34.89,34.89,0,0,1,3.88,1c1,0.26,2,.58,3,0.78a27.6,27.6,0,0,0,5.86.29,4.43,4.43,0,0,1,1.46.38,17.09,17.09,0,0,1,1.89.75,4.3,4.3,0,0,1,1.48.93,12.12,12.12,0,0,0,3.24,2.45,7.13,7.13,0,0,0,3.24.94c2.88,0.32,5.74.77,8.63,1,2.64,0.19,5.32.1,8,.17,0.9,0,1.8.26,2.7,0.27,1.6,0,3.21-.08,4.82,0s3.3,0.2,4.95.27c2,0.09,3.94.18,5.92,0.2s3.79-.06,5.68,0c2.24,0,4.49.12,6.73,0.18Z" fill="#fff"/>
    <path id="cloud-5" data-name="cloud" d="M1291.58,358.33c-6.71-.36-12.37-0.61-18-1-8.2-.55-16.33-1.77-24.62-1.21-5,.33-10,1.18-14.89,1a68.54,68.54,0,0,1-12.88-2.07c-3-.67-3.72-2.14-3-4.34,1.06-3.19,4.55-5.52,9.19-6q13-1.42,26.06-2.76c1.91-.19,3-0.52,3.07-2.17,0-.78,1.4-1.76,2.51-2.26a11.12,11.12,0,0,1,4.09-.75c11.17-.19,22.42-0.95,33.48-0.22,7.38,0.49,15.15,1.5,21.92,4.36a19.73,19.73,0,0,0,6.21,1.31c6.4,0.39,8.93,3.51,10.89,7.15,0.84,1.55,1.71,3.09,2.57,4.64,2.65,4.81,8.15,6.35,14.93,6.45,6.55,0.09,13.11.07,19.64,0.34a176.69,176.69,0,0,1,21.57,2.14c5.26,0.86,10.94.44,16.44,0.56,1.87,0,3.75,0,5.62,0l0,0.5h-3c-12.74,0-25.49.16-38.23,0a100.19,100.19,0,0,0-25.45,2.54,55.79,55.79,0,0,1-14.52,1.49c-14.5-.31-29-0.47-43.51-0.8-1.63,0-4.24-.56-4.6-1.3-0.48-1,.68-2.41,1.41-3.56C1289.28,361,1290.42,359.8,1291.58,358.33Z" fill="#fff"/>
    <path id="cloud-6" data-name="cloud" d="M4463.7,342.44c-6.71-.36-12.37-0.61-18-1-8.2-.55-16.33-1.77-24.62-1.21-5,.33-10,1.18-14.89,1a68.54,68.54,0,0,1-12.88-2.07c-3-.67-3.72-2.14-3-4.34,1.06-3.19,4.55-5.52,9.19-6q13-1.42,26.06-2.76c1.91-.19,3-0.52,3.07-2.17,0-.78,1.4-1.76,2.51-2.26a11.12,11.12,0,0,1,4.09-.75c11.17-.19,22.42-0.95,33.48-0.22,7.38,0.49,15.15,1.5,21.92,4.36a19.73,19.73,0,0,0,6.21,1.31c6.4,0.39,8.93,3.51,10.89,7.15,0.84,1.55,1.71,3.09,2.57,4.64,2.65,4.81,8.15,6.35,14.93,6.45,6.55,0.09,13.11.07,19.64,0.34a176.69,176.69,0,0,1,21.57,2.14c5.26,0.86,10.94.44,16.44,0.56,1.87,0,3.75,0,5.62,0l0,0.5h-3c-12.74,0-25.49.16-38.23,0a100.19,100.19,0,0,0-25.45,2.54,55.79,55.79,0,0,1-14.52,1.49c-14.5-.31-29-0.47-43.51-0.8-1.63,0-4.24-.56-4.6-1.3-0.48-1,.68-2.41,1.41-3.56C4461.39,345.15,4462.53,343.91,4463.7,342.44Z" fill="#fff"/>
    <path id="cloud-7" data-name="cloud" d="M1655.15,354.25c-3.55.88-3.29,1.93-1.69,3a4,4,0,0,0,2.16.45,87.64,87.64,0,0,1,19.23-.07c5.79,0.53,11.78.41,17.66,0.7,5,0.24,9.91.59,14.83,1,6.17,0.5,12.27,1.23,18.46,1.61,3.41,0.21,6.94-.13,10.42-0.19s6.69-.06,10-0.1l3.24-.06a6.54,6.54,0,0,1,1.76,0c3.91,1.57,8.45.46,12.64,0.78s8.26,0.35,12.36.63c1.88,0.13,3.66.74,5.53,0.78,4.51,0.1,9.06-.11,13.57,0,3.1,0.07,6.15.6,9.25,0.68,5.81,0.15,11.65.26,17.48,0.13,2.37-.05,4.69-0.42,6.92.22,0.41,0.12.77,0.3,1.68,0.67-1.2.08-1.8,0.15-2.41,0.16-4.1.12-8.2,0.28-12.3,0.34-5.81.08-11.61,0.09-17.42,0.13-0.76,0-1.53.07-2.29,0.12-4.25.32-8.48,0.73-12.74,0.93-3.25.15-6.53,0-9.8,0-2.52.05-5,.27-7.57,0.41-0.49,0-1,.11-1.46.1-4.45-.11-8.9-0.24-13.34-0.34a2.32,2.32,0,0,0-1.14.21c-1.44,1.3-3.88,1.13-6,1.26-7.22.45-14.47,0.71-21.69,1.17-5.85.37-11.67,0.93-17.48,1.41-0.31,2.07-.36,2-4.18,2.29-4.19.36-8.31,1-12.48,1.48-1.75.19-1.77,0.55-1.19,1.37A14.07,14.07,0,0,1,1689,379c0.55,1.57,0,2-2.94,2.1-4.16.12-8.37,0.27-12.5,0.08-10.84-.5-21.6.19-32.39,0.76-6.2.33-12.42,0.87-18.61,0.85-8.13,0-16.26-.4-24.34-0.85-10.34-.59-20.61-1.5-31-2.09-4-.23-8.16.06-12.24,0-8.47,0-17,.24-25.28-1-1.56-.23-2.79-0.49-2.87-1.46-0.09-1.14-.92-2.4,1.31-3.29,0.56-.22,1.18-0.4,1.68-0.66,2.21-1.13,2.14-2.29-.55-2.88-7.27-1.59-14.65-3-22-4.49-1.68-.33-3.92-0.14-4.43-1.45s1.25-3.14,3.6-3.69c2.5-.59,5.17-1,7.82-1.32a175.86,175.86,0,0,1,34.44-.72c6.12,0.38,11.82-.48,17.61-1.29,1.07-.15,2.12-0.35,3.17-0.55,1.85-.35,2.83-1,2.43-2.14s1.09-1.54,2.65-1.79a100.37,100.37,0,0,1,20.23-.91c8,0.34,16,.76,24.06.94,5.33,0.11,10.71-.29,16-0.21,5.92,0.08,11.82.44,17.72,0.7A19.31,19.31,0,0,1,1655.15,354.25Z" fill="#fff"/>
    <path id="cloud-8" data-name="cloud" d="M193.87,504.64c-1.14.28-1.06,0.62-.55,1a1.29,1.29,0,0,0,.7.14,28.26,28.26,0,0,1,6.2,0c1.87,0.17,3.8.13,5.7,0.22,1.6,0.08,3.19.19,4.78,0.32,2,0.16,4,.4,6,0.52,1.1,0.07,2.24,0,3.36-.06l3.23,0,1,0a2.11,2.11,0,0,1,.57,0c1.26,0.51,2.72.15,4.08,0.25s2.66,0.11,4,.2c0.61,0,1.18.24,1.78,0.25,1.45,0,2.92,0,4.37,0,1,0,2,.19,3,0.22,1.87,0,3.76.08,5.64,0a7.42,7.42,0,0,1,2.23.07c0.13,0,.25.1,0.54,0.22l-0.78.05c-1.32,0-2.64.09-4,.11-1.87,0-3.74,0-5.62,0-0.25,0-.49,0-0.74,0-1.37.1-2.74,0.24-4.11,0.3-1,0-2.11,0-3.16,0-0.81,0-1.63.09-2.44,0.13-0.16,0-.32,0-0.47,0l-4.3-.11a0.75,0.75,0,0,0-.37.07,3.19,3.19,0,0,1-1.92.41c-2.33.14-4.67,0.23-7,.38-1.89.12-3.76,0.3-5.64,0.45-0.1.67-.12,0.63-1.35,0.74s-2.68.33-4,.48c-0.57.06-.57,0.18-0.38,0.44a4.54,4.54,0,0,1,.58,1.13c0.18,0.51,0,.65-0.95.68-1.34,0-2.7.09-4,0-3.49-.16-7,0.06-10.44.24-2,.1-4,0.28-6,0.27-2.62,0-5.24-.13-7.85-0.28-3.33-.19-6.65-0.48-10-0.67-1.3-.07-2.63,0-3.95,0a58.93,58.93,0,0,1-8.15-.31c-0.5-.07-0.9-0.16-0.93-0.47s-0.3-.77.42-1.06c0.18-.07.38-0.13,0.54-0.21,0.71-.36.69-0.74-0.18-0.93-2.35-.51-4.72-1-7.1-1.45-0.54-.11-1.26,0-1.43-0.47a1.26,1.26,0,0,1,1.16-1.19c0.81-.19,1.67-0.31,2.52-0.42a56.7,56.7,0,0,1,11.11-.23,27.74,27.74,0,0,0,5.68-.42c0.35,0,.68-0.11,1-0.18,0.6-.11.91-0.31,0.78-0.69s0.35-.5.85-0.58a32.36,32.36,0,0,1,6.52-.29c2.58,0.11,5.17.25,7.76,0.3,1.72,0,3.45-.09,5.18-0.07,1.91,0,3.81.14,5.71,0.23A6.23,6.23,0,0,1,193.87,504.64Z" fill="#fff"/>
    <path id="cloud-9" data-name="cloud" d="M1813,557.08c-0.4,0-.8,0-1.2.08a117.27,117.27,0,0,1-15.13,0c-5.21-.17-10.45-0.52-15.66.07a23.43,23.43,0,0,1-3.05.62c-10.54-.33-20.92,1.12-31.39,1.34a26.87,26.87,0,0,1-7-1.07c-4.78-1.22-9.56-.69-14.36-0.32a2.55,2.55,0,0,0-2.23,1.5c-0.5,1-1.47,1.5-3,1.6a30.55,30.55,0,0,1-8.35-.17,17,17,0,0,0-4.36-.16q-5.83.35-11.63,0.9a20.17,20.17,0,0,0-3.68.81,1.69,1.69,0,0,0-1,.83c-0.24.73-.91,0.88-1.79,0.94l-11.55.71c-2.24.14-3.11,0.89-2.95,2.47,0.27,2.59.84,2.17-3.07,2.51a37.55,37.55,0,0,1-9-.4,8,8,0,0,0-1.66-.07c-4.42.26-8.82,0.57-13.24,0.77a18.84,18.84,0,0,1-3.8-.34,1.32,1.32,0,0,1-.94-0.8,1.57,1.57,0,0,1,.85-0.76c0.61-.36,1.31-0.65,1.92-1,1.14-.68,2.18-1.47,3.39-2.08a0.84,0.84,0,0,0,.47-1.27,2.09,2.09,0,0,0-2.12-1.23c-1.3,0-2.62.22-3.89,0.1-4.21-.38-8.4-0.88-12.6-1.32a6.58,6.58,0,0,0-1.4-.06c-6.46.74-12.69-.09-18.86-1.34a1.69,1.69,0,0,1-1.56-1.23c-0.86-2.76,1.5-4,5.21-4.36,6.64-.71,13.39-1,20.1-1.27,1.4-.07,2.83.5,4.27,0.6a84.58,84.58,0,0,0,12.91,0c4.91-.4,9.85-0.68,14.79-0.91a19.6,19.6,0,0,1,4.47.32,29.13,29.13,0,0,0,7.32.23c10.86-.68,21.71-1.36,32.58-2,2.22-.12,4.49.23,6.7,0.08a52.92,52.92,0,0,1,12.48.34,2.25,2.25,0,0,0,.77,0,9.81,9.81,0,0,1,6.08,1.06,1,1,0,0,1,.33.15c1.45,1.73,4,1.29,6.16,1.45,2.86,0.21,5.75.23,8.63,0.32,2.06,0.06,4.13.07,6.2,0.15,1.06,0,2.12.18,3.17,0.3a21.18,21.18,0,0,0,3.78.44,55,55,0,0,1,7.45.36c3.34,0.2,6.71.23,10.06,0.33,4.93,0.14,9.87.21,14.8,0.42a113.45,113.45,0,0,0,14.26,0c0.34,0,.69,0,1,0a1,1,0,0,1,.32.11Z" fill="#fff"/>
    <path id="cloud-10" data-name="cloud" d="M362.78,498.82l-0.79,0a77.52,77.52,0,0,1-10,0,71.47,71.47,0,0,0-10.35,0,15.49,15.49,0,0,1-2,.41c-7-.22-13.83.74-20.75,0.88a17.76,17.76,0,0,1-4.64-.71c-3.16-.81-6.32-0.46-9.49-0.21a1.69,1.69,0,0,0-1.47,1,2.08,2.08,0,0,1-2,1.06,20.2,20.2,0,0,1-5.52-.11,11.22,11.22,0,0,0-2.88-.11q-3.85.23-7.69,0.59a13.33,13.33,0,0,0-2.43.54,1.12,1.12,0,0,0-.69.55,1.11,1.11,0,0,1-1.18.62l-7.64.47c-1.48.09-2.06,0.59-1.95,1.63,0.18,1.71.56,1.44-2,1.66a24.82,24.82,0,0,1-5.94-.26,5.32,5.32,0,0,0-1.1,0c-2.92.17-5.83,0.38-8.76,0.51a12.46,12.46,0,0,1-2.51-.22,0.87,0.87,0,0,1-.62-0.53,1,1,0,0,1,.56-0.5c0.4-.24.87-0.43,1.27-0.67,0.75-.45,1.44-1,2.24-1.38a0.55,0.55,0,0,0,.31-0.84,1.38,1.38,0,0,0-1.4-.81c-0.86,0-1.73.14-2.57,0.07-2.78-.25-5.55-0.58-8.33-0.87a4.35,4.35,0,0,0-.93,0,39.61,39.61,0,0,1-12.47-.88,1.12,1.12,0,0,1-1-.81c-0.57-1.82,1-2.62,3.44-2.88,4.39-.47,8.85-0.63,13.29-0.84a25.5,25.5,0,0,1,2.82.4,55.91,55.91,0,0,0,8.53,0c3.25-.26,6.51-0.45,9.78-0.6a13,13,0,0,1,3,.21,19.26,19.26,0,0,0,4.84.15c7.18-.45,14.35-0.9,21.54-1.3,1.46-.08,3,0.15,4.43.05a35,35,0,0,1,8.25.22,1.49,1.49,0,0,0,.51,0,6.49,6.49,0,0,1,4,.7,0.68,0.68,0,0,1,.22.1c1,1.15,2.64.85,4.07,1,1.89,0.14,3.8.15,5.71,0.21,1.36,0,2.73,0,4.1.1,0.7,0,1.4.12,2.1,0.2a14,14,0,0,0,2.5.29,36.36,36.36,0,0,1,4.93.24c2.21,0.13,4.43.15,6.65,0.22,3.26,0.09,6.53.14,9.78,0.28a75,75,0,0,0,9.42,0c0.23,0,.46,0,0.69,0a0.69,0.69,0,0,1,.21.07v0.18Z" fill="#fff"/>
    <path id="cloud-11" data-name="cloud" d="M962.3,556.57a0.68,0.68,0,0,1-.14.16l-3.88.41c-0.3,0-.59.11-0.89,0.16a5.47,5.47,0,0,1-.74.12l-4.69.18a1.22,1.22,0,0,0-.93.34,0.93,0.93,0,0,1-.52.09c-0.25,0-.49-0.1-0.73-0.1-1.29,0-2.58.05-3.86,0.15a14.54,14.54,0,0,1-3.08-.23c-0.37,0-.75-0.07-1.13-0.09-0.69,0-1.37-.11-2.06-0.12s-1.4.07-2.09,0-1.48-.2-2.22-0.3a1.53,1.53,0,0,0-.2-0.06c-1.5,0-3-.37-4.47-0.12a1,1,0,0,0-.65.41,1.47,1.47,0,0,1-1.39.66l-8.5.33a0.31,0.31,0,1,0-.1.47c0.43,0.19.9,0.35,1.32,0.55a0.61,0.61,0,0,1,.31.33c0.14,0.44,0,.53-0.6.56l-2.81.11a4.14,4.14,0,0,1-1.72-.13,1.38,1.38,0,0,0-.49,0c-0.68,0-1.36.07-2,.07a40.15,40.15,0,0,1-4.77,0,30.57,30.57,0,0,0-5.47-.08,9.13,9.13,0,0,1-2-.2c-0.41-.06-0.42-0.46-0.06-0.73,0.59-.44.5-0.78-0.31-1a6.41,6.41,0,0,0-1.42-.18,18.77,18.77,0,0,1-3.39-.09,12.47,12.47,0,0,0-2,0c-1,0-2-.1-3-0.11a19.74,19.74,0,0,1-3-.09c-1.25-.2-2.55-0.24-3.83-0.36-0.8-.08-1.11-0.68-0.58-1.15a2.2,2.2,0,0,1,1.46-.54c0.9,0,1.8-.09,2.7-0.09a7.61,7.61,0,0,0,2.77-.48,3.5,3.5,0,0,1,1-.19l12.63-.48,0.73,0a1.17,1.17,0,0,0,0-.26c-0.05-.34.17-0.45,0.64-0.47l9.1-.34c0.66,0,1.32-.08,2-0.07s1.22,0.09,1.84.12c0.44,0,.88,0,1.32,0a2.23,2.23,0,0,1,1.09.27,3.83,3.83,0,0,0,1.52.32c1.43,0,2.87-.1,4.3-0.13a5.17,5.17,0,0,1,.94.14c0.49,0.08,1,.2,1.48.24,0.86,0.08,1.73.12,2.59,0.18a4.55,4.55,0,0,1,.49,0c1,0.18,2,.32,2.88.57a13.27,13.27,0,0,0,4.66.62c1-.08,2,0,3-0.14a24.4,24.4,0,0,1,2.9,0,25,25,0,0,1,5,.63,25.58,25.58,0,0,0,5.46.11c0.56,0,1.12.06,1.69,0.07,0.77,0,1.54,0,2.3,0C961.3,556.61,961.76,556.59,962.3,556.57Z" fill="#fff"/>
    <path id="cloud-12" data-name="cloud" d="M737.28,430.21c-1.73.17-3.51,0.21-5.18,0.54-2.84.56-5.54,1.66-8.41,1.9-6.71.58-13.48,0.85-20.23,1.12-3.76.15-4,.24-4.85,2.8a2.88,2.88,0,0,1-2.16,1.08c-9.92-1.84-20-.81-30.06-1.1-6.24-.18-12.48-0.45-18.73-0.53-1.6,0-3.2.67-4.84,0.78a24.69,24.69,0,0,1-6.19,0,63.85,63.85,0,0,1-7.36-2.31c-3.74-1.2-6.9-1.16-8,2.07-0.76,2.23-3,1.48-5,1.5-4.49,0-9,0-13.47.13a3.7,3.7,0,0,0-1.93.62c-2,1.5-4.2,1.37-6.74.89-4.18-.79-8.5-1.34-11.89-3.42a16.58,16.58,0,0,1-2.15-2.1,3.17,3.17,0,0,0-1.63-1c-7.85-.09-15.71-0.1-23.56-0.12-0.91,0-1.81.07-2.72,0.07H520c-3.63,0-4.43,1-3.65,3.48a16,16,0,0,1,.9,7.1c-0.15,1-2.41,2.36-4.09,2.74a33.65,33.65,0,0,1-7.29.29c-6.45,0-12.91-.05-19.35-0.19-2.16,0-4.32,0-5-2.32-0.21-.74-3.65-1.23-5.7-1.49-24.4-3.1-49-1.11-73.56-1.5A93.29,93.29,0,0,1,370.61,435c-2.22-.83-2.39-2-2.32-3.48s1.62-1.53,3-2.05c4.07-1.56,8.47-1.61,12.89-1.81,6-.27,12-0.86,18.07-0.92a52.78,52.78,0,0,1,9.23,1.23c2.6,0.44,5.12,1.44,7.72,1.54,8.5,0.32,17,.44,25.55.45,7.88,0,15.77-.22,23.65-0.39a41.21,41.21,0,0,0,5.89-.48c1.19-.2,3.21-0.91,3.16-1.29a4.27,4.27,0,0,0-1.88-3c-2.47-1.5-3.5-3.23-3.52-5.46,0-1.76,1-2.39,3.44-2.38,7.91,0,15.82,0,23.73,0,5.36,0,10.73-.1,16.09,0,3.78,0.09,7.56.41,11.32,0.78a7.51,7.51,0,0,1,3.13,1.08c4.57,2.92,10.42,2.93,16,3.39a36.19,36.19,0,0,0,13.55-1.13,2.2,2.2,0,0,0,.71-0.25c2.57-2.27,6.13-2.12,9.71-2,5,0.15,9.94.25,14.92,0.37a6.94,6.94,0,0,1,1.08.06c4.92,0.92,9.79,2,14.77,2.73a68.43,68.43,0,0,0,10.75.62,92.67,92.67,0,0,1,18,1.25,5.77,5.77,0,0,1,2.88,1.32c3.4,3.56,8.47,4.54,14.1,4.79,4.24,0.19,8.47.6,12.71,0.59s8.71-.47,13.07-0.61c5.79-.19,11.59-0.27,17.38-0.39a36.89,36.89,0,0,0,3.81,0,14.25,14.25,0,0,0,2.52-.9,6.76,6.76,0,0,1,2.37-.61c2.94,0.24,5.83.74,8.77,1,3.85,0.29,7.73.51,11.6,0.57,5.45,0.08,10.91,0,16.37,0,0.85,0,1.69.06,2.54,0.1v0.55Z" fill="#fff"/>
    <path id="cloud-13" data-name="cloud" d="M2199.47,430.21c-1.73.17-3.51,0.21-5.18,0.54-2.84.56-5.54,1.66-8.41,1.9-6.71.58-13.48,0.85-20.23,1.12-3.76.15-4,.24-4.85,2.8a2.88,2.88,0,0,1-2.16,1.08c-9.92-1.84-20-.81-30.06-1.1-6.24-.18-12.48-0.45-18.73-0.53-1.6,0-3.2.67-4.84,0.78a24.69,24.69,0,0,1-6.19,0,63.85,63.85,0,0,1-7.36-2.31c-3.74-1.2-6.9-1.16-8,2.07-0.76,2.23-3,1.48-5,1.5-4.49,0-9,0-13.47.13a3.7,3.7,0,0,0-1.93.62c-2,1.5-4.2,1.37-6.74.89-4.18-.79-8.5-1.34-11.89-3.42a16.58,16.58,0,0,1-2.15-2.1,3.17,3.17,0,0,0-1.63-1c-7.85-.09-15.71-0.1-23.56-0.12-0.91,0-1.81.07-2.72,0.07h-32.2c-3.63,0-4.43,1-3.65,3.48a16,16,0,0,1,.9,7.1c-0.15,1-2.41,2.36-4.09,2.74a33.65,33.65,0,0,1-7.29.29c-6.45,0-12.91-.05-19.35-0.19-2.16,0-4.32,0-5-2.32-0.21-.74-3.65-1.23-5.7-1.49-24.4-3.1-49-1.11-73.56-1.5a93.29,93.29,0,0,1-31.66-6.21c-2.22-.83-2.39-2-2.32-3.48s1.62-1.53,3-2.05c4.07-1.56,8.47-1.61,12.89-1.81,6-.27,12-0.86,18.07-0.92a52.78,52.78,0,0,1,9.23,1.23c2.6,0.44,5.12,1.44,7.72,1.54,8.5,0.32,17,.44,25.55.45,7.88,0,15.77-.22,23.65-0.39a41.21,41.21,0,0,0,5.89-.48c1.19-.2,3.21-0.91,3.16-1.29a4.27,4.27,0,0,0-1.88-3c-2.47-1.5-3.5-3.23-3.52-5.46,0-1.76,1-2.39,3.44-2.38,7.91,0,15.82,0,23.73,0,5.36,0,10.73-.1,16.09,0,3.78,0.09,7.56.41,11.32,0.78a7.51,7.51,0,0,1,3.13,1.08c4.57,2.92,10.42,2.93,16,3.39a36.19,36.19,0,0,0,13.55-1.13,2.2,2.2,0,0,0,.71-0.25c2.57-2.27,6.13-2.12,9.71-2,5,0.15,9.94.25,14.92,0.37a6.94,6.94,0,0,1,1.08.06c4.92,0.92,9.79,2,14.77,2.73a68.43,68.43,0,0,0,10.75.62,92.67,92.67,0,0,1,18,1.25,5.77,5.77,0,0,1,2.88,1.32c3.4,3.56,8.47,4.54,14.1,4.79,4.24,0.19,8.47.6,12.71,0.59s8.71-.47,13.07-0.61c5.79-.19,11.59-0.27,17.38-0.39a36.89,36.89,0,0,0,3.81,0,14.25,14.25,0,0,0,2.52-.9,6.76,6.76,0,0,1,2.37-.61c2.94,0.24,5.83.74,8.77,1,3.85,0.29,7.73.51,11.6,0.57,5.45,0.08,10.91,0,16.37,0,0.85,0,1.69.06,2.54,0.1v0.55Z" fill="#fff"/>
    <path id="cloud-14" data-name="cloud" d="M3829,430.21c-1.73.17-3.51,0.21-5.18,0.54-2.84.56-5.54,1.66-8.41,1.9-6.71.58-13.48,0.85-20.23,1.12-3.76.15-4,.24-4.85,2.8a2.88,2.88,0,0,1-2.16,1.08c-9.92-1.84-20-.81-30.06-1.1-6.24-.18-12.48-0.45-18.73-0.53-1.6,0-3.2.67-4.84,0.78a24.69,24.69,0,0,1-6.19,0,63.85,63.85,0,0,1-7.36-2.31c-3.74-1.2-6.9-1.16-8,2.07-0.76,2.23-3,1.48-5,1.5-4.49,0-9,0-13.47.13a3.7,3.7,0,0,0-1.93.62c-2,1.5-4.2,1.37-6.74.89-4.18-.79-8.5-1.34-11.89-3.42a16.58,16.58,0,0,1-2.15-2.1,3.17,3.17,0,0,0-1.63-1c-7.85-.09-15.71-0.1-23.56-0.12-0.91,0-1.81.07-2.72,0.07h-32.2c-3.63,0-4.43,1-3.65,3.48a16,16,0,0,1,.9,7.1c-0.15,1-2.41,2.36-4.09,2.74a33.65,33.65,0,0,1-7.29.29c-6.45,0-12.91-.05-19.35-0.19-2.16,0-4.32,0-5-2.32-0.21-.74-3.65-1.23-5.7-1.49-24.4-3.1-49-1.11-73.56-1.5a93.29,93.29,0,0,1-31.66-6.21c-2.22-.83-2.39-2-2.32-3.48s1.62-1.53,3-2.05c4.07-1.56,8.47-1.61,12.89-1.81,6-.27,12-0.86,18.07-0.92a52.78,52.78,0,0,1,9.23,1.23c2.6,0.44,5.12,1.44,7.72,1.54,8.5,0.32,17,.44,25.55.45,7.88,0,15.77-.22,23.65-0.39a41.21,41.21,0,0,0,5.89-.48c1.19-.2,3.21-0.91,3.16-1.29a4.27,4.27,0,0,0-1.88-3c-2.47-1.5-3.5-3.23-3.52-5.46,0-1.76,1-2.39,3.44-2.38,7.91,0,15.82,0,23.73,0,5.36,0,10.73-.1,16.09,0,3.78,0.09,7.56.41,11.32,0.78a7.51,7.51,0,0,1,3.13,1.08c4.57,2.92,10.42,2.93,16,3.39a36.19,36.19,0,0,0,13.55-1.13,2.2,2.2,0,0,0,.71-0.25c2.57-2.27,6.13-2.12,9.71-2,5,0.15,9.94.25,14.92,0.37a6.94,6.94,0,0,1,1.08.06c4.92,0.92,9.79,2,14.77,2.73a68.43,68.43,0,0,0,10.75.62,92.67,92.67,0,0,1,18,1.25,5.77,5.77,0,0,1,2.88,1.32c3.4,3.56,8.47,4.54,14.1,4.79,4.24,0.19,8.47.6,12.71,0.59s8.71-.47,13.07-0.61c5.79-.19,11.59-0.27,17.38-0.39a36.89,36.89,0,0,0,3.81,0,14.25,14.25,0,0,0,2.52-.9,6.76,6.76,0,0,1,2.37-.61c2.94,0.24,5.83.74,8.77,1,3.85,0.29,7.73.51,11.6,0.57,5.45,0.08,10.91,0,16.37,0,0.85,0,1.69.06,2.54,0.1v0.55Z" fill="#fff"/>
    <path id="cloud-15" data-name="cloud" d="M879.27,526.68a22.65,22.65,0,0,1-2.91-.41c-1.59-.43-3.11-1.27-4.72-1.46-3.77-.44-7.56-0.65-11.35-0.86-2.11-.12-2.25-0.19-2.72-2.15a1.53,1.53,0,0,0-1.21-.83c-5.57,1.41-11.25.63-16.87,0.84-3.5.14-7,.35-10.51,0.41a26.3,26.3,0,0,1-2.72-.6,10.16,10.16,0,0,0-3.47,0,29.34,29.34,0,0,0-4.13,1.78c-2.1.92-3.87,0.89-4.49-1.59-0.43-1.71-1.7-1.14-2.79-1.15-2.52,0-5,0-7.56-.1a1.73,1.73,0,0,1-1.09-.48c-1.1-1.15-2.36-1.06-3.78-.69-2.35.61-4.77,1-6.67,2.62a11.58,11.58,0,0,0-1.21,1.62,1.78,1.78,0,0,1-.91.76c-4.41.07-8.81,0.08-13.22,0.09-0.51,0-1-.05-1.53-0.05H757.32c-2,0-2.49-.8-2-2.67a16.56,16.56,0,0,0,.5-5.45c-0.09-.8-1.35-1.81-2.29-2.1a13.87,13.87,0,0,0-4.09-.22c-3.62,0-7.24,0-10.86.15-1.21,0-2.43,0-2.8,1.78-0.12.57-2,.94-3.2,1.14-13.69,2.38-27.52.85-41.28,1.15A40.38,40.38,0,0,0,673.48,523c-1.25.64-1.34,1.54-1.3,2.67s0.91,1.17,1.67,1.57c2.28,1.2,4.75,1.24,7.23,1.39,3.38,0.21,6.76.66,10.14,0.71a22.18,22.18,0,0,0,5.18-.94c1.46-.34,2.87-1.1,4.33-1.18,4.77-.25,9.56-0.34,14.34-0.34,4.42,0,8.85.17,13.27,0.3a17.07,17.07,0,0,1,3.3.37c0.67,0.15,1.8.7,1.77,1a3.58,3.58,0,0,1-1.06,2.3,5.11,5.11,0,0,0-2,4.19c0,1.35.59,1.83,1.93,1.82,4.44,0,8.88,0,13.32,0,3,0,6,.08,9,0,2.12-.07,4.25-0.32,6.35-0.6a3.55,3.55,0,0,0,1.75-.83c2.57-2.24,5.85-2.25,9-2.6a15.1,15.1,0,0,1,7.61.87,1,1,0,0,1,.4.19c1.44,1.75,3.44,1.63,5.45,1.54,2.79-.12,5.58-0.19,8.37-0.29a2.86,2.86,0,0,0,.61,0c2.76-.71,5.49-1.55,8.29-2.09a28.23,28.23,0,0,1,6-.48,38.33,38.33,0,0,0,10.09-1,3,3,0,0,0,1.62-1c1.91-2.74,4.75-3.49,7.92-3.68,2.38-.14,4.76-0.46,7.13-0.46s4.89,0.36,7.34.47c3.25,0.15,6.5.21,9.75,0.3a15.15,15.15,0,0,1,2.14,0,6.73,6.73,0,0,1,1.42.69,3,3,0,0,0,1.33.47c1.65-.18,3.27-0.57,4.92-0.74,2.16-.22,4.34-0.39,6.51-0.44,3.06-.06,6.12,0,9.19,0,0.47,0,.95,0,1.42-0.07v-0.43Z" fill="#fff"/>
    <path id="cloud-16" data-name="cloud" d="M310,315.64a6.54,6.54,0,0,0,.22-1.48c-0.16-1.5.63-1.88,2.09-1.82,7,0.26,14.07.56,21.1,0.66,8,0.11,16,0,24,.06,7.75,0.1,15.5.42,23.25,0.53,1.34,0,2.68-.69,4-0.8a39.77,39.77,0,0,1,5.26,0,3.2,3.2,0,0,1,1.45.69c4.1,2.79,8.91,3.54,13.74,4.49a47.76,47.76,0,0,1,10.09,3.52,22.41,22.41,0,0,0,9.79,1.69c7.76-.12,15.53-0.23,23.28-0.08,3.32,0.06,6.62.87,10,1.18,4.35,0.4,8.71.86,13.07,0.91,12.06,0.14,24.12.09,36.18,0.1h16.38L524,325.9a7.71,7.71,0,0,1-1.52.3c-15.69-.09-31.38-0.25-47.06-0.3q-22.25-.08-44.5,0c-4.54,0-9.08.73-13.62,0.69-8.3-.07-16.6-0.8-24.89-0.61-6,.14-11.88,1.31-17.82,2.05a2.62,2.62,0,0,0-1.51.55c-2.26,2.53-5.34,2-8.28,2-3.77,0-7.54-.07-11.3.06a4.59,4.59,0,0,0-3.08,1.11c-5.46,7-6.17,4.74-13.65,7-3.78,1.13-7.51,2.39-11.31,3.44a27.59,27.59,0,0,1-7.22,1.4c-6.32,0-12.64-.47-19-0.72-2.2-.09-3.38-1-3.06-3.15,0.28-1.89-.67-3.15-2.27-4.23a39,39,0,0,1-3.64-3.09,20.39,20.39,0,0,0-13.48-5.27c-0.94,0-1.89-.07-2.82,0-10,.8-19.77-0.82-29.38-3.34a22.58,22.58,0,0,1-3.83-.91,5.53,5.53,0,0,1-2.84-7.81c1.65-3.29,4.35-4.23,8.16-2.92s7.41,3,11.28,3.64a21.16,21.16,0,0,0,9.39-.52,28.92,28.92,0,0,1,13.24-.79c7.8,1.34,15.58,1,23.38,1.11C305.6,315.67,307.77,315.64,310,315.64Z" fill="#fff"/>
    <path id="cloud-17" data-name="cloud" d="M1050.66,405.45c-0.49,0-1,.11-1.48.11-20,.23-40.1.33-60.14,0.74a156.74,156.74,0,0,0-17.83,1.78,11,11,0,0,0-4.92,2.23c-2.66,2.09-5.7,2.83-9.68,2.75-8.7-.18-17.42.12-26.12-0.1a236.63,236.63,0,0,0-39.77,2.41,8.7,8.7,0,0,1-1.85.22c-6.75-.54-10.94,2-14.05,5.77-2.51,3-6.21,4.21-11.07,4-2.89-.13-5.81,0-8.69-0.18-3.84-.24-6.94-1.39-8.83-3.93-2.14-2.88-5.69-4.1-10.25-4-11,.29-21.89-0.06-32.57-2.1a50.42,50.42,0,0,1-6.72-1.67c-4.3-1.46-5.27-4.76-1.91-7.19a15.55,15.55,0,0,1,6.48-2.92c16-2.31,32-4.46,48.42-5a54.38,54.38,0,0,0,9.94-1.24c3.6-.8,3.94-2.27,1.12-4.06a68.47,68.47,0,0,0-7-3.62c-2.73-1.31-3.43-3.12-3.07-5.31,0.84-5,2.11-5.88,9.23-5.84,17.15,0.1,34.14,1.15,50.56,4.87,3.69,0.84,7.18,2.11,10.74,3.23,4.82,1.51,9.95,2.69,14.33,4.69a44.26,44.26,0,0,1,11,7.06c4.16,3.72,9,5.15,15.66,5,10.84-.3,21.72-0.33,32.55,0,6.16,0.21,12.22,1.67,18.4,2.09,4.18,0.29,8.48-.36,12.73-0.4,8.23-.08,16.47,0,24.7,0Z" fill="#fff"/>
    <path id="cloud-18" data-name="cloud" d="M154.31,373.88c0.23,0,.47.06,0.7,0.06,9.51,0.12,19,.18,28.53.4a66.07,66.07,0,0,1,8.46,1,5,5,0,0,1,2.33,1.2,6.21,6.21,0,0,0,4.59,1.48c4.13-.1,8.27.06,12.39-0.05a99.52,99.52,0,0,1,18.87,1.29,3.68,3.68,0,0,0,.88.12,6.91,6.91,0,0,1,6.67,3.09c1.19,1.62,2.95,2.26,5.25,2.15,1.37-.07,2.76,0,4.12-0.1a5.11,5.11,0,0,0,4.19-2.11c1-1.54,2.7-2.2,4.86-2.14a64,64,0,0,0,15.45-1.13,21.68,21.68,0,0,0,3.19-.89c2-.78,2.5-2.55.91-3.85a7,7,0,0,0-3.07-1.57,183.56,183.56,0,0,0-23-2.68,23,23,0,0,1-4.72-.66c-1.71-.43-1.87-1.21-0.53-2.18a31.32,31.32,0,0,1,3.31-1.94,2.52,2.52,0,0,0,1.45-2.85c-0.4-2.69-1-3.16-4.38-3.13a98.89,98.89,0,0,0-24,2.61c-1.75.45-3.41,1.13-5.09,1.73a55.34,55.34,0,0,0-6.8,2.51,20.89,20.89,0,0,0-5.22,3.79c-2,2-4.26,2.76-7.43,2.66-5.14-.16-10.31-0.18-15.44,0-2.92.11-5.8,0.9-8.73,1.12-2,.15-4-0.19-6-0.21-3.91,0-7.81,0-11.72,0Z" fill="#fff"/>
    <path id="cloud-19" data-name="cloud" d="M754.52,367.12a21.16,21.16,0,0,1-2.72.33q-19.65-.1-39.29-0.26c-9.37-.08-18.75-0.33-28.12-0.27a15.47,15.47,0,0,0-6.31,1.54c-3.11,1.53-6.24.74-9.4,0.64-3-.09-6.07-0.65-8.8-0.15A11.18,11.18,0,0,0,654,372.2c-2.57,2.91-5.95,4-10.65,3.94s-8.68.91-11,4.22c-0.59.84-2.53,1.45-4,1.71-3.83.68-7.73,1.2-11.63,1.6a23,23,0,0,1-6.32,0c-6.51-1.21-13-2.62-19.37-4.07a11.35,11.35,0,0,1-3.69-1.7c-3.44-2.3-2.66-6.23,1.76-7.37,3.86-1,8.07-1.29,12.08-2a47.25,47.25,0,0,0,5.15-1.54,38.14,38.14,0,0,0-4.62-2.12c-2.26-.72-4.73-1.12-7-1.76-3.6-1-4.35-2.78-1.19-4.28,3.33-1.58,7.46-2.39,11.33-3.34a27,27,0,0,1,5.74-.59,10.76,10.76,0,0,0,8.73-4.2c1.17-1.44,2.77-1.93,5-1.92,8.64,0,17.29-.1,25.92.12a16.09,16.09,0,0,1,6.45,1.89,91.84,91.84,0,0,1,10,5.89c3.69,2.5,8.1,3.62,13,3.88,6.73,0.36,13.54.3,20.22,0.92,6.32,0.58,12.72.63,18.85,2.55,7.17,2.24,15.1,2.38,22.92,2.31,3.25,0,6.5-.06,9.75,0,1,0,2.05.2,3.08,0.31v0.57Z" fill="#fff"/>
    <path id="cloud-20" data-name="cloud" d="M3497.14,367.12a21.16,21.16,0,0,1-2.72.33q-19.65-.1-39.29-0.26c-9.37-.08-18.75-0.33-28.12-0.27a15.47,15.47,0,0,0-6.31,1.54c-3.11,1.53-6.24.74-9.4,0.64-3-.09-6.07-0.65-8.8-0.15a11.18,11.18,0,0,0-5.83,3.24c-2.57,2.91-5.95,4-10.65,3.94s-8.68.91-11,4.22c-0.59.84-2.53,1.45-4,1.71-3.83.68-7.73,1.2-11.63,1.6a23,23,0,0,1-6.32,0c-6.51-1.21-13-2.62-19.37-4.07a11.35,11.35,0,0,1-3.69-1.7c-3.44-2.3-2.66-6.23,1.76-7.37,3.86-1,8.07-1.29,12.08-2a47.25,47.25,0,0,0,5.15-1.54,38.14,38.14,0,0,0-4.62-2.12c-2.26-.72-4.73-1.12-7-1.76-3.6-1-4.35-2.78-1.19-4.28,3.33-1.58,7.46-2.39,11.33-3.34a27,27,0,0,1,5.74-.59,10.76,10.76,0,0,0,8.73-4.2c1.17-1.44,2.77-1.93,5-1.92,8.64,0,17.29-.1,25.92.12a16.09,16.09,0,0,1,6.45,1.89,91.84,91.84,0,0,1,10,5.89c3.69,2.5,8.1,3.62,13,3.88,6.73,0.36,13.54.3,20.22,0.92,6.32,0.58,12.72.63,18.85,2.55,7.17,2.24,15.1,2.38,22.92,2.31,3.25,0,6.5-.06,9.75,0,1,0,2.05.2,3.08,0.31v0.57Z" fill="#fff"/>
    <path id="cloud-21" data-name="cloud" d="M3187.85,367.12a21.16,21.16,0,0,1-2.72.33q-19.65-.1-39.29-0.26c-9.37-.08-18.75-0.33-28.12-0.27a15.47,15.47,0,0,0-6.31,1.54c-3.11,1.53-6.24.74-9.4,0.64-3-.09-6.07-0.65-8.8-0.15a11.18,11.18,0,0,0-5.83,3.24c-2.57,2.91-5.95,4-10.65,3.94s-8.68.91-11,4.22c-0.59.84-2.53,1.45-4,1.71-3.83.68-7.73,1.2-11.63,1.6a23,23,0,0,1-6.32,0c-6.51-1.21-13-2.62-19.37-4.07a11.35,11.35,0,0,1-3.69-1.7c-3.44-2.3-2.66-6.23,1.76-7.37,3.86-1,8.07-1.29,12.08-2a47.25,47.25,0,0,0,5.15-1.54,38.14,38.14,0,0,0-4.62-2.12c-2.26-.72-4.73-1.12-7-1.76-3.6-1-4.35-2.78-1.19-4.28,3.33-1.58,7.46-2.39,11.33-3.34a27,27,0,0,1,5.74-.59,10.76,10.76,0,0,0,8.73-4.2c1.17-1.44,2.77-1.93,5-1.92,8.64,0,17.29-.1,25.92.12a16.09,16.09,0,0,1,6.45,1.89,91.84,91.84,0,0,1,10,5.89c3.69,2.5,8.1,3.62,13,3.88,6.73,0.36,13.54.3,20.22,0.92,6.32,0.58,12.72.63,18.85,2.55,7.17,2.24,15.1,2.38,22.92,2.31,3.25,0,6.5-.06,9.75,0,1,0,2.05.2,3.08,0.31v0.57Z" fill="#fff"/>
    <path id="cloud-22" data-name="cloud" d="M634.41,529.07a13,13,0,0,1-1.67.2q-12.07-.06-24.13-0.16c-5.76-.05-11.51-0.2-17.27-0.17a9.5,9.5,0,0,0-3.88.95c-1.91.94-3.83,0.45-5.77,0.39a27,27,0,0,0-5.41-.09,6.86,6.86,0,0,0-3.58,2c-1.58,1.79-3.65,2.46-6.54,2.42s-5.33.56-6.76,2.59a4.48,4.48,0,0,1-2.47,1c-2.35.42-4.74,0.73-7.14,1a14.15,14.15,0,0,1-3.88,0c-4-.74-8-1.61-11.89-2.5a7,7,0,0,1-2.27-1c-2.11-1.41-1.63-3.82,1.08-4.52,2.37-.61,5-0.8,7.42-1.26a29,29,0,0,0,3.16-.95,23.42,23.42,0,0,0-2.84-1.3c-1.39-.44-2.91-0.69-4.33-1.08-2.21-.62-2.67-1.7-0.73-2.63a37.8,37.8,0,0,1,7-2.05,16.58,16.58,0,0,1,3.52-.37,6.61,6.61,0,0,0,5.36-2.58,3.58,3.58,0,0,1,3.09-1.18c5.31,0,10.62-.06,15.92.07a9.88,9.88,0,0,1,4,1.16,56.4,56.4,0,0,1,6.16,3.62,15.39,15.39,0,0,0,8,2.38c4.14,0.22,8.31.19,12.41,0.56,3.88,0.36,7.81.39,11.58,1.56,4.4,1.37,9.27,1.46,14.08,1.42,2,0,4,0,6,0,0.63,0,1.26.12,1.89,0.19v0.35Z" fill="#fff"/>
    <path id="cloud-23" data-name="cloud" d="M2004.51,231.65c-1.83,0-3.67,0-5.5,0-12.7.36-25.41,0.81-38.11,1.08-4.56.1-9.15,0.59-13.71-.28-3.77-.72-7.6-1.25-11.41-1.85a8.81,8.81,0,0,0-1.81-.13c-13.06.7-26.14,1.23-39,3.34a115.64,115.64,0,0,1-12.26,1c-12.15.66-24.31,1.17-36.44,1.94-4.21.27-8.34,1.13-12.52,1.67-4.51.59-9.09,1-13.53,1.72a128.55,128.55,0,0,0-13.14,2.88,83.88,83.88,0,0,1-29.09,2.51c-8.2-.6-16.41-1.17-24.58-2-6.08-.6-12.09-1.54-18.12-2.36a8.79,8.79,0,0,1-2.24-.64,1.67,1.67,0,0,1,.19-3.26c2.79-.79,5.69-1.39,8.55-2,5.33-1.21,10.71-2.32,16-3.63,2.41-.6,4.25-3.37,3.59-5.14a2.83,2.83,0,0,0-1.91-1.18c-3.76-.59-7.53-1.26-11.35-1.5-7.42-.46-14.41-2.08-21.52-3.4-3.82-.71-7.59-1.33-10.86-3-2.22-1.13-3.85-2.51-4.55-4.4-0.57-1.55.12-2.73,2.32-3.1a127.11,127.11,0,0,1,13.87-2c12.75-.74,25.54-1.2,38.32-1.68a60.61,60.61,0,0,1,6.42.42,27.38,27.38,0,0,0,3,.18c12.84-.53,25.68-1.23,38.53-1.57a140.56,140.56,0,0,1,16.12.82c4.2,0.38,5.51,3,2.94,5.41-1.33,1.25-2.82,2.42-4.22,3.64-1,.85-0.69,1.31.86,1.54a77.55,77.55,0,0,0,16.34.6c2.4-.15,4.16.07,5.14,1.91,0.31,0.57,1.9,1,3,1.12,4,0.43,8.07.6,12,1.1a11.69,11.69,0,0,1,4.31,1.61,6.39,6.39,0,0,0,4,1c12-.77,24.1-1.5,36.15-2.27,3.9-.25,7.38.09,10.54,2.08,2.42,1.53,5.7.7,8.62,0.52,2.42-.15,4.82-0.42,7.22-0.66,2.63-.26,4.59.94,6.85,1.49a30.55,30.55,0,0,0,5.65,1c5.05,0.26,10.12.31,15.18,0.51,2.54,0.1,5,.26,7.25,1.45,1.22,0.64,3.18.7,4.84,0.81,4,0.26,7.94.4,11.91,0.57a31,31,0,0,0,4.25.05c4.25-.41,8.09.5,11.89,1.61v0.43Z" fill="#fff"/>
    <path id="cloud-24" data-name="cloud" d="M1265.34,465.53a237.67,237.67,0,0,1,33.1,4l0.24,0.05c1.35,0.23,3.17.17,3.92,0.77,0.59,0.47-.13,1.75-0.3,2.67-0.42,2.33,2,4.17,5.25,4.44,7.55,0.61,15,1.54,22.6,2,14.77,0.94,29.59,1.51,44.35,2.54,8.85,0.61,17.59,1.93,26.42,2.68,6.89,0.59,13.85.77,20.77,1.18a5.29,5.29,0,0,1,1.61.67l-1.3.8a0.58,0.58,0,0,1-.24,0c-12.46.83-24.63,3-37.38,2.76s-25.73.16-38.1,3.09c-3.33.79-6.48,2-9.85,2.64-2.89.58-6,.61-9,1A39.09,39.09,0,0,0,1323,498c-0.37.1-.69,0.32-1.06,0.39-5.28,1.07-10.51,2.31-15.87,3.12a86.14,86.14,0,0,1-11.73.83c-4.45.06-8.9-.25-13.35-0.34a5.87,5.87,0,0,0-2.29.5c-4.29,1.86-8.75,3.58-12.73,5.72-2.12,1.14-3.51,3-5,4.61a22.27,22.27,0,0,0-1.91,3,3.61,3.61,0,0,1-3.62,1.4c-7.5-.78-15-1.54-22.49-2.38-2.59-.29-5.12-0.88-7.71-1.17-1.53-.17-1.87-0.64-1.78-1.63,0.24-2.57-2.18-4.69-5.89-5.07-6.29-.64-12.58-1.29-18.9-1.77-25.17-1.9-50.37-3.59-75.51-5.69-9.14-.76-18.19-2.25-27.13-3.83a40.62,40.62,0,0,1-10.19-3.71c-2.11-1-1.84-3.4.26-4.53,5-2.69,10.9-3.67,17.08-3.68,12.09,0,24.16.72,36.28,0a210.25,210.25,0,0,0,23.48-2.92,2.29,2.29,0,0,0,1.6-1c0.15-1.28,1.2-1.54,2.74-1.78,8.13-1.27,16.24-.51,24.4-0.21,12.9,0.47,25.85,1.65,38.69-.43,2.4-.39,4.77-0.93,7.1-1.5,1.42-.35,1.86-2.89,1.12-4.6a6.44,6.44,0,0,1-.86-3.49,3.49,3.49,0,0,1,2.56-1.88c5-.53,10.12-1,15.2-1.1C1258.74,464.83,1262,465.31,1265.34,465.53Z" fill="#fff"/>
    <path id="cloud-25" data-name="cloud" d="M1283.87,314.45c-0.76.07-1.52,0.2-2.28,0.22l-74,1.3c-7.81.14-15.63,0.47-23.43,0.38-9.3-.12-18.59-0.6-27.88-0.92a8.08,8.08,0,0,0-2.53,0c-5.38,1.81-11.15,1-16.73,1.22-10.77.33-21.55,0.32-32.32,0.65-5.67.18-11.11,1.06-15.24,4.25-3.44,2.66-8.12,2.64-12.62,2.22-1.58-.15-3.15-1.34-4.32-2.3a9.33,9.33,0,0,0-5.64-2.23,29.29,29.29,0,0,1-6.86-1.58c-7.12-2.39-14.34-4.37-22.45-4.19q-22.82.49-45.65,0.81c-2.26,0-3.64.17-3.68,2.23s-2.44,3.35-5.16,4.28c-7,2.38-14.3,3-21.93,2.88s-15,.17-22.29,1.9a18.5,18.5,0,0,0-9.09,4.72,6.6,6.6,0,0,1-3.84,1.49c-10.3.3-20.61,0.68-30.9,0.52-5.74-.09-11.46-1.15-17.19-1.78-0.46-.05-0.92-0.16-1.38-0.17-9.3-.25-18.6-0.54-27.91-0.72-18.38-.36-36.72-1.12-55.15-0.76-7.1.14-14.28-1.82-21.44-2.77-4.31-.58-8.7-0.93-13-1.64A76.69,76.69,0,0,1,748.39,322a3.58,3.58,0,0,1-2.22-2.82c0-1.49,2.1-1.33,3.71-1.36L904.93,315,908,315c-1.3-2.37-1.63-4.78-4.67-6.44-1.57-.86-2.35-2.41-3.88-3.33a71.9,71.9,0,0,0-8.78-4.56c-4.69-2-6.29-4.82-3.74-7.86a4.73,4.73,0,0,1,3-1.35c16.06-.37,32.13-0.9,48.19-0.81,10.09,0.05,20.16,1.13,30.25,1.64,4.22,0.22,8.53-.14,12.68.31,12.16,1.3,24.28,0,36.42.09,4.44,0,8.88-.14,13.32-0.24,3.08-.07,3.94-0.7,4-2.91,0-1.73-.05-3.45-0.13-5.18-0.06-1.41.77-2,2.86-2,3.68,0,7.51-.58,11-0.07,4.39,0.64,8.52,2.13,12.77,3.25,3.29,0.87,6.52,1.91,9.9,2.55,6.31,1.2,12.8,1.13,19.3,1a14.6,14.6,0,0,1,4.82,1.26,56.27,56.27,0,0,1,6.21,2.47c1.79,0.88,3.93,1.8,4.88,3.08,2.55,3.43,6.83,5.56,10.68,8.08,3.11,2,6.72,2.66,10.66,3.09,9.48,1,18.88,2.54,28.41,3.22,8.7,0.62,17.52.32,26.28,0.58,3,0.09,5.91.85,8.88,0.9,5.28,0.09,10.58-.28,15.86-0.16,5.44,0.12,10.86.65,16.29,0.9,6.49,0.29,13,.58,19.49.67,6.23,0.09,12.47-.19,18.7-0.11,7.39,0.09,14.77.4,22.15,0.61Z" fill="#fff"/>
    <path id="cloud-26" data-name="cloud" d="M2368.18,314.45c-0.76.07-1.52,0.2-2.28,0.22l-74,1.3c-7.81.14-15.63,0.47-23.43,0.38-9.3-.12-18.59-0.6-27.88-0.92a8.08,8.08,0,0,0-2.53,0c-5.38,1.81-11.15,1-16.73,1.22-10.77.33-21.55,0.32-32.32,0.65-5.67.18-11.11,1.06-15.24,4.25-3.44,2.66-8.12,2.64-12.62,2.22-1.58-.15-3.15-1.34-4.32-2.3a9.33,9.33,0,0,0-5.64-2.23,29.29,29.29,0,0,1-6.86-1.58c-7.12-2.39-14.34-4.37-22.45-4.19q-22.82.49-45.65,0.81c-2.26,0-3.64.17-3.68,2.23s-2.44,3.35-5.16,4.28c-7,2.38-14.3,3-21.93,2.88s-15,.17-22.29,1.9a18.5,18.5,0,0,0-9.09,4.72,6.6,6.6,0,0,1-3.84,1.49c-10.3.3-20.61,0.68-30.9,0.52-5.74-.09-11.46-1.15-17.19-1.78-0.46-.05-0.92-0.16-1.38-0.17-9.3-.25-18.6-0.54-27.91-0.72-18.38-.36-36.72-1.12-55.15-0.76-7.1.14-14.28-1.82-21.44-2.77-4.31-.58-8.7-0.93-13-1.64A76.69,76.69,0,0,1,1832.7,322a3.58,3.58,0,0,1-2.22-2.82c0-1.49,2.1-1.33,3.71-1.36L1989.24,315l3.1-.06c-1.3-2.37-1.63-4.78-4.67-6.44-1.57-.86-2.35-2.41-3.88-3.33a71.9,71.9,0,0,0-8.78-4.56c-4.69-2-6.29-4.82-3.74-7.86a4.73,4.73,0,0,1,3-1.35c16.06-.37,32.13-0.9,48.19-0.81,10.09,0.05,20.16,1.13,30.25,1.64,4.22,0.22,8.53-.14,12.68.31,12.16,1.3,24.28,0,36.42.09,4.44,0,8.88-.14,13.32-0.24,3.08-.07,3.94-0.7,4-2.91,0-1.73-.05-3.45-0.13-5.18-0.06-1.41.77-2,2.86-2,3.68,0,7.51-.58,11-0.07,4.39,0.64,8.52,2.13,12.77,3.25,3.29,0.87,6.52,1.91,9.9,2.55,6.31,1.2,12.8,1.13,19.3,1a14.6,14.6,0,0,1,4.82,1.26,56.27,56.27,0,0,1,6.21,2.47c1.79,0.88,3.93,1.8,4.88,3.08,2.55,3.43,6.83,5.56,10.68,8.08,3.11,2,6.72,2.66,10.66,3.09,9.48,1,18.88,2.54,28.41,3.22,8.7,0.62,17.52.32,26.28,0.58,3,0.09,5.91.85,8.88,0.9,5.28,0.09,10.58-.28,15.86-0.16,5.44,0.12,10.86.65,16.29,0.9,6.49,0.29,13,.58,19.49.67,6.23,0.09,12.47-.19,18.7-0.11,7.39,0.09,14.77.4,22.15,0.61Z" fill="#fff"/>
    <path id="cloud-27" data-name="cloud" d="M3057.86,301.44c-0.76.07-1.52,0.2-2.28,0.22l-74,1.3c-7.81.14-15.63,0.47-23.43,0.38-9.3-.12-18.59-0.6-27.88-0.92a8.08,8.08,0,0,0-2.53,0c-5.38,1.81-11.15,1-16.73,1.22-10.77.33-21.55,0.32-32.32,0.65-5.67.18-11.11,1.06-15.24,4.25-3.44,2.66-8.12,2.64-12.62,2.22-1.58-.15-3.15-1.34-4.32-2.3a9.33,9.33,0,0,0-5.64-2.23,29.29,29.29,0,0,1-6.86-1.58c-7.12-2.39-14.34-4.37-22.45-4.19q-22.82.49-45.65,0.81c-2.26,0-3.64.17-3.68,2.23s-2.44,3.35-5.16,4.28c-7,2.38-14.3,3-21.93,2.88s-15,.17-22.29,1.9a18.5,18.5,0,0,0-9.09,4.72,6.6,6.6,0,0,1-3.84,1.49c-10.3.3-20.61,0.68-30.9,0.52-5.74-.09-11.46-1.15-17.19-1.78-0.46-.05-0.92-0.16-1.38-0.17-9.3-.25-18.6-0.54-27.91-0.72-18.38-.36-36.72-1.12-55.15-0.76-7.1.14-14.28-1.82-21.44-2.77-4.31-.58-8.7-0.93-13-1.64a76.69,76.69,0,0,1-10.58-2.45,3.58,3.58,0,0,1-2.22-2.82c0-1.49,2.1-1.33,3.71-1.36L2678.93,302l3.1-.06c-1.3-2.37-1.63-4.78-4.67-6.44-1.57-.86-2.35-2.41-3.88-3.33a71.9,71.9,0,0,0-8.78-4.56c-4.69-2-6.29-4.82-3.74-7.86a4.73,4.73,0,0,1,3-1.35c16.06-.37,32.13-0.9,48.19-0.81,10.09,0.05,20.16,1.13,30.25,1.64,4.22,0.22,8.53-.14,12.68.31,12.16,1.3,24.28,0,36.42.09,4.44,0,8.88-.14,13.32-0.24,3.08-.07,3.94-0.7,4-2.91,0-1.73-.05-3.45-0.13-5.18-0.06-1.41.77-2,2.86-2,3.68,0,7.51-.58,11-0.07,4.39,0.64,8.52,2.13,12.77,3.25,3.29,0.87,6.52,1.91,9.9,2.55,6.31,1.2,12.8,1.13,19.3,1a14.6,14.6,0,0,1,4.82,1.26,56.27,56.27,0,0,1,6.21,2.47c1.79,0.88,3.93,1.8,4.88,3.08,2.55,3.43,6.83,5.56,10.68,8.08,3.11,2,6.72,2.66,10.66,3.09,9.48,1,18.88,2.54,28.41,3.22,8.7,0.62,17.52.32,26.28,0.58,3,0.09,5.91.85,8.88,0.9,5.28,0.09,10.58-.28,15.86-0.16,5.44,0.12,10.86.65,16.29,0.9,6.49,0.29,13,.58,19.49.67,6.23,0.09,12.47-.19,18.7-0.11,7.39,0.09,14.77.4,22.15,0.61Z" fill="#fff"/>
    <path id="cloud-28" data-name="cloud" d="M1212.57,70.89c-4.78-.26-8.81-0.44-12.82-0.7-5.83-.39-11.62-1.26-17.53-0.86-3.54.24-7.09,0.84-10.6,0.74a48.79,48.79,0,0,1-9.17-1.47c-2.14-.48-2.65-1.53-2.13-3.09,0.75-2.27,3.24-3.93,6.54-4.29q9.27-1,18.55-2c1.36-.14,2.15-0.37,2.18-1.55,0-.56,1-1.25,1.79-1.61a7.91,7.91,0,0,1,2.91-.53c7.95-.14,16-0.68,23.83-0.15,5.26,0.35,10.79,1.07,15.6,3.11a14,14,0,0,0,4.42.94c4.55,0.28,6.36,2.5,7.75,5.09,0.6,1.11,1.22,2.2,1.83,3.3,1.89,3.42,5.8,4.52,10.63,4.59,4.66,0.07,9.33.05,14,.24a125.77,125.77,0,0,1,15.35,1.52c3.74,0.61,7.79.31,11.7,0.4,1.33,0,2.67,0,4,0V75h-2.15c-9.07,0-18.15.11-27.21,0a71.32,71.32,0,0,0-18.11,1.81,39.71,39.71,0,0,1-10.34,1.06c-10.32-.22-20.65-0.33-31-0.57-1.16,0-3-.4-3.28-0.93-0.34-.68.49-1.71,1-2.53S1211.74,71.94,1212.57,70.89Z" fill="#fff"/>
    <path id="cloud-29" data-name="cloud" d="M631,21.6c-7.8,1.94-7.23,4.25-3.73,6.58a8.83,8.83,0,0,0,4.75,1c14.19-1.81,28.08-1.46,42.3-.16,12.73,1.16,25.92.91,38.85,1.53,10.91,0.53,21.79,1.29,32.61,2.17,13.56,1.1,27,2.71,40.61,3.54,7.5,0.46,15.27-.28,22.92-0.41,7.35-.12,14.71-0.14,22.06-0.21,2.38,0,4.75-.07,7.13-0.13,1.31,0,3-.42,3.86-0.1,8.6,3.45,18.58,1,27.8,1.72,9,0.69,18.17.78,27.2,1.39,4.13,0.28,8.05,1.62,12.16,1.71,9.92,0.22,19.92-.24,29.84,0,6.82,0.16,13.52,1.32,20.35,1.5,12.79,0.34,25.63.56,38.44,0.28,5.22-.12,10.32-0.92,15.22.49,0.91,0.26,1.69.67,3.7,1.47-2.64.18-4,.32-5.31,0.36-9,.27-18,0.61-27.06.74-12.77.18-25.55,0.19-38.32,0.29-1.68,0-3.36.15-5,.27-9.34.7-18.66,1.62-28,2.05-7.15.33-14.37-.06-21.56,0.1-5.55.12-11.1,0.58-16.65,0.9-1.07.06-2.15,0.24-3.21,0.21-9.79-.24-19.57-0.52-29.35-0.75a5.09,5.09,0,0,0-2.5.47c-3.17,2.86-8.53,2.48-13.11,2.77-15.88,1-31.83,1.56-47.7,2.58-12.87.82-25.67,2.06-38.45,3.1-0.68,4.56-.8,4.31-9.2,5-9.22.8-18.28,2.25-27.46,3.26-3.86.42-3.89,1.2-2.61,3a31,31,0,0,1,4,7.72c1.22,3.45,0,4.44-6.47,4.63-9.16.27-18.42,0.58-27.5,0.17-23.84-1.09-47.52.42-71.24,1.67-13.64.72-27.32,1.91-40.93,1.86-17.88-.07-35.77-0.87-53.53-1.88-22.75-1.29-45.34-3.29-68.09-4.6-8.85-.51-17.95.13-26.92,0.08-18.63-.09-37.37.52-55.61-2.13-3.42-.5-6.15-1.09-6.32-3.22-0.2-2.51-2-5.27,2.88-7.23,1.22-.49,2.59-0.88,3.69-1.45,4.85-2.49,4.7-5-1.21-6.33-16-3.49-32.23-6.68-48.44-9.88-3.7-.73-8.62-0.31-9.74-3.2-1-2.64,2.76-6.9,7.91-8.11,5.49-1.3,11.38-2.12,17.19-2.89,25.17-3.37,50.53-3.16,75.76-1.57,13.46,0.85,26-1.06,38.75-2.84,2.36-.33,4.67-0.78,7-1.21,4.08-.76,6.23-2.1,5.35-4.7-0.81-2.41,2.4-3.39,5.82-3.94,14.65-2.35,29.53-2.64,44.51-2C515.92,18,533.53,19,551.21,19.34c11.72,0.25,23.56-.64,35.3-0.47,13,0.18,26,1,39,1.55A42.48,42.48,0,0,1,631,21.6Z" fill="#fff"/>
    <path id="cloud-30" data-name="cloud" d="M728,235.36c-2.69,1.12-2.48,2.52-1.25,4a2.1,2.1,0,0,0,1.65.63,38.31,38.31,0,0,1,14.63.24c4.41,0.81,9,.76,13.45,1.24,3.78,0.41,7.55,1,11.3,1.58,4.7,0.78,9.35,1.86,14.07,2.47,2.6,0.34,5.28-.05,7.93-0.07s5.09,0,7.63,0c0.82,0,1.64,0,2.46,0a2.86,2.86,0,0,1,1.34,0c3,2.16,6.43.76,9.63,1.26s6.29,0.62,9.42,1.06c1.43,0.2,2.8,1,4.22,1.14,3.43,0.21,6.89,0,10.32.24,2.36,0.15,4.69.91,7,1.07,4.43,0.31,8.87.54,13.3,0.47,1.8,0,3.56-.48,5.27.42a14.81,14.81,0,0,1,1.29.92c-0.91.09-1.37,0.16-1.83,0.18-3.12.09-6.24,0.23-9.36,0.23-4.42,0-8.84-.09-13.26-0.13a15.07,15.07,0,0,0-1.74.12c-3.23.35-6.45,0.83-9.69,1-2.47.15-5-.15-7.46-0.11-1.92,0-3.84.27-5.75,0.41a8,8,0,0,1-1.11.1c-3.39-.22-6.77-0.47-10.16-0.69a1.12,1.12,0,0,0-.86.26c-1.08,1.71-2.94,1.44-4.52,1.57-5.49.47-11,.69-16.49,1.18-4.45.4-8.87,1-13.28,1.57-0.21,2.76-.25,2.61-3.15,3-3.18.41-6.31,1.22-9.48,1.76-1.33.23-1.34,0.7-.88,1.8a26.86,26.86,0,0,1,1.42,4.71c0.44,2.1,0,2.69-2.21,2.75a73,73,0,0,1-9.51-.12c-8.25-.85-16.44-0.12-24.64.44-4.71.33-9.44,0.94-14.15,0.8-6.19-.18-12.38-0.81-18.53-1.56-7.88-1-15.71-2.36-23.58-3.33-3.07-.38-6.21-0.06-9.31-0.16-6.45-.21-12.93,0-19.25-1.73-1.19-.33-2.13-0.71-2.21-2-0.09-1.52-.73-3.21,1-4.36a12.38,12.38,0,0,0,1.27-.85c1.66-1.47,1.6-3-.46-3.85-5.56-2.24-11.19-4.31-16.82-6.38-1.29-.47-3-0.26-3.39-2a4.86,4.86,0,0,1,2.69-4.86,37.68,37.68,0,0,1,5.93-1.62c8.69-1.85,17.46-1.51,26.2-.35,4.66,0.62,9-.44,13.39-1.41,0.81-.18,1.61-0.44,2.41-0.68,1.41-.43,2.14-1.22,1.82-2.81s0.81-2,2-2.34a43.79,43.79,0,0,1,15.39-.86c6.1,0.6,12.2,1.3,18.32,1.67,4.06,0.24,8.15-.2,12.21,0,4.51,0.22,9,.79,13.49,1.25A9.83,9.83,0,0,1,728,235.36Z" fill="#fff"/>
    <path id="cloud-31" data-name="cloud" d="M4141.2,248.7c-2.17.9-2,2-1,3.2a1.69,1.69,0,0,0,1.33.51,30.94,30.94,0,0,1,11.82.19c3.56,0.65,7.25.61,10.86,1,3.05,0.33,6.09.77,9.12,1.27,3.8,0.63,7.56,1.5,11.36,2a48.24,48.24,0,0,0,6.4-.05c2.05,0,4.11,0,6.16,0l2,0a2.31,2.31,0,0,1,1.08,0c2.42,1.75,5.2.62,7.78,1s5.08,0.5,7.61.86c1.16,0.16,2.26.85,3.41,0.92,2.77,0.17,5.57,0,8.34.19,1.91,0.12,3.78.73,5.69,0.87,3.58,0.25,7.17.44,10.74,0.38,1.46,0,2.88-.39,4.26.34a12,12,0,0,1,1,.75c-0.74.07-1.11,0.13-1.48,0.14-2.52.07-5,.18-7.56,0.19-3.57,0-7.14-.07-10.71-0.1a12.17,12.17,0,0,0-1.4.1c-2.61.28-5.21,0.67-7.82,0.82-2,.12-4-0.12-6-0.09-1.55,0-3.1.21-4.65,0.33a6.43,6.43,0,0,1-.9.08c-2.74-.18-5.47-0.38-8.21-0.56a0.9,0.9,0,0,0-.7.21c-0.87,1.38-2.37,1.16-3.65,1.27-4.43.38-8.89,0.56-13.32,1-3.59.32-7.16,0.84-10.73,1.27-0.17,2.23-.2,2.11-2.55,2.41-2.57.33-5.1,1-7.66,1.42-1.08.18-1.08,0.56-.71,1.45a21.69,21.69,0,0,1,1.14,3.81c0.36,1.7,0,2.17-1.78,2.22a59,59,0,0,1-7.68-.09c-6.67-.69-13.28-0.1-19.9.36-3.81.26-7.63,0.76-11.43,0.65-5-.15-10-0.66-15-1.26-6.36-.78-12.69-1.9-19-2.69-2.48-.31-5-0.05-7.52-0.13-5.21-.17-10.44,0-15.55-1.4-1-.27-1.72-0.57-1.78-1.62-0.07-1.23-.59-2.59.77-3.52a10,10,0,0,0,1-.68c1.34-1.19,1.29-2.44-.37-3.11-4.49-1.81-9-3.48-13.58-5.15-1-.38-2.41-0.21-2.74-1.63a3.92,3.92,0,0,1,2.17-3.92,30.43,30.43,0,0,1,4.79-1.31c7-1.49,14.1-1.22,21.16-.28,3.76,0.5,7.26-.35,10.81-1.14,0.66-.15,1.3-0.35,1.95-0.55a1.77,1.77,0,0,0,1.47-2.27c-0.24-1.18.65-1.64,1.61-1.89a35.37,35.37,0,0,1,12.43-.69c4.93,0.48,9.86,1,14.8,1.35,3.28,0.2,6.58-.16,9.86,0,3.64,0.17,7.27.64,10.9,1A7.94,7.94,0,0,1,4141.2,248.7Z" fill="#fff"/>
    <path id="cloud-32" data-name="cloud" d="M1699.71,256.82c-0.62,0-1.25.06-1.87,0.12-7.86.76-15.71,0.33-23.59,0.08-8.13-.26-16.29-0.81-24.41.11-1.62.18-3.2,1-4.76,1-16.43-.51-32.6,1.74-48.94,2.08a41.89,41.89,0,0,1-10.93-1.67c-7.45-1.9-14.9-1.08-22.38-.49a4,4,0,0,0-3.48,2.33c-0.78,1.61-2.3,2.34-4.63,2.49-4.36.27-8.65,0.66-13-.26a26.47,26.47,0,0,0-6.8-.25q-9.08.55-18.13,1.4A31.44,31.44,0,0,0,1511,265a2.64,2.64,0,0,0-1.63,1.29c-0.38,1.13-1.42,1.38-2.79,1.46q-9,.54-18,1.11c-3.49.22-4.85,1.39-4.59,3.85,0.43,4,1.32,3.38-4.78,3.91a58.53,58.53,0,0,1-14-.62,12.54,12.54,0,0,0-2.58-.11c-6.88.4-13.76,0.89-20.64,1.21a29.37,29.37,0,0,1-5.93-.53,2.06,2.06,0,0,1-1.46-1.25c-0.06-.35.77-0.85,1.32-1.19,0.95-.57,2-1,3-1.58,1.78-1.07,3.39-2.29,5.28-3.24a1.3,1.3,0,0,0,.73-2c-0.43-1.17-1.6-1.89-3.31-1.91-2,0-4.09.34-6.06,0.16-6.56-.6-13.09-1.37-19.64-2.06a10.25,10.25,0,0,0-2.19-.09c-10.07,1.16-19.78-.14-29.41-2.08-1.48-.3-2.09-0.83-2.43-1.92-1.34-4.3,2.33-6.17,8.11-6.79,10.35-1.11,20.87-1.49,31.33-2,2.17-.1,4.41.78,6.65,0.94a131.83,131.83,0,0,0,20.12,0c7.66-.62,15.36-1.05,23.05-1.42a30.55,30.55,0,0,1,7,.5,45.41,45.41,0,0,0,11.41.36c16.92-1.06,33.85-2.12,50.78-3.07,3.45-.19,7,0.36,10.44.12a82.49,82.49,0,0,1,19.45.52,3.51,3.51,0,0,0,1.21,0c3.61-.72,6.56.4,9.47,1.65a1.6,1.6,0,0,1,.51.23c2.26,2.7,6.23,2,9.6,2.26,4.46,0.33,9,.37,13.46.5,3.22,0.1,6.44.11,9.66,0.24,1.66,0.07,3.31.27,4.95,0.46,2,0.23,4,.83,5.89.69,4-.29,7.75.33,11.62,0.57,5.21,0.32,10.46.36,15.69,0.51,7.69,0.22,15.39.32,23.06,0.66a176.84,176.84,0,0,0,22.22,0c0.54,0,1.08-.06,1.62-0.06a1.62,1.62,0,0,1,.49.17Z" fill="#fff"/>
    <path id="cloud-33" data-name="cloud" d="M3421.26,256.82c-0.62,0-1.25.06-1.87,0.12-7.86.76-15.71,0.33-23.59,0.08-8.13-.26-16.29-0.81-24.41.11-1.62.18-3.2,1-4.76,1-16.43-.51-32.6,1.74-48.94,2.08a41.89,41.89,0,0,1-10.93-1.67c-7.45-1.9-14.9-1.08-22.38-.49a4,4,0,0,0-3.48,2.33c-0.78,1.61-2.3,2.34-4.63,2.49-4.36.27-8.65,0.66-13-.26a26.47,26.47,0,0,0-6.8-.25q-9.08.55-18.13,1.4a31.44,31.44,0,0,0-5.73,1.26,2.64,2.64,0,0,0-1.63,1.29c-0.38,1.13-1.42,1.38-2.79,1.46q-9,.54-18,1.11c-3.49.22-4.85,1.39-4.59,3.85,0.43,4,1.32,3.38-4.78,3.91a58.53,58.53,0,0,1-14-.62,12.54,12.54,0,0,0-2.58-.11c-6.88.4-13.76,0.89-20.64,1.21a29.37,29.37,0,0,1-5.93-.53,2.06,2.06,0,0,1-1.46-1.25c-0.06-.35.77-0.85,1.32-1.19,0.95-.57,2-1,3-1.58,1.78-1.07,3.39-2.29,5.28-3.24a1.3,1.3,0,0,0,.73-2c-0.43-1.17-1.6-1.89-3.31-1.91-2,0-4.09.34-6.06,0.16-6.56-.6-13.09-1.37-19.64-2.06a10.25,10.25,0,0,0-2.19-.09c-10.07,1.16-19.78-.14-29.41-2.08-1.48-.3-2.09-0.83-2.43-1.92-1.34-4.3,2.33-6.17,8.11-6.79,10.35-1.11,20.87-1.49,31.33-2,2.17-.1,4.41.78,6.65,0.94a131.83,131.83,0,0,0,20.12,0c7.66-.62,15.36-1.05,23.05-1.42a30.55,30.55,0,0,1,7,.5,45.41,45.41,0,0,0,11.41.36c16.92-1.06,33.85-2.12,50.78-3.07,3.45-.19,7,0.36,10.44.12a82.49,82.49,0,0,1,19.45.52,3.51,3.51,0,0,0,1.21,0c3.61-.72,6.56.4,9.47,1.65a1.6,1.6,0,0,1,.51.23c2.26,2.7,6.23,2,9.6,2.26,4.46,0.33,9,.37,13.46.5,3.22,0.1,6.44.11,9.66,0.24,1.66,0.07,3.31.27,4.95,0.46,2,0.23,4,.83,5.89.69,4-.29,7.75.33,11.62,0.57,5.21,0.32,10.46.36,15.69,0.51,7.69,0.22,15.39.32,23.06,0.66a176.84,176.84,0,0,0,22.22,0c0.54,0,1.08-.06,1.62-0.06a1.62,1.62,0,0,1,.49.17Z" fill="#fff"/>
    <path id="cloud-34" data-name="cloud" d="M258.46,433.73c-0.46,0-.93,0-1.38.09a135,135,0,0,1-17.42.06c-6-.19-12-0.6-18,0.08-1.2.14-2.36,0.75-3.52,0.71C206,434.29,194,436,182,436.21a30.94,30.94,0,0,1-8.07-1.24c-5.5-1.4-11-.8-16.53-0.37a2.94,2.94,0,0,0-2.57,1.72c-0.58,1.19-1.7,1.73-3.42,1.84-3.22.2-6.39,0.49-9.62-.19a19.55,19.55,0,0,0-5-.18q-6.71.4-13.39,1a23.22,23.22,0,0,0-4.23.93,2,2,0,0,0-1.2,1c-0.28.83-1,1-2.06,1.08l-13.3.82c-2.58.16-3.58,1-3.39,2.85,0.32,3,1,2.5-3.53,2.89a43.23,43.23,0,0,1-10.34-.46,9.26,9.26,0,0,0-1.91-.08c-5.08.29-10.16,0.66-15.25,0.89a21.69,21.69,0,0,1-4.38-.39,1.52,1.52,0,0,1-1.08-.92,1.8,1.8,0,0,1,1-.88c0.7-.42,1.51-0.75,2.21-1.17,1.31-.79,2.5-1.69,3.9-2.4a1,1,0,0,0,.54-1.47,2.41,2.41,0,0,0-2.44-1.41c-1.49,0-3,.25-4.48.12-4.85-.44-9.67-1-14.5-1.52a7.57,7.57,0,0,0-1.62-.07c-7.44.85-14.61-.1-21.72-1.54a2,2,0,0,1-1.8-1.42c-1-3.17,1.72-4.56,6-5,7.64-.82,15.41-1.1,23.14-1.46,1.61-.08,3.25.57,4.91,0.69a97.37,97.37,0,0,0,14.86,0c5.66-.46,11.34-0.78,17-1a22.56,22.56,0,0,1,5.15.37,33.54,33.54,0,0,0,8.43.26c12.5-.78,25-1.57,37.51-2.27,2.55-.14,5.17.27,7.71,0.09a60.92,60.92,0,0,1,14.36.39,2.59,2.59,0,0,0,.89,0c2.67-.54,4.85.29,7,1.22a1.18,1.18,0,0,1,.37.17c1.67,2,4.6,1.48,7.09,1.67,3.29,0.25,6.62.27,9.94,0.37,2.38,0.07,4.76.08,7.13,0.17,1.22,0,2.44.2,3.65,0.34a24.39,24.39,0,0,0,4.35.51,63.33,63.33,0,0,1,8.58.42c3.85,0.23,7.72.27,11.59,0.38,5.68,0.16,11.36.24,17,.49a130.61,130.61,0,0,0,16.41,0c0.4,0,.8,0,1.19,0a1.19,1.19,0,0,1,.36.13Z" fill="#fff"/>
    <path id="cloud-35" data-name="cloud" d="M1140.39,551.42c-0.29,0-.58,0-0.86.05a71.75,71.75,0,0,1-10.9-.13,66.15,66.15,0,0,0-11.28-.11,14.38,14.38,0,0,1-2.19.49c-7.6-.4-15.05.71-22.6,0.78a16.94,16.94,0,0,1-5.06-1c-3.46-1.09-6.89-.69-10.35-0.43a1.81,1.81,0,0,0-1.59,1.24,2.14,2.14,0,0,1-2.12,1.32,18.77,18.77,0,0,1-6-.23,10.45,10.45,0,0,0-3.15-.18q-4.19.23-8.37,0.63a12.42,12.42,0,0,0-2.64.65,1.23,1.23,0,0,0-.74.69,1.15,1.15,0,0,1-1.28.77l-8.31.47c-1.61.09-2.23,0.72-2.09,2.06,0.23,2.2.63,1.85-2.18,2.09a23.14,23.14,0,0,1-6.47-.44,5,5,0,0,0-1.19-.08c-3.18.17-6.35,0.39-9.53,0.51a11.7,11.7,0,0,1-2.74-.33,1.06,1.06,0,0,1-.68-0.69,1.18,1.18,0,0,1,.6-0.64c0.43-.3.94-0.54,1.37-0.84,0.81-.57,1.55-1.22,2.42-1.73a0.75,0.75,0,0,0,.32-1.08,1.55,1.55,0,0,0-1.54-1.06c-0.93,0-1.89.16-2.8,0-3-.37-6.06-0.84-9.09-1.26a4,4,0,0,0-1-.07,37.12,37.12,0,0,1-13.6-1.35,1.34,1.34,0,0,1-1.14-1.06c-0.65-2.35,1-3.34,3.7-3.64,4.77-.53,9.63-0.66,14.46-0.85a24.21,24.21,0,0,1,3.08.56,51.78,51.78,0,0,0,9.3.14c3.53-.28,7.09-0.46,10.64-0.6a12.13,12.13,0,0,1,3.23.32,17.92,17.92,0,0,0,5.28.28c7.81-.45,15.62-0.91,23.44-1.3,1.59-.08,3.24.25,4.82,0.14a32.52,32.52,0,0,1,9,.43,1.38,1.38,0,0,0,.56,0,6.27,6.27,0,0,1,4.39,1,0.72,0.72,0,0,1,.24.13c1.06,1.49,2.89,1.14,4.45,1.3,2.06,0.21,4.15.26,6.22,0.37,1.49,0.08,3,.11,4.46.2,0.77,0,1.53.17,2.29,0.29a13.23,13.23,0,0,0,2.73.42,33.88,33.88,0,0,1,5.37.39c2.41,0.21,4.83.27,7.25,0.39,3.55,0.17,7.11.29,10.66,0.53a69.43,69.43,0,0,0,10.27.15,7.39,7.39,0,0,1,.75,0,0.7,0.7,0,0,1,.23.1Z" fill="#fff"/>
    <path id="cloud-36" data-name="cloud" d="M2015,80.15a5.31,5.31,0,0,1-1.06,1.21c-10,1.06-20.07,2.07-30.09,3.17-2.33.26-4.58,0.85-6.88,1.27a42.5,42.5,0,0,1-5.71,1q-18.2.79-36.41,1.38c-3.08.1-5.39,0.71-7.19,2.62-0.56.6-2.66,0.72-4,.67-1.91-.07-3.81-0.79-5.68-0.74-10,.28-20,0.42-30,1.18-8.27.63-16-.72-23.93-1.78-2.89-.38-5.85-0.53-8.79-0.73-5.33-.35-10.65-0.84-16-0.94s-10.88.58-16.23,0.23c-5.81-.37-11.52-1.53-17.26-2.36a11.87,11.87,0,0,0-1.52-.49c-11.63.21-23.09-2.85-34.73-.94-2,.32-4.37,1.83-5,3.16-1.88,3.77-6,4.92-10.8,5.12-22,.92-44,1.68-66,2.57a20.79,20.79,0,0,0-4.33,1.11,20.68,20.68,0,0,0,3.57,2.52c3.35,1.5,7,2.71,10.28,4.25a4.77,4.77,0,0,1,2.42,2.58c1.06,3.4.18,4.13-4.69,4.32q-10.92.44-21.85,0.83c-4.52.16-9.07,0.7-13.36-1a10.71,10.71,0,0,0-3.77-.17c-5.29.17-10.57,0.54-15.85,0.55-12.32,0-24.45,1.36-37-.08a237.42,237.42,0,0,0-42.48-.65c-5,.33-10.27-0.79-15.31-1.58-3.17-.5-3.28-3.55-0.44-5.64,4.6-3.38,3.91-6-2.45-7.59a49.81,49.81,0,0,0-11-1.38c-8.76-.1-17.43,1-26.3-0.66-4.72-.9-10.21.39-15.35,0.31-7.72-.12-15.42-0.79-23.13-0.83s-15.43.51-23.31-.71c-9.73-1.51-19.83-1.84-29.75-2.81-6.22-.61-8.58-5.32-4.53-8.93A17.07,17.07,0,0,1,1420.35,76c7-.19,14-0.74,21-0.69a59.08,59.08,0,0,0,21.51-3.74A27.15,27.15,0,0,1,1471,70q49-2,98.07-3.74l5.66-.21a9.08,9.08,0,0,0,.23-2.05c-0.39-2.61,1.29-3.49,4.94-3.62,23.56-.81,47.12-1.75,70.68-2.65,5.14-.2,10.29-0.6,15.42-0.54,4.76,0.06,9.5.72,14.26,0.92,3.4,0.14,6.82,0,10.23-.08s5.67,0.81,8.45,2.11a29.73,29.73,0,0,0,11.82,2.51c11.13,0,22.26-.76,33.4-1,2.41-.06,4.87.68,7.29,1.09,3.83,0.63,7.6,1.52,11.47,1.89,6.68,0.63,13.41,1,20.13,1.38,1.27,0.08,2.65-.29,3.84-0.07,7.5,1.38,15.17,2.48,22.38,4.41,11.72,3.13,23.29,5.94,36.18,4.85,7.79-.66,15.79-0.22,23.52-1.07s15,0.12,22.5.17c13.32,0.09,26.24,2.24,38.89,4.91,14.13,3,28.27.88,42.42,0.83,4.37,0,8.73.48,13.11,0.55,6,0.09,11.93,0,17.89,0C2007.25,80.51,2010.77,80.3,2015,80.15Z" fill="#fff"/>
    <path id="cloud-37" data-name="cloud" d="M1409.1,134.77c-3,.47-6,0.58-8.89,1.49-4.87,1.56-9.51,4.61-14.43,5.29-11.52,1.61-23.13,2.36-34.73,3.11-6.46.42-6.88,0.68-8.33,7.79-0.27,1.32-2.72,3.3-3.71,3-17-5.12-34.39-2.27-51.59-3.06-10.72-.49-21.43-1.26-32.15-1.48-2.75-.06-5.5,1.86-8.3,2.18-3.53.4-7.32,0.93-10.63-.11-4.4-1.38-8.44-4.24-12.64-6.43-6.42-3.34-11.85-3.22-13.73,5.76-1.3,6.21-5.2,4.13-8.54,4.17-7.71.1-15.42,0.12-23.12,0.36a4.94,4.94,0,0,0-3.32,1.73c-3.37,4.17-7.22,3.82-11.56,2.49-7.18-2.21-14.59-3.74-20.41-9.51-1.55-1.54-2.38-4-3.7-5.85-0.77-1.1-1.84-2.72-2.79-2.74-13.48-.26-27-0.28-40.44-0.34-1.56,0-3.11.19-4.67,0.2q-27.64,0-55.27,0c-6.23,0-7.61,2.9-6.26,9.69a70.7,70.7,0,0,1,1.54,19.74c-0.26,2.88-4.14,6.56-7,7.62-3.85,1.43-8.32.83-12.52,0.81-11.07-.07-22.15-0.15-33.22-0.53-3.71-.13-7.42,0-8.56-6.44-0.37-2.07-6.27-3.41-9.78-4.14-41.88-8.63-84.17-3.09-126.27-4.17-19.65-.5-37.31-7-54.34-17.27-3.81-2.3-4.1-5.57-4-9.68s2.77-4.25,5.1-5.71c7-4.35,14.53-4.49,22.13-5,10.35-.75,20.67-2.39,31-2.57,5.27-.09,10.61,2,15.85,3.42,4.47,1.23,8.78,4,13.25,4.27,14.6,0.89,29.23,1.23,43.86,1.25,13.53,0,27.07-.61,40.6-1.09a44.44,44.44,0,0,0,10.1-1.34c2-.56,5.5-2.53,5.42-3.58-0.22-2.91-1.35-6.48-3.23-8.33-4.24-4.16-6-9-6-15.18,0-4.88,1.8-6.65,5.91-6.61,13.58,0.11,27.15.06,40.73,0.06,9.21,0,18.42-.28,27.62.07a168.52,168.52,0,0,1,19.43,2.16,10.23,10.23,0,0,1,5.36,3c7.85,8.13,17.89,8.14,27.42,9.42,7.82,1,15.79.56,23.26-3.14a3,3,0,0,0,1.21-.69c4.41-6.32,10.52-5.9,16.66-5.59,8.53,0.42,17.07.69,25.61,1a7.43,7.43,0,0,1,1.86.18c8.45,2.56,16.8,5.62,25.35,7.59a73.24,73.24,0,0,0,18.45,1.73,99.66,99.66,0,0,1,30.86,3.46,9,9,0,0,1,4.95,3.68c5.83,9.91,14.53,12.63,24.21,13.33,7.28,0.52,14.54,1.67,21.81,1.65,7.48,0,14.95-1.3,22.44-1.7,9.94-.53,19.89-0.76,29.83-1.09,2.18-.07,4.42.31,6.54-0.12,1.52-.31,2.86-1.71,4.33-2.5,1.32-.7,2.78-1.87,4.07-1.7,5,0.67,10,2.05,15,2.67,6.61,0.8,13.26,1.42,19.9,1.58,9.36,0.23,18.73,0,28.1-.07,1.45,0,2.9.18,4.35,0.27v1.54Z" fill="#fff"/>
    <path id="cloud-38" data-name="cloud" d="M3896.62,165.65a40.81,40.81,0,0,0-6.13,1c-3.36,1.08-6.55,3.17-9.95,3.65-7.94,1.11-15.95,1.63-23.94,2.14-4.45.29-4.74,0.47-5.74,5.37-0.19.91-1.88,2.27-2.56,2.07-11.74-3.53-23.71-1.56-35.56-2.11-7.39-.34-14.77-0.87-22.16-1-1.9,0-3.79,1.28-5.72,1.51-2.43.28-5,.64-7.33-0.07-3-1-5.81-2.92-8.71-4.43-4.42-2.3-8.17-2.22-9.47,4-0.9,4.28-3.59,2.84-5.89,2.87-5.31.07-10.63,0.08-15.94,0.25a3.4,3.4,0,0,0-2.29,1.19c-2.33,2.88-5,2.64-8,1.72-4.95-1.52-10.06-2.58-14.07-6.55-1.07-1.06-1.64-2.74-2.55-4-0.53-.76-1.27-1.88-1.93-1.89-9.29-.18-18.58-0.19-27.88-0.24-1.07,0-2.15.13-3.22,0.14h-38.1c-4.29,0-5.25,2-4.32,6.68a48.73,48.73,0,0,1,1.06,13.61c-0.18,2-2.85,4.52-4.84,5.25-2.65,1-5.73.58-8.63,0.56-7.63,0-15.27-.1-22.9-0.37-2.56-.09-5.12,0-5.9-4.44-0.25-1.43-4.32-2.35-6.74-2.85-28.87-5.95-58-2.13-87-2.88-13.55-.35-25.72-4.81-37.45-11.91-2.63-1.59-2.83-3.84-2.74-6.67s1.91-2.93,3.52-3.93c4.82-3,10-3.1,15.25-3.48,7.13-.52,14.24-1.65,21.38-1.77,3.63-.06,7.32,1.36,10.92,2.36,3.08,0.85,6.05,2.76,9.14,2.95,10.06,0.61,20.15.85,30.23,0.86,9.33,0,18.66-.42,28-0.75a30.63,30.63,0,0,0,7-.92c1.41-.39,3.79-1.74,3.74-2.47a9.75,9.75,0,0,0-2.23-5.74,13.78,13.78,0,0,1-4.17-10.46c0-3.37,1.24-4.58,4.07-4.56,9.36,0.08,18.72,0,28.08,0,6.35,0,12.7-.19,19,0a116.16,116.16,0,0,1,13.39,1.49,7.05,7.05,0,0,1,3.7,2.07c5.41,5.61,12.33,5.61,18.9,6.49,5.39,0.72,10.88.39,16-2.17a2.07,2.07,0,0,0,.84-0.48c3-4.36,7.25-4.07,11.48-3.86,5.88,0.29,11.77.48,17.65,0.71a5.12,5.12,0,0,1,1.28.12c5.82,1.77,11.58,3.87,17.47,5.23a50.49,50.49,0,0,0,12.72,1.19,68.7,68.7,0,0,1,21.27,2.39,6.21,6.21,0,0,1,3.41,2.54c4,6.83,10,8.71,16.69,9.19,5,0.36,10,1.15,15,1.14s10.3-.89,15.47-1.17c6.85-.37,13.71-0.53,20.56-0.75a27,27,0,0,0,4.51-.09c1.05-.22,2-1.18,3-1.72s1.92-1.29,2.8-1.17c3.47,0.46,6.9,1.42,10.37,1.84,4.56,0.55,9.14,1,13.72,1.09,6.45,0.16,12.91,0,19.37,0,1,0,2,.12,3,0.19v1.06Z" fill="#fff"/>
    <path id="cloud-39" data-name="cloud" d="M2840.18,122.75c-3,.47-6,0.58-8.89,1.49-4.87,1.56-9.51,4.61-14.43,5.29-11.52,1.61-23.13,2.36-34.73,3.11-6.46.42-6.88,0.68-8.33,7.79-0.27,1.32-2.72,3.3-3.71,3-17-5.12-34.39-2.27-51.59-3.06-10.72-.49-21.43-1.26-32.15-1.48-2.75-.06-5.5,1.86-8.3,2.18-3.53.4-7.32,0.93-10.63-.11-4.4-1.38-8.44-4.24-12.64-6.43-6.42-3.34-11.85-3.22-13.73,5.76-1.3,6.21-5.2,4.13-8.54,4.17-7.71.1-15.42,0.12-23.12,0.36a4.94,4.94,0,0,0-3.32,1.73c-3.37,4.17-7.22,3.82-11.56,2.49-7.18-2.21-14.59-3.74-20.41-9.51-1.55-1.54-2.38-4-3.7-5.85-0.77-1.1-1.84-2.72-2.79-2.74-13.48-.26-27-0.28-40.44-0.34-1.56,0-3.11.19-4.67,0.2q-27.64,0-55.27,0c-6.23,0-7.61,2.9-6.26,9.69a70.7,70.7,0,0,1,1.54,19.74c-0.26,2.88-4.14,6.56-7,7.62-3.85,1.43-8.32.83-12.52,0.81-11.07-.07-22.15-0.15-33.22-0.53-3.71-.13-7.42,0-8.56-6.44-0.37-2.07-6.27-3.41-9.78-4.14-41.88-8.63-84.17-3.09-126.27-4.17-19.65-.5-37.31-7-54.34-17.27-3.81-2.3-4.1-5.57-4-9.68s2.77-4.25,5.1-5.71c7-4.35,14.53-4.49,22.13-5,10.35-.75,20.67-2.39,31-2.57,5.27-.09,10.61,2,15.85,3.42,4.47,1.23,8.78,4,13.25,4.27,14.6,0.89,29.23,1.23,43.86,1.25,13.53,0,27.07-.61,40.6-1.09a44.44,44.44,0,0,0,10.1-1.34c2-.56,5.5-2.53,5.42-3.58-0.22-2.91-1.35-6.48-3.23-8.33-4.24-4.16-6-9-6-15.18,0-4.88,1.8-6.65,5.91-6.61,13.58,0.11,27.15.06,40.73,0.06,9.21,0,18.42-.28,27.62.07a168.52,168.52,0,0,1,19.43,2.16,10.23,10.23,0,0,1,5.36,3c7.85,8.13,17.89,8.14,27.42,9.42,7.82,1,15.79.56,23.26-3.14a3,3,0,0,0,1.21-.69c4.41-6.32,10.52-5.9,16.66-5.59,8.53,0.42,17.07.69,25.61,1a7.43,7.43,0,0,1,1.86.18c8.45,2.56,16.8,5.62,25.35,7.59a73.24,73.24,0,0,0,18.45,1.73,99.66,99.66,0,0,1,30.86,3.46,9,9,0,0,1,4.95,3.68c5.83,9.91,14.53,12.63,24.21,13.33,7.28,0.52,14.54,1.67,21.81,1.65,7.48,0,14.95-1.3,22.44-1.7,9.94-.53,19.89-0.76,29.83-1.09,2.18-.07,4.42.31,6.54-0.12,1.52-.31,2.86-1.71,4.33-2.5,1.32-.7,2.78-1.87,4.07-1.7,5,0.67,10,2.05,15,2.67,6.61,0.8,13.26,1.42,19.9,1.58,9.36,0.23,18.73,0,28.1-.07,1.45,0,2.9.18,4.35,0.27v1.54Z" fill="#fff"/>
    <path id="cloud-40" data-name="cloud" d="M754.52,160.12c-3.54-.47-7.18-0.58-10.59-1.5-5.8-1.57-11.33-4.63-17.19-5.32-13.72-1.61-27.56-2.37-41.37-3.13-7.7-.42-8.19-0.68-9.92-7.83-0.32-1.32-3.24-3.32-4.42-3-20.29,5.15-41,2.28-61.46,3.08-12.77.5-25.53,1.27-38.3,1.49-3.28.06-6.55-1.87-9.89-2.2-4.2-.41-8.72-0.94-12.66.11-5.24,1.39-10,4.27-15.06,6.47-7.65,3.36-14.12,3.24-16.36-5.8-1.55-6.25-6.2-4.15-10.17-4.19-9.18-.1-18.37-0.12-27.55-0.36a6.3,6.3,0,0,1-4-1.74c-4-4.19-8.6-3.84-13.77-2.5-8.55,2.22-17.38,3.76-24.31,9.56-1.84,1.54-2.83,4-4.4,5.89-0.92,1.11-2.19,2.74-3.33,2.75-16.06.26-32.12,0.28-48.17,0.34-1.85,0-3.71-.2-5.56-0.2q-32.92,0-65.84,0c-7.42,0-9.07-2.91-7.46-9.74,1.52-6.47,2.53-13.34,1.83-19.85-0.31-2.9-4.93-6.59-8.36-7.66-4.58-1.43-9.91-.84-14.91-0.81-13.19.07-26.39,0.15-39.57,0.54-4.42.13-8.84,0-10.19,6.48-0.44,2.08-7.46,3.43-11.66,4.16-49.9,8.68-100.27,3.11-150.41,4.19-23.41.51-44.44,7-64.73,17.37C0.22,149-.13,152.28,0,156.41s3.3,4.28,6.08,5.74c8.32,4.38,17.31,4.52,26.36,5.07,12.32,0.76,24.62,2.4,36.94,2.58,6.28,0.09,12.64-2,18.88-3.44,5.32-1.24,10.46-4,15.79-4.3,17.39-.9,34.82-1.24,52.24-1.25,16.12,0,32.24.61,48.36,1.09a62.2,62.2,0,0,1,12,1.34c2.44,0.56,6.56,2.54,6.46,3.6-0.27,2.93-1.61,6.52-3.85,8.38a18.6,18.6,0,0,0-7.2,15.26c0,4.91,2.14,6.68,7,6.65,16.17-.12,32.35-0.06,48.52-0.06,11,0,21.95.28,32.9-.07,7.74-.25,15.47-1.16,23.15-2.17a12.93,12.93,0,0,0,6.39-3c9.35-8.18,21.32-8.19,32.66-9.47,9.31-1.05,18.81-.56,27.71,3.16a3.79,3.79,0,0,1,1.44.7c5.25,6.36,12.53,5.93,19.85,5.62,10.16-.42,20.34-0.7,30.5-1a10.43,10.43,0,0,0,2.21-.18c10.06-2.58,20-5.65,30.2-7.63a102.87,102.87,0,0,1,22-1.74,139.66,139.66,0,0,0,36.76-3.48,10.77,10.77,0,0,0,5.9-3.7c6.95-10,17.31-12.7,28.84-13.4,8.67-.52,17.33-1.68,26-1.66,8.91,0,17.81,1.31,26.73,1.71,11.84,0.54,23.69.77,35.54,1.1,2.6,0.07,5.27-.31,7.79.12,1.82,0.32,3.4,1.72,5.16,2.51,1.57,0.7,3.32,1.88,4.85,1.71,6-.67,11.92-2.07,17.93-2.68,7.88-.81,15.8-1.43,23.71-1.59,11.15-.23,22.31,0,33.47.07,1.73,0,3.46-.18,5.18-0.27v-1.55Z" fill="#fff"/>
    <path id="cloud-41" data-name="cloud" d="M2359.35,433a4.19,4.19,0,0,0,.25-1.22c-0.18-1.24.69-1.55,2.29-1.51,7.7,0.21,15.4.46,23.1,0.54,8.76,0.09,17.52,0,26.28,0,8.48,0.08,17,.35,25.45.44,1.47,0,2.93-.57,4.42-0.66,1.91-.12,3.85-0.06,5.76,0a4.09,4.09,0,0,1,1.59.57c4.49,2.31,9.75,2.93,15,3.71a64.39,64.39,0,0,1,11,2.91,31.73,31.73,0,0,0,10.71,1.4c8.49-.1,17-0.19,25.48-0.06,3.64,0.05,7.25.72,10.89,1,4.76,0.33,9.53.71,14.31,0.75,13.2,0.12,26.4.07,39.6,0.09h17.93l0.09,0.5a10.9,10.9,0,0,1-1.67.25c-17.17-.08-34.34-0.2-51.51-0.25q-24.35-.07-48.71,0c-5,0-9.94.6-14.91,0.57-9.08-.06-18.18-0.66-27.24-0.5-6.52.11-13,1.08-19.5,1.7a3.48,3.48,0,0,0-1.65.45c-2.47,2.09-5.84,1.68-9.07,1.69-4.12,0-8.25-.06-12.37,0a6.06,6.06,0,0,0-3.37.92c-6,5.75-6.75,3.92-14.94,5.76-4.14.93-8.22,2-12.38,2.84a39,39,0,0,1-7.9,1.16c-6.92,0-13.83-.39-20.75-0.6-2.41-.07-3.7-0.8-3.35-2.6,0.3-1.56-.74-2.6-2.49-3.5a42,42,0,0,1-4-2.55,26.73,26.73,0,0,0-14.76-4.35c-1,0-2.07-.05-3.09,0-11,.66-21.64-0.68-32.16-2.76a31.59,31.59,0,0,1-4.19-.75c-3.57-1.27-4.77-3.95-3.11-6.45,1.81-2.72,4.77-3.5,8.93-2.41s8.12,2.45,12.35,3a30.46,30.46,0,0,0,10.28-.43,41.61,41.61,0,0,1,14.49-.65c8.54,1.1,17.06.82,25.6,0.92C2354.51,433,2356.89,433,2359.35,433Z" fill="#fff"/>
    <path id="cloud-42" data-name="cloud" d="M1143.77,207.17c-0.26,0-.53.06-0.79,0.06-10.75.12-21.51,0.18-32.25,0.4a84.06,84.06,0,0,0-9.56,1,5.88,5.88,0,0,0-2.64,1.2,7.63,7.63,0,0,1-5.19,1.48c-4.67-.1-9.35.06-14-0.05a126.91,126.91,0,0,0-21.33,1.29,4.67,4.67,0,0,1-1,.12,8.2,8.2,0,0,0-7.54,3.09c-1.35,1.62-3.33,2.26-5.94,2.15-1.55-.07-3.12,0-4.66-0.1a6,6,0,0,1-4.74-2.11c-1.15-1.54-3.05-2.2-5.5-2.14a81.63,81.63,0,0,1-17.47-1.13,27,27,0,0,1-3.6-.89c-2.31-.78-2.83-2.55-1-3.85a8.34,8.34,0,0,1,3.47-1.57,233.47,233.47,0,0,1,26-2.68,29.17,29.17,0,0,0,5.33-.66c1.93-.43,2.11-1.21.6-2.18a36.72,36.72,0,0,0-3.74-1.94,2.45,2.45,0,0,1-1.64-2.85c0.45-2.69,1.13-3.16,5-3.13a125.77,125.77,0,0,1,27.12,2.61c2,0.45,3.85,1.13,5.76,1.73a67.94,67.94,0,0,1,7.68,2.51,23.74,23.74,0,0,1,5.9,3.79c2.23,2,4.82,2.76,8.4,2.66,5.81-.16,11.65-0.18,17.46,0,3.31,0.11,6.56.9,9.87,1.12,2.24,0.15,4.55-.19,6.83-0.21,4.42,0,8.83,0,13.25,0Z" fill="#fff"/>
    <path id="cloud-43" data-name="cloud" d="M449.63,382.88c0.2,0,.39,0,0.59.05,8,0.1,16,.15,24.05.33a55.7,55.7,0,0,1,7.13.8,4.17,4.17,0,0,1,2,1,5.24,5.24,0,0,0,3.87,1.24c3.48-.08,7,0.05,10.45,0a83.89,83.89,0,0,1,15.9,1.09,3.1,3.1,0,0,0,.74.1,5.82,5.82,0,0,1,5.62,2.61,4.77,4.77,0,0,0,4.43,1.81c1.16-.06,2.32,0,3.48-0.08a4.31,4.31,0,0,0,3.53-1.78,4.39,4.39,0,0,1,4.1-1.8,54,54,0,0,0,13-.95,18.28,18.28,0,0,0,2.69-.75c1.72-.66,2.11-2.15.76-3.25a5.91,5.91,0,0,0-2.59-1.32A154.73,154.73,0,0,0,530,379.7a19.38,19.38,0,0,1-4-.56c-1.44-.36-1.58-1-0.45-1.84a26.4,26.4,0,0,1,2.79-1.64,2.12,2.12,0,0,0,1.23-2.4c-0.34-2.27-.84-2.66-3.69-2.64a83.36,83.36,0,0,0-20.22,2.2c-1.48.38-2.87,1-4.29,1.46a46.65,46.65,0,0,0-5.73,2.12,17.61,17.61,0,0,0-4.4,3.19,7.74,7.74,0,0,1-6.26,2.25c-4.33-.14-8.69-0.15-13,0-2.47.09-4.89,0.75-7.36,0.95-1.67.13-3.39-.16-5.09-0.18-3.29,0-6.59,0-9.88,0Z" fill="#fff"/>
    <path id="cloud-44" data-name="cloud" d="M1230.76,13.41a15.41,15.41,0,0,1-2,.24q-14.31-.07-28.61-0.19c-6.83-.06-13.65-0.24-20.48-0.2a11.26,11.26,0,0,0-4.6,1.12c-2.26,1.11-4.54.54-6.85,0.47-2.15-.07-4.42-0.47-6.41-0.11a8.14,8.14,0,0,0-4.25,2.36c-1.87,2.12-4.33,2.92-7.76,2.87s-6.32.66-8,3.08c-0.43.61-1.84,1.05-2.92,1.24-2.79.49-5.63,0.87-8.47,1.16a16.78,16.78,0,0,1-4.6,0c-4.74-.88-9.43-1.91-14.1-3a8.26,8.26,0,0,1-2.69-1.24c-2.5-1.68-1.94-4.53,1.28-5.36,2.81-.72,5.88-0.94,8.79-1.49a34.41,34.41,0,0,0,3.75-1.13,27.77,27.77,0,0,0-3.37-1.55c-1.65-.53-3.44-0.81-5.13-1.28-2.62-.73-3.17-2-0.87-3.12a44.82,44.82,0,0,1,8.25-2.43,19.66,19.66,0,0,1,4.18-.43,7.83,7.83,0,0,0,6.36-3.06,4.25,4.25,0,0,1,3.66-1.4c6.29,0,12.59-.07,18.87.09a11.72,11.72,0,0,1,4.69,1.37,66.88,66.88,0,0,1,7.3,4.29,18.25,18.25,0,0,0,9.47,2.83c4.9,0.27,9.86.22,14.72,0.67,4.6,0.42,9.26.46,13.73,1.85,5.22,1.63,11,1.73,16.69,1.68,2.37,0,4.73,0,7.1,0,0.75,0,1.5.15,2.24,0.23v0.41Z" fill="#fff"/>
    <path id="cloud-45" data-name="cloud" d="M1502.79,168.9a15.41,15.41,0,0,1-2,.24q-14.31-.07-28.61-0.19c-6.83-.06-13.65-0.24-20.48-0.2a11.26,11.26,0,0,0-4.6,1.12c-2.26,1.11-4.54.54-6.85,0.47-2.15-.07-4.42-0.47-6.41-0.11a8.14,8.14,0,0,0-4.25,2.36c-1.87,2.12-4.33,2.92-7.76,2.87s-6.32.66-8,3.08c-0.43.61-1.84,1.05-2.92,1.24-2.79.49-5.63,0.87-8.47,1.16a16.78,16.78,0,0,1-4.6,0c-4.74-.88-9.43-1.91-14.1-3a8.26,8.26,0,0,1-2.69-1.24c-2.5-1.68-1.94-4.53,1.28-5.36,2.81-.72,5.88-0.94,8.79-1.49a34.41,34.41,0,0,0,3.75-1.13,27.77,27.77,0,0,0-3.37-1.55c-1.65-.53-3.44-0.81-5.13-1.28-2.62-.73-3.17-2-0.87-3.12a44.82,44.82,0,0,1,8.25-2.43A19.66,19.66,0,0,1,1398,160a7.83,7.83,0,0,0,6.36-3.06,4.25,4.25,0,0,1,3.66-1.4c6.29,0,12.59-.07,18.87.09a11.72,11.72,0,0,1,4.69,1.37,66.88,66.88,0,0,1,7.3,4.29,18.25,18.25,0,0,0,9.47,2.83c4.9,0.27,9.86.22,14.72,0.67,4.6,0.42,9.26.46,13.73,1.85,5.22,1.63,11,1.73,16.69,1.68,2.37,0,4.73,0,7.1,0,0.75,0,1.5.15,2.24,0.23v0.41Z" fill="#fff"/>
    <path id="cloud-46" data-name="cloud" d="M1572.65,438.45a15.41,15.41,0,0,1-2,.24q-14.31-.07-28.61-0.19c-6.83-.06-13.65-0.24-20.48-0.2a11.26,11.26,0,0,0-4.6,1.12c-2.26,1.11-4.54.54-6.85,0.47-2.15-.07-4.42-0.47-6.41-0.11a8.14,8.14,0,0,0-4.25,2.36c-1.87,2.12-4.33,2.92-7.76,2.87s-6.32.66-8,3.08c-0.43.61-1.84,1.05-2.92,1.24-2.79.49-5.63,0.87-8.47,1.16a16.78,16.78,0,0,1-4.6,0c-4.74-.88-9.43-1.91-14.1-3a8.26,8.26,0,0,1-2.69-1.24c-2.5-1.68-1.94-4.53,1.28-5.36,2.81-.72,5.88-0.94,8.79-1.49a34.41,34.41,0,0,0,3.75-1.13,27.77,27.77,0,0,0-3.37-1.55c-1.65-.53-3.44-0.81-5.13-1.28-2.62-.73-3.17-2-0.87-3.12a44.82,44.82,0,0,1,8.25-2.43,19.66,19.66,0,0,1,4.18-.43,7.83,7.83,0,0,0,6.36-3.06,4.25,4.25,0,0,1,3.66-1.4c6.29,0,12.59-.07,18.87.09a11.72,11.72,0,0,1,4.69,1.37,66.88,66.88,0,0,1,7.3,4.29,18.25,18.25,0,0,0,9.47,2.83c4.9,0.27,9.86.22,14.72,0.67,4.6,0.42,9.26.46,13.73,1.85,5.22,1.63,11,1.73,16.69,1.68,2.37,0,4.73,0,7.1,0,0.75,0,1.5.15,2.24,0.23v0.41Z" fill="#fff"/>
    <rect width="4630.96" height="622.5" fill="url(#linear-gradient)"/>
  </g>
  <g id="landscape">
    <path id="mountains" d="M2804.31,644.5s-21.05-17.16-36.27-24.06c-29.4-13.33-26.38-31.36-56.46-39.59-8.68-2.37-15.48.56-24.64-2.5-13.73-4.6-23.17-7.12-37-6.21-15.92,1-31.69,12.61-48.62,11.23-4.95-.4-8.84-3.69-13.18-4.94-3.57-1-5.32,0-9.4-.56-7.29-1.09-14.11-4.91-20.89-7.35-7.3-2.63-14-5.85-21.65-5.11-11.94,1.15-24.73,6.61-35.28,10.71-4.82,1.87-14.13,6.72-19.93,6.22-7.18-.62-13.15-9.35-19.58-10.91-4.55-1.1-9.61,2.57-14.54,1.89-3.59-.49-6.74-2.77-9.72-4.43-5.45-3.05-13.51-12.08-19.34-13.15-8.1-1.49-14.22,7.76-22.44,6.56-14.87-2.18-27.17-17.81-39.72-22.46-15.16-5.62-28.06-2.24-44.06,4.38-6.21,2.57-16.36,9.84-23.34,10.62-6.79.76-12.51-5.29-18.24-3.55-10.68,3.25-35.6,23.5-50,18.44-16.14-5.68-33.6-15.25-49.62-23.31-12.15-6.11-25.24-14.55-38.43-16-9.57-1-21.54,2.15-31.49-1.15-17.28-5.74-30.64-9.65-47.57-5.74-19.13,4.41-39.47,21.62-61.7,20.66-6.43-.28-11.28-3.89-16.89-5.06-4.61-1-6.81.51-12.05,0.11-9.38-.72-18.31-5-27.12-7.7-9.48-2.94-18.32-7.1-28-5.14-15.7,3.18-30.29,11-44.86,17-6.5,2.68-18.42,10.74-25.87,10.46-9.22-.34-16.61-11.8-24.94-13.17-5.89-1-12.44,3.83-18.78,3.35-4.62-.35-8.62-2.86-12.5-4.64-7.11-3.25-18.31-15.15-25.34-15.63-10.57-.73-18.39,10.79-28.62,10.42-18.81-.67-33.57-20.5-51.7-28-21-8.72-38.65.33-56.46,9.36-9.77,5-19,13.22-29.83,15.32-8.17,1.6-14.52-5.57-23.51-3.77-24.38,4.88-49.93,35-69.57,40.17-36.84,9.63-51.35-14.87-78.58-15-9.11,0-15.29,2.22-24.55-.9-13.59-4.58-22.19-8.57-37.09-4.48-17,4.68-30.57,16.76-48.1,16.11-5-.19-8.79-3-13.16-3.95-3.6-.75-5.31.39-9.39,0.08-7.31-.56-14.27-3.87-21.14-6-7.39-2.29-14.13-5.45-21.83-4-11.4,2.14-24.3,9-35,13.24-5.15,2.07-14.36,8.37-20.17,8.16-7.19-.26-12.95-9.2-19.44-10.26-4.59-.75-9.7,3-14.64,2.61-3.6-.28-6.72-2.23-9.74-3.62-5.55-2.54-13.89-11.39-19.75-12.18-8.16-1.1-13.74,8.67-22.31,8.12-13.51-.86-27.68-17-40.3-21.83-18.83-7.16-27-.54-44,7.29-6.46,3-16.26,10.93-23.25,11.95-6.8,1-11.09-4.21-18.33-2.94-11.06,5.36-39.55,25.65-50.09,19.3-18.25-4.8-33.12-14.3-49.72-22.16-10.88-5.15-26.27-14.48-38.45-15.88-11.59-1.33-19.62,2.85-31.49-1.15-17.44-5.87-28.46-11-47.57-5.74-21.82,6-39.21,21.5-61.7,20.66-6.47-.24-11.28-3.89-16.89-5.06-4.61-1-6.81.51-12,.11-9.38-.72-18.31-5-27.12-7.7-9.48-2.94-18.12-7-28-5.14-14.63,2.74-31.17,11.49-44.86,17-6.6,2.65-18.42,10.74-25.87,10.46-9.22-.34-16.61-11.8-24.94-13.17-5.89-1-12.44,3.83-18.78,3.35-4.62-.35-8.62-2.86-12.5-4.64-7.11-3.25-17.81-14.62-25.34-15.63-10.46-1.41-17.63,11.12-28.62,10.42-17.33-1.11-35.51-21.85-51.7-28-24.16-9.19-34.59-.69-56.46,9.36-8.28,3.81-20.86,14-29.83,15.32-8.73,1.27-14.23-5.41-23.51-3.77-15.71,2.76-36.17,24.32-69.57,40.17-9.48,4.5-33.23-21.25-35.47-10,0,0-45.46,37-77.12,35.38S0.82,644.5.82,644.5H2804.31Z" fill="#111"/>
    <g id="land">
      <rect y="642.38" width="2804.31" height="210.17" fill="#1c1c1c"/>
    </g>
  </g>
  <g id="neon">
    <g id="arrow-base">
      <path d="M172.35,504.69H678.16v84.38L787,478.86,678.16,368.79v79.27L186.83,435.46c-39.1,0-65.29-40.59-45.09-91.44,35.17-88.54,193.85-116.44,193.85-116.44L226.51,171.5s-36.59-97.94-39.26-95.62-170,117.39-170,302.49C17.26,462,100.76,504.69,172.35,504.69Z" fill="#4e6675"/>
      <path id="arrowoverlay" d="M750.71,442L678.08,368.5H678v79.55L186.74,435.46a49.7,49.7,0,0,1-35.56-14.32c-0.4-.39-0.77-0.8-1.16-1.21a52.16,52.16,0,0,1-7.14-9.6,56.12,56.12,0,0,1-3.16-6.33,66.12,66.12,0,0,1-5-26.31q0-1,0-2.09t0.1-2.12A95.55,95.55,0,0,1,141.74,344c9.34-23.52,27.4-42.76,48.88-58.33l1.9-1.36c17.85-12.65,37.92-22.83,57.26-30.87l2.07-.85,4.12-1.66,2-.81q3.06-1.2,6.08-2.32l2-.74,4-1.44q3-1.06,5.86-2c3.86-1.32,7.62-2.54,11.26-3.68q2.73-.85,5.36-1.64l3.46-1,3.36-1,3.25-.91c4.26-1.18,8.22-2.21,11.81-3.11q2.69-.67,5.1-1.24l2.32-.54L324,230c7.3-1.65,11.57-2.4,11.57-2.4L226.51,171.5s-35.73-95.66-39.15-95.66h0a0.16,0.16,0,0,0-.11,0c-2.68,2.32-170,112.74-170,309,0,57.86,59.17,119.6,155.1,119.6H678v84h0.08l54.46-54.82L787,478.74v0Zm-569-341.84c7.51,18,19.44,48.68,30,76.86l2.15,5.74,5.45,2.8,71.39,36.71c-11.53,3.39-24.66,7.71-38.42,13.09l-95-113.79C166.43,113,174.78,105.81,181.71,100.18Zm-30.5,27.17,92.91,111.3q-11.9,4.94-22.78,10.33l-2.53,1.16-95.14-93.66C133.11,145.6,142.45,135.87,151.21,127.36ZM108.48,175q4.86-6.25,9.76-12.1l92.87,91.43a266.22,266.22,0,0,0-30.52,19.11l-85.67-80Q101.4,184.08,108.48,175ZM90.19,200.36l83.69,78.15a184,184,0,0,0-19.05,17.32c-2,1.61-3.84,3.21-5.55,4.75L68.14,238A381.38,381.38,0,0,1,90.19,200.36ZM56.16,264q3.79-9.24,8.21-18.41l80.35,62A131.16,131.16,0,0,0,132.19,327L48,286.15Q51.65,275,56.16,264ZM45.51,294.21l83.06,40.26c-0.54,1.23-1.06,2.46-1.56,3.7a119.06,119.06,0,0,0-5.84,19.17l-86-13.48A300,300,0,0,1,45.51,294.21ZM33.1,378.36q0-13.11,1.21-26.2l85.45,13.4a96.06,96.06,0,0,0-.79,16.21L35.24,400.6A113,113,0,0,1,33.1,378.36ZM45,427.62a92.6,92.6,0,0,1-7.77-18.92l82.48-18.55a78.32,78.32,0,0,0,4.75,18.35L61.73,449.6A95.07,95.07,0,0,1,45,427.62Zm31.18,33.92q-4.23-2.95-8.06-6.16L128,416.14a71,71,0,0,0,3.78,6.25,67.6,67.6,0,0,0,6.39,8L105.84,477A138.53,138.53,0,0,1,76.17,461.55Zm72.31,25.85A185.09,185.09,0,0,1,114,479.87l30.31-43.64A64.42,64.42,0,0,0,156,444Zm23.87,1.1c-5.22,0-10.41,0-15.56-.45l7.11-40.74a68.06,68.06,0,0,0,22.7,3.95l490.81,12.61,7.58,0.23V488.5H172.35ZM694,504.69V407.35l17,16.87V533.58l-17,16.89V504.69Zm25,20.44V432.65l18,18.56v55.34Zm27-27V459.65l19,19.22Z" fill="#415562"/>
    </g>
    <g id="glow-lines">
      <line id="line" x1="139.76" y1="147.64" x2="225.54" y2="238.25" fill="none" stroke="#5fe6ff" stroke-linecap="round" stroke-miterlimit="10" stroke-width="6"/>
      <line id="line-2" data-name="line" x1="184.98" y1="257.15" x2="111.32" y2="183.49" fill="none" stroke="#5fe6ff" stroke-linecap="round" stroke-miterlimit="10" stroke-width="6"/>
      <line id="line-3" data-name="line" x1="81.14" y1="225.46" x2="154.95" y2="284.38" fill="none" stroke="#5fe6ff" stroke-linecap="round" stroke-miterlimit="10" stroke-width="6"/>
      <line id="line-4" data-name="line" x1="131.8" y1="311.62" x2="61.57" y2="271.04" fill="none" stroke="#5fe6ff" stroke-linecap="round" stroke-miterlimit="10" stroke-width="6"/>
      <line id="line-5" data-name="line" x1="44.33" y1="324.21" x2="115.48" y2="344.41" fill="none" stroke="#5fe6ff" stroke-linecap="round" stroke-miterlimit="10" stroke-width="6"/>
      <line id="line-6" data-name="line" x1="111.32" y1="373.62" x2="37.11" y2="376.7" fill="none" stroke="#5fe6ff" stroke-linecap="round" stroke-miterlimit="10" stroke-width="6"/>
      <line id="line-7" data-name="line" x1="52.3" y1="428.34" x2="115.48" y2="402.19" fill="none" stroke="#5fe6ff" stroke-linecap="round" stroke-miterlimit="10" stroke-width="6"/>
      <line id="line-8" data-name="line" x1="128.82" y1="428.34" x2="91.03" y2="462.64" fill="none" stroke="#5fe6ff" stroke-linecap="round" stroke-miterlimit="10" stroke-width="6"/>
      <line id="line-9" data-name="line" x1="134.15" y1="480.59" x2="148.15" y2="445.49" fill="none" stroke="#5fe6ff" stroke-linecap="round" stroke-miterlimit="10" stroke-width="6"/>
      <line id="line-10" data-name="line" x1="171.07" y1="453.91" x2="166.91" y2="483.37" fill="none" stroke="#5fe6ff" stroke-linecap="round" stroke-miterlimit="10" stroke-width="6"/>
      <line id="line-11" data-name="line" x1="675" y1="470.5" x2="675" y2="482.5" fill="none" stroke="#5fe6ff" stroke-linecap="round" stroke-miterlimit="10" stroke-width="6"/>
      <line id="line-12" data-name="line" x1="701" y1="424.5" x2="701" y2="529.5" fill="none" stroke="#5fe6ff" stroke-linecap="round" stroke-miterlimit="10" stroke-width="6"/>
      <line id="line-13" data-name="line" x1="728" y1="452.5" x2="728" y2="503.5" fill="none" stroke="#5fe6ff" stroke-linecap="round" stroke-miterlimit="10" stroke-width="6"/>
      <line id="line-14" data-name="line" x1="751" y1="473.5" x2="751" y2="485.5" fill="none" stroke="#5fe6ff" stroke-linecap="round" stroke-miterlimit="10" stroke-width="6"/>
    </g>
    <path id="glow-arrow" d="M679,504.5H172.35c-39.17,0-77.32-11.33-104.66-30.37-32.34-22.52-49.44-55.7-49.44-95.57,0-40.51,8.13-81,24.17-120.11,13-31.76,31.3-62.94,54.34-92.56,35-45,71.35-74.66,89.91-88.31l0.63-.48c4.13,5.43,24.91,59,38.27,94.75l0.13,0.36,106.84,54.93a468.66,468.66,0,0,0-81.08,24.53c-73.17,30-100.56,66.55-110.66,92-10.45,26.31-9.26,52,3.25,70.41a50.7,50.7,0,0,0,42.68,22.4L679,449.08V371.22L785.39,478.86,679,586.63V504.5Z" fill="none" stroke="#ea46a8" stroke-miterlimit="10" stroke-width="8"/>
    <g id="neon-base">
      <path d="M444.12,569.34l-143.24,8.45s13.68,34.47,20.56,62c6.8,27.21,12.08,55.09,12.2,55.7,0-2,.1-2.84.18-4.37,0.18-3.45.46-7.63,0.94-11.94,0.25-2.16.54-4.39,0.94-6.66l0.31-1.75,0.36-1.65c0.24-1.1.47-2.2,0.76-3.35,0.54-2.28,1.16-4.5,1.79-6.67l1-3.21,1-3.11c1.41-4.07,2.88-7.8,4.22-11,2.68-6.33,4.83-10.37,4.83-10.37s-1.53,4.29-3.23,10.86c-0.85,3.28-1.74,7.12-2.52,11.26l-0.56,3.15-0.49,3.23c-0.3,2.18-.58,4.39-0.76,6.57-0.12,1.07-.18,2.21-0.25,3.34l-0.11,1.68,0,1.58c-0.07,2,0,4.07,0,6l0.11-.41c0.27-.92.51-1.84,0.8-2.79,0.59-1.92,1.2-3.86,1.88-5.74a177.71,177.71,0,0,1,8.6-20.25c2.67-5.36,4.71-8.8,4.71-8.8s-1.52,3.67-3.36,9.3a172.56,172.56,0,0,0-5.46,20.84c-0.38,1.91-.68,3.81-1,5.67-0.15.93-.25,1.91-0.38,2.85l-0.18,1.41-0.08,1.3a64.82,64.82,0,0,0,.1,9.63c0,0.37.06,0.72,0.1,1.07,0.32-1.43.69-3,1.11-4.65,0.56-2.17,1.17-4.52,1.91-7s1.58-5.07,2.53-7.74c0.52-1.33,1-2.69,1.6-4l0.43-1,0.24-.56,0.23-.49c0.31-.66.58-1.29,0.93-2a82.7,82.7,0,0,1,4.47-8,142.37,142.37,0,0,1,10.45-14.28c3.59-4.34,7.13-8.23,10.24-11.49,6.23-6.51,10.73-10.5,10.73-10.5s-4.06,4.4-9.54,11.42c-2.74,3.51-5.82,7.68-8.88,12.26A136.56,136.56,0,0,0,365.71,660a77.12,77.12,0,0,0-3.37,7.77c-0.24.62-.47,1.35-0.7,2l-0.17.51c0,0.07-.08.3-0.12,0.45l-0.28,1c-0.39,1.29-.68,2.62-1,3.9-0.57,2.6-1.09,5.13-1.46,7.55s-0.71,4.72-1,6.85c-0.11.89-.2,1.74-0.29,2.56,0.46-.9.93-1.82,1.44-2.76,1.08-2,2.29-4.14,3.64-6.29a75.45,75.45,0,0,1,4.52-6.5l0.31-.41c0.16-.22.22-0.27,0.34-0.42l0.62-.74c0.4-.48.85-1,1.31-1.53,0.91-1.06,1.82-2,2.75-3a141,141,0,0,1,34.26-25.14A126.57,126.57,0,0,0,396.37,654a122.08,122.08,0,0,0-18.77,20.83c-0.7,1-1.41,2.08-2,3.09-0.32.51-.63,1-1,1.58l-0.49.83c-0.07.12-.2,0.33-0.21,0.38l-0.21.41a66.68,66.68,0,0,0-3,6.35c-0.87,2.11-1.63,4.28-2.3,6.28a7.72,7.72,0,0,0-.51,1.75h51.59s-3.76-16.88,0-53.15S444.12,569.34,444.12,569.34Z" fill="url(#linear-gradient-2)"/>
      <polygon points="665 569.23 177 608.45 177 349.38 665 388.61 665 569.23" fill="#415562"/>
      <circle cx="205.42" cy="379.92" r="4.89" fill="#4e6675"/>
      <circle cx="641.67" cy="411.67" r="4.89" fill="#4e6675"/>
      <circle cx="205.42" cy="576.75" r="4.89" fill="#4e6675"/>
      <circle cx="641.67" cy="547.89" r="4.89" fill="#4e6675"/>
      <g>
        <path d="M323.24,418.5h-13c-7.68,0-12.26,5.11-12.26,12.79V463.5H268V431.29c0-7.79-4.42-12.79-12.21-12.79H243c-7.89,0-12,5-12,12.79v94.36c0,7.68,4.2,12.86,12,12.86h12.82c7.68,0,12.21-5.18,12.21-12.86V494.5h30v31.14c0,7.68,4.58,12.86,12.26,12.86h13c7.68,0,11.76-5.18,11.76-12.86V431.29C335,423.61,330.91,418.5,323.24,418.5Z" fill="#4e6875"/>
        <path d="M417,505.5H386v-12h20.38c7.89,0,12.62-3.64,12.62-11.43v-8c0-7.68-4.84-11.56-12.62-11.56H386v-11h29c7.68,0,12-4.53,12-12.2v-8c0-7.68-4.29-12.79-12-12.79H361.37c-7.89,0-12.37,5-12.37,12.79v94.36c0,7.68,4.59,12.86,12.37,12.86H417c7.78,0,13-5.18,13-12.86v-8C430,510,424.73,505.5,417,505.5Z" fill="#4e6875"/>
        <path d="M517.25,496.9a54.55,54.55,0,0,0-4.28-6.42c11.31-7.84,15.39-22,15.39-32.78,0-16.91-9.54-31.63-23.71-36.36-5.08-1.75-12.1-2.85-23.45-2.85H450c-7.89,0-12,5-12,12.79v94.36c0,7.68,4.18,12.86,12,12.86h12.82c7.68,0,12.23-5.18,12.23-12.86V502.5h5.18L494.3,530c2.9,5.48,7.55,8.47,13.81,8.47H523c4.63,0,8.09-1.95,9.74-4.76,1.16-2,1.91-5.85-1.08-11.18ZM475,451.5h3.31c3.69,0,6.11,0,8.33,1,3.41,1.41,4.1,3.52,4.1,6.77,0,7.46-3,10.26-10.35,10.26H475v-18Z" fill="#4e6875"/>
        <path d="M608.08,505.5H577v-12h20.5c7.89,0,12.5-3.64,12.5-11.43v-8c0-7.68-4.72-11.56-12.5-11.56H577v-11h29.15c7.68,0,11.85-4.53,11.85-12.2v-8c0-7.68-4.17-12.79-11.85-12.79H552.49c-7.89,0-12.49,5-12.49,12.79v94.36c0,7.68,4.71,12.86,12.49,12.86h55.59c7.78,0,11.92-5.18,11.92-12.86v-8C620,510,615.85,505.5,608.08,505.5Z" fill="#4e6875"/>
      </g>
    </g>
    <polygon id="glow-base" points="177 353.53 177 608.47 662 568.16 662 391.82 177 353.53" fill="none" stroke="#ea46a8" stroke-miterlimit="10" stroke-width="8"/>
    <g id="here">
      <g id="e2">
        <g>
          <path d="M602.12,435.57H563.93a6.84,6.84,0,0,0-6.84,6.84v73.87a6.84,6.84,0,0,0,6.84,6.84h40.69" fill="none" stroke="#ea46a8" stroke-linecap="round" stroke-miterlimit="10" stroke-width="4"/>
          <line x1="594" y1="479.5" x2="557" y2="479.5" fill="none" stroke="#ea46a8" stroke-linecap="round" stroke-miterlimit="10" stroke-width="4"/>
        </g>
        <path d="M546.68,527.56V429.45a6,6,0,0,1,6-6h49.14a11.47,11.47,0,0,1,11.57,10.69A11.27,11.27,0,0,1,602.12,446h-27a6,6,0,0,0-6,6v9.73a6,6,0,0,0,6,6h18.3A11.47,11.47,0,0,1,605,478.36a11.27,11.27,0,0,1-11.24,11.82H575.16a6,6,0,0,0-6,6v8.9a6,6,0,0,0,6,6H604.3a11.47,11.47,0,0,1,11.57,10.69,11.27,11.27,0,0,1-11.24,11.82h-52A6,6,0,0,1,546.68,527.56Z" fill="none" stroke="#ea46a8" stroke-miterlimit="10" stroke-width="3"/>
      </g>
      <g id="r">
        <path d="M455,523.5V442.32c0-3.88-.87-4.82,3.92-4.82H490.4s21.68-.39,21.68,20.46c0,23.14-10.84,27.54-33.35,27.54H457" fill="none" stroke="#ea46a8" stroke-linecap="round" stroke-miterlimit="10" stroke-width="4"/>
        <line x1="513.46" y1="523.95" x2="493.45" y2="485.04" fill="none" stroke="#ea46a8" stroke-linecap="round" stroke-miterlimit="10" stroke-width="4"/>
        <path d="M513.47,535.36a11,11,0,0,1-9.93-5.79l-18.33-34a49.18,49.18,0,0,1-6.48.48H466.5v25.45a11,11,0,1,1-22,0V431.82c0-5.63,1.9-6.66,7.94-6.67s38,0,38,0h0.88c4.32,0,15.22.87,23.34,8.91,5.94,5.88,8.69,12.79,8.69,21.74,0,16.55-5.13,27.54-15.65,33.46l15.71,29.44A11.41,11.41,0,0,1,513.47,535.36Z" fill="none" stroke="#ea46a8" stroke-miterlimit="10" stroke-width="3"/>
        <path d="M482.64,474.76c8.86,0,14.4-5.48,14.4-14.5,0-5.7-1.42-9.67-6.65-11.73-2.53-1.11-5.86-1.29-10.44-1.29h-4.2a6.19,6.19,0,0,0-6.19,6.19v15.13a6.19,6.19,0,0,0,6.19,6.19h6.89Z" fill="none" stroke="#ea46a8" stroke-linecap="round" stroke-miterlimit="10" stroke-width="4"/>
      </g>
      <g id="e1">
        <g>
          <path d="M411.19,435.57H373a6.84,6.84,0,0,0-6.84,6.84v73.87a6.84,6.84,0,0,0,6.84,6.84h40.69" fill="none" stroke="#ea46a8" stroke-linecap="round" stroke-miterlimit="10" stroke-width="4"/>
          <line x1="403" y1="479.5" x2="366" y2="479.5" fill="none" stroke="#ea46a8" stroke-linecap="round" stroke-miterlimit="10" stroke-width="4"/>
        </g>
        <path d="M355.74,527.56V429.45a6,6,0,0,1,6-6h49.14a11.47,11.47,0,0,1,11.57,10.69A11.27,11.27,0,0,1,411.19,446h-27a6,6,0,0,0-6,6v9.73a6,6,0,0,0,6,6h18.3a11.47,11.47,0,0,1,11.57,10.69,11.27,11.27,0,0,1-11.24,11.82H384.23a6,6,0,0,0-6,6v8.9a6,6,0,0,0,6,6h29.13a11.47,11.47,0,0,1,11.57,10.69,11.27,11.27,0,0,1-11.24,11.82h-52A6,6,0,0,1,355.74,527.56Z" fill="none" stroke="#ea46a8" stroke-miterlimit="10" stroke-width="3"/>
      </g>
      <g id="h">
        <line x1="249" y1="433.5" x2="249" y2="520.5" fill="none" stroke="#ea46a8" stroke-linecap="round" stroke-miterlimit="10" stroke-width="4"/>
        <line x1="319" y1="433.5" x2="319" y2="520.5" fill="none" stroke="#ea46a8" stroke-linecap="round" stroke-miterlimit="10" stroke-width="4"/>
        <line x1="319" y1="479.5" x2="250" y2="479.5" fill="none" stroke="#ea46a8" stroke-linecap="round" stroke-miterlimit="10" stroke-width="4"/>
        <path d="M318,532.7a11.48,11.48,0,0,1-11.5-11.26V490h-46v31.45a11.05,11.05,0,0,1-11,11.26c-6.21,0-11-5-11-12.09V433.9c0-5.37,4.79-10.42,11-10.42a11.05,11.05,0,0,1,11,11.26V468h46V434.74A11.48,11.48,0,0,1,318,423.48c6.21,0,11.5,5,11.5,10.42v86.71C329.5,527.65,324.21,532.7,318,532.7Z" fill="none" stroke="#ea46a8" stroke-miterlimit="10" stroke-width="3"/>
      </g>
    </g>
    <g id="over">
      <path id="over-base" d="M536.53,333.52c-6.65-16.28-21.84.39-21.84,0.39a43,43,0,0,1-4.66,3.53,28,28,0,0,1-3.8,2.08c0-.27.07-0.58,0.12-1q0.27-1.87.59-3.86c0.23-1.42.44-2.78,0.63-4.08a27.17,27.17,0,0,0,.35-4.22,14.13,14.13,0,0,0-1.25-5.76,13.27,13.27,0,0,0-7.67-7.06,13.87,13.87,0,0,0-4.86-.82,17.17,17.17,0,0,0-10.23,3.39q-0.64.48-1.26,1l-0.08-.11a9.66,9.66,0,0,0-6.26-3.79,25.32,25.32,0,0,0-7.28.07,11.15,11.15,0,0,0-4.81,2.06,12.11,12.11,0,0,0-3.17,3.62,19.85,19.85,0,0,0-1.57,3.54,53.21,53.21,0,0,0-1.75,6.06l-0.24,1.06a22.46,22.46,0,0,0-.91-2.5,22.15,22.15,0,0,0-5.29-7.49,22.93,22.93,0,0,0-7.57-4.62,24.75,24.75,0,0,0-9-1.52,25.83,25.83,0,0,0-10.58,2.3,29.82,29.82,0,0,0-8.19,5.6,36.08,36.08,0,0,0-6,7.68c-0.12.21-.23,0.42-0.35,0.63a20.63,20.63,0,0,0,.16-2.79,12.33,12.33,0,0,0-5.64-10.31,17,17,0,0,0-9.93-2.69,15.77,15.77,0,0,0-4.76.78,17.31,17.31,0,0,0-3.79,1.77,13.31,13.31,0,0,0-3.7,3.42,12.59,12.59,0,0,0-1.6,2.92,12.54,12.54,0,0,0-2.8-4.9,11.48,11.48,0,0,0-8.88-3.69,12.69,12.69,0,0,0-1.44.1c-0.33,0-.67.1-1,0.17l-7,1.23c-0.24,0-.52.1-0.82,0.18,0-.18,0-0.37,0-0.55a69.34,69.34,0,0,0-3.21-20.73A50.64,50.64,0,0,0,346,277.76a41.63,41.63,0,0,0-14.83-11.28,45.07,45.07,0,0,0-19.35-3.83A49.73,49.73,0,0,0,297,265a52.84,52.84,0,0,0-12.69,6.07,56.54,56.54,0,0,0-10.65,9.08,75.09,75.09,0,0,0-8.36,11,86.19,86.19,0,0,0-6.41,12.51,103.33,103.33,0,0,0-7.09,26.82,99.81,99.81,0,0,0-.77,13.28,82.47,82.47,0,0,0,3.27,22.77,58,58,0,0,0,9.22,18.6,43.83,43.83,0,0,0,15,12.61,41.67,41.67,0,0,0,19.67,4.41,43.77,43.77,0,0,0,19-4.46,55.91,55.91,0,0,0,15.22-11.11A75,75,0,0,0,344,371.08a105.25,105.25,0,0,0,6.73-14.35c0.09,1.61.19,3.37,0.28,5.3l0.15,2.15c0.14,2,.32,4.14.53,6.41a34,34,0,0,0,1.68,8,19,19,0,0,0,5,7.82,15,15,0,0,0,10.69,3.81,14.46,14.46,0,0,0,9.34-3.94,39.69,39.69,0,0,0,5.86-6.5q1.33-1.8,2.6-3.83a21.15,21.15,0,0,0,5.09,2.8,22.84,22.84,0,0,0,8.58,1.46,30.46,30.46,0,0,0,10-1.94l0.07,0.09A28.27,28.27,0,0,0,420.4,386a29.45,29.45,0,0,0,13.26,2.74,38.31,38.31,0,0,0,8.84-1.14,50.05,50.05,0,0,0,8-2.72,58,58,0,0,0,5.57-2.81,14.48,14.48,0,0,0,3.73,3.84,14,14,0,0,0,8.44,2.43,12,12,0,0,0,9.62-4.86,21.39,21.39,0,0,0,2.43-4.12,48.27,48.27,0,0,0,1.87-4.82l3.77-11.24a21.1,21.1,0,0,0,4.28,3.77,20,20,0,0,0,11.58,3.08,23.81,23.81,0,0,0,7.22-1.21,38.85,38.85,0,0,0,5.79-2.45,52.42,52.42,0,0,0,4.93-2.92q2-1.35,3.59-2.44l3.22-2.23S542,346.95,536.53,333.52Zm-134,16.81a9.47,9.47,0,0,1,.09-1.44,11.87,11.87,0,0,1,.28-1.4l0.06-.24c0.1-.42.23-0.84,0.37-1.25,0.3-.7.58-1.36,0.86-2-0.19.87-.36,1.75-0.5,2.62-0.19,1.22-.34,2.42-0.45,3.6a3,3,0,0,1-.38.09h-0.34ZM305,369.84a13.39,13.39,0,0,1-5.74,1.28,13.8,13.8,0,0,1-6.79-1.49,15.66,15.66,0,0,1-5.28-4.57,24.53,24.53,0,0,1-3.75-7.79,39.48,39.48,0,0,1-1.52-10.74,56.85,56.85,0,0,1,1.19-11.77,78,78,0,0,1,3.66-12.56,76.05,76.05,0,0,1,5.72-11.76,53.76,53.76,0,0,1,7.14-9.5,32.23,32.23,0,0,1,7.74-6.07,14.82,14.82,0,0,1,7.08-1.94,10.28,10.28,0,0,1,5.25,1.15,11.06,11.06,0,0,1,3.82,3.55,20.53,20.53,0,0,1,2.76,6.48,39.41,39.41,0,0,1,1.13,9.21,81.75,81.75,0,0,1-.38,8.21c-0.28,3-.74,6.27-1.36,9.58s-1.45,6.74-2.43,10.16a89.57,89.57,0,0,1-3.43,9.77,61.12,61.12,0,0,1-4.37,8.53,34.92,34.92,0,0,1-5,6.42A19.58,19.58,0,0,1,305,369.84Z" fill="#ea46a8"/>
      <path id="o" d="M318.24,276.8c-25.92-5.69-48.79,29.88-52.36,57.89s6.37,49.88,27.07,51.63c27.82,2.36,41.76-23.13,46.05-43.83S349,283.56,318.24,276.8Z" fill="none" stroke="#5fe6ff" stroke-linecap="round" stroke-miterlimit="10" stroke-width="7"/>
      <path id="ver" d="M364.72,330.21s0.14,46.65,4.07,46.49c8.48-.35,21-50.17,24.89-50.49,6.94-.58-14.37,37.88,4.4,40.24,9.6,1.21,28.56-5.06,39.51-14.78,8.83-7.85,10.88-19.87,6-23.3-14.9-10.56-28.69,13.57-26.22,32.53,2.08,16,20.66,21.4,42.05,3.5C476.12,350.46,475.35,325,472,325c-4.61-.06-8,36.06-6,45.36s17-44.82,24.72-44.25-1,27.32,8.09,30.54,22.51-10.25,22.51-10.25" fill="none" stroke="#5fe6ff" stroke-linecap="round" stroke-miterlimit="10" stroke-width="7"/>
    </g>
  </g>
</svg>
