<svg id="Layer_1" data-name="Layer 1" xmlns="http://www.w3.org/2000/svg" viewBox="0 0 800 800">
  <title>clouds</title>
  <g id="cloudGroup">
    <path id="cloud" d="M813-645.46a26,26,0,0,1,.39,2.88q1.19,46.83,2.35,93.66c0.25,9.89.85,19.78,0.68,29.66-0.21,11.77-1.09,23.52-1.66,35.29-0.05,1.07-.34,2.32.08,3.2,3.25,6.81,1.88,14.11,2.2,21.18,0.6,13.63.57,27.28,1.18,40.9,0.32,7.18,1.91,14.07,7.65,19.29,4.79,4.36,4.76,10.28,4,16-0.27,2-2.42,4-4.15,5.47a10.27,10.27,0,0,0-4,7.13,28.15,28.15,0,0,1-2.84,8.68c-4.32,9-7.87,18.15-7.56,28.42q0.88,28.89,1.47,57.78c0.06,2.87.31,4.61,4,4.66,3.94,0.06,6,3.09,7.72,6.53,4.28,8.81,5.37,18.1,5.19,27.75s0.3,19,3.43,28.22a22.33,22.33,0,0,0,8.51,11.51,7.2,7.2,0,0,1,2.68,4.86c0.54,13,1.23,26.08.94,39.11-0.16,7.27-2.08,14.5-3.21,21.75a15.49,15.49,0,0,0-.3,1.75c-0.45,11.77-1,23.54-1.31,35.32-0.66,23.26-2,46.48-1.37,69.8,0.25,9-3.27,18.08-5,27.13-1,5.46-1.68,11-3,16.41a73.66,73.66,0,0,1-4.42,13.39C826,33.69,823.37,35,821.62,35c-2.68,0-2.39-2.66-2.45-4.7q-2.52-98.12-5.06-196.23l-0.1-3.93c-4.27,1.64-8.62,2.07-11.61,5.91-1.54,2-4.34,3-6,4.91a86,86,0,0,0-8.22,11.12c-3.61,5.94-8.69,8-14.16,4.74a5.44,5.44,0,0,1-2.43-3.76c-0.66-20.33-1.62-40.67-1.47-61,0.1-12.77,2-25.52,3-38.29,0.39-5.34-.24-10.8.55-16.05,2.33-15.39,0-30.73.17-46.09,0.07-5.62-.25-11.24-0.44-16.86-0.13-3.9-1.26-5-5.24-5-3.11,0-6.22.07-9.33,0.17-2.54.08-3.65-1-3.63-3.62,0-4.66-1-9.5-.13-13.95,1.15-5.55,3.84-10.78,5.86-16.16,1.57-4.17,3.44-8.25,4.6-12.53,2.16-8,2-16.2,1.74-24.42-0.07-2,1.3-4.15,2.27-6.1a61,61,0,0,1,4.45-7.86c1.59-2.27,3.24-5,5.55-6.17,6.18-3.22,10-8.65,14.56-13.51,3.67-3.93,4.79-8.5,5.57-13.49,1.88-12,4.58-23.9,5.79-36,1.11-11,.58-22.17,1-33.26,0.16-3.76,1.52-7.49,1.62-11.24,0.17-6.69-.5-13.39-0.28-20.08,0.22-6.88,1.18-13.74,1.62-20.62,0.53-8.22,1-16.44,1.2-24.67,0.16-7.89-.34-15.78-0.19-23.67,0.17-9.35.71-18.69,1.1-28Z" fill="#fff"/>
  </g>
</svg>
