<svg id="sign" xmlns="http://www.w3.org/2000/svg" xmlns:xlink="http://www.w3.org/1999/xlink" viewBox="0 0 800 800">
  <defs>
    <linearGradient id="linear-gradient" x1="368.87" y1="559.15" x2="405.09" y2="702.77" gradientUnits="userSpaceOnUse">
      <stop offset="0.39" stop-color="#324450"/>
      <stop offset="0.4" stop-color="#415562"/>
    </linearGradient>
  </defs>
  <title>overhere</title>
  <rect class="bg" width="800" height="800"/>

    <g class="sign-group">

  <g class="base-arrow">
    <path d="M172.35,504.69H678.16v84.38L787,478.86,678.16,368.79v79.27L186.83,435.46c-39.1,0-65.29-40.59-45.09-91.44,35.17-88.54,193.85-116.44,193.85-116.44L226.51,171.5s-36.59-97.94-39.26-95.62-170,117.39-170,302.49C17.26,462,100.76,504.69,172.35,504.69Z" fill="#4e6675"/>
    <path class="arrowoverlay" d="M750.71,442L678.08,368.5H678v79.55L186.74,435.46a49.7,49.7,0,0,1-35.56-14.32c-0.4-.39-0.77-0.8-1.16-1.21a52.16,52.16,0,0,1-7.14-9.6,56.12,56.12,0,0,1-3.16-6.33,66.12,66.12,0,0,1-5-26.31q0-1,0-2.09t0.1-2.12A95.55,95.55,0,0,1,141.74,344c9.34-23.52,27.4-42.76,48.88-58.33l1.9-1.36c17.85-12.65,37.92-22.83,57.26-30.87l2.07-.85,4.12-1.66,2-.81q3.06-1.2,6.08-2.32l2-.74,4-1.44q3-1.06,5.86-2c3.86-1.32,7.62-2.54,11.26-3.68q2.73-.85,5.36-1.64l3.46-1,3.36-1,3.25-.91c4.26-1.18,8.22-2.21,11.81-3.11q2.69-.67,5.1-1.24l2.32-.54L324,230c7.3-1.65,11.57-2.4,11.57-2.4L226.51,171.5s-35.73-95.66-39.15-95.66h0a0.16,0.16,0,0,0-.11,0c-2.68,2.32-170,112.74-170,309,0,57.86,59.17,119.6,155.1,119.6H678v84h0.08l54.46-54.82L787,478.74v0Zm-569-341.84c7.51,18,19.44,48.68,30,76.86l2.15,5.74,5.45,2.8,71.39,36.71c-11.53,3.39-24.66,7.71-38.42,13.09l-95-113.79C166.43,113,174.78,105.81,181.71,100.18Zm-30.5,27.17,92.91,111.3q-11.9,4.94-22.78,10.33l-2.53,1.16-95.14-93.66C133.11,145.6,142.45,135.87,151.21,127.36ZM108.48,175q4.86-6.25,9.76-12.1l92.87,91.43a266.22,266.22,0,0,0-30.52,19.11l-85.67-80Q101.4,184.08,108.48,175ZM90.19,200.36l83.69,78.15a184,184,0,0,0-19.05,17.32c-2,1.61-3.84,3.21-5.55,4.75L68.14,238A381.38,381.38,0,0,1,90.19,200.36ZM56.16,264q3.79-9.24,8.21-18.41l80.35,62A131.16,131.16,0,0,0,132.19,327L48,286.15Q51.65,275,56.16,264ZM45.51,294.21l83.06,40.26c-0.54,1.23-1.06,2.46-1.56,3.7a119.06,119.06,0,0,0-5.84,19.17l-86-13.48A300,300,0,0,1,45.51,294.21ZM33.1,378.36q0-13.11,1.21-26.2l85.45,13.4a96.06,96.06,0,0,0-.79,16.21L35.24,400.6A113,113,0,0,1,33.1,378.36ZM45,427.62a92.6,92.6,0,0,1-7.77-18.92l82.48-18.55a78.32,78.32,0,0,0,4.75,18.35L61.73,449.6A95.07,95.07,0,0,1,45,427.62Zm31.18,33.92q-4.23-2.95-8.06-6.16L128,416.14a71,71,0,0,0,3.78,6.25,67.6,67.6,0,0,0,6.39,8L105.84,477A138.53,138.53,0,0,1,76.17,461.55Zm72.31,25.85A185.09,185.09,0,0,1,114,479.87l30.31-43.64A64.42,64.42,0,0,0,156,444Zm23.87,1.1c-5.22,0-10.41,0-15.56-.45l7.11-40.74a68.06,68.06,0,0,0,22.7,3.95l490.81,12.61,7.58,0.23V488.5H172.35ZM694,504.69V407.35l17,16.87V533.58l-17,16.89V504.69Zm25,20.44V432.65l18,18.56v55.34Zm27-27V459.65l19,19.22Z" fill="#415562"/>
  </g>
  <g class="glow-lines">

      <line class="line" x1="139.76" y1="147.64" x2="225.54" y2="238.25" fill="none" stroke="#318d85" stroke-linecap="round" stroke-miterlimit="10" stroke-width="5"/>

      <line class="line" x1="184.98" y1="257.15" x2="111.32" y2="183.49" fill="none" stroke="#318d85" stroke-linecap="round" stroke-miterlimit="10" stroke-width="5"/>

      <line class="line" x1="81.14" y1="225.46" x2="154.95" y2="284.38" fill="none" stroke="#318d85" stroke-linecap="round" stroke-miterlimit="10" stroke-width="5"/>

      <line class="line" x1="131.8" y1="311.62" x2="61.57" y2="271.04" fill="none" stroke="#318d85" stroke-linecap="round" stroke-miterlimit="10" stroke-width="5"/>

      <line class="line" x1="44.33" y1="324.21" x2="115.48" y2="344.41" fill="none" stroke="#318d85" stroke-linecap="round" stroke-miterlimit="10" stroke-width="5"/>

      <line class="line" x1="111.32" y1="373.62" x2="37.11" y2="376.7" fill="none" stroke="#318d85" stroke-linecap="round" stroke-miterlimit="10" stroke-width="5"/>

      <line class="line" x1="52.3" y1="428.34" x2="115.48" y2="402.19" fill="none" stroke="#318d85" stroke-linecap="round" stroke-miterlimit="10" stroke-width="5"/>

      <line class="line" x1="128.82" y1="428.34" x2="91.03" y2="462.64" fill="none" stroke="#318d85" stroke-linecap="round" stroke-miterlimit="10" stroke-width="5"/>

      <line class="line" x1="134.15" y1="480.59" x2="148.15" y2="445.49" fill="none" stroke="#318d85" stroke-linecap="round" stroke-miterlimit="10" stroke-width="5"/>

      <line class="line" x1="171.07" y1="453.91" x2="166.91" y2="483.37" fill="none" stroke="#318d85" stroke-linecap="round" stroke-miterlimit="10" stroke-width="5"/>

      <line class="line" x1="675.5" y1="470.5" x2="675.5" y2="482.5" fill="none" stroke="#318d85" stroke-linecap="round" stroke-miterlimit="10" stroke-width="5"/>

      <line class="line" x1="701.5" y1="424.5" x2="701.5" y2="529.5" fill="none" stroke="#318d85" stroke-linecap="round" stroke-miterlimit="10" stroke-width="5"/>

      <line class="line" x1="728.5" y1="452.5" x2="728.5" y2="503.5" fill="none" stroke="#318d85" stroke-linecap="round" stroke-miterlimit="10" stroke-width="5"/>

      <line class="line" x1="751.5" y1="473.5" x2="751.5" y2="485.5" fill="none" stroke="#318d85" stroke-linecap="round" stroke-miterlimit="10" stroke-width="5"/>

  </g>
  <path class="glow-arrow" d="M185.38,85.62c7,15.21,23.55,57.87,34.89,88.22l0.9,2.42,2.3,1.18L316,225a472.39,472.39,0,0,0-66.65,21.43c-26.12,10.7-48.5,23.06-66.5,36.74-22.9,17.41-38.81,37.05-47.29,58.4-11.15,28.08-9.76,55.67,3.83,75.69a56.43,56.43,0,0,0,47.37,24.89L678,454.72l6.84,0.18V385l92.75,93.84-92.75,94V498H172.35a204.53,204.53,0,0,1-53.61-7.12c-18.09-5-34.18-12.33-47.82-21.83-14.65-10.2-26.08-22.66-34-37-8.65-15.74-13-33.8-13-53.68,0-39.77,8-79.42,23.75-117.86,12.82-31.29,30.85-62,53.57-91.18a475.76,475.76,0,0,1,84.13-83.71m2-9.78a0.16,0.16,0,0,0-.11,0c-2.68,2.32-170,117.39-170,302.49,0,88.06,81.27,126.33,155.1,126.33H678.16v84.38L787,478.86,678.16,368.79v79.27L186.83,435.46c-39.1,0-65.29-40.59-45.09-91.44,35.17-88.54,193.85-116.44,193.85-116.44L226.51,171.5s-35.73-95.66-39.15-95.66h0Z" fill="#ea46a8"/>
  <g class="base">
    <path d="M300.89,577.79s13.68,34.47,20.56,62,12.2,55.73,12.2,55.73h85.88s-3.76-16.88,0-53.15,24.6-73,24.6-73Z" fill="url(#linear-gradient)"/>
    <polygon points="665 569.23 177 608.45 177 349.38 665 388.61 665 569.23" fill="#415562"/>
    <circle cx="205.42" cy="379.92" r="4.89" fill="#4e6675"/>
    <circle cx="641.67" cy="411.67" r="4.89" fill="#4e6675"/>
    <circle cx="205.42" cy="576.75" r="4.89" fill="#4e6675"/>
    <circle cx="641.67" cy="547.89" r="4.89" fill="#4e6675"/>
    <g>
      <path d="M310.26,538.5c-7.68,0-12.26-5.18-12.26-12.86V494.5H268v31.14c0,7.68-4.53,12.86-12.21,12.86H243c-7.78,0-12-5.18-12-12.86V431.29c0-7.79,4.08-12.79,12-12.79h12.82c7.79,0,12.21,5,12.21,12.79V463.5h30V431.29c0-7.68,4.58-12.79,12.26-12.79h13c7.68,0,11.76,5.11,11.76,12.79v94.36c0,7.68-4.09,12.86-11.76,12.86h-13Z" fill="#318d85"/>
      <path d="M232.4,431.29c0-6.89,3.69-10.41,10.57-10.41h12.82c6.89,0,10.41,3.52,10.41,10.41v33.48h33.64V431.29c0-6.89,3.68-10.41,10.41-10.41h13c6.73,0,10.41,3.52,10.41,10.41v94.36c0,6.73-3.68,10.41-10.41,10.41h-13c-6.73,0-10.41-3.68-10.41-10.41v-32.2H266.2v32.2c0,6.73-3.52,10.41-10.41,10.41H243c-6.89,0-10.57-3.68-10.57-10.41V431.29Z" fill="#318d85"/>
      <path d="M361.37,538.5c-7.78,0-12.37-5.18-12.37-12.86V431.29c0-7.79,4.47-12.79,12.37-12.79H415c7.68,0,12,5.11,12,12.79v8c0,7.68-4.29,12.2-12,12.2H386v11h20.38c7.78,0,12.62,3.88,12.62,11.56v8c0,7.79-4.73,11.43-12.62,11.43H386v12h31c7.78,0,13,4.46,13,12.13v8c0,7.68-5.27,12.86-13,12.86H361.37Z" fill="#318d85"/>
      <path d="M350.79,431.29c0-6.89,3.69-10.41,10.57-10.41H415c6.73,0,10.41,3.52,10.41,10.41v8c0,6.73-3.69,10.41-10.41,10.41H384.59v13.94h21.79c6.89,0,10.57,3.68,10.57,10.41v8c0,6.89-3.68,10.41-10.57,10.41H384.59v14.74H417c6.89,0,10.57,3.68,10.57,10.41v8c0,6.73-3.69,10.41-10.57,10.41H361.37c-6.89,0-10.57-3.68-10.57-10.41V431.29Z" fill="#318d85"/>
      <path d="M508.11,538.5c-6.26,0-10.91-3-13.81-8.47L480.18,502.5H475v23.14c0,7.68-4.55,12.86-12.23,12.86H450c-7.78,0-12-5.18-12-12.86V431.29c0-7.79,4.06-12.79,12-12.79H481.2c11.35,0,18.37,1.1,23.45,2.85,14.18,4.73,23.71,19.44,23.71,36.36,0,10.82-4.08,24.94-15.39,32.78a54.53,54.53,0,0,1,4.28,6.42l14.42,25.66c3,5.33,2.23,9.21,1.08,11.18-1.65,2.81-5.1,4.76-9.74,4.76h-14.9Zm-27.71-69c7.35,0,10.35-2.8,10.35-10.26,0-3.24-.69-5.35-4.1-6.77-2.23-1-4.64-1-8.33-1H475v18h5.4Z" fill="#318d85"/>
      <path d="M439.39,431.29c0-6.89,3.68-10.41,10.57-10.41H481.2c10.57,0,17.78.64,22.91,2.4,13,4.33,22.59,17.62,22.59,34.6,0,11.69-4.81,25.31-16,32.2v0.32a48,48,0,0,1,5.13,7.37l14.42,25.63c4.49,8,.48,12.66-7.21,12.66h-14.9a13,13,0,0,1-12.34-7.37L481.2,500.49h-8v25.15c0,6.73-3.52,10.41-10.41,10.41H450c-6.89,0-10.57-3.68-10.57-10.41V431.29Zm41,40.37c8,0,12-3.52,12-12.18,0-3-.48-6.57-5.13-8.49-2.56-1.12-5.29-1.28-9-1.28h-5.13v21.95h7.21Z" fill="#318d85"/>
      <path d="M552.49,538.5c-7.78,0-12.49-5.18-12.49-12.86V431.29c0-7.79,4.59-12.79,12.49-12.79h53.67c7.68,0,11.85,5.11,11.85,12.79v8c0,7.68-4.17,12.2-11.85,12.2H577v11h20.5c7.78,0,12.5,3.88,12.5,11.56v8c0,7.79-4.6,11.43-12.5,11.43H577v12h31.08c7.78,0,11.92,4.46,11.92,12.13v8c0,7.68-4.15,12.86-11.92,12.86H552.49Z" fill="#318d85"/>
      <path d="M541.91,431.29c0-6.89,3.69-10.41,10.57-10.41h53.67c6.73,0,10.41,3.52,10.41,10.41v8c0,6.73-3.69,10.41-10.41,10.41H575.72v13.94H597.5c6.89,0,10.57,3.68,10.57,10.41v8c0,6.89-3.68,10.41-10.57,10.41H575.72v14.74h32.36c6.89,0,10.57,3.68,10.57,10.41v8c0,6.73-3.69,10.41-10.57,10.41H552.49c-6.89,0-10.57-3.68-10.57-10.41V431.29Z" fill="#318d85"/>
    </g>
    <path d="M368.45,693.75c0.67-2,1.43-4.17,2.3-6.28a66.69,66.69,0,0,1,3-6.35l0.21-.41s0.14-.26.21-0.38l0.49-.83c0.33-.57.64-1.07,1-1.58,0.61-1,1.32-2.07,2-3.09A122.08,122.08,0,0,1,396.37,654a126.58,126.58,0,0,1,10.13-8.26,141,141,0,0,0-34.26,25.14c-0.94,1-1.84,1.95-2.75,3-0.46.52-.91,1-1.31,1.53l-0.62.74c-0.12.14-.17,0.2-0.34,0.42l-0.31.41a75.44,75.44,0,0,0-4.52,6.5c-1.34,2.15-2.55,4.27-3.64,6.29-0.5.94-1,1.86-1.44,2.76,0.09-.83.18-1.68,0.29-2.56,0.27-2.13.57-4.43,1-6.85s0.89-5,1.46-7.55c0.33-1.28.62-2.61,1-3.9l0.28-1c0-.14.11-0.38,0.12-0.45l0.17-.51c0.23-.66.46-1.39,0.7-2a77.11,77.11,0,0,1,3.37-7.77,136.55,136.55,0,0,1,8.65-14.77c3.07-4.58,6.14-8.76,8.88-12.26,5.48-7,9.54-11.42,9.54-11.42s-4.5,4-10.73,10.5c-3.11,3.25-6.65,7.14-10.24,11.49a142.37,142.37,0,0,0-10.45,14.28,82.68,82.68,0,0,0-4.47,8c-0.35.69-.62,1.32-0.93,2l-0.23.49-0.24.56-0.43,1c-0.6,1.36-1.08,2.71-1.6,4-1,2.67-1.82,5.27-2.53,7.74s-1.36,4.82-1.91,7c-0.41,1.66-.78,3.22-1.11,4.65,0-.35-0.07-0.7-0.1-1.07a64.8,64.8,0,0,1-.1-9.63l0.08-1.3,0.18-1.41c0.13-.94.23-1.91,0.38-2.85,0.29-1.86.59-3.75,1-5.67a172.56,172.56,0,0,1,5.46-20.84c1.84-5.62,3.36-9.3,3.36-9.3s-2,3.44-4.71,8.8a177.74,177.74,0,0,0-8.6,20.25c-0.68,1.89-1.28,3.82-1.88,5.74-0.3,1-.53,1.87-0.8,2.79l-0.11.41c-0.05-2-.08-4,0-6l0-1.58,0.11-1.68c0.07-1.12.14-2.26,0.25-3.34,0.18-2.18.47-4.39,0.76-6.57l0.49-3.23,0.56-3.15c0.78-4.13,1.67-8,2.52-11.26,1.7-6.56,3.23-10.86,3.23-10.86s-2.15,4-4.83,10.37c-1.34,3.16-2.81,6.89-4.22,11l-1,3.11-1,3.21c-0.63,2.18-1.25,4.39-1.79,6.67-0.3,1.15-.53,2.25-0.76,3.35L336,670.75l-0.31,1.75c-0.4,2.27-.69,4.5-0.94,6.66-0.48,4.31-.76,8.5-0.94,11.94-0.08,1.54-.14,2.4-0.18,4.4h34.3A7.72,7.72,0,0,1,368.45,693.75Z"/>
  </g>
  <g class="here">
    <g class="e2">
      <g>
        <path d="M602.12,435.57H563.93a6.84,6.84,0,0,0-6.84,6.84v73.87a6.84,6.84,0,0,0,6.84,6.84h40.69" fill="none" stroke="#ea46a8" stroke-linecap="round" stroke-miterlimit="10" stroke-width="4"/>
        <line x1="594" y1="479.5" x2="557" y2="479.5" fill="none" stroke="#ea46a8" stroke-linecap="round" stroke-miterlimit="10" stroke-width="4"/>
      </g>
      <path d="M546.68,527.56V429.45a6,6,0,0,1,6-6h49.14a11.47,11.47,0,0,1,11.57,10.69A11.27,11.27,0,0,1,602.12,446h-27a6,6,0,0,0-6,6v9.73a6,6,0,0,0,6,6h18.3A11.47,11.47,0,0,1,605,478.36a11.27,11.27,0,0,1-11.24,11.82H575.16a6,6,0,0,0-6,6v8.9a6,6,0,0,0,6,6H604.3a11.47,11.47,0,0,1,11.57,10.69,11.27,11.27,0,0,1-11.24,11.82h-52A6,6,0,0,1,546.68,527.56Z" fill="none" stroke="#ea46a8" stroke-miterlimit="10" stroke-width="3"/>
    </g>
    <g class="r">
      <path d="M455,523.5V442.32c0-3.88-.87-4.82,3.92-4.82H490.4s21.68-.39,21.68,20.46c0,23.14-10.84,27.54-33.35,27.54H457" fill="none" stroke="#ea46a8" stroke-linecap="round" stroke-miterlimit="10" stroke-width="4"/>
      <line x1="513.46" y1="523.95" x2="493.45" y2="485.04" fill="none" stroke="#ea46a8" stroke-linecap="round" stroke-miterlimit="10" stroke-width="4"/>
      <path d="M513.47,535.36a11,11,0,0,1-9.93-5.79l-18.33-34a49.18,49.18,0,0,1-6.48.48H466.5v25.45a11,11,0,1,1-22,0V431.82c0-5.63,1.9-6.66,7.94-6.67s38,0,38,0h0.88c4.32,0,15.22.87,23.34,8.91,5.94,5.88,8.69,12.79,8.69,21.74,0,16.55-5.13,27.54-15.65,33.46l15.71,29.44A11.41,11.41,0,0,1,513.47,535.36Z" fill="none" stroke="#ea46a8" stroke-miterlimit="10" stroke-width="3"/>
      <path d="M482.64,474.76c8.86,0,14.4-5.48,14.4-14.5,0-5.7-1.42-9.67-6.65-11.73-2.53-1.11-5.86-1.29-10.44-1.29h-4.2a6.19,6.19,0,0,0-6.19,6.19v15.13a6.19,6.19,0,0,0,6.19,6.19h6.89Z" fill="none" stroke="#ea46a8" stroke-linecap="round" stroke-miterlimit="10" stroke-width="4"/>
    </g>
    <g class="e1">
      <g>
        <path d="M411.19,435.57H373a6.84,6.84,0,0,0-6.84,6.84v73.87a6.84,6.84,0,0,0,6.84,6.84h40.69" fill="none" stroke="#ea46a8" stroke-linecap="round" stroke-miterlimit="10" stroke-width="4"/>
        <line x1="403" y1="479.5" x2="366" y2="479.5" fill="none" stroke="#ea46a8" stroke-linecap="round" stroke-miterlimit="10" stroke-width="4"/>
      </g>
      <path d="M355.74,527.56V429.45a6,6,0,0,1,6-6h49.14a11.47,11.47,0,0,1,11.57,10.69A11.27,11.27,0,0,1,411.19,446h-27a6,6,0,0,0-6,6v9.73a6,6,0,0,0,6,6h18.3a11.47,11.47,0,0,1,11.57,10.69,11.27,11.27,0,0,1-11.24,11.82H384.23a6,6,0,0,0-6,6v8.9a6,6,0,0,0,6,6h29.13a11.47,11.47,0,0,1,11.57,10.69,11.27,11.27,0,0,1-11.24,11.82h-52A6,6,0,0,1,355.74,527.56Z" fill="none" stroke="#ea46a8" stroke-miterlimit="10" stroke-width="3"/>
    </g>
    <g class="h">
      <line x1="249" y1="433.5" x2="249" y2="520.5" fill="none" stroke="#ea46a8" stroke-linecap="round" stroke-miterlimit="10" stroke-width="4"/>
      <line x1="319" y1="433.5" x2="319" y2="520.5" fill="none" stroke="#ea46a8" stroke-linecap="round" stroke-miterlimit="10" stroke-width="4"/>
      <line x1="319" y1="479.5" x2="250" y2="479.5" fill="none" stroke="#ea46a8" stroke-linecap="round" stroke-miterlimit="10" stroke-width="4"/>
      <path d="M318,532.7a11.48,11.48,0,0,1-11.5-11.26V490h-46v31.45a11.05,11.05,0,0,1-11,11.26c-6.21,0-11-5-11-12.09V433.9c0-5.37,4.79-10.42,11-10.42a11.05,11.05,0,0,1,11,11.26V468h46V434.74A11.48,11.48,0,0,1,318,423.48c6.21,0,11.5,5,11.5,10.42v86.71C329.5,527.65,324.21,532.7,318,532.7Z" fill="none" stroke="#ea46a8" stroke-miterlimit="10" stroke-width="3"/>
    </g>
  </g>
  <path class="glow-sign" d="M188,361.2l467,37.42V559.22L188,596.71V361.5m-11-12.12V608.45l488-39.22V388.61L177,349.38h0Z" fill="#ea46a8"/>
  <path class="base-over" d="M536.53,333.52c-6.65-16.28-21.84.39-21.84,0.39a43,43,0,0,1-4.66,3.53,28,28,0,0,1-3.8,2.08c0-.27.07-0.58,0.12-1q0.27-1.87.59-3.86c0.23-1.42.44-2.78,0.63-4.08a27.17,27.17,0,0,0,.35-4.22,14.13,14.13,0,0,0-1.25-5.76,13.27,13.27,0,0,0-7.67-7.06,13.87,13.87,0,0,0-4.86-.82,17.17,17.17,0,0,0-10.23,3.39q-0.64.48-1.26,1l-0.08-.11a9.66,9.66,0,0,0-6.26-3.79,25.32,25.32,0,0,0-7.28.07,11.15,11.15,0,0,0-4.81,2.06,12.11,12.11,0,0,0-3.17,3.62,19.85,19.85,0,0,0-1.57,3.54,53.21,53.21,0,0,0-1.75,6.06l-0.24,1.06a22.46,22.46,0,0,0-.91-2.5,22.15,22.15,0,0,0-5.29-7.49,22.93,22.93,0,0,0-7.57-4.62,24.75,24.75,0,0,0-9-1.52,25.83,25.83,0,0,0-10.58,2.3,29.82,29.82,0,0,0-8.19,5.6,36.08,36.08,0,0,0-6,7.68c-0.12.21-.23,0.42-0.35,0.63a20.63,20.63,0,0,0,.16-2.79,12.33,12.33,0,0,0-5.64-10.31,17,17,0,0,0-9.93-2.69,15.77,15.77,0,0,0-4.76.78,17.31,17.31,0,0,0-3.79,1.77,13.31,13.31,0,0,0-3.7,3.42,12.59,12.59,0,0,0-1.6,2.92,12.54,12.54,0,0,0-2.8-4.9,11.48,11.48,0,0,0-8.88-3.69,12.69,12.69,0,0,0-1.44.1c-0.33,0-.67.1-1,0.17l-7,1.23c-0.24,0-.52.1-0.82,0.18,0-.18,0-0.37,0-0.55a69.34,69.34,0,0,0-3.21-20.73A50.64,50.64,0,0,0,346,277.76a41.63,41.63,0,0,0-14.83-11.28,45.07,45.07,0,0,0-19.35-3.83A49.73,49.73,0,0,0,297,265a52.84,52.84,0,0,0-12.69,6.07,56.54,56.54,0,0,0-10.65,9.08,75.09,75.09,0,0,0-8.36,11,86.19,86.19,0,0,0-6.41,12.51,103.33,103.33,0,0,0-7.09,26.82,99.81,99.81,0,0,0-.77,13.28,82.47,82.47,0,0,0,3.27,22.77,58,58,0,0,0,9.22,18.6,43.83,43.83,0,0,0,15,12.61,41.67,41.67,0,0,0,19.67,4.41,43.77,43.77,0,0,0,19-4.46,55.91,55.91,0,0,0,15.22-11.11A75,75,0,0,0,344,371.08a105.25,105.25,0,0,0,6.73-14.35c0.09,1.61.19,3.37,0.28,5.3l0.15,2.15c0.14,2,.32,4.14.53,6.41a34,34,0,0,0,1.68,8,19,19,0,0,0,5,7.82,15,15,0,0,0,10.69,3.81,14.46,14.46,0,0,0,9.34-3.94,39.69,39.69,0,0,0,5.86-6.5q1.33-1.8,2.6-3.83a21.15,21.15,0,0,0,5.09,2.8,22.84,22.84,0,0,0,8.58,1.46,30.46,30.46,0,0,0,10-1.94l0.07,0.09A28.27,28.27,0,0,0,420.4,386a29.45,29.45,0,0,0,13.26,2.74,38.31,38.31,0,0,0,8.84-1.14,50.05,50.05,0,0,0,8-2.72,58,58,0,0,0,5.57-2.81,14.48,14.48,0,0,0,3.73,3.84,14,14,0,0,0,8.44,2.43,12,12,0,0,0,9.62-4.86,21.39,21.39,0,0,0,2.43-4.12,48.27,48.27,0,0,0,1.87-4.82l3.77-11.24a21.1,21.1,0,0,0,4.28,3.77,20,20,0,0,0,11.58,3.08,23.81,23.81,0,0,0,7.22-1.21,38.85,38.85,0,0,0,5.79-2.45,52.42,52.42,0,0,0,4.93-2.92q2-1.35,3.59-2.44l3.22-2.23S542,346.95,536.53,333.52Zm-134,16.81a9.47,9.47,0,0,1,.09-1.44,11.87,11.87,0,0,1,.28-1.4l0.06-.24c0.1-.42.23-0.84,0.37-1.25,0.3-.7.58-1.36,0.86-2-0.19.87-.36,1.75-0.5,2.62-0.19,1.22-.34,2.42-0.45,3.6a3,3,0,0,1-.38.09h-0.34ZM305,369.84a13.39,13.39,0,0,1-5.74,1.28,13.8,13.8,0,0,1-6.79-1.49,15.66,15.66,0,0,1-5.28-4.57,24.53,24.53,0,0,1-3.75-7.79,39.48,39.48,0,0,1-1.52-10.74,56.85,56.85,0,0,1,1.19-11.77,78,78,0,0,1,3.66-12.56,76.05,76.05,0,0,1,5.72-11.76,53.76,53.76,0,0,1,7.14-9.5,32.23,32.23,0,0,1,7.74-6.07,14.82,14.82,0,0,1,7.08-1.94,10.28,10.28,0,0,1,5.25,1.15,11.06,11.06,0,0,1,3.82,3.55,20.53,20.53,0,0,1,2.76,6.48,39.41,39.41,0,0,1,1.13,9.21,81.75,81.75,0,0,1-.38,8.21c-0.28,3-.74,6.27-1.36,9.58s-1.45,6.74-2.43,10.16a89.57,89.57,0,0,1-3.43,9.77,61.12,61.12,0,0,1-4.37,8.53,34.92,34.92,0,0,1-5,6.42A19.58,19.58,0,0,1,305,369.84Z" fill="#ea46a8"/>
  <path class="o" d="M318.24,276.8c-25.92-5.69-48.79,29.88-52.36,57.89s6.37,49.88,27.07,51.63c27.82,2.36,41.76-23.13,46.05-43.83S349,283.56,318.24,276.8Z" fill="none" stroke="#5fe6ff" stroke-linecap="round" stroke-miterlimit="10" stroke-width="7"/>
  <path class="ver" d="M364.72,330.21s0.14,46.65,4.07,46.49c8.48-.35,21-50.17,24.89-50.49,6.94-.58-14.37,37.88,4.4,40.24,9.6,1.21,28.56-5.06,39.51-14.78,8.83-7.85,10.88-19.87,6-23.3-14.9-10.56-28.69,13.57-26.22,32.53,2.08,16,20.66,21.4,42.05,3.5C476.12,350.46,475.35,325,472,325c-4.61-.06-8,36.06-6,45.36s17-44.82,24.72-44.25-1,27.32,8.09,30.54,22.51-10.25,22.51-10.25" fill="none" stroke="#5fe6ff" stroke-linecap="round" stroke-miterlimit="10" stroke-width="7"/>

    </g>
</svg>
