<svg version="1.1" id="sign" xmlns="http://www.w3.org/2000/svg" xmlns:xlink="http://www.w3.org/1999/xlink" x="0px" y="0px"
	 viewBox="0 0 800 800" style="enable-background:new 0 0 800 800;" xml:space="preserve">
<style type="text/css">
	.particle{fill:#08A9F9;}
	.st1{fill:#FFFFFF;}
	.st2{fill:none;stroke:#F01400;stroke-miterlimit:10;}
</style>
<rect width="800" height="800"/>

<g id="thanks">
	<path class="st1" d="M172.9,317.1c-12.8,2.7-23.8-0.5-29.1-8.3c-1.4-1.9-0.9-3.1,1.3-3.3c19.8-1.8,52.7-16.3,65.1-18
		c9.1-1.4,18.2-0.4,24.5,7.7c1.3,1.7,1.5,3.5-1.4,3.8c-11,0.8-23.8,5.4-35.5,9.8c2.1,5.3,3.2,12.8,1.2,24.7
		c-4.4,26.4-11.7,60.6-14.1,104c-0.1,2.4-1.2,2.6-3.2,1.3c-4-2.3-9-8.5-10-19.6c-1.5-19,4.7-71.1,13.6-105.8
		C180.9,314.9,176.7,316.1,172.9,317.1z"/>
	<path class="st1" d="M292.6,421.5c-18.1,3.2-27.5-9.5-27.9-29.9c-0.5-22.7,10-49,5.9-50.4c-3.7-1.2-21.8,17.9-26.8,41.2
		c-3.1,14.4-5.6,31.3-5.9,45.7c-0.2,2.1-1.5,2.9-3.4,1.5c-4.9-3.4-9-9.2-9.2-23.3c-0.3-23.4,16.8-109.2,26.3-134.6
		c1-3,3.2-3.2,5.3-0.7c5.1,5.9,8.4,17.1,5.2,32.5c-2,9.8-7.1,29.7-11.1,46.1c5.7-10.4,14.3-19.7,20.4-20c7.7-0.4,18.3,9.5,16.7,21.7
		c-1.3,10.6-5.9,28.5-6.7,40.9c-0.8,13.8,4,24,11.8,22.1c8.7-2,14.9-20,16.5-35.3c0.2-2.1,2.3-2.5,3.8-0.9c1.9,2.2,3.6,6.9,2.7,14.1
		C314.5,405.9,305.3,419.3,292.6,421.5z"/>
	<path class="st1" d="M365.7,314.2c0.9-3.2,2.5-4,4.7-2.2c4.7,3.4,9.8,12.6,8.5,24.6c-1.2,10.8-6.1,29.3-7.1,41.9
		c-1,13.3,2.2,22.9,9.4,21.2c8.7-2,15.2-19.1,17.3-35.7c0.4-2.2,1.8-2.7,3.4-0.8c1.6,1.8,3.5,7.4,2.9,14.1
		c-1.3,13.2-10.5,27.7-22.6,29.1c-11.9,1.4-20.5-4.6-24.2-15c-3.7,10.3-10.5,20.2-20.8,22c-20.1,3.5-34.2-23.8-25.8-53.8
		c8.2-29.2,21.7-42.1,32.5-44c9.3-1.6,16.2,4.9,18.8,13.6C363.7,323.2,364.6,318.1,365.7,314.2z M351.7,326.3
		c-7.1,0.6-17.8,17.7-22.6,39.5c-4.7,21-0.5,41,8,39.7c8.9-1.3,15.1-17.5,19.2-38.9C361.2,339.9,358.2,325.8,351.7,326.3z"/>
	<path class="st1" d="M441.5,299.4c7.5-0.1,18.1,9.5,16.8,22c-1.1,10.5-5.8,28.8-6.7,41.1c-1,13.8,4,24,11.6,22.2
		c8.7-2,14.1-18.5,16.7-35.4c0.4-2.2,1.9-2.4,3.6-0.9c2.4,2.2,3.8,7.3,3,14.3c-1.4,13.4-11,27.1-23.5,29.3
		c-18.3,3.2-27.6-9.7-28.2-30.1c-0.6-22.9,10-49.7,5.5-50.8c-2.5-0.5-12.8,7.9-21.1,25.8c-7.7,16.4-9.6,39.3-11.5,61.7
		c-0.2,2.1-1.1,3.3-3.8,1.6c-5.9-3.7-9.8-10.7-10.3-22.4c-0.7-14.7,5-48.4,11.3-71.3c0.6-2.7,2.4-2.8,4.5-0.8
		c5.2,5,7.7,12.5,8.1,20.9C423.6,314.3,433.9,299.6,441.5,299.4z"/>
	<path class="st1" d="M515.8,283.5c7.2-4.3,13.5-1.9,21.2,6.6c7.2,7.9,9.8,17.3,4.7,26.7c-4.7,8.6-11.5,16.6-23.6,23.2
		c7.3,18,17.9,29.5,26.4,29c9.2-0.7,15-19.8,16.5-34.6c0.3-2.9,2.2-3.4,4.2-1c2,2.5,3.5,7.8,2.2,13.9c-1.9,10.2-6.7,26.1-23.9,28.9
		c-15.2,2.4-32.4-7.9-42.6-37.9c-1.4-4-1.2-4.7,2.4-6.8c23.5-13.8,30.9-35.5,25.6-40.7c-3.8-3.6-12.4,0.5-20.6,11.6
		c-11.7,15.5-14.5,36.6-16.6,80.3c0,1.9-1.6,2.6-3.7,1.1c-4.6-3.2-8.2-10.1-8.9-24.3c-1.1-21.2,8.7-100.3,18.4-130.4
		c1-3,3.1-3.6,5.3-1.2c5.6,6.1,8.3,15,5,32.7c-1.9,10-4.8,26.9-6.8,38.8C505.6,291.5,510.9,286.5,515.8,283.5z"/>
	<path class="st1" d="M573,289.5c-2-8.8-1.3-13.4,1.7-18.4c3.2-5.3,7.8-7,10.5-5.4c2.9,1.8,2.7,4.5,1.7,10c-0.4,1.5-0.6,2.9-0.9,4.6
		c5.7,20.6,16,37.1,20.8,52.5c2.6,8.7,4.4,18.3-1.4,24.9c12.5-8.1,16.8-22.9,18-35.8c0.2-2.6,2.6-2.3,4.1-0.7
		c1.6,1.8,3.4,7.6,2.2,15.1c-2.8,16.7-14.4,27.7-29.5,31.1c-12.4,2.6-25.6,1.5-37.9-11c-8.7-9-13.3-23.8-8.2-31.2
		c1.8-2.7,3.8-2.1,5.3,1.4c0.8,1.7,1.5,3.5,2.3,5.2C566.2,318,570.8,301.9,573,289.5z M568,343.5c7.8,12.3,17.3,20.2,23.6,16.8
		c8.8-4.8-6.8-39-14-56.5C575.5,316.5,571.9,330.1,568,343.5z"/>
	<path class="st1" d="M206.8,532.2c0.5,1.5,1,3.1,1.4,4.8c3.9-4.4,6.9-12.3,7.8-20.2c0.2-1.8,1.5-2.2,2.9-0.4c1.4,2,1.7,5.2,1.6,8.6
		c-0.2,3.6-4,13-11.2,17.4c2.8,14.5,2.4,31-1.2,40.6c-2.5,6.7-5.7,7.8-11.1,4.9c-4.5-2.3-10.5-7.1-13.2-19.2
		c-7.3-31.8,5-90.8,11.8-116.6c0.5-1.9,2.3-2,3.5-0.5c3.3,4.5,5.1,10.5,2.8,21.8c-2.2,10.5-6,27.9-8.1,43.9
		C199.7,518.1,203.7,523,206.8,532.2z M196.7,582.3c4.4,3.5,7.8-17.5,5.5-37.5c-4.1,0.3-7.5-1.1-10.3-4.1
		C190.9,560.6,192.1,578.8,196.7,582.3z M199.2,530.3c-1.7-5.2-4.6-9.3-5.4-8.7c-1.2,0.8,0.3,8.4,1.3,11.7c1.5,4.5,3.7,7.2,6.5,7.3
		C201,537.1,200.2,533.6,199.2,530.3z"/>
	<path class="st1" d="M293.3,529.8c-10.7,1.3-18.3-7.3-18.9-19.4c-0.6-9.8,4.3-21.7,7.6-29.5c-4.7,5.1-10.2,7.6-14.5,8.3
		c-1.6,7-5.5,12.7-12.9,14.3c1.5,12.3-1.8,28.2-10.7,33.3c-4.3,2.5-11.5,3.5-19.4-3c-8.8-7.2-11.1-19.7-9.2-31.8
		c1.7-10.5,7.5-19.9,15.5-22c3.9-1.1,6.6-0.1,10.8,3.1c4.8,3.8,9.1,3.9,12,14.2c0.2,0.7,0.2,1.4,0.5,2.3c3.6-1.4,6.6-4.7,7.5-10.5
		c-11.7-2.7-4.9-23.5,0.5-24.6c4.7-1,5.9,9.6,5.8,17.5c4.5-1.5,8.4-4.7,12.3-9.3c1.3-1.6,2.4-2.2,4-1c3.5,2.5,9.2,8.5,6.9,13.9
		c-3.8,8.5-6.9,19.2-6.7,27c0.1,8.1,3.7,13.3,8.2,12.8c5.6-0.5,9.2-11.1,9.9-22.1c0.1-1.4,1-1.8,1.9-0.6c1.3,1.6,3.2,5.2,2.8,9.1
		C306.5,521.1,300.9,528.9,293.3,529.8z M231.2,491.1c-2.5,3.9-4.7,9.1-5.8,15c-2.1,11.6,0.6,24.7,5.2,27.3
		c4.7,2.6,11.3-3.9,13.6-17.8c0.7-4.6,1-8.6,0.7-12.3C238.6,501.1,233.2,496.1,231.2,491.1z M242,489.1c-2.2-4.5-4.8-2.9-3.9,1.3
		c0.8,3.6,3.3,6.8,6.7,8.6C244.1,494.8,243.1,491.4,242,489.1z"/>
	<path class="st1" d="M362.9,465.8c5,5.4,2.1,13.7,2.1,21.7c0.1,1.8-0.3,2.3-2.5,1.6c-3.9-1.1-7.3-5-7.6-11.6
		c-0.3-5.3,1.7-12-0.8-13.2c-3-1.5-10,9.2-11.6,23c-1.9,17.1,5.1,28.2,13.2,26.9c11.5-1.9,17.3-14.8,19.8-24.5
		c0.3-1.2,1.5-1.6,2.5-0.3c0.8,1,1.5,4.6,0.5,8.8c-2.2,9.1-10.6,17.9-20.9,19.8c-17.2,3.3-29.2-13-26.8-32.5
		c2.4-19.1,13.5-29.1,21.8-26.1C357.2,461,360.2,462.8,362.9,465.8z"/>
	<path class="st1" d="M505.3,476.8c-1.1,8.3-7.2,17.1-15,18.4c-11.8,1.9-19.2-6.9-18.5-19c0.7-12.6,7.4-30.1,5-30.6
		c-1.2-0.2-5.4,2.4-10.9,12.9c-7.1,13.4-9,27.9-10.1,41.8c-0.1,1.8-1.2,2.4-2.8,1.4c-3-1.8-6.5-6.9-6.4-17.4c0.2-12.4,8-34.1,5-34.7
		c-1.6-0.3-7,4.6-12.3,16c-4.8,10.2-6.7,24.2-7.5,38.3c-0.1,1.2-0.7,1.8-2.4,0.9c-3.7-1.9-6.1-6.5-6.4-13.9
		c-0.3-4.8,0.6-12.6,1.7-21.1c-2.9,3.3-6.5,5.3-11.4,5.7c1.6,12.5-1.8,28.5-10.7,33.6c-4.3,2.5-11.3,3.6-19.4-3
		c-8.7-7.1-11.1-19.7-8.9-31.8c1.8-10.3,7.2-20,15.2-22c4.1-1,6.6-0.1,10.8,3.1c4.8,3.8,9.2,3.7,12,14.2c0.2,0.7,0.5,1.5,0.5,2.3
		c8.7-1.7,13.8-13.6,16.8-26.1c0.3-1.5,1.7-1.8,3-0.5c3.5,3.2,5,8.8,4.9,14.6c3.6-8.1,10.6-18,15.6-18.8c4.7-0.7,9.6,6.3,10.2,12.8
		c4.2-7.4,11-15.6,15.4-16.2c5-0.7,9,7.3,8.6,14.5c-0.3,6.7-3.6,17.1-4.4,24.5c-1,8.6,3.1,14.9,8.1,13.7c5.4-1.2,8.2-11.4,9.9-22.2
		c0.2-1.4,1.3-1.3,2.3-0.4C504.1,468.7,505.7,473.2,505.3,476.8z M390.1,463.2c-2.5,3.9-4.7,9.3-5.8,15.1
		c-2.3,11.5,0.5,24.5,5.2,27.1c4.9,2.7,11.3-3.9,13.5-17.7c0.8-4.7,1-9.1,0.6-12.9C398,473.1,392.3,468.6,390.1,463.2z M400.9,461.3
		c-2.3-4.3-4.9-3.1-3.9,1.1c0.6,3,3,6.9,6.6,8.8C402.9,467,402.2,463.8,400.9,461.3z"/>
	<path class="st1" d="M500.2,471.3c-0.2-10.8,2.9-28.9,5.3-37c0.6-1.9,1.4-2.5,3-1.4c2.8,1.9,6.1,7.7,5.3,15.2
		c-0.7,6.6-3,17.2-3.4,24.6c-0.4,8.7,1.8,14.1,6.1,13c6-1.4,10.2-11.9,10.9-22.2c0.2-1.4,1.2-1.4,2.2-0.4c1.9,2,2.5,5,2.1,8.8
		c-1,9.4-7.5,16.8-15.1,18.1C506.2,491.9,500.4,483.4,500.2,471.3z M517.5,429.5c-1.1,2.3-5,2.5-8.4-0.8c-3.5-3.4-4.3-7.7-3-10.5
		c1.3-2.8,5.9-1.8,9,1.7C518.2,423.3,518.6,427.3,517.5,429.5z"/>
	<path class="st1" d="M556,422.8c4.7-0.1,11.4,6,10.6,13.9c-0.7,6.6-3.7,18.2-4.2,26c-0.7,8.7,2.5,15.1,7.3,14
		c5.5-1.3,8.9-11.7,10.6-22.3c0.2-1.4,1.2-1.5,2.3-0.5c1.5,1.4,2.4,4.6,1.9,9c-0.9,8.5-6.9,17.1-14.8,18.5c-11.6,2-17.4-6.1-17.8-19
		c-0.4-14.5,6.3-31.4,3.5-32.1c-1.6-0.3-8.1,5-13.3,16.3c-4.9,10.4-6.1,24.8-7.2,39c-0.1,1.4-0.7,2.1-2.4,1
		c-3.7-2.3-6.2-6.8-6.5-14.1c-0.4-9.3,3.2-30.5,7.1-45c0.4-1.7,1.5-1.8,2.9-0.5c3.3,3.1,4.8,7.9,5.1,13.2
		C544.7,432.2,551.2,422.9,556,422.8z"/>
	<path class="st1" d="M618,476.1c-0.8,20-2.6,43.9-12,50.3c-2.3,1.6-5.2,1.7-8.9-1.5c-4.4-3.7-8.6-8.1-8.9-16.8
		c-0.5-13.3,8.1-23.8,19.7-31.5c0.3-3.3,0.3-6.9,0.5-10.3c-2.5,4.7-6.2,8.5-11.3,9.4c-12.5,2.2-21.2-14.8-16.2-33.5
		c4.8-18.1,13.6-26.3,20.6-27.5c5.5-1,9.7,2.9,11.3,7.8c0.6-3.1,1.2-5.9,1.8-8.5c0.4-2.1,1.7-2.5,3.1-1.4c2.9,2.2,6.2,8,5.2,15.4
		c-1.1,9.1-3.7,27.5-4.5,42.1c9.4-7.9,14.1-16.9,16.9-25.2c0.4-1.3,1.6-1.5,2.4-0.1c0.7,1.2,1.1,4.4,0.2,8.6
		C635.6,462.6,627.8,469.9,618,476.1z M606.1,421.4c-4.3,0.5-11.1,11.1-14.2,24.6c-3.1,13.3-0.2,25.9,5.3,25
		c5.4-0.8,9.2-10.8,11.7-24.3C612,429.8,610.2,420.9,606.1,421.4z M598,519.5c2.7,2.3,8.3-14.1,9.6-36.9
		C593.7,496.4,594.5,516.6,598,519.5z"/>
	<path class="st1" d="M658,464.8c-0.9,2.4-5.1,2.2-8.2-0.6c-3.5-3.2-4.3-7.6-3-10.3c1.2-2.6,5.7-1.8,8.9,1.8
		C658.4,458.6,658.8,462.6,658,464.8z M661.9,371.3c3.2,3.6,5.3,10.5,3.4,21.8c-2.6,15.1-6.2,39.1-7.6,55.8c-0.2,1.5-0.6,1.9-2.1,1
		c-2.8-1.9-5.8-6.2-5.8-15.1c0.1-15.9,3.9-45.9,8.6-63.1C658.8,369.8,660.3,369.5,661.9,371.3z"/>
</g>
<polyline class="emit" points="149.5,314.7 149.5,307.4 156.7,307.4 "/>
<polyline class="emit" points="367,370.5 367,363.2 374.3,363.2 "/>
<polyline class="emit" points="270.7,337.3 270.7,330 278,330 "/>
<polyline class="emit" points="193.6,490.1 193.6,482.8 200.9,482.8 "/>
<polyline class="emit" points="375.4,468.6 375.4,461.3 382.7,461.3 "/>
<polyline class="emit" points="508.2,425 508.2,417.7 515.5,417.7 "/>
<polyline class="emit" points="483.1,311 483.1,303.8 490.4,303.8 "/>
<polyline class="emit" points="551.5,333.7 551.5,326.4 558.8,326.4 "/>
<polyline class="emit" points="452.4,502.6 452.4,495.4 459.6,495.4 "/>
<polyline class="emit" points="592.2,425 592.2,417.7 599.5,417.7 "/>
<polyline class="emit" points="604,531.2 604,523.9 611.2,523.9 "/>

<circle id="circ" class="particle" cx="1" cy="1" r="1"/>
<path id="star" class="particle" d="M4.6,0L6,2.8l3.2,0.5L6.8,5.5l0.5,3.1L4.6,7.2L1.7,8.6l0.5-3.1L0,3.3l3.1-0.5L4.6,0z"/>
<path id="cross" class="particle" d="M4,3.5L2.5,2L4,0.5L3.5,0L2,1.5L0.5,0L0,0.5L1.5,2L0,3.5L0.5,4L2,2.5L3.5,4L4,3.5z"/>
<path id="heart" class="particle" d="M2.9,0C2.5,0,2.2,0.2,2,0.5C1.8,0.2,1.5,0,1.1,0C0.5,0,0,0.5,0,1.1C0,2.6,1.6,4,2,4s2-1.4,2-2.9
	C4,0.5,3.5,0,2.9,0z"/>
<path id="flake1" class="particle" d="M5,2.1l0.5-0.2L5.4,1.2L6,0.9L5.9,0.2L6.3,0l0.2,0.4L6.2,0.9l0.4,0.6L6.1,2.1l0.3,0.4l0.5,0.1
	l0.3-0.6L7.9,2l0.3-0.6l0.4,0l0,0.5L8,2.1l0.1,0.7L7.5,3l0.1,0.5l0.4,0.3l0.6-0.4l0.6,0.4l0.6-0.4L10,3.7L9.8,4.1L9.1,4L8.8,4.6
	L8.1,4.5L7.9,5l0.2,0.5l0.7-0.1L9.1,6l0.7-0.1L10,6.3L9.6,6.6L9.1,6.2L8.5,6.6L7.9,6.1L7.5,6.4L7.4,6.9l0.7,0.3L8,7.9l0.6,0.3l0,0.4
	l-0.4,0L7.9,8L7.2,8.1L6.9,7.5L6.4,7.5L6.1,7.9l0.4,0.6L6.2,9.1l0.4,0.6L6.3,10L5.9,9.8L6,9.1L5.4,8.8l0.1-0.7L5,7.9L4.5,8.1
	l0.1,0.7L4,9.1l0.1,0.7L3.7,10L3.4,9.6l0.4-0.6L3.4,8.5l0.4-0.6L3.6,7.5L3.1,7.4L2.8,8.1L2.1,8L1.8,8.7l-0.5,0l0-0.4L2,7.9L1.9,7.2
	l0.6-0.3L2.5,6.4L2.1,6.1L1.5,6.6L0.9,6.2L0.4,6.6L0,6.3l0.2-0.4L0.9,6l0.3-0.6l0.7,0.1L2.1,5L1.9,4.5L1.2,4.6L0.9,4L0.2,4.1L0,3.7
	l0.4-0.2l0.6,0.4l0.6-0.4l0.6,0.4l0.4-0.3l0.1-0.5L1.9,2.8L2,2.1L1.3,1.8l0-0.5l0.5,0L2.1,2l0.7-0.1L3,2.6l0.5-0.1l0.3-0.4L3.4,1.5
	l0.4-0.6L3.4,0.4L3.7,0l0.4,0.2L4,0.9l0.6,0.3L4.5,1.9L5,2.1z"/>
<path id="flake2" class="particle" d="M5,2.3l1.5-0.1l-0.1-2L7.5,0l0.4,1.1L6.1,2l0.7,1.3l0.8,1.2l1.7-1.1L10,4.3L9.3,5.2L7.6,4.1
	L6.8,5.4L6.1,6.7l1.8,0.9L7.5,8.7L6.4,8.5l0.1-2L5,6.4L3.5,6.5l0.1,2L2.5,8.7L2.1,7.6l1.8-0.9L3.2,5.3L2.4,4.1L0.7,5.2L0,4.3
	l0.7-0.9l1.7,1.1l0.8-1.2L3.9,2L2.1,1.1L2.5,0l1.1,0.2l0,2.1H5z"/>
<path id="flake3" class="particle" d="M5,3.3l0.5-0.5L5.5,1.9l0.7-0.6L6.1,0.5L6.6,0l0.1,0.6L6.1,1.3l0.2,0.9L5.7,2.9l0.2,0.7l0.7-0.1
	L7,2.8l0.9-0.1l0.5-0.8l0.6-0.1L8.8,2.4L7.9,2.6L7.5,3.5L6.7,3.7L6.4,4.3L7,4.7l0.8-0.3l0.8,0.5l0.8-0.3L10,4.8L9.4,5L8.6,4.7
	L7.8,5.2L7,4.9L6.4,5.2l0.3,0.6l0.9,0.2l0.3,0.8l0.9,0.2L9,7.7L8.4,7.6L7.9,6.8L7,6.8L6.5,6L5.9,5.9L5.7,6.6l0.6,0.7L6.1,8.2
	l0.6,0.7L6.5,9.5L6.1,9.1l0.1-0.9L5.4,7.6l0.1-0.9L5,6.2L4.5,6.7l0.1,0.9L3.8,8.1l0.1,0.9L3.4,9.5L3.4,8.9l0.6-0.7L3.7,7.3l0.6-0.7
	L4.1,5.9L3.5,6L3,6.8L2.1,6.8L1.6,7.6L0.9,7.7l0.3-0.6l0.9-0.2l0.3-0.8l0.9-0.2l0.3-0.6L3,4.9L2.2,5.2L1.4,4.7L0.6,5L0,4.8l0.6-0.3
	l0.8,0.3l0.8-0.5L3,4.7l0.6-0.3L3.3,3.7L2.5,3.5L2.1,2.6L1.2,2.4L1,1.8l0.6,0.1l0.5,0.8l0.9,0l0.5,0.8l0.7,0.1l0.2-0.7L3.7,2.2
	l0.2-0.9L3.4,0.6L3.5,0l0.4,0.5L3.8,1.4l0.7,0.6L4.5,2.9L5,3.3z"/>
</svg>
