<svg class="elements" xmlns="http://www.w3.org/2000/svg" viewBox="0 0 400 400" width="400px" height="400px" style="background: black">

<g class="blGroup">

<g class="blKnot">
	<path fill="#993C7D" d="M0,30.8L30.8,0l30.8,30.8c0,0-15,8.2-30,8.2C10.5,39,0,30.8,0,30.8z"/>
	<ellipse fill="#CA5EA6" cx="30.8" cy="33.5" rx="30.7" ry="13.7"/>
</g>


<g class="blReflect">
	<radialGradient class="SVGID" cx="222.3966" cy="134.933" r="217.6235" gradientUnits="userSpaceOnUse">
		<stop  offset="0.1792" style="stop-color:#FFFFFF"/>
		<stop  offset="0.2662" style="stop-color:#FAFAFA"/>
		<stop  offset="0.373" style="stop-color:#EBECED"/>
		<stop  offset="0.4903" style="stop-color:#D2D4D6"/>
		<stop  offset="0.615" style="stop-color:#AFB4B7"/>
		<stop  offset="0.7457" style="stop-color:#828A8E"/>
		<stop  offset="0.8791" style="stop-color:#4C575E"/>
		<stop  offset="1" style="stop-color:#15232C"/>
	</radialGradient>
	<path fill="url(#SVGID)" fill-opacity="0.2" d="M346.5,173.2c0,95.7-79.8,210.7-175.5,210.7S0,268.9,0,173.2S77.6,0,173.2,0
		S346.5,77.6,346.5,173.2z"/>
	<radialGradient class="SVGID_2_" cx="254.8852" cy="91.7694" r="24.5457" gradientUnits="userSpaceOnUse">
		<stop  offset="0" style="stop-color:#FFFFFF"/>
		<stop  offset="1" style="stop-color:#FFFFFF;stop-opacity:0"/>
	</radialGradient>
	<path fill="url(#SVGID_2_)" d="M276.1,83.6c5.2,13.5-0.1,28.1-11.8,32.6c-11.7,4.5-25.4-2.8-30.6-16.3
		c-5.2-13.5,0.1-28.1,11.8-32.6S270.9,70.1,276.1,83.6z"/>
	<path fill="#15232C" fill-opacity="0.1" d="M186.1,353.5C83.8,353.5,3.4,239.8,3.4,145.2c0-2.3,0.1-4.6,0.2-6.9
		c-2.3,11.3-3.5,23-3.5,34.9C0,268.9,75.3,384,171,384c54.5,0,103.8-37.3,136.2-87.1C274.3,330.6,231.9,353.5,186.1,353.5z"/>
</g>

<defs>

<path class="blYouLeft" fill="#FFFFFF" d="M226.9,62.9c0.1-1.5,0.2-2.9,0.3-4.3c0.1-1.4,0.1-2.8,0.1-4.4c0-1.5,0-3.2,0-5.1
	c-0.9,1.2-2,2.4-3.5,3.8c-1.5,1.3-3.1,2.7-4.9,4.1c-1.8,1.4-3.7,2.7-5.7,3.9c-2,1.2-4,2.3-5.9,3.3c-1.9,1-3.7,1.7-5.4,2.3
	c-1.7,0.6-3.1,0.8-4.2,0.8c-1,0-1.8-0.4-2.3-0.9c-0.5-0.6-0.8-1.4-1-2.4c-0.2-1-0.3-2.2-0.2-3.6c0-1.4,0.1-2.9,0.1-4.5
	c0-0.9,0.2-2.4,0.6-4.7c0.3-2.2,0.7-4.8,1.1-7.8c0.4-3,0.8-6.1,1-9.6c0.3-3.4,0.4-6.8,0.5-10c0-3.2,0-6.2-0.2-8.9
	c-0.2-2.7-0.5-4.9-0.8-6.5c-0.4-1.7-1.4-3.1-3.2-4.3c-1.7-1.2-3.9-1.9-6.4-2.2c-2.2-0.2-4.1,0.1-5.7,1c-1.6,0.8-2.3,2-2.3,3.4
	c-0.1,15.2-1.4,29.8-3.7,44.9c-0.4,2.3-1.1,4.4-2,6.2c-0.9,1.8-1.9,3.4-3,4.6c-1.1,1.2-2.3,2.2-3.5,2.8c-1.2,0.6-2.4,0.9-3.5,0.9
	c-0.8,0-1.4-0.3-2-0.8c-0.5-0.5-1-1.1-1.3-1.9c-0.3-0.8-0.6-1.7-0.7-2.6c-0.2-1-0.2-2-0.2-3.1c0,0,0.1-1,0.4-2.7
	c0.3-1.8,0.6-4.1,1-7c0.4-2.9,0.8-6.2,1.2-9.9c0.4-3.7,0.7-7.5,0.9-11.4c0.3-3.9,0.4-7.8,0.5-11.7c0.1-3.9,0.1-7.4,0-10.5
	c-0.2-1-0.9-1.9-2.1-2.6c-1.2-0.7-3.2-1.2-5.8-1.4c-1.6,0-2.9,0.5-4.1,1.5c-1.1,0.9-2.1,2.2-2.8,3.6c-0.8,1.5-1.4,3.2-1.9,5
	c-0.5,1.9-0.9,3.7-1.3,5.4c-0.3,1.8-0.6,3.4-0.7,4.9c0,0.4-0.1,0.8-0.1,1.2c-0.6-0.7-1.2-1.4-1.9-2.1c-3.5-3.8-7.2-7.1-11.1-10
	c-3.9-2.8-7.9-5-12.2-6.5c-4.2-1.5-8.6-2-13.3-1.6c-5.4,0.5-10.3,2.2-14.6,5c-4.4,2.8-8.1,6.3-11.1,10.5c-3.1,4.2-5.5,8.9-7.1,14.2
	c-1.7,5.2-2.4,10.7-2.3,16.5c0.1,3.5,0.5,6.9,1.3,10.3c-2.5,3.4-4.8,6.1-6.8,8.3c-2,2.2-3.9,4-5.6,5.2C57.5,73,56,74.1,54.5,75
	c0.5-8.6,1.5-16.7,2.5-24.3c0.4-3.2,0.9-6.5,1.4-9.8c0.5-3.3,1.1-6.5,1.6-9.5c0.6-3,1.1-5.7,1.6-8.1c0.5-2.4,0.9-4.3,1.3-5.7
	c0.2-0.6,0.3-1.2,0.3-1.7c0-1.5-0.4-2.5-1.4-3c-1-0.5-2.3-0.6-3.8-0.3c-1.3,0.3-2.6,0.7-4.1,1.5c-1.5,0.7-2.9,1.7-4.2,2.9
	c-1.4,1.2-2.6,2.5-3.7,4c-1.1,1.5-1.9,3.1-2.4,4.8c-2.5,9-3.7,13.4-5.7,22c-0.2,1.5-0.6,3.5-1.2,5.8c-0.6,2.3-1.4,4.6-2.4,6.8
	c-1,2.2-2.1,4.1-3.5,5.6c-1.4,1.6-3,2.4-4.8,2.5c-1.1,0.1-2.1-0.2-2.9-0.6c-0.8-0.5-1.5-1.1-2-1.9c-0.5-0.8-1-1.7-1.2-2.7
	c-0.3-1-0.4-2.1-0.5-3.2c-0.2-2.1-0.1-4.6,0.2-7.4c0.3-2.8,0.8-5.8,1.6-8.8c0.7-3,1.6-6,2.7-9c1-3,2.1-5.6,3.2-7.9
	c0.4-0.7,0.6-1.4,0.8-2.1c0.2-0.6,0.3-1.2,0.4-1.7c0.2-1.7-0.3-2.8-1.4-3.2c-1.1-0.5-2.5-0.4-4.2,0.1c-2,0.6-4.1,1.7-6.4,3.3
	c-2.3,1.6-4.1,3.5-5.5,5.7c-1.9,3-3.6,6-5.1,8.8c-1.4,2.8-2.6,5.6-3.5,8.4C1.2,49.1,0.6,52,0.2,55c-0.3,3-0.3,6.2,0.1,9.7
	c0.3,2.6,1.2,5,2.6,7c1.4,2.1,3.2,3.8,5.2,5.3c2,1.5,4.3,2.6,6.7,3.5c2.4,0.8,4.8,1.3,7.1,1.3c2.7,0,5.3-0.6,8-2
	c2.6-1.4,5.2-3.2,7.6-5.5c-0.5,2.7-0.7,4-1.1,6.6c-3.1,2.8-6,5.5-8.7,8.3c-2.7,2.8-5.1,5.5-7.2,8.2c-2.1,2.7-3.7,5.2-5,7.7
	c-1.3,2.5-2,4.8-2.4,7c-0.4,2.2-0.2,4.3,0.3,6.3c0.5,2,1.5,3.9,2.7,5.6c1.9,2.6,3.9,4.7,5.9,6.6c2,1.8,4,3.4,5.9,4.7
	c1.9,1.3,3.6,2.4,5.2,3.2c1.6,0.8,3,1.5,4.2,1.9c3.1,1.2,5.4,1.5,7.3,1.1c1.8-0.5,3.3-1.6,4.3-3.4c1.1-1.8,1.9-4.3,2.5-7.4
	c0.6-3.1,1.1-6.7,1.5-10.7c0.4-4,0.6-8.5,0.8-13.3c0.2-4.9,0.3-9.9,0.4-15.2c4.3-2.7,8.4-5.8,12.2-8.9c1.6-1.3,3.4-2.8,5.1-4.4
	c1.8-1.6,3.5-3.2,5.1-5c0.3-0.3,0.6-0.6,0.9-0.9c2,2.9,4.5,5.4,7.4,7.3c3.2,2.1,6.9,3.3,11.3,3.4c3,0.1,5.8-0.4,8.5-1.5
	c2.7-1.1,5.2-2.6,7.5-4.6c2.3-2,4.4-4.4,6.2-7.1c1.8-2.8,3.4-5.8,4.7-9c1.3-3.2,2.2-6.6,2.9-10c0.6-3.5,0.9-6.9,0.8-10.4
	c-0.1-3.4-0.6-7-1.5-10.8c-0.9-3.7-2.2-7.3-3.8-10.6c0.2-0.4,0.3-0.6,0.6-1c1.9,1.3,4.2,3,6.9,5c2.7,2,5.4,4.2,8.2,6.6
	c1.9,1.6,3.8,3.3,5.6,5.1c-0.5,4.8-1.1,9.3-1.6,13.4c-0.9,7-1.4,12.7-1.6,17.2c-0.1,3.7,0.1,6.8,0.6,9.2c0.5,2.5,1.3,4.5,2.3,6.1
	c1,1.5,2.3,2.7,3.6,3.3c1.4,0.7,2.9,1.1,4.5,1.1c2,0.1,4.1-0.3,6.3-1.2c2.2-0.9,4.4-2.1,6.7-3.7c2.2-1.6,4.5-3.5,6.8-5.8
	c2.2-2.2,4.4-4.7,6.4-7.4c0.3,2.7,0.7,5.2,1.2,7.4c0.5,2.2,1.1,4.2,1.8,5.8c0.8,1.6,1.8,2.9,3,3.8c1.2,0.9,2.8,1.4,4.7,1.5
	c1.9,0.1,4-0.1,6.3-0.7c2.3-0.5,4.7-1.2,7.1-2.1c2.4-0.9,4.9-2,7.4-3.2c2.5-1.2,4.9-2.5,7.1-3.8c2.3-1.3,4.3-2.7,6.2-4
	c1.9-1.3,3.5-2.6,4.8-3.7C226.6,66,226.8,64.4,226.9,62.9z M38,105.8c0,2.3,0,4.6-0.1,6.9c-0.1,2.3-0.2,4.6-0.4,6.7
	c-0.2,2.1-0.5,3.9-1,5.4c-0.5,1.5-1.2,2.6-2.1,3.3c-0.9,0.7-2.2,0.8-3.9,0.3c-1.6-0.4-2.9-1.4-3.7-3c-0.6-1-1-2.1-1.1-3.5
	c-0.2-1.3-0.2-2.8,0.1-4.3c0.3-1.5,0.7-3.1,1.4-4.8c0.7-1.7,1.6-3.3,2.7-5c1.1-1.6,2.3-3.2,3.7-4.6c1.4-1.5,2.8-2.7,4.3-3.8
	C37.9,101.4,38,103.5,38,105.8z M110.8,47c-0.7,3.6-1.6,6.9-2.8,9.9c-1.2,3-2.6,5.4-4.2,7.4c-1.6,1.9-3.3,2.9-5,2.9
	c-2,0-3.7-0.5-5.1-1.4c-1.4-0.9-2.6-2.1-3.5-3.6c-0.9-1.5-1.6-3.3-2-5.3c-0.5-2-0.7-4.2-0.8-6.5c-0.1-3.3,0.3-6.8,1-10.5
	c0.8-3.7,1.8-7.1,3.2-10.2c1.4-3.1,3-5.7,4.8-7.9c1.8-2.1,3.8-3.3,5.8-3.4c1.6-0.1,2.9,0.3,4.1,1.2c1.1,0.9,2.1,2.2,2.9,3.8
	c0.8,1.6,1.4,3.6,1.8,5.8c0.4,2.3,0.7,4.7,0.7,7.3C111.8,39.9,111.5,43.4,110.8,47z"/>

    </defs>

<path class="blYouRight" fill="#FFFFFF" d="M215,67.9c0.2-0.9,0.3-1.8,0.4-2.7c0.1-0.9,0.2-1.8,0.4-2.8c0.1-1,0.2-2,0.3-3.2
	c-0.9,0.6-2,1.3-3.4,2c-1.4,0.7-3,1.4-4.7,2.2c-1.7,0.7-3.5,1.5-5.4,2.1c-1.9,0.7-3.7,1.3-5.5,1.9c-1.8,0.5-3.4,1-5,1.3
	c-1.6,0.3-2.8,0.4-3.9,0.3c-0.9-0.1-1.6-0.4-2.1-0.8c-0.4-0.4-0.7-1.1-0.9-1.8c-0.1-0.8-0.2-1.7-0.1-2.6c0.1-1,0.1-2.1,0.2-3.3
	c0.1-0.6,0.3-1.7,0.7-3.3c0.4-1.6,0.9-3.4,1.4-5.5c0.5-2.1,1.1-4.3,1.6-6.6c0.5-2.3,0.9-4.6,1.3-6.8c0.3-2.2,0.6-4.2,0.7-6
	c0.1-1.8,0.1-3.3-0.1-4.4c-0.1-1.1-1-2.3-2.5-3.5c-1.5-1.2-3.5-2.2-5.9-3c-2.1-0.7-4-0.9-5.6-0.7c-1.6,0.2-2.5,0.8-2.6,1.8
	c-1.7,11.2-3.9,21.8-6.6,32.7c-0.5,1.8-1.2,3.3-2,4.7c-0.9,1.4-1.8,2.5-2.9,3.4c-1.1,0.9-2.2,1.6-3.3,2c-1.1,0.4-2.2,0.6-3.3,0.5
	c-0.7-0.1-1.3-0.3-1.8-0.7c-0.5-0.4-0.9-1-1.2-1.6c-0.3-0.7-0.5-1.4-0.6-2.2c-0.1-0.8-0.2-1.6-0.1-2.5c0,0,0.1-0.8,0.4-2.2
	c0.3-1.4,0.7-3.3,1.1-5.6c0.5-2.3,1-4.9,1.5-7.8c0.5-2.9,1.1-5.9,1.6-8.9c0.5-3,0.9-6,1.3-9c0.4-2.9,0.7-5.6,1-8
	c0-0.8-0.6-1.6-1.8-2.4c-1.1-0.8-2.9-1.6-5.4-2.4c-1.5-0.3-2.8-0.3-4,0.2c-1.2,0.5-2.2,1.2-3,2.3c-0.9,1-1.6,2.2-2.2,3.6
	c-0.6,1.4-1.2,2.8-1.6,4.2c-0.4,1.4-0.8,2.7-1,4c-0.1,0.3-0.1,0.7-0.2,1c-0.5-0.7-1.1-1.4-1.6-2c-3-3.8-6.3-7.3-9.7-10.5
	c-3.4-3.2-7.1-6-10.9-8.3c-3.9-2.3-8-3.8-12.4-4.5c-5.2-0.8-9.9-0.4-14.2,1.3c-4.3,1.7-8.2,4.4-11.4,8.1c-3.3,3.6-5.9,8.1-7.9,13.3
	c-1.9,5.2-3,10.9-3.2,17c-0.1,3.7,0.2,7.3,0.9,11c-2.5,3.3-4.8,6-6.7,8.2c-2,2.2-3.9,4-5.5,5.3c-1.6,1.3-3.1,2.4-4.5,3.3
	c0.6-9.4,1.7-18.2,3-26.4c0.6-3.5,1.2-7,1.9-10.5c0.7-3.5,1.5-6.9,2.2-10.1c0.8-3.2,1.5-6,2.2-8.5c0.7-2.5,1.3-4.5,1.7-5.9
	c0.2-0.7,0.4-1.3,0.4-1.8c0.2-1.6-0.1-2.9-1-3.7c-0.9-0.8-2-1.3-3.5-1.4c-1.2-0.1-2.5,0.1-4,0.6c-1.4,0.4-2.9,1.2-4.3,2.1
	c-1.4,1-2.7,2.2-3.9,3.7c-1.2,1.5-2.1,3.1-2.8,5.1c-3.4,9.9-4.9,14.8-7.4,24.6c-0.3,1.8-0.8,4-1.5,6.7c-0.7,2.7-1.6,5.2-2.6,7.7
	c-1,2.5-2.3,4.6-3.6,6.3c-1.4,1.7-3,2.6-4.8,2.5c-1.1,0-2.1-0.4-2.9-1c-0.8-0.6-1.4-1.5-1.9-2.5c-0.5-1-0.9-2.2-1.1-3.5
	c-0.2-1.3-0.3-2.6-0.3-4c0-2.7,0.2-5.7,0.7-9.2c0.5-3.5,1.3-7,2.3-10.7c1-3.6,2.2-7.2,3.6-10.7c1.4-3.5,2.7-6.6,4.1-9.1
	c0.4-0.8,0.8-1.6,1.1-2.4c0.3-0.7,0.5-1.4,0.6-2c0.4-2.1,0.2-3.6-0.7-4.6c-0.9-1-2.2-1.4-3.8-1.4c-1.9,0-4,0.7-6.3,2.1
	c-2.3,1.4-4.4,3.4-6.1,5.9c-2.3,3.5-4.4,7-6.2,10.5c-1.8,3.4-3.3,7-4.6,10.6c-1.2,3.6-2.2,7.4-2.9,11.4c-0.6,4-0.9,8.3-0.8,13
	c0.1,3.6,0.9,6.8,2.2,9.6c1.3,2.8,3,5.3,5,7.3c2,2,4.2,3.6,6.6,4.7c2.4,1.1,4.8,1.7,7.1,1.8c2.7,0.1,5.3-0.6,7.9-2.2
	c2.6-1.5,5.1-3.6,7.5-6.1c-0.5,3.1-0.7,4.6-1.1,7.6c-3.1,3.1-6,6.4-8.7,9.8c-2.7,3.4-5,6.8-7,10.3c-2,3.5-3.5,6.9-4.6,10.3
	c-1.1,3.4-1.6,6.7-1.7,9.9s0.3,6.1,1.1,9c0.8,2.8,2,5.4,3.6,7.8c2.3,3.4,4.6,6.1,6.9,8.2c2.3,2.1,4.4,3.8,6.4,5.1
	c2,1.3,3.8,2.2,5.4,2.8c1.6,0.6,3,0.9,4.2,1.1c2.9,0.4,5.1,0,6.6-1.3c1.5-1.3,2.6-3.3,3.3-5.9c0.7-2.7,1.1-5.9,1.4-9.8
	c0.2-3.9,0.4-8.2,0.4-12.9c0.1-4.7,0.1-9.8,0-15.3c0-5.5,0-11.1,0.1-16.9c4.2-3.1,8.2-6.4,12-9.7c1.6-1.4,3.3-2.9,5-4.5
	c1.7-1.6,3.4-3.3,5-5c0.3-0.3,0.6-0.6,0.8-0.9c2,3.1,4.4,5.6,7.2,7.6c3.1,2.2,6.7,3.4,10.8,3.6c2.9,0.1,5.6-0.3,8.1-1.3
	c2.6-1,4.9-2.4,7.1-4.2c2.2-1.8,4.1-3.9,5.9-6.4c1.7-2.4,3.3-5.1,4.5-7.9c1.2-2.8,2.2-5.8,2.9-8.8c0.7-3,1.1-6.1,1.1-9.2
	c0.1-3.1-0.2-6.3-0.9-9.8c-0.6-3.4-1.6-6.8-3-10.1c0.2-0.3,0.4-0.5,0.6-0.8c1.7,1.5,3.8,3.4,6.1,5.6c2.4,2.2,4.8,4.5,7.3,6.9
	c1.7,1.7,3.4,3.4,5,5.1c-0.7,4-1.4,7.7-2,11.2c-1.1,5.9-1.7,10.8-1.8,14.7c-0.1,3.2,0,5.8,0.5,8c0.5,2.2,1.2,3.9,2.2,5.3
	c1,1.3,2.1,2.3,3.4,2.9c1.3,0.6,2.7,0.9,4.2,1c1.8,0.1,3.8-0.3,5.9-1c2.1-0.7,4.1-1.7,6.2-3c2.1-1.3,4.2-2.8,6.2-4.5
	c2.1-1.7,4.1-3.5,6-5.5c0.3,2.1,0.6,4.1,1,5.8c0.4,1.7,1,3.2,1.7,4.5c0.7,1.2,1.6,2.2,2.7,2.9c1.1,0.7,2.5,1.1,4.3,1.1
	c1.7,0.1,3.7-0.1,5.8-0.5c2.1-0.4,4.3-0.9,6.5-1.5c2.2-0.6,4.5-1.3,6.7-2.1c2.3-0.8,4.4-1.6,6.5-2.4c2.1-0.8,4-1.6,5.7-2.4
	c1.7-0.8,3.2-1.5,4.4-2.2C214.7,69.9,214.9,68.8,215,67.9z M37.2,105.4c0.1,2.7,0.2,5.5,0.3,8.3c0.1,2.8,0.1,5.6,0.1,8.2
	c0,2.7-0.1,5-0.4,7.1c-0.3,2-0.8,3.6-1.6,4.8c-0.8,1.2-2,1.7-3.6,1.5c-1.5-0.2-2.9-1.2-4-3.2c-0.7-1.2-1.2-2.7-1.6-4.5
	c-0.4-1.8-0.5-3.7-0.4-5.8c0.1-2.1,0.4-4.2,0.9-6.5c0.6-2.2,1.3-4.5,2.3-6.6c1-2.1,2.1-4.1,3.4-6c1.3-1.9,2.7-3.5,4.2-4.8
	C37,100.2,37.1,102.7,37.2,105.4z M108,45.9c-0.8,3.3-1.8,6.3-3,9c-1.2,2.7-2.6,4.9-4.2,6.7c-1.6,1.7-3.2,2.6-4.8,2.5
	c-1.9-0.1-3.5-0.7-4.9-1.6c-1.4-1-2.5-2.2-3.3-3.8c-0.8-1.5-1.5-3.4-1.9-5.4c-0.4-2-0.6-4.2-0.5-6.5c0-3.3,0.5-6.8,1.4-10.4
	c0.9-3.6,2.1-6.8,3.6-9.6c1.5-2.9,3.2-5.1,5.1-6.9c1.9-1.7,3.8-2.4,5.8-2.2c1.5,0.2,2.8,0.8,3.8,1.9c1,1.1,1.8,2.4,2.5,4.1
	c0.6,1.7,1.1,3.6,1.4,5.7c0.3,2.2,0.4,4.5,0.3,6.9C109.2,39.4,108.8,42.6,108,45.9z"/>

<path class="blBody" fill="#EA46A8" d="M346.5,173.2c0,95.7-79.8,210.7-175.5,210.7S0,268.9,0,173.2S77.6,0,173.2,0
	S346.5,77.6,346.5,173.2z"/>

</g>


</svg>
