<svg id="sign-animation" xmlns="http://www.w3.org/2000/svg" viewBox="0 0 800 800">
  <title>banner-opening</title>
    <defs>
        <clipPath id="labelClip">
            <rect id="clipping" width="1400" height="800" x="-1350" y="0" />
        </clipPath>
    </defs>
  <g id="purple-bg">
    <rect x="3" y="3" width="795" height="795" fill="#6149a6"/>
    <path d="M798.34,798l-397.75,1.25L3,800H0.89v-2.12L0.52,400.29,0.3,2.7V0H3l397.6,0.23,198.8,0.12L798.19,0.6h2.11V2.7l-0.71,397.59Zm-0.3-.3L798,2.7l0.22,0.22L3,3l0.3-.3L3.22,797.88,3,797.66Z" transform="translate(-0.3)"/>
  </g>
  <text transform="translate(228.24 448.51)" font-size="156.5" fill="#867ba6" font-family="Museo Sans Rounded">HEY!</text>
  <rect id="orange-bg" width="800" height="800" fill="#d18b75"/>
  <g id="sign" clip-path="url(#labelClip)">
    <g id="label1">
      <path id="paper1" d="M600.14,218.34c-11.18,9.23-28.22,17.38-39.46,19.1-8,1.22-17.15.8-25.13-.07-1.24-.14-2.74-1-4-0.64L130.07,344.47c-1.41,7.65-4.39,18.52-6.87,27.4-1.31,6.57-2.61,12.66-3.24,17.73-0.6-3.36,1.09-9.93,3.25-17.69,1.74-8.74,3.52-18.24,3.93-26.65L50.3,365.88l64,238.32,71.17-19.1c3.76-11.39,7.56-23.18,8.16-33.86,1.65,5.38,4.75,19,3.92,30.62L750.3,433.53l-64-238.32Z" transform="translate(-0.3)" fill="#ddaa9a"/>
      <text transform="translate(201.08 534.09) rotate(-15.02)" font-size="199.37" fill="#d16948" font-family="Museo Sans Rounded"><tspan letter-spacing="-4">Y</tspan><tspan x="114.84" y="0">OU!</tspan></text>
    </g>
    <g id="label2">
      <path id="paper1-2" data-name="paper1" d="M136.55,456.85c14.3-2.4,33.13-.94,43.72,3.19,7.54,2.94,15.25,7.88,21.73,12.63,1,0.74,1.89,2.2,3.11,2.53L606.7,582.65c5-5.92,13.06-13.85,19.65-20.3,4.42-5,8.59-9.66,11.67-13.73-1.16,3.2-5.91,8.05-11.66,13.69-5.88,6.7-12.16,14-16.73,21.12L686.49,604l63.77-238.37-71.19-19c-9,8-18.13,16.3-24,25.25,1.26-5.48,5.37-18.81,11.91-28.48L114.1,195.41,50.33,433.78Z" transform="translate(-0.3)" fill="#fff"/>
    </g>
  </g>
</svg>
