<svg id="elements" xmlns="http://www.w3.org/2000/svg" viewBox="0 0 400 400" width="400px" height="400px" style="background: black">
    
<style>
    
<![CDATA[
    
@font-face {
    font-family: 'Museo';
    src: url('../fonts/Museo.woff') format('woff');
    font-style: normal;
}
]]>

</style>
    
  <title>banner-ad-assets</title>
  <rect id="square" width="400" height="400" fill="lime"/>
  <path id="thanks" d="M143,168.64a148.21,148.21,0,0,1-15.45,2.83,161.43,161.43,0,0,1-16.75-.42,3.23,3.23,0,0,1,.62,2.26c-1,34.76-1,84-.77,99.72a3.89,3.89,0,0,1-3.25,3.82,4.7,4.7,0,0,1-5.77-3.41c-0.8-3.66-2.64-36.23-1.1-64.86,0.14-2.06,1.31-35.21,3.17-36.58-3.5.41-7,1-10.39,1.8-3.2.7-39.54,17.71-42.63,18.39-1.37.3-.9-9,1.54-9.92,1.49-.57,11.48-11.12,26.65-15,7.28-1.84,14.69-3.29,16.41-3.66,37.58-6,77.94,1.53,102.59-40.62C202.33,161.83,165.93,160.33,143,168.64Zm180.87,41.65c2,9.27-.62,19.68-12.28,22.23-7.78,1.7-13,.31-16.17-2.26-2.1,4-4.94,7.11-8.87,8-8.35,1.82-11.74-3.79-19.41-15.31l-0.09.14c0.09,7.53.28,13.37,0.53,16.18a2.61,2.61,0,0,1-2.21,3c-2.4.52-5.69-.8-6.29-3.54a88.36,88.36,0,0,1-.87-9.6c-2.18,7.54-6.17,16.65-12.53,18-4.58,1-9.63-1.25-11.13-8.12-2.25-10.3,4.22-33.41,2.54-41.08-0.32-1.49-1.16-2.62-2.42-2.35-4.23.92-10.43,20.85-10.38,42.54l-0.17.88c0.13,3.33.28,6.17,0.49,8.76a4.66,4.66,0,0,1-3.87,4.81,5.07,5.07,0,0,1-6.16-4c-0.07-.34,0-0.72-0.11-1.06-0.25-2.64-.46-5.14-0.63-7.58-1.89,7-5.13,14.95-10.47,16.11-3.55.77-8.21-.24-10.08-8.83a15.38,15.38,0,0,1-.36-2.2c-2.08,8.61-5.35,14.47-9,15.27-6.06,1.32-10.09-4.48-12.08-13.12-1.4,7.5-4.31,17.06-11,18.52-4.58,1-9.63-1.25-11.13-8.12-2.17-10,2.25-33.1.6-40.65-0.37-1.72-1.06-2.64-2.2-2.39-3.32.72-9.41,16.2-9.69,38.56,0.07,12.93,1.36,17.2-3.21,18.21-2.17.48-4.7-.65-5.45-4.09-1.62-7.44-2.49-49.8-.42-77.71,0.11-2.18,1.75-3.5,3.81-3.94,2.75-.6,6.12.58,6.77,3.55,0.79,3.66-1,10.78-1.28,36.48,2.16-9.94,5.74-17.67,11-18.82,6.74-1.47,9.64,3.54,10.57,7.77,2.77,12.7-2.4,34.56-.78,42,0.4,1.83,1.19,2.74,2.68,2.41,3.78-.82,5.63-10.46,8.41-20.77v0c-1.1-16.8,3.77-37.37,14.94-39.81,4.58-1,8.52,3.3,9.52,6.8l0.69-.15a6.65,6.65,0,0,1,7.74,5.26,9,9,0,0,1,.26,1.75c0.09,15.21-1.22,28.44,0,33.93,0.38,1.72,1.2,2.74,2.23,2.51,2.36-.51,4.54-7.12,7.42-19a307.47,307.47,0,0,1,1-31.18,4.26,4.26,0,0,1,3.59-3.91,5.52,5.52,0,0,1,6.75,4c0.65,3-.27,8.09-0.31,11.21,2.34-11.78,6.35-21.41,12.3-22.71,6.75-1.47,9.82,4.33,10.75,8.56,2.82,12.93-4,35.15-2.44,42.13,0.32,1.49,1.11,2.27,2.36,2,5-1.09,9.55-17.62,10.49-20.43-0.61-16.79-.79-40.67.49-57.85,0.15-2.06,1.6-3.11,3.43-3.51,2.86-.62,6.6.61,7.18,3.24a2.55,2.55,0,0,1,.08.93c-0.76,8.56-1.39,20-1.68,31.29,2.09-8,5.32-14.1,10.24-15.17,6-1.3,9.54,3.07,10.94,9.47,2.3,10.53-1.52,26.59-11,32.5,6.11,9.33,7.43,12,10.75,11.32,1.87-.41,3.38-1.9,4.67-4.11a10.51,10.51,0,0,1-1.17-3c-0.87-4,.54-8.5,4.82-8.72,3.81-9.94,7.18-24.22,8.95-32a27.16,27.16,0,0,1-3.71-8.78c-1.68-7.67.51-14.61,4.87-15.56,2.74-.6,4.65,1,5.35,4.22,0.92,4.24,0,11.4-3.16,20.11C313.11,191.19,321.87,201.14,323.87,210.29Zm-131.18-2.05c-0.43-1.95-1.3-4.27-4-3.67-7.67,1.67-8.8,30-6.18,42,0.75,3.43,1.8,5.48,3.18,5.18,4.23-.92,6.89-12.89,7-26.22Zm86.86-15.84c-0.72-3.32-2.31-5.61-4.6-5.11-4.58,1-7.36,14.08-7.83,30a6.06,6.06,0,0,1,3.24-2.15,4.81,4.81,0,0,1,4.53,1.53C279.4,211.5,281.06,199.38,279.55,192.4Zm33,18c-0.85-3.89-3-11.57-4.87-18.48-1.74,8.88-5.28,18-7.63,23.87-0.06.29-.11,0.58-0.17,0.87,1.45,1.13,1.83,3.36,3,8.9,0.82,3.78,2.53,5.56,5.27,5C311.92,229.69,315.65,224.8,312.51,210.38Zm25.22-.95c-6.29,1.37-9.05,8-8,12.77,0.94,4.35,4.6,5.71,8.37,4.89,6.07-1.32,8.71-7.9,7.66-12.7C345,211,342.42,208.41,337.73,209.43Zm12.18-73.26c-0.75-3.43-4-4.64-7-4a6.64,6.64,0,0,0-5.52,6,442.79,442.79,0,0,0-1.83,59.74,4.8,4.8,0,0,0,.17,1.28c0.4,1.83,1.51,2.56,2.42,2.36s1.77-1.23,2-3.07c1.85-19,5.59-36.47,9.81-58.85A9.33,9.33,0,0,0,349.91,136.17Z"/>
  <polygon id="glint" points="300.29 134.75 303.6 154.15 320.83 144.65 307.73 159.33 325.91 166.88 306.26 165.79 311.69 184.71 300.29 168.66 288.89 184.71 294.32 165.79 274.67 166.88 292.85 159.33 279.74 144.65 296.98 154.15 300.29 134.75"/>
    
<g id="youmadeit">
    <rect transform="translate(-175 -175)" width="350" height="350" fill="transparent"/>
    <text transform="translate(-175 -175)" font-size="90" font-family="Museo" text-anchor="middle"><tspan class="word" x="175" y="120">YOU</tspan><tspan class="word" x="175" dy="100">MADE</tspan><tspan class="word" x="175" dy="100">IT!</tspan></text>
    <line x1="0" y1="-175" x2="0" y2="175" style="stroke: #000000"/>s
</g>
    

    
  <polygon id="board" points="394.79 200.68 338 140.17 338 161 309 161 309 85 11 85 11 318 309 318 309 243 338 243 338 261.2 394.79 200.68" fill="red"/>
  <g id="lights">
    <path id="lt24" d="M279.72,299.48a8.48,8.48,0,1,1,6-2.48A8.53,8.53,0,0,1,279.72,299.48Z" fill="#fff"/>
    <path id="lt23" d="M236.32,291a8.49,8.49,0,0,1,8.49-8.49h0A8.49,8.49,0,0,1,253.3,291h0a8.49,8.49,0,0,1-8.49,8.49h0A8.49,8.49,0,0,1,236.32,291Z" fill="#fff"/>
    <path id="lt22" d="M201.42,291a8.49,8.49,0,0,1,8.49-8.49h0A8.49,8.49,0,0,1,218.4,291h0a8.49,8.49,0,0,1-8.49,8.49h0A8.49,8.49,0,0,1,201.42,291Z" fill="#fff"/>
    <path id="lt21" d="M166.51,291a8.49,8.49,0,0,1,8.49-8.49h0a8.48,8.48,0,0,1,8.49,8.49h0a8.49,8.49,0,0,1-8.49,8.49h0A8.49,8.49,0,0,1,166.51,291Z" fill="#fff"/>
    <path id="lt20" d="M131.61,291a8.49,8.49,0,0,1,8.49-8.49h0a8.49,8.49,0,0,1,8.49,8.49h0a8.49,8.49,0,0,1-8.49,8.49h0A8.49,8.49,0,0,1,131.61,291Z" fill="#fff"/>
    <path id="lt19" d="M96.71,291a8.48,8.48,0,0,1,8.49-8.49h0a8.49,8.49,0,0,1,8.49,8.49h0a8.49,8.49,0,0,1-8.49,8.49h0A8.49,8.49,0,0,1,96.71,291Z" fill="#fff"/>
    <path id="lt18" d="M61.8,291a8.49,8.49,0,0,1,8.49-8.49h0A8.49,8.49,0,0,1,78.78,291h0a8.49,8.49,0,0,1-8.49,8.49h0A8.49,8.49,0,0,1,61.8,291Z" fill="#fff"/>
    <path id="lt17" d="M35.39,299.48a8.48,8.48,0,1,1,6-2.48A8.53,8.53,0,0,1,35.39,299.48Z" fill="#fff"/>
    <path id="lt16" d="M26.9,255.85a8.49,8.49,0,0,1,8.49-8.49h0a8.49,8.49,0,0,1,8.49,8.49h0a8.49,8.49,0,0,1-8.49,8.49h0A8.49,8.49,0,0,1,26.9,255.85Z" fill="#fff"/>
    <path id="lt15" d="M26.9,220.7a8.49,8.49,0,0,1,8.49-8.49h0a8.49,8.49,0,0,1,8.49,8.49h0a8.49,8.49,0,0,1-8.49,8.49h0A8.49,8.49,0,0,1,26.9,220.7Z" fill="#fff"/>
    <path id="lt14" d="M26.9,185.56a8.49,8.49,0,0,1,8.49-8.49h0a8.49,8.49,0,0,1,8.49,8.49h0A8.49,8.49,0,0,1,35.39,194h0A8.48,8.48,0,0,1,26.9,185.56Z" fill="#fff"/>
    <path id="lt13" d="M26.9,150.41a8.49,8.49,0,0,1,8.49-8.49h0a8.49,8.49,0,0,1,8.49,8.49h0a8.49,8.49,0,0,1-8.49,8.49h0A8.48,8.48,0,0,1,26.9,150.41Z" fill="#fff"/>
    <path id="lt12" d="M35.39,123.76a8.49,8.49,0,1,1,6-2.49A8.56,8.56,0,0,1,35.39,123.76Z" fill="#fff"/>
    <path id="lt11" d="M236.32,115.27a8.49,8.49,0,0,1,8.49-8.49h0a8.48,8.48,0,0,1,8.49,8.49h0a8.49,8.49,0,0,1-8.49,8.49h0A8.49,8.49,0,0,1,236.32,115.27Z" fill="#fff"/>
    <path id="lt10" d="M201.42,115.27a8.48,8.48,0,0,1,8.49-8.49h0a8.49,8.49,0,0,1,8.49,8.49h0a8.49,8.49,0,0,1-8.49,8.49h0A8.49,8.49,0,0,1,201.42,115.27Z" fill="#fff"/>
    <path id="lt9" d="M166.51,115.27a8.49,8.49,0,0,1,8.5-8.49h0a8.48,8.48,0,0,1,8.48,8.49h0a8.49,8.49,0,0,1-8.48,8.49h0A8.49,8.49,0,0,1,166.51,115.27Z" fill="#fff"/>
    <path id="lt8" d="M131.61,115.27a8.49,8.49,0,0,1,8.49-8.49h0a8.49,8.49,0,0,1,8.49,8.49h0a8.49,8.49,0,0,1-8.49,8.49h0A8.49,8.49,0,0,1,131.61,115.27Z" fill="#fff"/>
    <path id="lt7" d="M96.7,115.27a8.49,8.49,0,0,1,8.5-8.49h0a8.49,8.49,0,0,1,8.49,8.49h0a8.49,8.49,0,0,1-8.49,8.49h0A8.5,8.5,0,0,1,96.7,115.27Z" fill="#fff"/>
    <path id="lt6" d="M61.8,115.27a8.49,8.49,0,0,1,8.49-8.49h0a8.49,8.49,0,0,1,8.49,8.49h0a8.49,8.49,0,0,1-8.49,8.49h0A8.49,8.49,0,0,1,61.8,115.27Z" fill="#fff"/>
    <path id="lt5" d="M279.72,123.76a8.49,8.49,0,1,1,6-2.49A8.54,8.54,0,0,1,279.72,123.76Z" fill="#fff"/>
    <path id="lt4" d="M271.23,255.85a8.48,8.48,0,0,1,8.49-8.49h0a8.49,8.49,0,0,1,8.49,8.49h0a8.49,8.49,0,0,1-8.49,8.49h0A8.49,8.49,0,0,1,271.23,255.85Z" fill="#fff"/>
    <path id="lt3" d="M271.23,220.7a8.49,8.49,0,0,1,8.49-8.49h0a8.49,8.49,0,0,1,8.49,8.49h0a8.49,8.49,0,0,1-8.49,8.49h0A8.49,8.49,0,0,1,271.23,220.7Z" fill="#fff"/>
    <path id="lt2" d="M271.23,185.56a8.49,8.49,0,0,1,8.49-8.49h0a8.49,8.49,0,0,1,8.49,8.49h0a8.49,8.49,0,0,1-8.49,8.49h0A8.49,8.49,0,0,1,271.23,185.56Z" fill="#fff"/>
    <path id="lt1" d="M271.23,150.41a8.49,8.49,0,0,1,8.49-8.49h0a8.49,8.49,0,0,1,8.49,8.49h0a8.49,8.49,0,0,1-8.49,8.49h0A8.48,8.48,0,0,1,271.23,150.41Z" fill="#fff"/>
  </g>
  <text style="text-anchor: middle" x="0" y="0" id="overhere" font-size="68.48" font-family="Museo">OVER<tspan x="-0.04" y="65.39" font-size="72.66">HERE</tspan></text>
  <path id="underline"  id="underline" d="M86.67,281c-4,0-6-2.09-6-6v-7.14c0-4,2.09-6,6-6H313.33c4,0,6,2.09,6,6v7.14c0,4-2.09,6-6,6H86.67Z"/>
  <text x="0" y="0" id="you"  font-size="109.84" font-family="Museo">YOU!</text>
  <text x="0" y="0" id="hey" font-size="109.84" font-family="Museo">HEY!</text>
</svg>