<svg id="sign-animation" xmlns="http://www.w3.org/2000/svg" viewBox="0 0 800 800">
  <title>banner-opening</title>
    <style>

<![CDATA[

@font-face {
    font-family: 'Museo';
    src: url('../fonts/Museo.woff') format('woff');
    font-style: normal;
}
]]>

</style>
    <defs>
        <clipPath id="labelClip">
            <rect id="clipping" width="1400" height="800" x="-1350" y="0" />
        </clipPath>
    </defs>

<!--BACKGROUND-->

<rect id="bg" width="800" height="800" fill="#000000"/>

<!--BALLOONS-->

<defs>
    <radialGradient id="radial-gradient" cx="435.74" cy="128.24" r="158.24" gradientUnits="userSpaceOnUse">
      <stop offset="0.18" stop-color="#fff"/>
      <stop offset="0.27" stop-color="#fafafa"/>
      <stop offset="0.37" stop-color="#ebeced"/>
      <stop offset="0.49" stop-color="#d2d4d6"/>
      <stop offset="0.62" stop-color="#afb4b7"/>
      <stop offset="0.75" stop-color="#828a8e"/>
      <stop offset="0.88" stop-color="#4c575e"/>
      <stop offset="1" stop-color="#15232c"/>
    </radialGradient>
    <radialGradient id="radial-gradient-2" cx="459.36" cy="96.86" r="17.85" gradientTransform="translate(65.44 -158.52) rotate(21.05)" gradientUnits="userSpaceOnUse">
      <stop offset="0" stop-color="#fff"/>
      <stop offset="0.09" stop-color="#fff" stop-opacity="0.98"/>
      <stop offset="0.22" stop-color="#fff" stop-opacity="0.91"/>
      <stop offset="0.36" stop-color="#fff" stop-opacity="0.79"/>
      <stop offset="0.52" stop-color="#fff" stop-opacity="0.63"/>
      <stop offset="0.7" stop-color="#fff" stop-opacity="0.43"/>
      <stop offset="0.88" stop-color="#fff" stop-opacity="0.19"/>
      <stop offset="1" stop-color="#fff" stop-opacity="0"/>
    </radialGradient>

    <!-- STRING MORPHS -->

    <path id="string1" d="M404.22,305.95s-5.94,75,20.64,146.74C472,580.16,648.41,703.53,648.41,703.53" fill="none" stroke="#fff" stroke-miterlimit="10" stroke-width="2"/>
      <path id="string3" d="M404,305.95s12.29,69.53-20.66,146.74C355,519,324.33,558.33,278.35,602A1368.82,1368.82,0,0,1,157.71,703.5" fill="none" stroke="#fff" stroke-miterlimit="10" stroke-width="2"/>
    <path id="string2" d="M403.49,306.08s7.27,53.46-31.83,135.29C347,493,278.33,573.67,259.8,615.4,221,702.7,222,750,222,750" fill="none" stroke="#fff" stroke-miterlimit="10" stroke-width="2"/>
    <path id="string4" d="M404.22,306.08s0.39,92.24,84.53,228.44c91.93,148.8,97,215.48,97,215.48" fill="none" stroke="#fff" stroke-miterlimit="10" stroke-width="2"/>

      <pattern id="grain" patternUnits="userSpaceOnUse" width="250" height="250">
        <image xlink:href="images/grain.png" x="0" y="0" width="250" height="250" />
      </pattern>

  </defs>
  <rect width="800" height="800"/>

<!--  CLOUD  -->

<g class="cloudGroup">

    	<path class="cloud" id="cloud4" fill="white" d="M610.9,87.4c2.9,1.8,4.5-3.1,6.5-4.3c0.9,0.1,1.6,0.5,2.1,1.1c1.8-1.3,3.7-2.6,5.6-3.8
		c7.1-4.6,14.1-12.8,21.6-15.6c3.7-1.4,8.1-1.8,10.8-3.2c3.7-2-5-1.8-2.4-0.6c-1.1,2-2.6,2.4-4.4,1.1c-1-0.8-1.5-1.9-1.5-3.1
		c0,0,4.1-1.4,3.4-2.2c-0.8-0.9-2.1,1.3-3,0.2c-2.3-2.6,4.7-4.1,5.4-4.2c2.1-0.2-0.1,2.7,0.2,3c1.3,1.2,9.1,0.3,10-1.8
		c-1.3-1.3-3.2-1.1-5.2-3.1c-2.4-2.4-3.1-5-4.8-7.8c-0.6-1-3.3-2.5-3.2-2.5c-0.9-2,1.3-4.2,0.8-5.5c-1.5-4.2-7.1,1.4-8.5,1.9
		c-2.4,0.9-2.8,2.7-5.6,1.2c-2-1-0.3-4-1.4-5.1c0,0-10.4,4.1-12.3,4c-0.5,0,0.6-5.6-3.2-2.4c-2.8,2.4,1,7.4,1.9,8.8
		c0.3,0.5,5.9-0.1,2.7,2.5c-2.2,1.8-8.6-1.4-10.6-2.1c-9.2-3-2-1.9-2.8-8.9c-0.7-6.4-5.4-4.8-10.3-4.6c-6.5,0.3-15.6-0.4-21.6,3.1
		c-0.8,0.4-0.5,2.3-1.4,2.9c-1.1,0.6-5.4,1.5-6.3,2.2c-0.8,0.7-2.2,2.2-2.8,4c-1,3,1.2,3.1-0.5,6.5c-1.5,3.2-10.7,5.6-11,6.6
		c0.2-0.5,0.5,6.6,0.4,6.4c0.7,5.5,1.6,10,4.4,14c2.9,4.1,10.6,11.3,15.2,13.5c-2.4-1.1,9.8,1.9,5,0.8c2.2,0.5,3,0,5.1,0.7
		c2.6,0.8,4.6,2.6,7.3,1.7c0.6-0.2-2.2-3.1-1-3.6c2.1-0.9,2.9,0.5,3.9,0.3C599.1,89.8,611,87.5,610.9,87.4
		C612.2,88.2,609.8,86.7,610.9,87.4z"/>

    <path class="cloud" id="cloud2" fill="white" d="M287,81.6c0.5,0.6,0.9,1.3,1.3,2c1.3-6.3,11.3-4.8,15.8-6.9c-6.8,4.1-0.8,16.9,5.5,19.1
		c8.5,2.9,14.9-8.3,23-10.5c-1.1,10,11.3,4.3,12,9.6c3.3-3.6,9.1-5.9,11.6-10c2-3.3,0.6-6.6,2.3-9.9c6.9,5.3,7.6-7.6,4.6-11.4
		c-0.9-1.2-3.2,0.4-4.2-2.4c-1.1-2.9,2.1-2.5,1.9-4.1c-0.3-2.1-2.3-3.6-2.6-5.9c-0.5-3.9,2.9-4.9-1-5.6c-3.5-0.7-3.3,5.4-5.5,0.5
		c-0.7-1.4,0.6-6.7,2.6-6.9c0.6,0.4,1.1,1,1.5,1.6c5,0.3,0-6.3-0.5-7.3c-0.4-0.9-1.2-5-1.9-5.5c-6.1-4.6-5.3,6.7-7.5,7.9
		c-2.8,1.5-11.4-5.8-14.8-7c-9.7-3.6-16-2.1-25.3,0.8c-3.9,1.2-15.8,1.1-16.4,5.7c-0.5,3.7,6.7,6.8,5.4,10.4c-2,5.5-7,0.2-10.8,0.8
		c-6.3,1.1-4,9.5-10.3,12c2.1,5,5.4,9.6,6.3,15.3C280.4,78.6,279.3,82.5,287,81.6C287.1,82.4,284,81.9,287,81.6z"/>


    <polygon class="cloud" id="cloud1" fill="white" points="193.5,88.1 192.7,83.4 193,82.3 201.8,69.1 204.4,68 211.5,67.9 214.2,68.6
		217,67.9 216.6,64.6 216.1,63.9 214.1,56.8 216,53.1 216.5,48.7 213.2,43.2 215.2,39.3 210.8,38.2 204.3,39.9 201.6,39.3
		199.6,37.2 199.6,35.8 197.8,33 190,36.6 188.3,39.8 187.5,45.2 185.4,46.8 178.5,43.3 177.5,43.6 174.2,42.7 171.8,40.1
		168.3,38.5 167,36.9 161.5,37.1 154.1,41 152.5,43.3 150,42.2 145.4,38.2 142.5,31.5 129.2,27.3 125.2,30.6 126.4,32.1 121.8,37.7
		122,46.5 122,46.6 121.3,49 118.8,49.1 116.9,50.7 115.2,53.3 112.1,55.6 111.9,56.2 115.6,60 123.2,58.9 124.1,62 122.5,63.6
		121.8,65.6 126.1,67.9 127.3,69 133.4,71.2 136.3,74.5 141.2,76.4 142.1,78.8 142.2,82.1 143.7,84.9 143.2,86.5 145.1,88.8
		146.4,87.8 147.8,84.9 150.1,84.6 152.4,90.5 158.4,92.7 161.3,93 162.1,91.7 169.4,90.9 173.6,95.9 174.5,96.3 175.5,93.5
		190.5,91.2 193.5,88.1 	"/>


    <path class="cloud" id="cloud3" fill="white" d="M528.8,46c0,0-2.4-2.5-2.5-2.6c-0.4-0.5,0.1-1.3-0.9-2.2c-1.7-1.5-5.1-2.3-7.1-2.7
		c-2.3-0.5-5,0.3-7.4-0.5c-2.2-0.7,0.2-1.8-0.5-3.2c-1.5-3.3-6.4,3-7,3.3c-3.2,1.4-2.3,1.3-6.2,2.3c-4.1,1-2.6,1.2-6.2,0.4
		c-1.4-0.3-0.8-2.6-1.9-3c-2.4-0.8-5.8,1.5-8,0.4c-1.9-1-2-2.9-3.2-4.2c-0.6-0.6-2.5-3.1-2.8-3.3c-0.8,0.1-1.5,0.1-2.3,0.1
		c-0.2-0.7-0.4-1.4-0.8-2.1c-0.4-0.1-6,1.7-6.9,1.7c-2.4,0.2-4.8,0.7-7.3,0.9c-3.2,0.3-5.5-1.1-8.7,0.4c-1.1,0.5-3.2,1.4-4,2.2
		c-0.8,0.8,1.3,2.9-0.1,3.8c-2.4,1.4-3.8-1.3-6.5-0.7c-2.5,0.6-3.1,2.2-5,3.5c-4,2.8-4.9,0.8-8.9,2.1c-2,0.6-3.2,4-5.3,5.2
		c2,2.4,5.5,2.4,7.6,4.5c2.1,2.2,2.6,5.8,3.5,8.6c0.4,1.5,0.8,3,1.2,4.4c0,2.6,1.4,4,4.1,3.9c1.2,4,0,2.2-2.7,5.5
		c5.3,1.6,0.5,7.5,3,9.8c0.7,0.7,4.9-0.1,6.5,1.2c2.4,1.8,3.5,4.9,1.7,7.6c3.6,1.1,5.9,0.9,9.4,0.2c3.5-0.7,5.4-3.8,9.5-1.9
		c-0.4,1.7-0.4,1.5,1.2,2.1c4,1.6,3,0.6,7.2,0c0.9-0.1,17.3-3.1,17-2.2c-2-2-1.3-9.6-0.7-11.7c3.8,2.5,7.6-0.3,10.3-3.1
		c-5.1-3.5,4.4-8.3,6.9-9.8c1.3-0.8,5.1-1.2,6-3.3c1-2.4-1.4-4.8,0.2-6.2c2.7-2.2,2,1.8,3.2,1.3c2.6-1.2,3.8-3.1,5.7-5.4
		C520.6,52.6,528.8,45.8,528.8,46z"/>




</g>




    <!-- YOU balloon -->


    <g class="balloonCam">

<g id="blYou" class="blwrap">

  <g class="bl">
    <path class="string" d="M404.22,305.95s-5.94,75,20.64,146.74C472,580.16,648.41,703.53,648.41,703.53" fill="none" stroke="#fff" stroke-miterlimit="10" stroke-width="2"/>
    <path class="body" d="M526,156.1c0,69.57-58,153.23-127.6,153.23S274,225.67,274,156.1A126,126,0,1,1,526,156.1Z" fill="#ea46a8"/>
    <path class="word you" d="M449.19,182.29q0-1.29-.05-2.5t0-2.55q0-1.34,0-3a20.19,20.19,0,0,1-2.17,2.35q-1.34,1.26-3,2.55t-3.41,2.46q-1.78,1.17-3.49,2.09a24,24,0,0,1-3.23,1.47,7.9,7.9,0,0,1-2.59.55,2.19,2.19,0,0,1-1.51-.47,2.94,2.94,0,0,1-.81-1.34,9,9,0,0,1-.36-2q-0.09-1.17-.12-2.56a19.63,19.63,0,0,1,.23-2.65q0.26-1.91.69-4.43c0.29-1.68.64-3.49,1-5.43s0.74-3.83,1.08-5.66,0.63-3.51.86-5a31.82,31.82,0,0,0,.38-3.64,2.54,2.54,0,0,0-1.4-2.28,7.43,7.43,0,0,0-3.93-.9,9.41,9.41,0,0,0-4,.81,3.28,3.28,0,0,0-2.07,2c-2.28,10.06-3.39,15-5.12,25.12a13.86,13.86,0,0,1-1.1,3.56,10.67,10.67,0,0,1-1.73,2.64,7.48,7.48,0,0,1-2.11,1.65,4.92,4.92,0,0,1-2.23.58,2.15,2.15,0,0,1-1.29-.4,3.16,3.16,0,0,1-.91-1,5.64,5.64,0,0,1-.55-1.47A8.42,8.42,0,0,1,406,181s0.06-.55.18-1.54,0.3-2.31.54-3.93,0.52-3.46.84-5.52,0.67-4.17,1-6.35,0.76-4.34,1.14-6.48,0.76-4.09,1.12-5.84a1.62,1.62,0,0,0-1.11-1.41,9.57,9.57,0,0,0-3.67-.67,5.19,5.19,0,0,0-2.73.84,8.09,8.09,0,0,0-2.11,2,14.49,14.49,0,0,0-1.57,2.77,27.89,27.89,0,0,0-1.11,3q-0.45,1.49-.71,2.75c-0.05.25-.1,0.48-0.14,0.7-0.32-.39-0.63-0.79-1-1.18a46,46,0,0,0-5.66-5.62,27,27,0,0,0-6.23-3.91,17.58,17.58,0,0,0-15.18.54,21.07,21.07,0,0,0-6.56,5.5,26.31,26.31,0,0,0-4.38,8.21,30,30,0,0,0-1.46,10.17,34.85,34.85,0,0,0,.78,6.56,61.73,61.73,0,0,1-4,5.21,27.78,27.78,0,0,1-3.42,3.41,28.84,28.84,0,0,1-3,2.15c0.39-5.77,1-11.17,1.66-16.08,0.28-2.09.56-4.2,0.91-6.28s0.72-4.07,1.1-6,0.75-3.56,1.1-5,0.64-2.67.88-3.52a5.17,5.17,0,0,0,.2-1,2.23,2.23,0,0,0-.82-2.11,4,4,0,0,0-2.39-.67,9.12,9.12,0,0,0-2.68.45,11.05,11.05,0,0,0-2.83,1.34,10.15,10.15,0,0,0-2.39,2.21,8.11,8.11,0,0,0-1.48,3c-1.55,5.82-2.17,8.69-3.37,14.53a37.32,37.32,0,0,1-.71,4,36.89,36.89,0,0,1-1.37,4.68,17.72,17.72,0,0,1-1.94,3.9,3.08,3.08,0,0,1-2.5,1.62,2,2,0,0,1-1.46-.58,4.46,4.46,0,0,1-1-1.52,9.44,9.44,0,0,1-.56-2.13,21,21,0,0,1-.23-2.45,47.89,47.89,0,0,1,.16-5.57c0.17-2.09.45-4.21,0.79-6.37s0.76-4.26,1.27-6.32a52.77,52.77,0,0,1,1.58-5.36,10.31,10.31,0,0,0,.41-1.39,8.49,8.49,0,0,0,.17-1.19,3.29,3.29,0,0,0-.78-2.69,3,3,0,0,0-2.19-.86,5.39,5.39,0,0,0-3.13,1.17,7.67,7.67,0,0,0-2.54,3.39c-0.85,2.06-1.57,4.13-2.19,6.15a52.67,52.67,0,0,0-1.5,6.29,60.49,60.49,0,0,0-.8,6.88,68.14,68.14,0,0,0,0,8,22.28,22.28,0,0,0,1.14,6,17.27,17.27,0,0,0,2.29,4.53,10.4,10.4,0,0,0,3,2.85,6.4,6.4,0,0,0,3.34,1,6.86,6.86,0,0,0,4-1.5,23.91,23.91,0,0,0,4.15-3.94c-0.3,1.89-.44,2.84-0.69,4.73a49,49,0,0,0-4.7,6.3,46.93,46.93,0,0,0-3.48,6.67,41,41,0,0,0-2.19,6.73,35.63,35.63,0,0,0-.9,6.41,28.07,28.07,0,0,0,.31,5.76,18.55,18.55,0,0,0,1.42,4.81,21.06,21.06,0,0,0,2.94,4.82,14.86,14.86,0,0,0,2.91,2.72,8.48,8.48,0,0,0,2.6,1.26,8.63,8.63,0,0,0,2.13.31,5.48,5.48,0,0,0,3.79-1.32,9.64,9.64,0,0,0,2.46-3.75,29.15,29.15,0,0,0,1.55-5.92q0.58-3.5,1-7.8t0.63-9.38c0.15-3.38.31-6.88,0.46-10.5a67.26,67.26,0,0,0,8-6.34q1.5-1.38,3-2.93t2.87-3.21c0.17-.2.32-0.41,0.48-0.61a17.07,17.07,0,0,0,4.38,4.54,10.65,10.65,0,0,0,6.31,1.92,9.65,9.65,0,0,0,4.49-1.08,13.76,13.76,0,0,0,3.73-2.9,20.07,20.07,0,0,0,3-4.3,33.11,33.11,0,0,0,2.21-5.28,39.87,39.87,0,0,0,1.4-5.8,36.71,36.71,0,0,0,.5-5.91,33.9,33.9,0,0,0-.59-6.1,32.69,32.69,0,0,0-1.7-6.06l0.34-.54c1,0.79,2.12,1.77,3.5,2.94s2.79,2.42,4.26,3.73c1,0.93,2,1.88,3,2.85-0.4,2.67-.78,5.18-1.07,7.49a61.83,61.83,0,0,0-.59,9.79,20.22,20.22,0,0,0,.79,5.29,10.2,10.2,0,0,0,1.74,3.43,6.09,6.09,0,0,0,2.4,1.85,7.39,7.39,0,0,0,2.86.54,10.05,10.05,0,0,0,3.84-.84,19.94,19.94,0,0,0,4-2.29,28.92,28.92,0,0,0,3.89-3.44,39.79,39.79,0,0,0,3.57-4.33,32.61,32.61,0,0,0,1.36,4.17,13.75,13.75,0,0,0,1.81,3.22,7.69,7.69,0,0,0,2.41,2.09,6.6,6.6,0,0,0,3.22.74,16.39,16.39,0,0,0,3.95-.54,31.06,31.06,0,0,0,4.23-1.41,42.74,42.74,0,0,0,4.23-2q2.1-1.15,4-2.4t3.42-2.49a27.82,27.82,0,0,0,2.6-2.34Q449.23,183.58,449.19,182.29Zm-112.1,32.49c0,1.69,0,3.42,0,5.18s-0.09,3.46-.17,5.11a37.32,37.32,0,0,1-.45,4.38,9.31,9.31,0,0,1-1,3.06,2,2,0,0,1-1.86,1.15c-0.76,0-1.39-.58-1.87-1.74a10.59,10.59,0,0,1-.66-2.75,20.13,20.13,0,0,1-.09-3.63,27.88,27.88,0,0,1,.57-4.12,28.46,28.46,0,0,1,1.24-4.22,24.09,24.09,0,0,1,1.87-3.86,16.83,16.83,0,0,1,2.37-3.11C337.06,211.56,337.08,213.08,337.09,214.78Zm42.27-39.28a39.26,39.26,0,0,1-1.42,5.8,17.46,17.46,0,0,1-2.08,4.38,3.28,3.28,0,0,1-2.56,1.74,4.67,4.67,0,0,1-2.76-.82,6.49,6.49,0,0,1-2-2.21,11.88,11.88,0,0,1-1.17-3.24,21.32,21.32,0,0,1-.46-4,28.83,28.83,0,0,1,.56-6.31,27.53,27.53,0,0,1,1.88-5.95,16.88,16.88,0,0,1,2.77-4.43,4.4,4.4,0,0,1,3.21-1.73,2.9,2.9,0,0,1,2.11.84,6.11,6.11,0,0,1,1.39,2.28,15.74,15.74,0,0,1,.79,3.39,31.9,31.9,0,0,1,.26,4.22A35.78,35.78,0,0,1,379.36,175.5Z" fill="#fff"/>

      <path class="wordright you" d="M494.51,185.37a26.94,26.94,0,0,1-2,2.38q-1.17,1.27-2.58,2.54t-3,2.44a28.51,28.51,0,0,1-3.21,2.06,19.35,19.35,0,0,1-3.24,1.43,9.76,9.76,0,0,1-3,.53A3.85,3.85,0,0,1,475,196a6,6,0,0,1-1.67-2.14,14.91,14.91,0,0,1-1.11-3.28q-0.43-1.91-.74-4.24a34.27,34.27,0,0,1-3.67,4.4,27.37,27.37,0,0,1-4.2,3.49,22.68,22.68,0,0,1-4.35,2.3,10.83,10.83,0,0,1-4,.82,6.64,6.64,0,0,1-2.76-.57,5,5,0,0,1-2.1-1.89,9.47,9.47,0,0,1-1.25-3.48A23.11,23.11,0,0,1,449,186c0.15-2.59.57-5.89,1.21-9.85,0.37-2.32.79-4.83,1.16-7.5-1-1-2-1.91-3.06-2.85q-2.25-2-4.38-3.73t-3.65-2.94l-0.31.54a29.12,29.12,0,0,1,1.95,6.06,28.8,28.8,0,0,1,.63,6.1,30.87,30.87,0,0,1-.65,5.92,34.35,34.35,0,0,1-1.75,5.82,31.5,31.5,0,0,1-2.71,5.29,22.06,22.06,0,0,1-3.53,4.28,16.35,16.35,0,0,1-4.16,2.86,10.62,10.62,0,0,1-4.65,1,9.4,9.4,0,0,1-6-2,14.67,14.67,0,0,1-3.73-4.54l-0.55.6q-1.57,1.63-3.31,3.15t-3.48,2.87a77.89,77.89,0,0,1-9.25,6.16q-1.42,5.34-3.31,10.37a74.24,74.24,0,0,1-4.25,9.36,61.34,61.34,0,0,1-5.1,7.91,37.92,37.92,0,0,1-5.78,6.12A25.36,25.36,0,0,1,374,241a17.47,17.47,0,0,1-6.93,1.41,15,15,0,0,1-3-.34,7,7,0,0,1-2.91-1.35,6.81,6.81,0,0,1-2.06-2.91,11.36,11.36,0,0,1-.51-5.07,15.48,15.48,0,0,1,1.4-5,40,40,0,0,1,3.26-5.83,72.06,72.06,0,0,1,4.81-6.38q2.78-3.32,6.06-6.63t6.91-6.53q3.62-3.22,7.35-6.15c0.65-1.85,1-2.78,1.61-4.64a28.16,28.16,0,0,1-5.73,3.85,12.43,12.43,0,0,1-5.58,1.45,10.62,10.62,0,0,1-4.44-1,11.14,11.14,0,0,1-3.74-2.8,13.48,13.48,0,0,1-2.54-4.43,16.38,16.38,0,0,1-.87-5.89,76.93,76.93,0,0,1,.53-7.93,63.84,63.84,0,0,1,1.22-6.86,51.91,51.91,0,0,1,1.92-6.3c0.76-2,1.62-4.1,2.6-6.15a7.51,7.51,0,0,1,3.14-3.39,8.24,8.24,0,0,1,4.06-1.17,5.07,5.07,0,0,1,3,.86,3.17,3.17,0,0,1,1.3,2.7,6.32,6.32,0,0,1-.09,1.19,7.6,7.6,0,0,1-.38,1.39c-0.56,1.51-1.1,3.31-1.64,5.37s-1,4.17-1.44,6.32-0.81,4.27-1.11,6.35a48.79,48.79,0,0,0-.52,5.51,17,17,0,0,0,.1,2.41,7.17,7.17,0,0,0,.54,2.09,3.9,3.9,0,0,0,1.11,1.5,2.82,2.82,0,0,0,1.83.58,4.59,4.59,0,0,0,3.35-1.59,16.2,16.2,0,0,0,2.7-3.83A29.38,29.38,0,0,0,392,173.3c1.46-5.82,2.07-8.71,3.35-14.53a7.57,7.57,0,0,1,1.35-3,9.77,9.77,0,0,1,2.29-2.2,10.33,10.33,0,0,1,2.71-1.34,8.65,8.65,0,0,1,2.62-.45,4.26,4.26,0,0,1,2.45.67,2.44,2.44,0,0,1,1,2.11,4.85,4.85,0,0,1-.11,1c-0.17.85-.37,2-0.63,3.52s-0.54,3.17-.85,5l-1,6c-0.35,2.09-.67,4.19-1,6.26-0.82,4.88-1.83,10.2-3,15.87a32.56,32.56,0,0,0,3.26-2.09,30,30,0,0,0,3.78-3.35,56.19,56.19,0,0,0,4.37-5.14,42.55,42.55,0,0,1-.48-6.52A35.74,35.74,0,0,1,413.6,165a27.52,27.52,0,0,1,3.94-8.21,19,19,0,0,1,6-5.5,15.58,15.58,0,0,1,7.89-2,18.15,18.15,0,0,1,7.19,1.46,30,30,0,0,1,6.61,3.91,46.77,46.77,0,0,1,6.05,5.62c0.35,0.39.67,0.79,1,1.18,0-.22.06-0.45,0.1-0.7q0.19-1.26.54-2.75a30.26,30.26,0,0,1,.88-3,13.71,13.71,0,0,1,1.3-2.77,7,7,0,0,1,1.88-2,4.68,4.68,0,0,1,2.62-.84,10.16,10.16,0,0,1,3.74.67,1.84,1.84,0,0,1,1.25,1.41c-0.16,1.75-.34,3.7-0.57,5.84s-0.49,4.31-.79,6.48-0.61,4.29-.92,6.35-0.63,3.9-.92,5.53-0.53,3-.7,4-0.27,1.53-.27,1.56a8.94,8.94,0,0,0,.1,1.74,5.57,5.57,0,0,0,.43,1.49,2.86,2.86,0,0,0,.82,1.07,2,2,0,0,0,1.25.41,5,5,0,0,0,2.26-.58,7.66,7.66,0,0,0,2.16-1.67,11,11,0,0,0,1.78-2.68,14.46,14.46,0,0,0,1.16-3.59,211.19,211.19,0,0,0,3.6-25.15,2.69,2.69,0,0,1,1.48-2,5.78,5.78,0,0,1,3.06-.81,4.88,4.88,0,0,1,3.07.9,3,3,0,0,1,1.25,2.27,34.88,34.88,0,0,1,0,3.63c-0.05,1.53-.16,3.21-0.32,5s-0.36,3.71-.61,5.65-0.5,3.75-.73,5.43-0.44,3.18-.61,4.46-0.27,2.18-.28,2.68q0,1.41-.05,2.6a12.74,12.74,0,0,0,.13,2.07,3.14,3.14,0,0,0,.49,1.37,1.25,1.25,0,0,0,1.07.48,4.53,4.53,0,0,0,1.92-.56,15.63,15.63,0,0,0,2.39-1.49,32.54,32.54,0,0,0,2.55-2.12,34.48,34.48,0,0,0,2.46-2.49q1.17-1.31,2.12-2.58A19.63,19.63,0,0,0,495,174.3c0,1.1-.05,2.1-0.07,3s-0.06,1.76-.1,2.59l-0.13,2.55C494.66,183.31,494.59,184.29,494.51,185.37ZM385.61,209.65a38.65,38.65,0,0,0-4.1,3.05q-2.1,1.77-4.1,3.81t-3.8,4.19q-1.8,2.16-3.17,4.14a29.39,29.39,0,0,0-2.22,3.69,8.92,8.92,0,0,0-1,2.83,1.4,1.4,0,0,0,1.55,1.81,6.57,6.57,0,0,0,3.65-1.17,16.76,16.76,0,0,0,3.49-3.13,32.94,32.94,0,0,0,3.19-4.44,56.86,56.86,0,0,0,2.76-5.12q1.25-2.63,2.19-5.15T385.61,209.65Zm49.13-40.15a27.34,27.34,0,0,0-.32-4.22,15,15,0,0,0-.91-3.39,6.43,6.43,0,0,0-1.51-2.28,3.06,3.06,0,0,0-2.15-.84,4.1,4.1,0,0,0-3.1,1.73,17,17,0,0,0-2.58,4.43,31.37,31.37,0,0,0-1.79,5.95,34.54,34.54,0,0,0-.69,6.3,23.91,23.91,0,0,0,.26,3.94,11.83,11.83,0,0,0,.93,3.23,5.81,5.81,0,0,0,1.75,2.21,4.31,4.31,0,0,0,2.66.84,3.66,3.66,0,0,0,2.72-1.73,17.65,17.65,0,0,0,2.41-4.37,33.53,33.53,0,0,0,1.69-5.8A30.14,30.14,0,0,0,434.74,169.5Z" fill="#fff"/>



    <g class="reflect">
      <path d="M526,156.1c0,69.57-58,153.23-127.6,153.23S274,225.67,274,156.1A126,126,0,1,1,526,156.1Z" fill-opacity="0.3" fill="url(#radial-gradient)"/>
      <ellipse cx="459.36" cy="96.86" rx="16.54" ry="19.06" transform="translate(-4.14 171.44) rotate(-21.05)" fill="url(#radial-gradient-2)"/>
      <path d="M409.32,287.17c-74.33,0-132.84-82.69-132.84-151.44,0-1.68,0-3.36.12-5A126.53,126.53,0,0,0,274,156.1c0,69.57,54.76,153.23,124.33,153.23,39.61,0,75.47-27.12,99-63.32C473.49,270.54,442.64,287.17,409.32,287.17Z" fill="#15232c" fill-opacity="0.1"/>
    </g>
    <g class="knot">
      <path d="M380.91,321.87l22.36-22.36,22.36,22.36s-10.91,6-21.82,6C388.55,327.87,380.91,321.87,380.91,321.87Z" fill="#993c7d"/>
      <ellipse cx="403.3" cy="323.88" rx="22.33" ry="9.98" fill="#ca5ea6"/>
    </g>
  </g>

        </g>

    <g id="blIt" class="blwrap">

        <!-- IT balloon -->

    <g class="bl">
    <path class="string" d="M404.22,305.95s-5.94,75,20.64,146.74C472,580.16,648.41,703.53,648.41,703.53" fill="none" stroke="#fff" stroke-miterlimit="10" stroke-width="2"/>
    <path class="body" d="M526,156.1c0,69.57-58,153.23-127.6,153.23S274,225.67,274,156.1A126,126,0,1,1,526,156.1Z" fill="#ea46a8"/>

    <path class="word" d="M340.94,137.66a7.27,7.27,0,0,1-1.1-5.76,10.34,10.34,0,0,1,.88-2.72,10.33,10.33,0,0,1,5.24-5.1,12,12,0,0,1,4.94-.93,11.78,11.78,0,0,1,3.25.42,6,6,0,0,1,2.4,1.28,4.71,4.71,0,0,1,1.35,2.27,7.87,7.87,0,0,1,.1,3.34,13.2,13.2,0,0,1-1,3.45,9.78,9.78,0,0,1-2.08,3,10.2,10.2,0,0,1-3.24,2.12,11.75,11.75,0,0,1-4.57.81C344,139.82,342.05,139.1,340.94,137.66ZM389.65,175c1.08-1.1,2.5-2.23,3.7-3.37,0,5.34,0,8,.2,13.46-2.32,2-5.91,3.72-8,5.22s-4.26,2.75-5.83,3.75a27.48,27.48,0,0,1-4.3,2.26,9.37,9.37,0,0,1-3.45.77,8.78,8.78,0,0,1-6-2.43,20.45,20.45,0,0,1-4.8-7.07,8.58,8.58,0,0,1-1-2.93c0,0.44,0,.65.06,1.09-1.14,1.18-2.94,2.44-4.55,3.78a40.67,40.67,0,0,1-5.82,3.72,43.5,43.5,0,0,1-6.42,2.83,17,17,0,0,1-5.72,1.13,8.46,8.46,0,0,1-3.84-.78,6.92,6.92,0,0,1-2.54-2.18,10.3,10.3,0,0,1-1.54-3.41,22.65,22.65,0,0,1-.68-4.43,48,48,0,0,1,.24-7.81c0.31-3,.79-6,1.36-9.09s1.23-6.21,2-9.31,1.52-6,2.25-8.56a5.17,5.17,0,0,1,1.4-2.33,8.54,8.54,0,0,1,2.26-1.57,11.74,11.74,0,0,1,2.65-.89,12.75,12.75,0,0,1,2.55-.29,3.79,3.79,0,0,1,2.85.81,2.8,2.8,0,0,1,.58,2.17,17.26,17.26,0,0,1-.78,3.32c-0.45,1.45-1,3.09-1.61,4.92s-1.24,3.8-1.86,5.9-1.18,4.21-1.66,6.31-0.89,4.16-1.18,6.19a31.35,31.35,0,0,0-.34,5.49,11.94,11.94,0,0,0,.64,3.82,2,2,0,0,0,2.08,1.42,8.1,8.1,0,0,0,4.06-1.34,30.48,30.48,0,0,0,4.38-3.24c1.44-1.26,3.25-2.57,4.57-3.91,0.73-.74,1.46-1.4,2.18-2A72.31,72.31,0,0,1,357,162c0.07-2.09.26-4.32,0.55-6.69s0.69-4.72,1.17-7.06c-0.91-.14-1.63-0.27-2.14-0.39l-1.63-.37c-0.58-.12-1.32-0.25-2.24-0.39s-2.27-.3-4.08-0.52a4.14,4.14,0,0,1-1.85-.6,2.41,2.41,0,0,1-.89-1,3,3,0,0,1-.23-1.25q0-.65.07-1.12a2,2,0,0,1,1.2-1.6,9.33,9.33,0,0,1,2.68-.81,23,23,0,0,1,3.39-.29c1.2,0,2.32,0,3.37,0l2.79,0.08a8.1,8.1,0,0,0,1.68-.08,112.89,112.89,0,0,1,4.93-13.66,92.49,92.49,0,0,1,6.05-11.71,43.5,43.5,0,0,1,6.31-8.18q3.13-3.07,5.75-3.07a3.61,3.61,0,0,1,2.8,1.24,8,8,0,0,1,1.68,3.3,19.35,19.35,0,0,1,.6,4.84,34.21,34.21,0,0,1-.44,5.79,32.69,32.69,0,0,1-1.37,5.39q-1,2.84-2.3,5.79t-3,6q-1.65,3-3.4,6,0.37,0.05,1.24.08l2,0.08,2.48,0.13,2.6,0.13,2.38,0.11c0.74,0,1.36.09,1.85,0.12a1.36,1.36,0,0,1,1.2,1.07,7.16,7.16,0,0,1,.25,2.57,4.74,4.74,0,0,1-1,2.89,2.63,2.63,0,0,1-2,1.17H373.19q-1.36,2.08-2.74,4.09c-0.92,1.34-1.75,2.43-2.53,3.51-0.21,2.16-.4,4.34-0.53,6.42-0.06.9-.1,1.86-0.14,2.82s-0.08,1.91-.12,2.85,0,1.85,0,2.72,0,1.68,0,2.41a21.28,21.28,0,0,0,.56,4.8,9.78,9.78,0,0,0,1.38,3.21,5.23,5.23,0,0,0,2.08,1.8,6.21,6.21,0,0,0,2.65.55,6.12,6.12,0,0,0,2.2-.54,21.28,21.28,0,0,0,2.87-1.46c1-.62,2.13-1.35,3.29-2.2s2.31-1.77,3.46-2.77S388.57,176.11,389.65,175Zm-20.48-34.72,1.26,0.18,1.29,0.18q1.53-2.67,3.23-5.78t3.16-6.11q1.46-3,2.54-5.61a20.68,20.68,0,0,0,1.36-4.27q0.1-.57.16-1.27a5.86,5.86,0,0,0,0-1.32,2,2,0,0,0-.43-1,1.34,1.34,0,0,0-1.1-.42c-0.69,0-1.54.8-2.53,2.39a45.49,45.49,0,0,0-3.1,6.11c-1.06,2.48-2.1,5.22-3.1,8.22S370,137.46,369.17,140.28Zm35.5,38a8.89,8.89,0,0,0-4,.84,7.08,7.08,0,0,0-2.66,2.27,9.29,9.29,0,0,0-1.43,3.25,13.71,13.71,0,0,0-.35,3.73,12.17,12.17,0,0,0,.74,3.92,7.6,7.6,0,0,0,1.72,2.7,6.53,6.53,0,0,0,2.54,1.55,10.13,10.13,0,0,0,3.31.49,9.14,9.14,0,0,0,3.76-.7,7.91,7.91,0,0,0,2.49-1.73,6.74,6.74,0,0,0,1.43-2.25,15.81,15.81,0,0,0,.69-2.32,12.88,12.88,0,0,0,.28-1.9,3.54,3.54,0,0,1,.14-1,0.73,0.73,0,0,0,0-.32,9,9,0,0,0-2.44-6.31A8.6,8.6,0,0,0,404.67,178.28Zm33.61-75.86a3.28,3.28,0,0,0-.49-1.5,1.93,1.93,0,0,0-1-.75,4.27,4.27,0,0,0-1.36-.21,16.66,16.66,0,0,0-3.08.31,11.43,11.43,0,0,0-3.25,1.16,12.62,12.62,0,0,0-3.1,2.37,13.52,13.52,0,0,0-2.58,4c-1,2.37-2.29,5.05-3.62,8s-2.69,6.17-4.07,9.57-2.74,7-4.05,10.7-2.48,7.5-3.52,11.32-1.91,7.64-2.64,11.45S404.3,166.39,404,170a4.78,4.78,0,0,0-.1.78,1.52,1.52,0,0,0,.67,1.41,3,3,0,0,0,1.63.42,5.5,5.5,0,0,0,1.37-.18,5.67,5.67,0,0,0,1.34-.52,3.93,3.93,0,0,0,1.06-.83,2.18,2.18,0,0,0,.55-1.07c3.06-7.19,6-13.61,8.68-19.24s5.17-10.79,7.4-15.49,4.2-9.08,5.91-13.16,3.24-8.15,4.51-12.18c0.32-1,.58-2,0.76-2.77s0.33-1.56.43-2.25A10,10,0,0,0,438.28,102.42Z" fill="#fff"/>

        <path class="wordright it" d="M393.7,139.83a11.6,11.6,0,0,0,4.57-.82,8.21,8.21,0,0,0,3-2.12,7.09,7.09,0,0,0,1.55-3,10.31,10.31,0,0,0,.25-3.45,8,8,0,0,0-1-3.34,6.84,6.84,0,0,0-2.08-2.27,9,9,0,0,0-3-1.27,14.72,14.72,0,0,0-3.53-.41,10.66,10.66,0,0,0-4.75.92,8,8,0,0,0-2.85,2.25,7.76,7.76,0,0,0-1.4,2.85,8.76,8.76,0,0,0,2.27,8.48C388.33,139.12,390.62,139.84,393.7,139.83Zm42,38.35q-1.76,1.5-3.56,2.77t-3.42,2.19a22.46,22.46,0,0,1-3,1.45,6.53,6.53,0,0,1-2.27.53,6.16,6.16,0,0,1-2.65-.56,4.84,4.84,0,0,1-2-1.8,9.45,9.45,0,0,1-1.22-3.19,23.09,23.09,0,0,1-.39-4.78c0-.73,0-1.54,0-2.41s0-1.78.06-2.72,0.06-1.9.09-2.85,0-1.91.08-2.82c0.06-2.08.15-4.26,0.22-6.42,0.72-1.08,1.49-2.17,2.31-3.51s1.61-2.7,2.37-4.09h16.2a2.2,2.2,0,0,0,1.79-1.17,4.28,4.28,0,0,0,.63-2.89,7.59,7.59,0,0,0-.61-2.57,1.63,1.63,0,0,0-1.33-1.08c-0.48,0-1.09-.08-1.82-0.12l-2.35-.11-2.59-.13-2.48-.13-2-.08q-0.88,0-1.26-.08,1.27-3,2.29-6a49.66,49.66,0,0,0,1.62-6,38.15,38.15,0,0,0,.73-5.79,24.74,24.74,0,0,0-.31-5.39,30.22,30.22,0,0,0-1.6-5.79,23.54,23.54,0,0,0-2.5-4.84,13.82,13.82,0,0,0-3.09-3.3,5.61,5.61,0,0,0-3.36-1.24c-1.76,0-3.23,1-4.47,3.07a32.17,32.17,0,0,0-3.2,8.18c-0.92,3.41-1.74,7.31-2.5,11.71s-1.44,9-2,13.66a8.64,8.64,0,0,1-1.74.08l-3-.08c-1.12,0-2.3,0-3.57,0a24.11,24.11,0,0,0-3.54.29,8.07,8.07,0,0,0-2.59.81,1.63,1.63,0,0,0-.93,1.6c0,0.31.05,0.69,0.11,1.12a3.39,3.39,0,0,0,.43,1.25,3,3,0,0,0,1,1,4.75,4.75,0,0,0,2,.6c1.89,0.22,3.39.38,4.37,0.52s1.79,0.27,2.42.39l1.76,0.37c0.55,0.12,1.32.25,2.29,0.39q-0.3,3.51-.47,7.06T406.6,162a115.16,115.16,0,0,0,1,14.4c-0.77.61-1.57,1.27-2.36,2-1.45,1.33-3.44,2.62-5,3.86a38.7,38.7,0,0,1-4.79,3.18,8.89,8.89,0,0,1-4.24,1.31,2,2,0,0,1-2.07-1.4,11.15,11.15,0,0,1-.38-3.76,34.78,34.78,0,0,1,.67-5.43c0.39-2,.88-4.06,1.39-6.16s1-4.2,1.6-6.31,1.08-4.07,1.57-5.9,0.88-3.47,1.18-4.91a14.8,14.8,0,0,0,.42-3.32,3.07,3.07,0,0,0-.87-2.17,4.31,4.31,0,0,0-3-.81,14,14,0,0,0-2.67.29,13.13,13.13,0,0,0-2.82.89,8.82,8.82,0,0,0-2.4,1.57,4.44,4.44,0,0,0-1.37,2.33c-0.57,2.57-1.18,5.47-1.94,8.57s-1.49,6.2-2.19,9.31-1.4,6.12-2,9a50.22,50.22,0,0,0-1,7.68,18.54,18.54,0,0,0,.33,4.34,8,8,0,0,0,1.46,3.34,7,7,0,0,0,2.83,2.14,11.36,11.36,0,0,0,4.46.78,21.17,21.17,0,0,0,6.46-1.08,51.64,51.64,0,0,0,6.92-2.75,50.62,50.62,0,0,0,6.63-3.63c1.85-1.32,3.86-2.55,5.17-3.71,0-.43,0-0.65,0-1.08a8,8,0,0,0,.72,2.9,18.71,18.71,0,0,0,4.08,7,8,8,0,0,0,5.76,2.47,10.55,10.55,0,0,0,3.63-.73,31,31,0,0,0,4.66-2.21c1.71-1,4.06-2.22,6.26-3.7s5.88-3.21,8.29-5.2c0.29-5.45.36-8.17,0.41-13.52-1.17,1.15-2.57,2.28-3.65,3.38S436.85,177.18,435.68,178.18Zm-17.87-46.62c0.31-3,.63-5.73,1-8.22a45,45,0,0,1,1.2-6.11c0.46-1.59,1-2.39,1.73-2.39a1.88,1.88,0,0,1,1.26.42,3.16,3.16,0,0,1,.8,1,6.72,6.72,0,0,1,.48,1.32q0.18,0.7.27,1.27a15.71,15.71,0,0,1,0,4.27,51,51,0,0,1-1,5.61q-0.71,3-1.78,6.11c-0.71,2.07-1.45,4-2.18,5.78l-1.35-.18-1.32-.18Q417.34,136.06,417.81,131.56Zm42,49c1.35,1.49,2,3.62,1.83,6.41a0.8,0.8,0,0,1-.07.32,4.06,4.06,0,0,0-.24,1,13.46,13.46,0,0,1-.49,1.93,17.43,17.43,0,0,1-1,2.36,8.33,8.33,0,0,1-1.69,2.28,9,9,0,0,1-2.62,1.73,8.78,8.78,0,0,1-3.66.68,8.4,8.4,0,0,1-3-.52,5.11,5.11,0,0,1-2.17-1.59,6.85,6.85,0,0,1-1.25-2.74,13.41,13.41,0,0,1-.24-4,16.48,16.48,0,0,1,.69-3.76,10.88,10.88,0,0,1,1.61-3.27,7.57,7.57,0,0,1,2.67-2.28,8.35,8.35,0,0,1,3.9-.84A7.44,7.44,0,0,1,459.85,180.56Zm12.33-75.66q0.27,1,.49,2.25c0.14,0.81.28,1.74,0.37,2.77a74.94,74.94,0,0,1,.12,12.18,98.07,98.07,0,0,1-1.85,13.15,135.29,135.29,0,0,1-4.22,15.48c-1.89,5.63-4.4,12.05-7.29,19.24a2.2,2.2,0,0,1-.52,1.07,3.82,3.82,0,0,1-1,.84,5.29,5.29,0,0,1-1.27.52,5,5,0,0,1-1.3.18,2.73,2.73,0,0,1-1.54-.42,1.55,1.55,0,0,1-.62-1.41,5.32,5.32,0,0,1,.1-0.78q0.44-5.36,1.12-11.09t1.41-11.45q0.73-5.73,1.43-11.33c0.47-3.73.89-7.3,1.28-10.7s0.74-6.6,1-9.57,0.46-5.67.52-8a9.62,9.62,0,0,1,.8-4,6.7,6.7,0,0,1,1.86-2.37,6.22,6.22,0,0,1,2.41-1.16A10.91,10.91,0,0,1,468,100a3.72,3.72,0,0,1,1.22.21,2.92,2.92,0,0,1,1.12.75,5.8,5.8,0,0,1,1,1.5A13.65,13.65,0,0,1,472.18,104.9Z" fill="#fff"/>

    <g class="reflect">
      <path d="M526,156.1c0,69.57-58,153.23-127.6,153.23S274,225.67,274,156.1A126,126,0,1,1,526,156.1Z" fill-opacity="0.3" fill="url(#radial-gradient)"/>
      <ellipse cx="459.36" cy="96.86" rx="16.54" ry="19.06" transform="translate(-4.14 171.44) rotate(-21.05)" fill="url(#radial-gradient-2)"/>
      <path d="M409.32,287.17c-74.33,0-132.84-82.69-132.84-151.44,0-1.68,0-3.36.12-5A126.53,126.53,0,0,0,274,156.1c0,69.57,54.76,153.23,124.33,153.23,39.61,0,75.47-27.12,99-63.32C473.49,270.54,442.64,287.17,409.32,287.17Z" fill="#15232c" fill-opacity="0.1"/>
    </g>
    <g class="knot">
      <path d="M380.91,321.87l22.36-22.36,22.36,22.36s-10.91,6-21.82,6C388.55,327.87,380.91,321.87,380.91,321.87Z" fill="#993c7d"/>
      <ellipse cx="403.3" cy="323.88" rx="22.33" ry="9.98" fill="#ca5ea6"/>
    </g>
  </g>

</g>

<g id="blMade" class="blwrap">

    <!-- MADE balloon -->

    <g class="bl">
    <path class="string" d="M404.22,305.95s-5.94,75,20.64,146.74C472,580.16,648.41,703.53,648.41,703.53" fill="none" stroke="#fff" stroke-miterlimit="10" stroke-width="2"/>
    <path class="body" d="M526,156.1c0,69.57-58,153.23-127.6,153.23S274,225.67,274,156.1A126,126,0,1,1,526,156.1Z" fill="#ea46a8"/>

    <path class="word made" d="M476,172.57a52.92,52.92,0,0,1-4.87,4.1,57.89,57.89,0,0,1-6.07,4,42.74,42.74,0,0,1-6.55,3.07,18.51,18.51,0,0,1-6.36,1.24,7.47,7.47,0,0,1-1.79-.2,5,5,0,0,1-1.59-.71,7,7,0,0,1-1.5-1.43,16.73,16.73,0,0,1-1.52-2.3,34.86,34.86,0,0,0,8.14-3.43,31.22,31.22,0,0,0,6.54-5,22.3,22.3,0,0,0,4.28-6,14.2,14.2,0,0,0,1.51-6.32,13.21,13.21,0,0,0-1-5.25,11.85,11.85,0,0,0-2.81-4,12.89,12.89,0,0,0-4.19-2.58,14.44,14.44,0,0,0-5.2-.92,15.43,15.43,0,0,0-6.29,1.24,18.92,18.92,0,0,0-5.17,3.36,23.88,23.88,0,0,0-4.09,4.9,33.2,33.2,0,0,0-2.95,5.84,34.88,34.88,0,0,0-1.77,6.24,30.57,30.57,0,0,0-.52,6q0,1.06.11,2.1c-0.89.72-1.77,1.41-2.62,2s-1.62,1.15-2.47,1.72-1.69,1.07-2.52,1.52a16,16,0,0,1-2.38,1.06,6.55,6.55,0,0,1-2.1.39,2.55,2.55,0,0,1-1.73-.62,4.43,4.43,0,0,1-1.16-1.67,10.35,10.35,0,0,1-.66-2.39,20.34,20.34,0,0,1-.24-2.82,19.16,19.16,0,0,1,.11-2.43q0.14-1.25.35-2.45c0.15-.8.31-1.54,0.49-2.22s0.35-1.26.53-1.73q2.72-6.42,5.69-12.4t5.61-12.06q2.64-6.08,4.8-12.48a96,96,0,0,0,3.47-13.57c0.23-1.25.4-2.47,0.53-3.66a41.9,41.9,0,0,0,.26-5.6,17.78,17.78,0,0,0-.68-4.76,7.47,7.47,0,0,0-1.9-3.28A4.72,4.72,0,0,0,432.22,98a12,12,0,0,0-6.21,2,32.34,32.34,0,0,0-6.62,5.51,53.06,53.06,0,0,0-6.45,8.39,64.81,64.81,0,0,0-5.27,10.63,82.67,82.67,0,0,0-5.43,25.09,20,20,0,0,0-6.62,1.79,24.27,24.27,0,0,0-5.54,3.61,27.25,27.25,0,0,0-4.47,5,32.94,32.94,0,0,0-5.34,12.39,29.92,29.92,0,0,0-.6,6.65c0,0.5,0,1,.08,1.5l0,0a23.62,23.62,0,0,1-1.89,2,10.66,10.66,0,0,1-1.87,1.43,3.57,3.57,0,0,1-1.8.55,1.61,1.61,0,0,1-1.58-1.37,15.38,15.38,0,0,1-.49-3.81,39.8,39.8,0,0,1,.3-6c0.25-2.1.56-4.18,0.92-6.27s0.71-4.13,1-6.12a45.46,45.46,0,0,0,.62-5.44,11.19,11.19,0,0,0-.1-2.5,3.5,3.5,0,0,0-.56-1.43,1.74,1.74,0,0,0-.91-0.66,4.11,4.11,0,0,0-1.15-.15l-0.94,0-0.94,0a7.35,7.35,0,0,1-1.06-.08,3.16,3.16,0,0,1-1-.33,1.88,1.88,0,0,1-.79-0.82l-0.61-1.15a3.83,3.83,0,0,0-.83-1,2.19,2.19,0,0,0-1.5-.46,14.06,14.06,0,0,0-6.11,1.51,30.24,30.24,0,0,0-6.22,4.07,41.57,41.57,0,0,0-5.83,6,37.64,37.64,0,0,0-4.6,7.28,38.18,38.18,0,0,0-2.75,7.88,31.18,31.18,0,0,0-.8,6.1c-0.23.23-.43,0.47-0.66,0.69a19,19,0,0,1-2,1.69,14.15,14.15,0,0,1-1.93,1.2,3.9,3.9,0,0,1-1.76.47q-0.8,0-1.41-1.77a15.08,15.08,0,0,1-.68-4.57,58.93,58.93,0,0,1,.24-6.7c0.2-2.09.4-4.15,0.68-6.19s0.56-4.11.85-6.22,0.52-4.34.7-6.69a4.49,4.49,0,0,0-1-3.55,3.8,3.8,0,0,0-2.92-1.24,3.5,3.5,0,0,0-2.74,1.41,25.12,25.12,0,0,0-2.37,3.45c-0.81,1.4-1.69,3-2.6,4.85s-1.74,3.59-2.51,5.25-1.39,3.08-1.9,4.25l-0.83,1.91-0.38-.61c0-.07,0-0.2,0-0.41s0.1-.7.24-1.48q0.28-1.68.61-3.28t0.68-3.28q0.34-1.68.63-3.46t0.45-3.77a5.18,5.18,0,0,0-.72-3.54,2.78,2.78,0,0,0-2.36-1.24,3.87,3.87,0,0,0-2.85,1.38,20.44,20.44,0,0,0-2.52,3.46c-0.83,1.39-1.74,3-2.68,4.81s-1.81,3.55-2.61,5.21-1.48,3.09-2,4.27-0.84,1.83-.9,1.93l-0.44-.61c0.31-2.14.62-4.21,1-6.21,0.14-.84.29-1.72,0.43-2.62l0.42-2.62q0.21-1.27.35-2.39t0.22-2c0.09-1.05.15-1.88,0.15-2.49a2.22,2.22,0,0,0-.35-1.4,1.79,1.79,0,0,0-1.23-.61,18.21,18.21,0,0,0-2.48-.12,7.76,7.76,0,0,0-1.8.18,2.94,2.94,0,0,0-1.31.71,5.57,5.57,0,0,0-1.09,1.5,23.88,23.88,0,0,0-1.12,2.59c-0.4,1-.86,2.4-1.35,4.06s-1,3.49-1.42,5.49-0.87,4.09-1.24,6.28-0.67,4.33-.88,6.46-0.33,4.16-.37,6.1a42,42,0,0,0,.17,5.06,29,29,0,0,0,.7,4.06,12.85,12.85,0,0,0,1.42,3.52,7.61,7.61,0,0,0,2.33,2.47,5.83,5.83,0,0,0,3.29.92,4,4,0,0,0,2.48-.76,5,5,0,0,0,1.51-2.92c1.17-4.85,2.3-8.91,3.21-12.11s1.72-5.79,2.37-7.77,1.2-3.89,1.6-4.9,0.77-2.71,1.06-2.71h0.54c-0.45,2.55-.78,6.46-1,9.19-0.08,1.16-.15,2.56-0.21,3.75s-0.09,2.43-.11,3.51,0,2.09,0,2.92,0.07,1.51.11,2c0.11,1.08.28,2.21,0.5,3.37a17.71,17.71,0,0,0,.92,3.18,8.16,8.16,0,0,0,1.39,2.37,2.45,2.45,0,0,0,1.9.92,3.7,3.7,0,0,0,2.38-.76c0.64-.51,1.1-1.85,1.5-3.32,1.42-11,2.77-16.43,5.87-27.1H323c-0.24,2.56-.4,5.2-0.49,7.6s-0.09,4.88,0,7.06a62.55,62.55,0,0,0,.58,6.56,31.13,31.13,0,0,0,1.18,5.24A11.14,11.14,0,0,0,326,195a2.91,2.91,0,0,0,2.29,1.25,11.34,11.34,0,0,0,4.84-1,20.14,20.14,0,0,0,4.18-2.62c1.07-.87,2.12-1.84,3.17-2.87a13.61,13.61,0,0,0,2,2.66,12.91,12.91,0,0,0,9.12,3.95,11.7,11.7,0,0,0,4.24-.81,18,18,0,0,0,3.8-2,20.26,20.26,0,0,0,3.18-2.76,21.29,21.29,0,0,0,2.36-3,20.45,20.45,0,0,0,3.72,6.44,6.27,6.27,0,0,0,4.77,2.2A7.94,7.94,0,0,0,378,195a21.41,21.41,0,0,0,4-3.45c0.24-.27.46-0.55,0.69-0.82l0,0.06a12.31,12.31,0,0,0,3.53,3.86,8.21,8.21,0,0,0,4.86,1.43,11,11,0,0,0,3.94-.77,22.74,22.74,0,0,0,3.94-2,30.64,30.64,0,0,0,3.89-2.94q1.91-1.69,3.68-3.55a15.85,15.85,0,0,0,3.09,4.79,15.35,15.35,0,0,0,3.53,2.75,12,12,0,0,0,3.17,1.25,11.17,11.17,0,0,0,2.15.3,9.67,9.67,0,0,0,2.75-.45,23.26,23.26,0,0,0,3-1.14q1.52-.7,3.09-1.61t3-1.83c1.74-1.14,3.49-2.42,5.28-3.81a20.17,20.17,0,0,0,1.68,2.38,18,18,0,0,0,6,4.68,18.32,18.32,0,0,0,8.2,1.72,25.27,25.27,0,0,0,5.86-.71,36,36,0,0,0,5.62-1.86,43.71,43.71,0,0,0,5.23-2.64c1.67-1,3.25-2,4.71-3a68.72,68.72,0,0,0,9.62-8.21C479.9,176.67,478.58,175.3,476,172.57Zm-113.9-1a36.28,36.28,0,0,1-.7,4.1,33.28,33.28,0,0,1-1.43,4.81,15.87,15.87,0,0,1-2.17,4,3.74,3.74,0,0,1-3,1.68,2.86,2.86,0,0,1-1.84-.6,4.61,4.61,0,0,1-1.24-1.56,8.05,8.05,0,0,1-.71-2.19,17.23,17.23,0,0,1-.26-2.52,21.34,21.34,0,0,1,.44-4.86,28.28,28.28,0,0,1,1.51-5.09,31.91,31.91,0,0,1,2.44-4.82,26.71,26.71,0,0,1,3.06-4.08,15.14,15.14,0,0,1,3.42-2.84,6.94,6.94,0,0,1,3.55-1C363.74,162.62,363.08,165.6,362.07,171.61Zm38.43,8.15a21.12,21.12,0,0,1-1.19,2,13.56,13.56,0,0,1-1.36,1.7,7.1,7.1,0,0,1-1.49,1.22,3,3,0,0,1-1.58.47,5.39,5.39,0,0,1-2.54-.51,4,4,0,0,1-1.52-1.34,5.35,5.35,0,0,1-.76-1.86,10.84,10.84,0,0,1-.24-2.06,22.68,22.68,0,0,1,.72-5.75,30.82,30.82,0,0,1,2.3-6.27,26.06,26.06,0,0,1,3.88-5.79,18.75,18.75,0,0,1,5.51-4.32,3.64,3.64,0,0,1,.08,1q0,1.07,0,2.76t0,3.73q0,2,.09,4c0,1.27.08,2.43,0.14,3.46a17.77,17.77,0,0,0,.24,2.27A42.6,42.6,0,0,1,400.49,179.76Zm10.77-22.38v-0.51q0-.77,0-2.2c0-1,1.56-2.07,1.64-3.35s0.93-2.69,1.08-4.24,0.71-3.16.94-4.83c0.11-.82.51-2.2,0.84-4.14s0.86-4.12,1.4-6.54,1.26-4.92,2-7.5a61.81,61.81,0,0,1,2.64-7.07,25.8,25.8,0,0,1,3-5.25c1.05-1.37,2.1-2,3.13-2a1.21,1.21,0,0,1,1.17,1.07,11,11,0,0,1-.06,3.81c-0.18,1.39-.5,3.28-1,5.64-0.35,1.79-.84,3.7-1.44,5.7s-1.26,4-2,6.12-1.5,4.14-2.32,6.2-3.08,4-3.86,5.9C416.78,148.52,413.94,152.95,411.27,157.37Zm33.31,11.74a25.16,25.16,0,0,1,.44-3.26,20.07,20.07,0,0,1,1-3.34,11.06,11.06,0,0,1,1.68-3,8.14,8.14,0,0,1,2.59-2.12,7.85,7.85,0,0,1,3.71-.81,2.4,2.4,0,0,1,2,1.48,7.66,7.66,0,0,1,.84,3.77,5.71,5.71,0,0,1-1.26,3.36,16.74,16.74,0,0,1-3.11,3.21,17.84,17.84,0,0,1-4,2.42,10.07,10.07,0,0,1-4,.94Q444.47,170.69,444.57,169.11Z" fill="#fff"/>

        <path class="wordright made" d="M521.41,179.51a105.88,105.88,0,0,1-9.62,8.4c-1.37,1-2.8,2.08-4.27,3.1a45.78,45.78,0,0,1-4.41,2.71,27.54,27.54,0,0,1-4.34,1.89,13.09,13.09,0,0,1-4.13.71,7.75,7.75,0,0,1-5.2-1.79,13.33,13.33,0,0,1-3.48-4.81,23.91,23.91,0,0,1-.92-2.43,52.45,52.45,0,0,1-4.2,3.88q-1.15.95-2.47,1.86a26.5,26.5,0,0,1-2.63,1.63,17.63,17.63,0,0,1-2.61,1.16,7.43,7.43,0,0,1-2.41.45,8.3,8.3,0,0,1-1.85-.31,9.52,9.52,0,0,1-2.74-1.29,13.73,13.73,0,0,1-3.06-2.81,15,15,0,0,1-2.52-4.88q-2,1.88-4.07,3.58a34.47,34.47,0,0,1-4.27,2.95,26,26,0,0,1-4.24,2,11.74,11.74,0,0,1-4.05.74,7.22,7.22,0,0,1-4.61-1.49,10.6,10.6,0,0,1-3-3.9l0-.06c-0.27.27-.52,0.55-0.79,0.81A24.71,24.71,0,0,1,431,195a8.92,8.92,0,0,1-4.61,1.38,5.35,5.35,0,0,1-4.41-2.23,19.35,19.35,0,0,1-2.89-6.42,24,24,0,0,1-6.24,5.66,21,21,0,0,1-4.09,2,12.75,12.75,0,0,1-4.36.76,11.48,11.48,0,0,1-4.64-1,11.62,11.62,0,0,1-4-2.9,12.45,12.45,0,0,1-1.77-2.62,42.05,42.05,0,0,1-4,2.81,26.86,26.86,0,0,1-5.54,2.56,20.54,20.54,0,0,1-6.61,1,3.92,3.92,0,0,1-2.94-1.23,8.41,8.41,0,0,1-1.81-3.39,24.62,24.62,0,0,1-.89-5.13c-0.16-1.95-.21-4.15-0.16-6.44s0.16-4.6.33-7,0.37-5,.62-7.6h-0.76c-4,10.68-6.23,16-10.53,26.76a8.44,8.44,0,0,1-3,3.23,8.6,8.6,0,0,1-3.67.73,3.47,3.47,0,0,1-2.51-.91,6,6,0,0,1-1.44-2.31,12.74,12.74,0,0,1-.67-3.1,32.65,32.65,0,0,1-.15-3.29c0-.44,0-1.1.11-1.92s0.17-1.81.31-2.86,0.29-2.27.45-3.45,0.34-2.55.5-3.7c0.37-2.7.82-6.62,1.37-9.18h-0.76c-0.41,0-.88,1.69-1.41,2.71s-1.27,2.93-2.2,4.9-2.13,4.53-3.58,7.67-3.37,7.09-5.67,11.81A6.14,6.14,0,0,1,337.1,195a6.06,6.06,0,0,1-3,.73,5.45,5.45,0,0,1-5.38-3.3,11.3,11.3,0,0,1-.93-3.41,32.54,32.54,0,0,1-.23-3.95q0-2.09.26-4.94t0.66-6c0.27-2.1.58-4.25,0.94-6.44s0.74-4.29,1.14-6.29,0.8-3.84,1.22-5.5,0.8-3,1.14-4.07a21.75,21.75,0,0,1,1-2.6,4.81,4.81,0,0,1,1.05-1.5,3,3,0,0,1,1.41-.71,10.1,10.1,0,0,1,2.09-.18,27.68,27.68,0,0,1,3,.12,2.85,2.85,0,0,1,1.62.61,2.14,2.14,0,0,1,.63,1.4,23.66,23.66,0,0,1,.1,2.5q0,0.87-.08,2t-0.24,2.4q-0.16,1.27-.34,2.62c-0.12.9-.26,1.78-0.4,2.62-0.32,2-.65,4.08-1,6.21l0.55,0.61q0.1-.15,1.11-1.94t2.46-4.28q1.46-2.5,3.13-5.22c1.11-1.82,2.19-3.43,3.17-4.82a18.77,18.77,0,0,1,3.06-3.47,5.73,5.73,0,0,1,3.85-1.38,5.48,5.48,0,0,1,3.61,1.25,4.43,4.43,0,0,1,1.56,3.55,26.38,26.38,0,0,1-.2,3.78q-0.23,1.79-.6,3.47t-0.76,3.29c-0.27,1.07-.51,2.17-0.75,3.29-0.17.78-.27,1.27-0.3,1.48a3.1,3.1,0,0,0-.05.41l0.56,0.61q0.1-.15,1.16-1.91l2.59-4.26,3.22-5.25q1.69-2.76,3.15-4.85a24.86,24.86,0,0,1,2.81-3.45,4.77,4.77,0,0,1,3.51-1.41,6.59,6.59,0,0,1,4,1.25,4.35,4.35,0,0,1,1.76,3.55,54.91,54.91,0,0,1-.18,6.69q-0.29,3.17-.7,6.22c-0.28,2-.5,4.1-0.75,6.19a66.79,66.79,0,0,0-.47,6.66,12.29,12.29,0,0,0,.59,4.51c0.44,1.16,1,1.75,1.66,1.75a6.16,6.16,0,0,0,2.25-.46,17.87,17.87,0,0,0,2.43-1.18,20.38,20.38,0,0,0,2.45-1.67c0.28-.22.53-0.46,0.8-0.68a34.43,34.43,0,0,1,1.14-6.05,47.68,47.68,0,0,1,3-7.87,46.41,46.41,0,0,1,4.39-7.28,40.29,40.29,0,0,1,5.31-6,26.51,26.51,0,0,1,5.74-4.07,12.79,12.79,0,0,1,5.9-1.51,2.43,2.43,0,0,1,1.56.46,4.58,4.58,0,0,1,1,1l0.75,1.15a2.23,2.23,0,0,0,.88.82,3.46,3.46,0,0,0,1,.33,7.54,7.54,0,0,0,1.07.08l0.93,0,0.93,0a4.27,4.27,0,0,1,1.16.15,2,2,0,0,1,1,.66,3.87,3.87,0,0,1,.71,1.43,10.78,10.78,0,0,1,.33,2.5,35.56,35.56,0,0,1-.25,5.44q-0.35,3-.83,6.12c-0.32,2.09-.63,4.17-0.92,6.27a52,52,0,0,0-.5,6,16.61,16.61,0,0,0,.25,3.8,1.47,1.47,0,0,0,1.47,1.38,3.78,3.78,0,0,0,1.84-.54,11.6,11.6,0,0,0,2-1.42,24.92,24.92,0,0,0,2-2l0,0c0-.5,0-1,0-1.5a36.47,36.47,0,0,1,.8-6.66,38.62,38.62,0,0,1,2-6.47,35.53,35.53,0,0,1,3.06-5.92,26.19,26.19,0,0,1,4.1-5,21.68,21.68,0,0,1,5.17-3.61,18.28,18.28,0,0,1,6.4-1.79q-0.41-6.55-.31-12.94c0.07-4.26.27-8.31,0.65-12.15a76,76,0,0,1,1.74-10.63,49,49,0,0,1,2.83-8.39,18.93,18.93,0,0,1,3.54-5.52,5.93,5.93,0,0,1,4.33-2,5.08,5.08,0,0,1,3.27,1.24,13.18,13.18,0,0,1,2.81,3.29A26.8,26.8,0,0,1,477,107.3a47.09,47.09,0,0,1,1.72,5.61c0.28,1.19.54,2.41,0.75,3.66a69.89,69.89,0,0,1,.95,13.56,84.4,84.4,0,0,1-1.3,12.46,99.76,99.76,0,0,1-3,12q-1.87,6-4.1,12.4-0.21.71-.43,1.73c-0.15.68-.29,1.42-0.42,2.22s-0.24,1.62-.34,2.46-0.15,1.65-.16,2.44a26.58,26.58,0,0,0,.11,2.84,12.19,12.19,0,0,0,.45,2.42,4.37,4.37,0,0,0,.9,1.69,1.87,1.87,0,0,0,1.44.63,4.7,4.7,0,0,0,1.77-.39,11.8,11.8,0,0,0,2-1.07,21.55,21.55,0,0,0,2-1.53c0.68-.57,1.33-1.15,1.95-1.74s1.33-1.34,2-2.06q0-1,0-2.12a53.81,53.81,0,0,1,.41-6.06,58.53,58.53,0,0,1,1.11-6.24,47.23,47.23,0,0,1,1.76-5.84,24,24,0,0,1,2.45-4.89,12.13,12.13,0,0,1,3.21-3.35,7.2,7.2,0,0,1,4.2-1.24,8.37,8.37,0,0,1,3.78.93,11.34,11.34,0,0,1,3.33,2.57,13.6,13.6,0,0,1,2.46,4,15.91,15.91,0,0,1,1.11,5.24,16.33,16.33,0,0,1-1,6.31,23.16,23.16,0,0,1-3.18,6,27.58,27.58,0,0,1-4.78,5,22.47,22.47,0,0,1-5.73,3.47,20.25,20.25,0,0,0,.87,2.34,5.85,5.85,0,0,0,.9,1.46,2.66,2.66,0,0,0,1,.73,3.32,3.32,0,0,0,1.2.21,10.23,10.23,0,0,0,4.54-1.26,36.73,36.73,0,0,0,5.07-3.13c1.72-1.25,3.41-2.61,5.07-4.07s3.11-2.84,4.32-4.14C517.75,175.34,518.93,176.72,521.41,179.51ZM419.46,156.62a6.52,6.52,0,0,0-3.46,1,14.09,14.09,0,0,0-3.24,2.84,27.35,27.35,0,0,0-2.88,4.08,35.81,35.81,0,0,0-2.34,4.82,33.23,33.23,0,0,0-1.56,5.08,24.36,24.36,0,0,0-.62,4.82,18.58,18.58,0,0,0,.12,2.49A7.78,7.78,0,0,0,406,184a4.11,4.11,0,0,0,1.1,1.55,2.66,2.66,0,0,0,1.78.6,4.11,4.11,0,0,0,3.16-1.65,16,16,0,0,0,2.45-4,29.08,29.08,0,0,0,1.64-4.78,30.45,30.45,0,0,0,.78-4.09C418,165.62,418.56,162.63,419.46,156.62Zm38.11,17.82a19.88,19.88,0,0,1-.2-2.28c-0.05-1-.09-2.19-0.14-3.47s-0.1-2.59-.16-4-0.13-2.6-.19-3.73-0.13-2-.2-2.76a3.64,3.64,0,0,0-.15-1,17.58,17.58,0,0,0-5.23,4.32,27.21,27.21,0,0,0-3.68,5.79,35.86,35.86,0,0,0-2.3,6.28,26.59,26.59,0,0,0-.92,5.77,11.58,11.58,0,0,0,.12,2.07,5.21,5.21,0,0,0,.63,1.87,3.62,3.62,0,0,0,1.41,1.36,5.08,5.08,0,0,0,2.48.53,3.21,3.21,0,0,0,1.62-.47,7.84,7.84,0,0,0,1.58-1.22,14.54,14.54,0,0,0,1.48-1.72,21.37,21.37,0,0,0,1.31-2A38,38,0,0,0,457.57,174.44Zm13.19-30.28c0.4-1.86,2-3.83,2.3-5.89s0.53-4.12.67-6.2,0.19-4.11.17-6.11a48.78,48.78,0,0,0-.4-5.7c-0.31-2.37-.66-4.25-1-5.64a14.68,14.68,0,0,0-1.25-3.81,1.72,1.72,0,0,0-1.33-1.07q-1.26,0-1.87,2a24.2,24.2,0,0,0-.8,5.25c-0.13,2.13-.2,4.49-0.18,7.07s0,5.08.08,7.49,0,4.59.1,6.54-0.07,3.32,0,4.14c0.06,1.67-.22,3.28-0.15,4.83s-0.56,3-.5,4.24-1.29,2.39-1.23,3.35,0.1,1.69.13,2.2l0,0.51A55.94,55.94,0,0,0,470.76,144.16Zm21.17,27.67a5.15,5.15,0,0,0,2.72-.94,12.5,12.5,0,0,0,2.75-2.42,15.22,15.22,0,0,0,2.12-3.21,7,7,0,0,0,.79-3.36,10.1,10.1,0,0,0-.77-3.77c-0.45-1-1-1.48-1.52-1.48a3.88,3.88,0,0,0-2.52.81,6.19,6.19,0,0,0-1.65,2.11,13.12,13.12,0,0,0-1,3,30.83,30.83,0,0,0-.57,3.34q-0.19,1.68-.26,3.26T491.93,171.83Z" fill="#fff"/>

    <g class="reflect">
      <path d="M526,156.1c0,69.57-58,153.23-127.6,153.23S274,225.67,274,156.1A126,126,0,1,1,526,156.1Z" fill-opacity="0.3" fill="url(#radial-gradient)"/>
      <ellipse cx="459.36" cy="96.86" rx="16.54" ry="19.06" transform="translate(-4.14 171.44) rotate(-21.05)" fill="url(#radial-gradient-2)"/>
      <path d="M409.32,287.17c-74.33,0-132.84-82.69-132.84-151.44,0-1.68,0-3.36.12-5A126.53,126.53,0,0,0,274,156.1c0,69.57,54.76,153.23,124.33,153.23,39.61,0,75.47-27.12,99-63.32C473.49,270.54,442.64,287.17,409.32,287.17Z" fill="#15232c" fill-opacity="0.1"/>
    </g>
    <g class="knot">
      <path d="M380.91,321.87l22.36-22.36,22.36,22.36s-10.91,6-21.82,6C388.55,327.87,380.91,321.87,380.91,321.87Z" fill="#993c7d"/>
      <ellipse cx="403.3" cy="323.88" rx="22.33" ry="9.98" fill="#ca5ea6"/>
    </g>
  </g>


    </g>
    </g> <!-- END BALLOON CAM -->

    <g class="cloudGroup">

    	<path class="cloud" id="cloud4" fill="white" d="M610.9,87.4c2.9,1.8,4.5-3.1,6.5-4.3c0.9,0.1,1.6,0.5,2.1,1.1c1.8-1.3,3.7-2.6,5.6-3.8
		c7.1-4.6,14.1-12.8,21.6-15.6c3.7-1.4,8.1-1.8,10.8-3.2c3.7-2-5-1.8-2.4-0.6c-1.1,2-2.6,2.4-4.4,1.1c-1-0.8-1.5-1.9-1.5-3.1
		c0,0,4.1-1.4,3.4-2.2c-0.8-0.9-2.1,1.3-3,0.2c-2.3-2.6,4.7-4.1,5.4-4.2c2.1-0.2-0.1,2.7,0.2,3c1.3,1.2,9.1,0.3,10-1.8
		c-1.3-1.3-3.2-1.1-5.2-3.1c-2.4-2.4-3.1-5-4.8-7.8c-0.6-1-3.3-2.5-3.2-2.5c-0.9-2,1.3-4.2,0.8-5.5c-1.5-4.2-7.1,1.4-8.5,1.9
		c-2.4,0.9-2.8,2.7-5.6,1.2c-2-1-0.3-4-1.4-5.1c0,0-10.4,4.1-12.3,4c-0.5,0,0.6-5.6-3.2-2.4c-2.8,2.4,1,7.4,1.9,8.8
		c0.3,0.5,5.9-0.1,2.7,2.5c-2.2,1.8-8.6-1.4-10.6-2.1c-9.2-3-2-1.9-2.8-8.9c-0.7-6.4-5.4-4.8-10.3-4.6c-6.5,0.3-15.6-0.4-21.6,3.1
		c-0.8,0.4-0.5,2.3-1.4,2.9c-1.1,0.6-5.4,1.5-6.3,2.2c-0.8,0.7-2.2,2.2-2.8,4c-1,3,1.2,3.1-0.5,6.5c-1.5,3.2-10.7,5.6-11,6.6
		c0.2-0.5,0.5,6.6,0.4,6.4c0.7,5.5,1.6,10,4.4,14c2.9,4.1,10.6,11.3,15.2,13.5c-2.4-1.1,9.8,1.9,5,0.8c2.2,0.5,3,0,5.1,0.7
		c2.6,0.8,4.6,2.6,7.3,1.7c0.6-0.2-2.2-3.1-1-3.6c2.1-0.9,2.9,0.5,3.9,0.3C599.1,89.8,611,87.5,610.9,87.4
		C612.2,88.2,609.8,86.7,610.9,87.4z"/>

    <path class="cloud" id="cloud2" fill="white" d="M287,81.6c0.5,0.6,0.9,1.3,1.3,2c1.3-6.3,11.3-4.8,15.8-6.9c-6.8,4.1-0.8,16.9,5.5,19.1
		c8.5,2.9,14.9-8.3,23-10.5c-1.1,10,11.3,4.3,12,9.6c3.3-3.6,9.1-5.9,11.6-10c2-3.3,0.6-6.6,2.3-9.9c6.9,5.3,7.6-7.6,4.6-11.4
		c-0.9-1.2-3.2,0.4-4.2-2.4c-1.1-2.9,2.1-2.5,1.9-4.1c-0.3-2.1-2.3-3.6-2.6-5.9c-0.5-3.9,2.9-4.9-1-5.6c-3.5-0.7-3.3,5.4-5.5,0.5
		c-0.7-1.4,0.6-6.7,2.6-6.9c0.6,0.4,1.1,1,1.5,1.6c5,0.3,0-6.3-0.5-7.3c-0.4-0.9-1.2-5-1.9-5.5c-6.1-4.6-5.3,6.7-7.5,7.9
		c-2.8,1.5-11.4-5.8-14.8-7c-9.7-3.6-16-2.1-25.3,0.8c-3.9,1.2-15.8,1.1-16.4,5.7c-0.5,3.7,6.7,6.8,5.4,10.4c-2,5.5-7,0.2-10.8,0.8
		c-6.3,1.1-4,9.5-10.3,12c2.1,5,5.4,9.6,6.3,15.3C280.4,78.6,279.3,82.5,287,81.6C287.1,82.4,284,81.9,287,81.6z"/>


    <polygon class="cloud" id="cloud1" fill="white" points="193.5,88.1 192.7,83.4 193,82.3 201.8,69.1 204.4,68 211.5,67.9 214.2,68.6
		217,67.9 216.6,64.6 216.1,63.9 214.1,56.8 216,53.1 216.5,48.7 213.2,43.2 215.2,39.3 210.8,38.2 204.3,39.9 201.6,39.3
		199.6,37.2 199.6,35.8 197.8,33 190,36.6 188.3,39.8 187.5,45.2 185.4,46.8 178.5,43.3 177.5,43.6 174.2,42.7 171.8,40.1
		168.3,38.5 167,36.9 161.5,37.1 154.1,41 152.5,43.3 150,42.2 145.4,38.2 142.5,31.5 129.2,27.3 125.2,30.6 126.4,32.1 121.8,37.7
		122,46.5 122,46.6 121.3,49 118.8,49.1 116.9,50.7 115.2,53.3 112.1,55.6 111.9,56.2 115.6,60 123.2,58.9 124.1,62 122.5,63.6
		121.8,65.6 126.1,67.9 127.3,69 133.4,71.2 136.3,74.5 141.2,76.4 142.1,78.8 142.2,82.1 143.7,84.9 143.2,86.5 145.1,88.8
		146.4,87.8 147.8,84.9 150.1,84.6 152.4,90.5 158.4,92.7 161.3,93 162.1,91.7 169.4,90.9 173.6,95.9 174.5,96.3 175.5,93.5
		190.5,91.2 193.5,88.1 	"/>


    <path class="cloud" id="cloud3" fill="white" d="M528.8,46c0,0-2.4-2.5-2.5-2.6c-0.4-0.5,0.1-1.3-0.9-2.2c-1.7-1.5-5.1-2.3-7.1-2.7
		c-2.3-0.5-5,0.3-7.4-0.5c-2.2-0.7,0.2-1.8-0.5-3.2c-1.5-3.3-6.4,3-7,3.3c-3.2,1.4-2.3,1.3-6.2,2.3c-4.1,1-2.6,1.2-6.2,0.4
		c-1.4-0.3-0.8-2.6-1.9-3c-2.4-0.8-5.8,1.5-8,0.4c-1.9-1-2-2.9-3.2-4.2c-0.6-0.6-2.5-3.1-2.8-3.3c-0.8,0.1-1.5,0.1-2.3,0.1
		c-0.2-0.7-0.4-1.4-0.8-2.1c-0.4-0.1-6,1.7-6.9,1.7c-2.4,0.2-4.8,0.7-7.3,0.9c-3.2,0.3-5.5-1.1-8.7,0.4c-1.1,0.5-3.2,1.4-4,2.2
		c-0.8,0.8,1.3,2.9-0.1,3.8c-2.4,1.4-3.8-1.3-6.5-0.7c-2.5,0.6-3.1,2.2-5,3.5c-4,2.8-4.9,0.8-8.9,2.1c-2,0.6-3.2,4-5.3,5.2
		c2,2.4,5.5,2.4,7.6,4.5c2.1,2.2,2.6,5.8,3.5,8.6c0.4,1.5,0.8,3,1.2,4.4c0,2.6,1.4,4,4.1,3.9c1.2,4,0,2.2-2.7,5.5
		c5.3,1.6,0.5,7.5,3,9.8c0.7,0.7,4.9-0.1,6.5,1.2c2.4,1.8,3.5,4.9,1.7,7.6c3.6,1.1,5.9,0.9,9.4,0.2c3.5-0.7,5.4-3.8,9.5-1.9
		c-0.4,1.7-0.4,1.5,1.2,2.1c4,1.6,3,0.6,7.2,0c0.9-0.1,17.3-3.1,17-2.2c-2-2-1.3-9.6-0.7-11.7c3.8,2.5,7.6-0.3,10.3-3.1
		c-5.1-3.5,4.4-8.3,6.9-9.8c1.3-0.8,5.1-1.2,6-3.3c1-2.4-1.4-4.8,0.2-6.2c2.7-2.2,2,1.8,3.2,1.3c2.6-1.2,3.8-3.1,5.7-5.4
		C520.6,52.6,528.8,45.8,528.8,46z"/>




</g>



<!--NEON-->

<g id="neon">
  <defs>
    <linearGradient id="linear-gradient" x1="368.87" y1="559.15" x2="405.09" y2="702.77" gradientUnits="userSpaceOnUse">
      <stop offset="0.39" stop-color="#324450"/>
      <stop offset="0.4" stop-color="#415562"/>
    </linearGradient>
  </defs>

    <g class="sign-group">

  <g id="arrow-base">
    <path d="M172.35,504.69H678.16v84.38L787,478.86,678.16,368.79v79.27L186.83,435.46c-39.1,0-65.29-40.59-45.09-91.44,35.17-88.54,193.85-116.44,193.85-116.44L226.51,171.5s-36.59-97.94-39.26-95.62-170,117.39-170,302.49C17.26,462,100.76,504.69,172.35,504.69Z" fill="#4e6675"/>
    <path class="arrowoverlay" d="M750.71,442L678.08,368.5H678v79.55L186.74,435.46a49.7,49.7,0,0,1-35.56-14.32c-0.4-.39-0.77-0.8-1.16-1.21a52.16,52.16,0,0,1-7.14-9.6,56.12,56.12,0,0,1-3.16-6.33,66.12,66.12,0,0,1-5-26.31q0-1,0-2.09t0.1-2.12A95.55,95.55,0,0,1,141.74,344c9.34-23.52,27.4-42.76,48.88-58.33l1.9-1.36c17.85-12.65,37.92-22.83,57.26-30.87l2.07-.85,4.12-1.66,2-.81q3.06-1.2,6.08-2.32l2-.74,4-1.44q3-1.06,5.86-2c3.86-1.32,7.62-2.54,11.26-3.68q2.73-.85,5.36-1.64l3.46-1,3.36-1,3.25-.91c4.26-1.18,8.22-2.21,11.81-3.11q2.69-.67,5.1-1.24l2.32-.54L324,230c7.3-1.65,11.57-2.4,11.57-2.4L226.51,171.5s-35.73-95.66-39.15-95.66h0a0.16,0.16,0,0,0-.11,0c-2.68,2.32-170,112.74-170,309,0,57.86,59.17,119.6,155.1,119.6H678v84h0.08l54.46-54.82L787,478.74v0Zm-569-341.84c7.51,18,19.44,48.68,30,76.86l2.15,5.74,5.45,2.8,71.39,36.71c-11.53,3.39-24.66,7.71-38.42,13.09l-95-113.79C166.43,113,174.78,105.81,181.71,100.18Zm-30.5,27.17,92.91,111.3q-11.9,4.94-22.78,10.33l-2.53,1.16-95.14-93.66C133.11,145.6,142.45,135.87,151.21,127.36ZM108.48,175q4.86-6.25,9.76-12.1l92.87,91.43a266.22,266.22,0,0,0-30.52,19.11l-85.67-80Q101.4,184.08,108.48,175ZM90.19,200.36l83.69,78.15a184,184,0,0,0-19.05,17.32c-2,1.61-3.84,3.21-5.55,4.75L68.14,238A381.38,381.38,0,0,1,90.19,200.36ZM56.16,264q3.79-9.24,8.21-18.41l80.35,62A131.16,131.16,0,0,0,132.19,327L48,286.15Q51.65,275,56.16,264ZM45.51,294.21l83.06,40.26c-0.54,1.23-1.06,2.46-1.56,3.7a119.06,119.06,0,0,0-5.84,19.17l-86-13.48A300,300,0,0,1,45.51,294.21ZM33.1,378.36q0-13.11,1.21-26.2l85.45,13.4a96.06,96.06,0,0,0-.79,16.21L35.24,400.6A113,113,0,0,1,33.1,378.36ZM45,427.62a92.6,92.6,0,0,1-7.77-18.92l82.48-18.55a78.32,78.32,0,0,0,4.75,18.35L61.73,449.6A95.07,95.07,0,0,1,45,427.62Zm31.18,33.92q-4.23-2.95-8.06-6.16L128,416.14a71,71,0,0,0,3.78,6.25,67.6,67.6,0,0,0,6.39,8L105.84,477A138.53,138.53,0,0,1,76.17,461.55Zm72.31,25.85A185.09,185.09,0,0,1,114,479.87l30.31-43.64A64.42,64.42,0,0,0,156,444Zm23.87,1.1c-5.22,0-10.41,0-15.56-.45l7.11-40.74a68.06,68.06,0,0,0,22.7,3.95l490.81,12.61,7.58,0.23V488.5H172.35ZM694,504.69V407.35l17,16.87V533.58l-17,16.89V504.69Zm25,20.44V432.65l18,18.56v55.34Zm27-27V459.65l19,19.22Z" fill="#415562"/>
  </g>
  <g id="glow-lines">

      <line class="line" x1="139.76" y1="147.64" x2="225.54" y2="238.25" fill="none" stroke="#5fe6ff" stroke-linecap="round" stroke-miterlimit="10" stroke-width="5"/>

      <line class="line" x1="184.98" y1="257.15" x2="111.32" y2="183.49" fill="none" stroke="#5fe6ff" stroke-linecap="round" stroke-miterlimit="10" stroke-width="5"/>

      <line class="line" x1="81.14" y1="225.46" x2="154.95" y2="284.38" fill="none" stroke="#5fe6ff" stroke-linecap="round" stroke-miterlimit="10" stroke-width="5"/>

      <line class="line" x1="131.8" y1="311.62" x2="61.57" y2="271.04" fill="none" stroke="#5fe6ff" stroke-linecap="round" stroke-miterlimit="10" stroke-width="5"/>

      <line class="line" x1="44.33" y1="324.21" x2="115.48" y2="344.41" fill="none" stroke="#5fe6ff" stroke-linecap="round" stroke-miterlimit="10" stroke-width="5"/>

      <line class="line" x1="111.32" y1="373.62" x2="37.11" y2="376.7" fill="none" stroke="#5fe6ff" stroke-linecap="round" stroke-miterlimit="10" stroke-width="5"/>

      <line class="line" x1="52.3" y1="428.34" x2="115.48" y2="402.19" fill="none" stroke="#5fe6ff" stroke-linecap="round" stroke-miterlimit="10" stroke-width="5"/>

      <line class="line" x1="128.82" y1="428.34" x2="91.03" y2="462.64" fill="none" stroke="#5fe6ff" stroke-linecap="round" stroke-miterlimit="10" stroke-width="5"/>

      <line class="line" x1="134.15" y1="480.59" x2="148.15" y2="445.49" fill="none" stroke="#5fe6ff" stroke-linecap="round" stroke-miterlimit="10" stroke-width="5"/>

      <line class="line" x1="171.07" y1="453.91" x2="166.91" y2="483.37" fill="none" stroke="#5fe6ff" stroke-linecap="round" stroke-miterlimit="10" stroke-width="5"/>

      <line class="line" x1="675.5" y1="470.5" x2="675.5" y2="482.5" fill="none" stroke="#5fe6ff" stroke-linecap="round" stroke-miterlimit="10" stroke-width="5"/>

      <line class="line" x1="701.5" y1="424.5" x2="701.5" y2="529.5" fill="none" stroke="#5fe6ff" stroke-linecap="round" stroke-miterlimit="10" stroke-width="5"/>

      <line class="line" x1="728.5" y1="452.5" x2="728.5" y2="503.5" fill="none" stroke="#5fe6ff" stroke-linecap="round" stroke-miterlimit="10" stroke-width="5"/>

      <line class="line" x1="751.5" y1="473.5" x2="751.5" y2="485.5" fill="none" stroke="#5fe6ff" stroke-linecap="round" stroke-miterlimit="10" stroke-width="5"/>

  </g>

<path class="glow-arrow" fill="none" stroke="#EA46A8" stroke-width="8" stroke-miterlimit="10" d="M679,504.5H172.4c-39.2,0-77.3-11.3-104.7-30.4
	c-32.3-22.5-49.4-55.7-49.4-95.6c0-40.5,8.1-81,24.2-120.1c13-31.8,31.3-62.9,54.3-92.6c35-45,71.4-74.7,89.9-88.3
	c0.2-0.2,0.5-0.3,0.6-0.5c4.1,5.4,24.9,59,38.3,94.8l0.1,0.4l106.8,54.9c-9.9,2-44.1,9.4-81.1,24.5c-73.2,30-100.6,66.6-110.7,92
	c-10.4,26.3-9.3,52,3.3,70.4c9.7,14.2,25.2,22.4,42.7,22.4L679,449.1v-77.9l106.4,107.6L679,586.6V504.5z"/>

  <g id="sign-base">
    <path d="M300.89,577.79s13.68,34.47,20.56,62,12.2,55.73,12.2,55.73h85.88s-3.76-16.88,0-53.15,24.6-73,24.6-73Z" fill="url(#linear-gradient)"/>
    <polygon points="665 569.23 177 608.45 177 349.38 665 388.61 665 569.23" fill="#415562"/>
    <circle cx="205.42" cy="379.92" r="4.89" fill="#4e6675"/>
    <circle cx="641.67" cy="411.67" r="4.89" fill="#4e6675"/>
    <circle cx="205.42" cy="576.75" r="4.89" fill="#4e6675"/>
    <circle cx="641.67" cy="547.89" r="4.89" fill="#4e6675"/>
    <g>
<g>
	<path fill="#4E6875" d="M323.2,418.5h-13c-7.7,0-12.3,5.1-12.3,12.8v32.2h-30v-32.2c0-7.8-4.4-12.8-12.2-12.8H243
		c-7.9,0-12,5-12,12.8v94.4c0,7.7,4.2,12.9,12,12.9h12.8c7.7,0,12.2-5.2,12.2-12.9v-31.1h30v31.1c0,7.7,4.6,12.9,12.3,12.9h13
		c7.7,0,11.8-5.2,11.8-12.9v-94.4C335,423.6,330.9,418.5,323.2,418.5z"/>
	<path fill="#4E6875" d="M417,505.5h-31v-12h20.4c7.9,0,12.6-3.6,12.6-11.4v-8c0-7.7-4.8-11.6-12.6-11.6H386v-11h29
		c7.7,0,12-4.5,12-12.2v-8c0-7.7-4.3-12.8-12-12.8h-53.7c-7.9,0-12.4,5-12.4,12.8v94.4c0,7.7,4.6,12.9,12.4,12.9H417
		c7.8,0,13-5.2,13-12.9v-8C430,510,424.7,505.5,417,505.5z"/>
	<path fill="#4E6875" d="M517.2,496.9c-1.6-2.9-3.3-5.1-4.3-6.4c11.3-7.8,15.4-22,15.4-32.8c0-16.9-9.5-31.6-23.7-36.4
		c-5.1-1.7-12.1-2.8-23.5-2.8H450c-7.9,0-12,5-12,12.8v94.4c0,7.7,4.2,12.9,12,12.9h12.8c7.7,0,12.2-5.2,12.2-12.9v-23.1h5.2
		l14.1,27.5c2.9,5.5,7.5,8.5,13.8,8.5H523c4.6,0,8.1-1.9,9.7-4.8c1.2-2,1.9-5.8-1.1-11.2L517.2,496.9z M475,451.5h3.3
		c3.7,0,6.1,0,8.3,1c3.4,1.4,4.1,3.5,4.1,6.8c0,7.5-3,10.3-10.3,10.3H475V451.5z"/>
	<path fill="#4E6875" d="M608.1,505.5H577v-12h20.5c7.9,0,12.5-3.6,12.5-11.4v-8c0-7.7-4.7-11.6-12.5-11.6H577v-11h29.2
		c7.7,0,11.8-4.5,11.8-12.2v-8c0-7.7-4.2-12.8-11.8-12.8h-53.7c-7.9,0-12.5,5-12.5,12.8v94.4c0,7.7,4.7,12.9,12.5,12.9h55.6
		c7.8,0,11.9-5.2,11.9-12.9v-8C620,510,615.9,505.5,608.1,505.5z"/>
</g>


    </g>
    <path d="M368.45,693.75c0.67-2,1.43-4.17,2.3-6.28a66.69,66.69,0,0,1,3-6.35l0.21-.41s0.14-.26.21-0.38l0.49-.83c0.33-.57.64-1.07,1-1.58,0.61-1,1.32-2.07,2-3.09A122.08,122.08,0,0,1,396.37,654a126.58,126.58,0,0,1,10.13-8.26,141,141,0,0,0-34.26,25.14c-0.94,1-1.84,1.95-2.75,3-0.46.52-.91,1-1.31,1.53l-0.62.74c-0.12.14-.17,0.2-0.34,0.42l-0.31.41a75.44,75.44,0,0,0-4.52,6.5c-1.34,2.15-2.55,4.27-3.64,6.29-0.5.94-1,1.86-1.44,2.76,0.09-.83.18-1.68,0.29-2.56,0.27-2.13.57-4.43,1-6.85s0.89-5,1.46-7.55c0.33-1.28.62-2.61,1-3.9l0.28-1c0-.14.11-0.38,0.12-0.45l0.17-.51c0.23-.66.46-1.39,0.7-2a77.11,77.11,0,0,1,3.37-7.77,136.55,136.55,0,0,1,8.65-14.77c3.07-4.58,6.14-8.76,8.88-12.26,5.48-7,9.54-11.42,9.54-11.42s-4.5,4-10.73,10.5c-3.11,3.25-6.65,7.14-10.24,11.49a142.37,142.37,0,0,0-10.45,14.28,82.68,82.68,0,0,0-4.47,8c-0.35.69-.62,1.32-0.93,2l-0.23.49-0.24.56-0.43,1c-0.6,1.36-1.08,2.71-1.6,4-1,2.67-1.82,5.27-2.53,7.74s-1.36,4.82-1.91,7c-0.41,1.66-.78,3.22-1.11,4.65,0-.35-0.07-0.7-0.1-1.07a64.8,64.8,0,0,1-.1-9.63l0.08-1.3,0.18-1.41c0.13-.94.23-1.91,0.38-2.85,0.29-1.86.59-3.75,1-5.67a172.56,172.56,0,0,1,5.46-20.84c1.84-5.62,3.36-9.3,3.36-9.3s-2,3.44-4.71,8.8a177.74,177.74,0,0,0-8.6,20.25c-0.68,1.89-1.28,3.82-1.88,5.74-0.3,1-.53,1.87-0.8,2.79l-0.11.41c-0.05-2-.08-4,0-6l0-1.58,0.11-1.68c0.07-1.12.14-2.26,0.25-3.34,0.18-2.18.47-4.39,0.76-6.57l0.49-3.23,0.56-3.15c0.78-4.13,1.67-8,2.52-11.26,1.7-6.56,3.23-10.86,3.23-10.86s-2.15,4-4.83,10.37c-1.34,3.16-2.81,6.89-4.22,11l-1,3.11-1,3.21c-0.63,2.18-1.25,4.39-1.79,6.67-0.3,1.15-.53,2.25-0.76,3.35L336,670.75l-0.31,1.75c-0.4,2.27-.69,4.5-0.94,6.66-0.48,4.31-.76,8.5-0.94,11.94-0.08,1.54-.14,2.4-0.18,4.4h34.3A7.72,7.72,0,0,1,368.45,693.75Z"/>
  </g>
  <g class="here">
    <g class="e2">
      <g>
        <path d="M602.12,435.57H563.93a6.84,6.84,0,0,0-6.84,6.84v73.87a6.84,6.84,0,0,0,6.84,6.84h40.69" fill="none" stroke="#ea46a8" stroke-linecap="round" stroke-miterlimit="10" stroke-width="6"/>
        <line x1="594" y1="479.5" x2="557" y2="479.5" fill="none" stroke="#ea46a8" stroke-linecap="round" stroke-miterlimit="10" stroke-width="6"/>
      </g>
      <path d="M546.68,527.56V429.45a6,6,0,0,1,6-6h49.14a11.47,11.47,0,0,1,11.57,10.69A11.27,11.27,0,0,1,602.12,446h-27a6,6,0,0,0-6,6v9.73a6,6,0,0,0,6,6h18.3A11.47,11.47,0,0,1,605,478.36a11.27,11.27,0,0,1-11.24,11.82H575.16a6,6,0,0,0-6,6v8.9a6,6,0,0,0,6,6H604.3a11.47,11.47,0,0,1,11.57,10.69,11.27,11.27,0,0,1-11.24,11.82h-52A6,6,0,0,1,546.68,527.56Z" fill="none" stroke="#ea46a8" stroke-miterlimit="10" stroke-width="6"/>
    </g>
    <g class="r">
      <path d="M455,523.5V442.32c0-3.88-.87-4.82,3.92-4.82H490.4s21.68-.39,21.68,20.46c0,23.14-10.84,27.54-33.35,27.54H457" fill="none" stroke="#ea46a8" stroke-linecap="round" stroke-miterlimit="10" stroke-width="6"/>
      <line x1="513.46" y1="523.95" x2="493.45" y2="485.04" fill="none" stroke="#ea46a8" stroke-linecap="round" stroke-miterlimit="10" stroke-width="6"/>
      <path d="M513.47,535.36a11,11,0,0,1-9.93-5.79l-18.33-34a49.18,49.18,0,0,1-6.48.48H466.5v25.45a11,11,0,1,1-22,0V431.82c0-5.63,1.9-6.66,7.94-6.67s38,0,38,0h0.88c4.32,0,15.22.87,23.34,8.91,5.94,5.88,8.69,12.79,8.69,21.74,0,16.55-5.13,27.54-15.65,33.46l15.71,29.44A11.41,11.41,0,0,1,513.47,535.36Z" fill="none" stroke="#ea46a8" stroke-miterlimit="10" stroke-width="6"/>
      <path d="M482.64,474.76c8.86,0,14.4-5.48,14.4-14.5,0-5.7-1.42-9.67-6.65-11.73-2.53-1.11-5.86-1.29-10.44-1.29h-4.2a6.19,6.19,0,0,0-6.19,6.19v15.13a6.19,6.19,0,0,0,6.19,6.19h6.89Z" fill="none" stroke="#ea46a8" stroke-linecap="round" stroke-miterlimit="10" stroke-width="6"/>
    </g>
    <g class="e1">
      <g>
        <path d="M411.19,435.57H373a6.84,6.84,0,0,0-6.84,6.84v73.87a6.84,6.84,0,0,0,6.84,6.84h40.69" fill="none" stroke="#ea46a8" stroke-linecap="round" stroke-miterlimit="10" stroke-width="6"/>
        <line x1="403" y1="479.5" x2="366" y2="479.5" fill="none" stroke="#ea46a8" stroke-linecap="round" stroke-miterlimit="10" stroke-width="6"/>
      </g>
      <path d="M355.74,527.56V429.45a6,6,0,0,1,6-6h49.14a11.47,11.47,0,0,1,11.57,10.69A11.27,11.27,0,0,1,411.19,446h-27a6,6,0,0,0-6,6v9.73a6,6,0,0,0,6,6h18.3a11.47,11.47,0,0,1,11.57,10.69,11.27,11.27,0,0,1-11.24,11.82H384.23a6,6,0,0,0-6,6v8.9a6,6,0,0,0,6,6h29.13a11.47,11.47,0,0,1,11.57,10.69,11.27,11.27,0,0,1-11.24,11.82h-52A6,6,0,0,1,355.74,527.56Z" fill="none" stroke="#ea46a8" stroke-miterlimit="10" stroke-width="6"/>
    </g>
    <g class="h">
      <line x1="249" y1="433.5" x2="249" y2="520.5" fill="none" stroke="#ea46a8" stroke-linecap="round" stroke-miterlimit="10" stroke-width="6"/>
      <line x1="319" y1="433.5" x2="319" y2="520.5" fill="none" stroke="#ea46a8" stroke-linecap="round" stroke-miterlimit="10" stroke-width="6"/>
      <line x1="319" y1="479.5" x2="250" y2="479.5" fill="none" stroke="#ea46a8" stroke-linecap="round" stroke-miterlimit="10" stroke-width="6"/>
      <path d="M318,532.7a11.48,11.48,0,0,1-11.5-11.26V490h-46v31.45a11.05,11.05,0,0,1-11,11.26c-6.21,0-11-5-11-12.09V433.9c0-5.37,4.79-10.42,11-10.42a11.05,11.05,0,0,1,11,11.26V468h46V434.74A11.48,11.48,0,0,1,318,423.48c6.21,0,11.5,5,11.5,10.42v86.71C329.5,527.65,324.21,532.7,318,532.7Z" fill="none" stroke="#ea46a8" stroke-miterlimit="10" stroke-width="6"/>
    </g>
  </g>
<polygon id="glow-sign" fill="none" stroke="#EA46A8" stroke-width="8" stroke-miterlimit="10" points="177,353.5 177,608.5 662,568.2 662,391.8
	"/>

  <path id="over-base" d="M536.53,333.52c-6.65-16.28-21.84.39-21.84,0.39a43,43,0,0,1-4.66,3.53,28,28,0,0,1-3.8,2.08c0-.27.07-0.58,0.12-1q0.27-1.87.59-3.86c0.23-1.42.44-2.78,0.63-4.08a27.17,27.17,0,0,0,.35-4.22,14.13,14.13,0,0,0-1.25-5.76,13.27,13.27,0,0,0-7.67-7.06,13.87,13.87,0,0,0-4.86-.82,17.17,17.17,0,0,0-10.23,3.39q-0.64.48-1.26,1l-0.08-.11a9.66,9.66,0,0,0-6.26-3.79,25.32,25.32,0,0,0-7.28.07,11.15,11.15,0,0,0-4.81,2.06,12.11,12.11,0,0,0-3.17,3.62,19.85,19.85,0,0,0-1.57,3.54,53.21,53.21,0,0,0-1.75,6.06l-0.24,1.06a22.46,22.46,0,0,0-.91-2.5,22.15,22.15,0,0,0-5.29-7.49,22.93,22.93,0,0,0-7.57-4.62,24.75,24.75,0,0,0-9-1.52,25.83,25.83,0,0,0-10.58,2.3,29.82,29.82,0,0,0-8.19,5.6,36.08,36.08,0,0,0-6,7.68c-0.12.21-.23,0.42-0.35,0.63a20.63,20.63,0,0,0,.16-2.79,12.33,12.33,0,0,0-5.64-10.31,17,17,0,0,0-9.93-2.69,15.77,15.77,0,0,0-4.76.78,17.31,17.31,0,0,0-3.79,1.77,13.31,13.31,0,0,0-3.7,3.42,12.59,12.59,0,0,0-1.6,2.92,12.54,12.54,0,0,0-2.8-4.9,11.48,11.48,0,0,0-8.88-3.69,12.69,12.69,0,0,0-1.44.1c-0.33,0-.67.1-1,0.17l-7,1.23c-0.24,0-.52.1-0.82,0.18,0-.18,0-0.37,0-0.55a69.34,69.34,0,0,0-3.21-20.73A50.64,50.64,0,0,0,346,277.76a41.63,41.63,0,0,0-14.83-11.28,45.07,45.07,0,0,0-19.35-3.83A49.73,49.73,0,0,0,297,265a52.84,52.84,0,0,0-12.69,6.07,56.54,56.54,0,0,0-10.65,9.08,75.09,75.09,0,0,0-8.36,11,86.19,86.19,0,0,0-6.41,12.51,103.33,103.33,0,0,0-7.09,26.82,99.81,99.81,0,0,0-.77,13.28,82.47,82.47,0,0,0,3.27,22.77,58,58,0,0,0,9.22,18.6,43.83,43.83,0,0,0,15,12.61,41.67,41.67,0,0,0,19.67,4.41,43.77,43.77,0,0,0,19-4.46,55.91,55.91,0,0,0,15.22-11.11A75,75,0,0,0,344,371.08a105.25,105.25,0,0,0,6.73-14.35c0.09,1.61.19,3.37,0.28,5.3l0.15,2.15c0.14,2,.32,4.14.53,6.41a34,34,0,0,0,1.68,8,19,19,0,0,0,5,7.82,15,15,0,0,0,10.69,3.81,14.46,14.46,0,0,0,9.34-3.94,39.69,39.69,0,0,0,5.86-6.5q1.33-1.8,2.6-3.83a21.15,21.15,0,0,0,5.09,2.8,22.84,22.84,0,0,0,8.58,1.46,30.46,30.46,0,0,0,10-1.94l0.07,0.09A28.27,28.27,0,0,0,420.4,386a29.45,29.45,0,0,0,13.26,2.74,38.31,38.31,0,0,0,8.84-1.14,50.05,50.05,0,0,0,8-2.72,58,58,0,0,0,5.57-2.81,14.48,14.48,0,0,0,3.73,3.84,14,14,0,0,0,8.44,2.43,12,12,0,0,0,9.62-4.86,21.39,21.39,0,0,0,2.43-4.12,48.27,48.27,0,0,0,1.87-4.82l3.77-11.24a21.1,21.1,0,0,0,4.28,3.77,20,20,0,0,0,11.58,3.08,23.81,23.81,0,0,0,7.22-1.21,38.85,38.85,0,0,0,5.79-2.45,52.42,52.42,0,0,0,4.93-2.92q2-1.35,3.59-2.44l3.22-2.23S542,346.95,536.53,333.52Zm-134,16.81a9.47,9.47,0,0,1,.09-1.44,11.87,11.87,0,0,1,.28-1.4l0.06-.24c0.1-.42.23-0.84,0.37-1.25,0.3-.7.58-1.36,0.86-2-0.19.87-.36,1.75-0.5,2.62-0.19,1.22-.34,2.42-0.45,3.6a3,3,0,0,1-.38.09h-0.34ZM305,369.84a13.39,13.39,0,0,1-5.74,1.28,13.8,13.8,0,0,1-6.79-1.49,15.66,15.66,0,0,1-5.28-4.57,24.53,24.53,0,0,1-3.75-7.79,39.48,39.48,0,0,1-1.52-10.74,56.85,56.85,0,0,1,1.19-11.77,78,78,0,0,1,3.66-12.56,76.05,76.05,0,0,1,5.72-11.76,53.76,53.76,0,0,1,7.14-9.5,32.23,32.23,0,0,1,7.74-6.07,14.82,14.82,0,0,1,7.08-1.94,10.28,10.28,0,0,1,5.25,1.15,11.06,11.06,0,0,1,3.82,3.55,20.53,20.53,0,0,1,2.76,6.48,39.41,39.41,0,0,1,1.13,9.21,81.75,81.75,0,0,1-.38,8.21c-0.28,3-.74,6.27-1.36,9.58s-1.45,6.74-2.43,10.16a89.57,89.57,0,0,1-3.43,9.77,61.12,61.12,0,0,1-4.37,8.53,34.92,34.92,0,0,1-5,6.42A19.58,19.58,0,0,1,305,369.84Z" fill="#ea46a8"/>
  <path class="o" d="M318.24,276.8c-25.92-5.69-48.79,29.88-52.36,57.89s6.37,49.88,27.07,51.63c27.82,2.36,41.76-23.13,46.05-43.83S349,283.56,318.24,276.8Z" fill="none" stroke="#5fe6ff" stroke-linecap="round" stroke-miterlimit="10" stroke-width="7"/>
  <path class="ver" d="M364.72,330.21s0.14,46.65,4.07,46.49c8.48-.35,21-50.17,24.89-50.49,6.94-.58-14.37,37.88,4.4,40.24,9.6,1.21,28.56-5.06,39.51-14.78,8.83-7.85,10.88-19.87,6-23.3-14.9-10.56-28.69,13.57-26.22,32.53,2.08,16,20.66,21.4,42.05,3.5C476.12,350.46,475.35,325,472,325c-4.61-.06-8,36.06-6,45.36s17-44.82,24.72-44.25-1,27.32,8.09,30.54,22.51-10.25,22.51-10.25" fill="none" stroke="#5fe6ff" stroke-linecap="round" stroke-miterlimit="10" stroke-width="7"/>

    </g> <!-- end sign-group -->

    <rect id="neonfade" width="800" height="800" fill="#000000"/>
</g>


<!--DUST-->

<image class="dust" xlink:href="http://robthwaites.com/codepen/dust-big.png" x="0" y="100" height="800" width="800"/>
<image class="dust" xlink:href="http://robthwaites.com/codepen/dust-big.png" x="0" y="100" height="800" width="800"/>
<image class="dust" xlink:href="http://robthwaites.com/codepen/dust-big.png" x="0" y="100" height="800" width="800"/>
<image class="dust" xlink:href="http://robthwaites.com/codepen/dust-big.png" x="0" y="100" height="800" width="800"/>
<image class="dust" xlink:href="http://robthwaites.com/codepen/dust-big.png" x="0" y="100" height="800" width="800"/>

<!--HEY BOX-->

  <g id="heybox">
        <rect id="squareleft" width="410" height="800" fill="#6149a6"/>
        <rect id="squareright" width="410" height="800" x="400" fill="#6149a6"/>
        <text id="hey" x="400" y="480" class="hey" font-size="220" font-family="Museo" text-anchor="middle">HEY!</text>
    </g>


<!--YOU LABEL-->

  <g id="sign" clip-path="url(#labelClip)">
    <g id="label1">
      <path id="paper1" d="M600.14,218.34c-11.18,9.23-28.22,17.38-39.46,19.1-8,1.22-17.15.8-25.13-.07-1.24-.14-2.74-1-4-0.64L130.07,344.47c-1.41,7.65-4.39,18.52-6.87,27.4-1.31,6.57-2.61,12.66-3.24,17.73-0.6-3.36,1.09-9.93,3.25-17.69,1.74-8.74,3.52-18.24,3.93-26.65L50.3,365.88l64,238.32,71.17-19.1c3.76-11.39,7.56-23.18,8.16-33.86,1.65,5.38,4.75,19,3.92,30.62L750.3,433.53l-64-238.32Z" transform="translate(-0.3)" fill="#ddaa9a"/>
      <text transform="translate(201.08 534.09) rotate(-15.02)" font-size="199.37" fill="#d16948" font-family="Museo"><tspan letter-spacing="-4">Y</tspan><tspan x="114.84" y="0">OU!</tspan></text>
    </g>
    <g id="label2">
      <path id="paper1-2" data-name="paper1" d="M136.55,456.85c14.3-2.4,33.13-.94,43.72,3.19,7.54,2.94,15.25,7.88,21.73,12.63,1,0.74,1.89,2.2,3.11,2.53L606.7,582.65c5-5.92,13.06-13.85,19.65-20.3,4.42-5,8.59-9.66,11.67-13.73-1.16,3.2-5.91,8.05-11.66,13.69-5.88,6.7-12.16,14-16.73,21.12L686.49,604l63.77-238.37-71.19-19c-9,8-18.13,16.3-24,25.25,1.26-5.48,5.37-18.81,11.91-28.48L114.1,195.41,50.33,433.78Z" transform="translate(-0.3)" fill="#fff"/>
    </g>
  </g>


<!--ARM-->


<g id="fullarm">
	<g id="hand-open">
		<defs>
			<path id="SVGID" d="M601.6,206.3c31.8,4.9,99.1-32.8,99.1-32.8s14,8,26,11.1s29,11.1,29,11.1s34,16.1,48,9.1c14-7,2-21,2-21
				s-24-5.1-39-11.1s-45.9-35.1-45.9-35.1l39.1,1.7c0,0,14.4,6.6,22.9,9.5c15,5,37,18.1,53,16.1c16-2,23-14.9,17.4-22
				s-19.3-8-25.3-9.1c-6-1-40-20.1-52.9-22.1c-13-2-54-5.1-55-8.1c-1-3,24-4.9,33-4.9c9,0,49,13.1,62,13.1c16,0,36.3,0.1,40.3-16.9
				c3.9-16.5-7.2-22-7.2-22s-18-2-25-0.1s-37-9.9-46-10.3c-15-0.6-30,3.1-39,4.1s-30-0.1-30-0.1l-2-4.2c0,0,29-4.7,43-6.7
				c14-2,41,1.1,61-6.9c20-8,13.1-33,5.1-35.1c-8-2.1-17,6-28,8s-67,5.8-82,7.8c-15,2-41,8.9-41,8.9s3-14,0-20s-11-5-11-5
				S637,35.4,628,42.4s-16.1,23-21.1,28c-5,5-20.2,37.4-47.1,40.9C533,114.7,522.6,194.1,601.6,206.3z"/>
		</defs>
		<clipPath id="SVGID_2_">
			<use xlink:href="#SVGID"  overflow="visible"/>
		</clipPath>
		<path clip-path="url(#SVGID_2_)" fill="#C5BCCC" d="M755.6,1.8c12.6-1,27.7-3.2,40.3-0.6c18.4,3.8,38.7,21,50.3,34.8
			c13.7,16.3,21.4,33.2,20.7,54.5c-0.5,15.4-8,29.4-8.8,44.8c-0.7,12.1,6,24.7-1.4,36c-4.9,7.5-13.6,13.3-19.5,20.2
			c-7.2,8.5-12.7,17.7-24,21.2c-9.6,2.9-23.1,1.3-32.9-0.6c-16-3.1-29.2-11.8-45.8-13.7c-17.1-1.9-38.7-5.3-53.9,4.6
			c-23.5,15.4-45.7,22.8-74.4,23.1c-21.8,0.2-33.5-10.3-44-29c-6.8-12.1-14.9-22.4-22.2-34.1c-6.8-10.7-11.8-19.9-9-32.8
			c3.4-15.8,19.1-24.9,29-36.7c5.2-6.2,9.5-12.9,15.4-18.5c5.6-5.4,12.2-9.4,17.6-15.1C603.4,49,613,37,623.3,25.5
			C644.8,1.6,731.7,3.8,755.6,1.8z"/>
		<g clip-path="url(#SVGID_2_)">
			<path fill="#867BA6" d="M682.3,43.7c0,0,0.3-0.1,0.7-0.2c0.4-0.1,1.1-0.1,1.8-0.1c0.7,0,1.6,0.1,2.5,0.4c0.4,0.1,0.9,0.3,1.3,0.5
				c0.5,0.2,0.9,0.4,1.3,0.7c0.4,0.3,0.8,0.5,1.2,0.9c0.4,0.3,0.7,0.7,1.1,1c0.3,0.4,0.6,0.8,0.8,1.2c0.2,0.4,0.4,0.8,0.5,1.2
				c0.1,0.4,0.2,0.7,0.2,1.1c0,0.3,0.1,0.6,0,0.8c-0.1,0.5-0.1,0.7-0.1,0.7l-0.2,0c0,0-0.1-0.2-0.2-0.6c-0.1-0.2-0.2-0.4-0.3-0.6
				c-0.1-0.2-0.3-0.5-0.5-0.8c-0.4-0.6-0.9-1.1-1.5-1.7c-0.3-0.3-0.7-0.5-1-0.8c-0.4-0.3-0.7-0.5-1.1-0.7c-1.5-0.9-3.2-1.6-4.5-2.1
				c-1.3-0.5-2.1-0.7-2.1-0.7L682.3,43.7z"/>
		</g>
		<g clip-path="url(#SVGID_2_)">
			<path fill="#867BA6" d="M707,79.2c0,0,0.2,0.1,0.4,0.4c0.2,0.3,0.5,0.6,0.7,1c0.3,0.4,0.5,0.9,0.7,1.4c0.2,0.5,0.3,1.1,0.4,1.7
				c0.1,0.6,0.1,1.2,0,1.8c0,0.3-0.1,0.6-0.2,0.9c-0.1,0.3-0.2,0.5-0.3,0.8c-0.2,0.5-0.5,0.8-0.7,1.1c-0.2,0.2-0.4,0.4-0.4,0.4
				l-0.2,0c0,0,0.1-0.6,0-1.5c0-0.9-0.1-2-0.2-3.2c-0.1-1.2-0.3-2.3-0.4-3.2c-0.1-0.9-0.1-1.5-0.1-1.5L707,79.2z"/>
		</g>
		<g clip-path="url(#SVGID_2_)">
			<path fill="#867BA6" d="M714.3,115.2c0,0,0.2,0.2,0.4,0.5c0.2,0.3,0.6,0.8,0.8,1.4c0.3,0.6,0.5,1.3,0.7,2
				c0.2,0.8,0.3,1.6,0.3,2.4c0,0.8,0,1.6-0.1,2.4c-0.1,0.4-0.1,0.7-0.2,1.1c-0.1,0.3-0.2,0.5-0.3,0.8c-0.4,1.2-1,1.8-1,1.8h-0.2
				c0,0,0-0.6-0.1-1.8c0-1.2,0-2.7-0.1-4.3c0-1.6-0.1-3.1-0.3-4.3c-0.1-1.2-0.2-1.9-0.2-1.9L714.3,115.2z"/>
		</g>
		<g clip-path="url(#SVGID_2_)">
			<path fill="#867BA6" d="M711.5,155.9c0,0,0.1,0.2,0.3,0.4c0.1,0.1,0.2,0.3,0.2,0.5c0.1,0.2,0.1,0.5,0.2,0.7c0,0.3,0.1,0.5,0,0.8
				c0,0.3,0,0.6-0.1,0.9c-0.1,0.3-0.2,0.6-0.3,0.9c-0.1,0.3-0.3,0.6-0.5,0.9c-0.4,0.5-0.8,1-1.3,1.4c-0.2,0.2-0.5,0.3-0.8,0.4
				c-0.2,0.1-0.5,0.2-0.7,0.3c-0.5,0.2-0.9,0.2-1.2,0.2c-0.3,0-0.5,0-0.5,0l-0.1-0.2c0,0,0.4-0.3,1.1-0.9c0.6-0.6,1.4-1.4,2-2.3
				c0.6-0.9,1.1-1.9,1.3-2.7c0.2-0.8,0.3-1.3,0.3-1.3L711.5,155.9z"/>
		</g>
		<g clip-path="url(#SVGID_2_)">
			<path fill="#867BA6" d="M649.3,52.1c0,0,0.2-0.3,0.5-0.8c0.3-0.5,0.8-1.3,1.4-2.2c1.2-1.8,2.8-4.1,4.7-6.2c1.9-2.1,4-4.1,5.8-5.4
				c0.9-0.7,1.6-1.2,2.1-1.6c0.5-0.4,0.8-0.6,0.8-0.6l1.5,2.6c0,0-0.3,0.2-0.8,0.4c-0.5,0.3-1.3,0.7-2.2,1.2c-1.8,1-4,2.6-6.1,4.4
				c-2.1,1.8-4,3.8-5.4,5.4c-0.7,0.8-1.2,1.5-1.6,2C649.5,51.8,649.3,52.1,649.3,52.1z"/>
		</g>
	</g>

	<g id="arm">
		<defs>
			<path id="SVGID_3_" d="M569.5,112.6c-75.6,4.7-228.3-49.5-283-46.1c-36.4,2.3-51.5,18.4-58.7,18c-8.1-0.5-29.8-15-29.8-15
				l-4.1,144c0,0,76.1,16.1,133.2,16c22.5,0,141.5-48,247.3-44C628.1,187.6,619.8,109.5,569.5,112.6z"/>
		</defs>
		<clipPath id="SVGID_4_">
			<use xlink:href="#SVGID_3_"  overflow="visible"/>
		</clipPath>
		<path clip-path="url(#SVGID_4_)" fill="#C5BCCC" d="M255.9,49.5c-25.6-0.2-62.9-21-84.9,2.1c-29.4,30.9,5.3,100.2,13,137
			c4.9,23.6-1.5,49.9,19.9,57.2c18.4,6.2,41.8,4.9,60.8,5.8c32,1.5,64.4,4.1,96.2-0.5c73.9-10.7,143.8-60.7,218.7-61.6
			c21.3-0.2,44.2-12.1,45.1-41.8c1.1-35.6-34.6-52-58.6-58.3c-31.2-8.2-62.6-15-93.7-23.9c-32.1-9.2-63.6-24.1-97-26.1
			c-40.7-2.4-81.9,2.3-121.4,4.1"/>
		<g clip-path="url(#SVGID_4_)">
			<path fill="#867BA6" d="M302.2,65.6c0,0-0.6,0.5-1.7,1.3c-1.1,0.8-2.5,2-4.3,3.5c-0.9,0.7-1.8,1.6-2.7,2.5
				c-0.9,0.9-1.9,1.9-2.9,2.9c-1,1-2,2.1-2.9,3.3c-0.9,1.2-1.9,2.3-2.8,3.6c-0.9,1.2-1.7,2.5-2.5,3.8c-0.7,1.3-1.5,2.6-2.1,3.9
				c-0.7,1.3-1.2,2.6-1.8,3.8c-0.6,1.2-0.9,2.4-1.4,3.5c-0.4,1.1-0.7,2.1-1,3c-0.3,0.9-0.5,1.7-0.7,2.4c-0.4,1.3-0.6,2.1-0.6,2.1
				s0.1-0.8,0.3-2.1c0.1-0.7,0.2-1.5,0.4-2.4c0.2-0.9,0.4-2,0.7-3.1c0.3-1.1,0.6-2.4,1-3.7c0.4-1.3,0.8-2.6,1.4-4
				c0.5-1.4,1.2-2.8,1.8-4.2c0.7-1.4,1.4-2.8,2.2-4.2c0.8-1.4,1.7-2.7,2.5-4c0.9-1.3,1.8-2.6,2.7-3.7c0.9-1.2,1.9-2.3,2.7-3.3
				c0.9-1,1.8-2,2.6-2.9c1.6-1.7,3.1-3.2,4.1-4.1c1-0.9,1.6-1.5,1.6-1.5L302.2,65.6z"/>
		</g>
		<g clip-path="url(#SVGID_4_)">
			<path fill="#867BA6" d="M321.6,68.1c0,0-0.5,0.4-1.4,1.2c-0.5,0.4-0.9,0.8-1.4,1.4c-0.5,0.5-1.1,1.2-1.8,1.9
				c-0.6,0.7-1.3,1.6-2,2.4c-0.7,0.9-1.4,1.8-2,2.9c-0.7,1-1.4,2.1-2,3.2c-0.6,1.1-1.3,2.3-1.9,3.5l-0.9,1.8
				c-0.3,0.6-0.5,1.2-0.8,1.8c-0.6,1.2-1,2.4-1.4,3.6c-0.4,1.2-0.8,2.3-1.1,3.4c-0.3,1.1-0.6,2.2-0.8,3.1c-0.1,0.5-0.2,1-0.3,1.4
				c-0.1,0.5-0.1,0.9-0.2,1.3c-0.1,0.8-0.2,1.5-0.2,2.1c-0.1,1.2-0.1,1.8-0.1,1.8s0-0.7-0.1-1.9c-0.1-0.6,0-1.3,0-2.1
				c0-0.4,0-0.9,0-1.3c0-0.5,0.1-0.9,0.1-1.5c0.1-1,0.2-2.1,0.4-3.3c0.2-1.2,0.5-2.4,0.7-3.6c0.3-1.2,0.6-2.5,1-3.8
				c0.2-0.6,0.4-1.3,0.6-1.9c0.2-0.6,0.5-1.3,0.7-1.9c0.5-1.3,1-2.6,1.5-3.8c0.6-1.2,1.1-2.5,1.7-3.6c0.6-1.2,1.2-2.2,1.8-3.3
				c0.6-1,1.2-2,1.8-2.9c0.6-0.9,1.1-1.7,1.7-2.4c0.6-0.7,1.1-1.4,1.4-1.8c0.8-0.9,1.2-1.4,1.2-1.4L321.6,68.1z"/>
		</g>
	</g>
	<path id="sleeve" fill="#6149A6" d="M7.5,36.1c0,0,115.5,6,138,12s58.5,0,58.5,0s7.5,161.8,6,167.9s-4.5,13.8-4.5,13.8
		s-42-4.3-63,0c-21,4.3-58.5,8.8-79.5,8.8s-63-8.8-63-8.8L7.5,36.1z"/>
	<g id="hand-closed">
		<defs>
			<path id="SVGID_5_" d="M548.4,155.7c-3.3-40.2,24.2-42.4,31.4-45.7c7.2-3.3,17.6-12.7,34.1-22c16.5-9.4,35.8-23.7,39.1-24.2
				s20.4,3.9,31.4,0s22-14.9,35.2-13.8s25.9,8.8,36.3,16.5c10.5,7.7,52.8,41.3,53.9,48.4c1.1,7.2,1.7,12.1-5,16
				c-6.6,3.9-11.6,5-11.6,5s3.9,3.3,2.2,8.8c-1.7,5.5-18.2,18.7-18.2,18.7s3.3,3.9,1.1,7.7s-36.3,28.1-36.3,28.1s1.6,4.4-1.8,8.3
				c-3.5,4-20.1,5-24.5,4c-10.5-2.5-18.8-11.8-18.8-11.8s-35.8,16.3-55.6,10.6c-19.8-5.7-50.1-24.9-60-26
				C571.5,183.3,550.9,185.7,548.4,155.7z"/>
		</defs>
		<clipPath id="SVGID_6_">
			<use xlink:href="#SVGID_5_"  overflow="visible"/>
		</clipPath>
		<path clip-path="url(#SVGID_6_)" fill="#C5BCCC" stroke="#867BA6" stroke-width="3" stroke-miterlimit="10" d="M571,94.1
			c2.9-1-4.4,2.7-5.2,3.2c-7.8,5.2-16.5,10.3-23.7,16.3c-8,6.7-16.7,15.1-17.7,25.9c-1.8,19.5,14.6,49,32.8,57.4
			c12.4,5.7,27.2,7.8,40.3,11.7c14.3,4.3,29.7,5.5,43.8,10c20.1,6.4,38.2,8.7,59.5,7.7c28.6-1.3,64,3.4,88.6-15.2
			c12.6-9.6,26.3-24,34.3-37.7c7.5-12.9,3.5-29.5,3.3-43.5c-0.1-6.9,1.1-14.9-0.3-21.7c-1.2-5.8-5.2-10.7-8.2-15.6
			c-9.2-14.7-19.9-25.1-33.2-36.1c-26.5-22-58.1-26.6-91.7-22.8c-13.2,1.5-26.3,3.8-39.3,6.6c-13.1,2.8-27.8,5.4-40.1,10.7
			c-11,4.7-26.6,12.8-30.5,25.1c-1.4,4.5-1.2,6.8-4.5,10.5c-2.6,2.9-6.1,4.9-8.2,8.2"/>
		<g clip-path="url(#SVGID_6_)">
			<path fill="#867BA6" d="M689.3,205.7c0,0,0.6-0.3,1.5-0.9c0.5-0.3,1-0.6,1.6-1c0.6-0.4,1.3-0.9,2.1-1.4c0.7-0.5,1.6-1.1,2.4-1.7
				c0.9-0.6,1.7-1.3,2.6-2c0.9-0.7,1.8-1.5,2.7-2.3c0.9-0.8,1.8-1.7,2.6-2.6c0.9-0.9,1.6-1.9,2.4-2.8c0.7-1,1.5-1.9,2.1-2.9
				c0.3-0.5,0.6-1,0.9-1.5c0.3-0.5,0.5-1,0.8-1.5c0.5-0.9,0.9-1.9,1.3-2.8c0.4-0.9,0.6-1.7,0.8-2.4c0.3-0.7,0.4-1.4,0.5-1.9
				c0.2-1.1,0.3-1.7,0.3-1.7s0,0.6-0.1,1.8c0,0.6,0,1.2-0.2,2c-0.1,0.8-0.2,1.7-0.4,2.6c-0.2,0.9-0.4,2-0.8,3.1
				c-0.2,0.5-0.4,1.1-0.5,1.7c-0.2,0.5-0.5,1.1-0.7,1.7c-0.4,1.2-1.1,2.3-1.6,3.4c-0.7,1.1-1.3,2.3-2,3.4c-0.7,1.1-1.5,2.2-2.3,3.2
				c-0.8,1-1.6,2-2.4,3c-0.8,0.9-1.6,1.8-2.4,2.6c-0.8,0.8-1.6,1.6-2.3,2.3c-0.7,0.7-1.4,1.3-2,1.9c-0.6,0.5-1.2,1-1.6,1.4
				c-0.9,0.7-1.3,1.1-1.3,1.1L689.3,205.7z"/>
		</g>
		<g clip-path="url(#SVGID_6_)">
			<polygon fill="#867BA6" points="744.4,208.7 732.7,141 750.3,207.4 			"/>
		</g>
		<g clip-path="url(#SVGID_6_)">
			<polygon fill="#867BA6" points="780.6,169.2 740.5,116.1 785.2,165.4 			"/>
		</g>
		<g clip-path="url(#SVGID_6_)">
			<path fill="#867BA6" d="M797.8,139.4c0,0-12.4-10.6-24.7-21.4c-6.1-5.4-12.2-10.8-16.7-15c-2.2-2.1-4.1-3.9-5.3-5.1
				c-0.6-0.6-1.1-1.2-1.4-1.5c-0.3-0.4-0.4-0.6-0.4-0.6s0.1,0.2,0.5,0.6c0.3,0.3,0.8,0.8,1.5,1.4c1.3,1.2,3.3,2.8,5.7,4.6
				c4.8,3.7,11.4,8.6,18,13.4c13.2,9.6,26.5,19,26.5,19L797.8,139.4z"/>
		</g>
		<g clip-path="url(#SVGID_6_)">
			<path fill="#867BA6" d="M689.4,61.5c0,0-0.4,0.3-1.1,0.8c-0.7,0.5-1.7,1.2-3,2.1c-1.2,0.9-2.7,1.8-4.3,2.8c-1.6,1-3.4,2-5.3,3
				c-1,0.5-1.9,0.9-3.1,1.2l-0.5,0.1l-0.4,0l-0.7,0.1c-0.5,0-1,0.1-1.4,0.1c-1.9,0.2-3.6,0.3-5.1,0.5c-3,0.3-4.9,0.4-4.9,0.4
				s1.9-0.7,4.6-1.7c1.4-0.5,3-1.1,4.7-1.8c0.4-0.2,0.9-0.3,1.3-0.5l0.7-0.3l0.3-0.1l0.2-0.1c0.6-0.3,1.4-0.8,2.1-1.4
				c1.5-1.1,2.9-2.4,4.2-3.6c1.3-1.2,2.5-2.4,3.5-3.5c1-1,1.8-1.9,2.4-2.5c0.6-0.6,0.9-1,0.9-1L689.4,61.5z"/>
		</g>
	</g>
</g>

<!--FILM GRAIN-->

<rect class="grain" width="800" height="800" fill="url(#grain)" />

</svg>
