<svg id="svg-label" xmlns="http://www.w3.org/2000/svg" xmlns:xlink="http://www.w3.org/1999/xlink" viewBox="0 0 800 800">
  <defs>
    <clipPath id="clip-path" transform="translate(-3.3 -3)">
      <rect id="labelClip" x="-1349.7" width="1400" height="800" fill="none"/>
    </clipPath>
  </defs>
  <title>svg-you</title>
  <rect id="bg" width="795" height="795" fill="none"/>
  <g clip-path="url(#clip-path)">
    <g id="sign">
      <g id="label1">
        <path id="paper1" d="M600.14,218.34c-11.18,9.23-28.22,17.38-39.46,19.1-8,1.22-17.15.8-25.13-.07-1.24-.14-2.74-1-4-0.64,0,0-124.19,31.61-184.24,55.44s-217.27,52.3-217.27,52.3c-1.41,7.65-4.39,18.52-6.87,27.4-1.31,6.57-2.61,12.66-3.24,17.73-0.6-3.36,1.09-9.93,3.25-17.69,1.74-8.74,3.52-18.24,3.93-26.65L56.3,368s18.77,56.57,34.88,121.78S114.25,604.2,114.25,604.2l71.17-19.1c3.76-11.39,7.56-23.18,8.16-33.86,1.65,5.38,4.75,19,3.92,30.62L744.3,433.53l-58-238.32Z" transform="translate(-3.3 -3)" fill="#fff"/>
        <g>
          <polygon points="200 397 224 388 260 432 280 375 296 375 279 445 289 490 265 501 248 454 200 397" fill="#dd429f"/>
          <path d="M436.3,389c-15-38-55.58-47.85-78-34-26.39,16.3-59,48-39,86s56,38,81,28S451.3,427,436.3,389Zm-46,55c-19,8-30,5.47-37.43-9.34-11.43-22.79-6.55-36,9.43-46.66,27-18,41.89-5.62,47,12.71S409.3,436,390.3,444Z" transform="translate(-3.3 -3)" fill="#dd429f"/>
          <path d="M440.71,335l25.58-10,23,75.71s5,16,22,13.13,21-18.66,13-44.25-15-55.59-15-55.59l25-5,23,70.21S570,419,528.3,435c-52,20-68-28-68-28Z" transform="translate(-3.3 -3)" fill="#dd429f"/>
          <polygon points="555.81 299 580 375 596 371.44 582 290 555.81 299" fill="#dd429f"/>
          <path d="M599.3,390c-20.81,1.73-15.56,13.25-11.33,21.17,1.81,3.38,3.91,10.85,11.33,6.83s17-8,14-18S611.3,389,599.3,390Z" transform="translate(-3.3 -3)" fill="#dd429f"/>
        </g>
      </g>
      <g id="label2">
        <path id="paper1-2" data-name="paper1" d="M200.46,218.34c11.18,9.23,28.22,17.38,39.46,19.1,8,1.22,17.15.8,25.13-.07,1.24-.14,2.74-1,4-0.64,0,0,124.19,31.61,184.24,55.44s217.27,52.3,217.27,52.3c1.41,7.65,4.39,18.52,6.87,27.4,1.31,6.57,2.61,12.66,3.24,17.73,0.6-3.36-1.09-9.93-3.25-17.69-1.74-8.74-3.52-18.24-3.93-26.65L744.3,368s-18.77,56.57-34.88,121.78S686.34,604.2,686.34,604.2l-71.17-19.1c-3.76-11.39-7.56-23.18-8.16-33.86-1.65,5.38-4.75,19-3.92,30.62L56.3,433.53l58-238.32Z" transform="translate(-3.3 -3)" fill="#f3bddd"/>
      </g>
    </g>
  </g>
</svg>
