<svg id="svg-arm" xmlns="http://www.w3.org/2000/svg" viewBox="0 0 800 800">

<!--ARM-->

<g id="fullarm">
	<g id="hand-open">
		<path fill="#C5BCCC" d="M855.1,81.5c-4,17-24.3,16.9-40.3,16.9c-13,0-53-13.1-62-13.1c-9,0-34,1.9-33,4.9
			s42,6.1,55,8.1s47,21.1,52.9,22.1c6,1,19.7,2,25.3,9.1c5.7,7-1.4,20-17.4,22c-16,2-38-11.1-53-16.1c-8.5-2.9-22.9-9.5-22.9-9.5
			l-39.1-1.7c0,0,30.9,29.1,45.9,35.1c15,6,39,11.1,39,11.1s12,14-2,21c-14,7-48-9.1-48-9.1s-17-8-29-11.1s-26-11.1-26-11.1
			s-67.3,37.7-99.1,32.8c-79-12.2-68.6-91.6-41.8-95.1c26.9-3.5,42.1-35.9,47.1-40.9s12-21,21.1-28c9-7,25.1-28.9,25.1-28.9
			s8-1,11,5c2.1,4.2,1.2,12.4,0.5,16.9c-0.1,0.1-0.4,0.2-0.8,0.5c-0.5,0.4-1.3,0.9-2.1,1.6c-1.7,1.3-3.9,3.3-5.8,5.4
			c-1.9,2.1-3.6,4.4-4.7,6.2c-0.6,0.9-1,1.6-1.4,2.2c-0.3,0.5-0.5,0.8-0.5,0.8s0.2-0.3,0.6-0.8c0.4-0.5,0.9-1.2,1.6-2
			c1.4-1.6,3.3-3.6,5.4-5.4c2.1-1.8,4.4-3.4,6.1-4.4c0.9-0.5,1.6-0.9,2.2-1.2c0.5-0.3,0.8-0.4,0.8-0.4l0,0c6.4-1.7,26.5-6.7,39-8.4
			c15-2,71-5.8,82-7.8c11-2,20-10.1,28-8S830,27.5,810,35.4c-20,8-47,4.9-61,6.9c-14,2-43,6.7-43,6.7l2,4.2c0,0,21,1,30,0.1
			c9-1,24-4.7,39-4.1c9,0.4,39,12.3,46,10.3s25,0.1,25,0.1S859.1,65,855.1,81.5z"/>
		<path fill="#867BA6" d="M661.6,24.1c-1.7,1.3-3.9,3.3-5.8,5.4c-1.9,2.1-3.6,4.4-4.7,6.2c-0.6,0.9-1,1.6-1.4,2.2
			c-0.3,0.5-0.5,0.8-0.5,0.8s0.2-0.3,0.6-0.8c0.4-0.5,0.9-1.2,1.6-2c1.4-1.6,3.3-3.6,5.4-5.4c2.1-1.8,4.4-3.4,6.1-4.4
			c0.9-0.5,1.6-0.9,2.2-1.2c0.5-0.3,0.8-0.4,0.8-0.4l0,0c-1.3,0.3-2.1,0.5-2.1,0.5s0.3-1.2,0.6-3.1c-0.1,0.1-0.4,0.2-0.8,0.5
			C663.2,22.9,662.5,23.4,661.6,24.1z"/>
		<path fill="#867BA6" d="M707.3,70.5c0.2,1.2,0.3,2.3,0.2,3.2c0,0.9,0,1.5,0,1.5l0.2,0c0,0,0.2-0.1,0.4-0.4
			c0.2-0.2,0.5-0.6,0.7-1.1c0.1-0.2,0.2-0.5,0.3-0.8c0.1-0.3,0.2-0.6,0.2-0.9c0.1-0.6,0.1-1.2,0-1.8c-0.1-0.6-0.2-1.2-0.4-1.7
			c-0.2-0.5-0.4-1-0.7-1.4c-0.2-0.4-0.5-0.7-0.7-1c-0.2-0.2-0.4-0.4-0.4-0.4l-0.2,0c0,0,0,0.6,0.1,1.5
			C707,68.2,707.1,69.4,707.3,70.5z"/>
		<path fill="#867BA6" d="M693.6,35.8c-0.1-0.4-0.3-0.8-0.5-1.2c-0.2-0.4-0.5-0.8-0.8-1.2c-0.3-0.4-0.7-0.7-1.1-1
			c-0.4-0.3-0.8-0.6-1.2-0.9c-0.4-0.2-0.9-0.5-1.3-0.7c-0.4-0.2-0.9-0.3-1.3-0.5c-0.9-0.2-1.7-0.4-2.5-0.4c-0.7,0-1.4,0-1.8,0.1
			c-0.4,0.1-0.7,0.2-0.7,0.2l-0.1,0.2c0,0,0.9,0.3,2.1,0.7c1.3,0.4,2.9,1.1,4.5,2.1c0.4,0.2,0.8,0.5,1.1,0.7c0.4,0.2,0.7,0.5,1,0.8
			c0.6,0.6,1.2,1.1,1.5,1.7c0.2,0.3,0.4,0.5,0.5,0.8c0.1,0.2,0.2,0.4,0.3,0.6c0.1,0.4,0.2,0.6,0.2,0.6l0.2,0c0,0,0.1-0.2,0.1-0.7
			c0-0.2,0-0.5,0-0.8C693.8,36.6,693.7,36.2,693.6,35.8z"/>
		<path fill="#867BA6" d="M715.5,103.7c-0.3-0.6-0.6-1.1-0.8-1.4c-0.2-0.3-0.4-0.5-0.4-0.5l-0.2,0
			c0,0,0.1,0.8,0.2,1.9c0.1,1.2,0.2,2.7,0.3,4.3c0.1,1.6,0.1,3.1,0.1,4.3c0,1.2,0.1,1.8,0.1,1.8h0.2c0,0,0.6-0.6,1-1.8
			c0.1-0.3,0.2-0.4,0.3-0.8c0.1-0.3,0.2-0.7,0.2-1.1c0.1-0.8,0.2-1.6,0.1-2.4c0-0.8-0.1-1.6-0.3-2.4
			C716,105,715.8,104.3,715.5,103.7z"/>
		<path fill="#867BA6" d="M712,143.5c-0.1-0.2-0.1-0.4-0.2-0.5c-0.2-0.3-0.3-0.4-0.3-0.4l-0.2,0
			c0,0-0.1,0.6-0.3,1.3c-0.2,0.8-0.7,1.8-1.3,2.7c-0.6,0.9-1.4,1.7-2,2.3c-0.6,0.6-1.1,0.9-1.1,0.9l0.1,0.2c0,0,0.2,0,0.5,0
			c0.3,0,0.8,0,1.2-0.2c0.2-0.1,0.5-0.2,0.7-0.3c0.2-0.1,0.5-0.3,0.8-0.4c0.5-0.4,0.9-0.8,1.3-1.4c0.2-0.3,0.3-0.6,0.5-0.9
			c0.1-0.3,0.2-0.6,0.3-0.9c0.1-0.3,0.1-0.6,0.1-0.9c0-0.3,0-0.6,0-0.8C712.2,143.9,712.1,143.7,712,143.5z"/>
	</g>
	<g id="arm">
		<path fill="#C5BCCC" d="M569.5,99.3c-63.2,3.9-180.2-33.3-248.9-43.6c-0.1,0.1-0.3,0.2-0.4,0.4c-0.5,0.4-0.9,0.8-1.4,1.4
			c-0.5,0.5-1.1,1.2-1.8,1.9c-0.6,0.7-1.3,1.6-2,2.4c-0.7,0.9-1.4,1.8-2,2.9c-0.7,1-1.4,2.1-2,3.2c-0.6,1.1-1.3,2.3-1.9,3.5
			l-0.9,1.8c-0.3,0.6-0.5,1.2-0.8,1.8c-0.6,1.2-1,2.4-1.4,3.6c-0.4,1.2-0.8,2.3-1.1,3.4c-0.3,1.1-0.6,2.2-0.8,3.1
			c-0.1,0.5-0.2,1-0.3,1.4c-0.1,0.5-0.1,0.9-0.2,1.3c-0.1,0.8-0.2,1.5-0.2,2.1c-0.1,1.2-0.1,1.8-0.1,1.8s0-0.7-0.1-1.9
			c-0.1-0.6,0-1.3,0-2.1c0-0.4,0-0.9,0-1.3c0-0.5,0.1-0.9,0.1-1.5c0.1-1,0.2-2.1,0.4-3.3c0.2-1.2,0.5-2.4,0.7-3.6
			c0.3-1.2,0.6-2.5,1-3.8c0.2-0.6,0.4-1.3,0.6-1.9c0.2-0.6,0.5-1.3,0.7-1.9c0.5-1.3,1-2.6,1.5-3.8c0.6-1.2,1.1-2.5,1.7-3.6
			c0.6-1.2,1.2-2.2,1.8-3.3c0.6-1,1.2-2,1.8-2.9c0.5-0.7,0.9-1.3,1.4-1.9c-5.1-0.7-9.9-1.2-14.3-1.5c-0.1,0.1-0.2,0.1-0.2,0.2
			c-1.1,0.8-2.5,2-4.3,3.5c-0.9,0.7-1.8,1.6-2.7,2.5c-0.9,0.9-1.9,1.9-2.9,2.9c-1,1-2,2.1-2.9,3.3c-0.9,1.2-1.9,2.3-2.8,3.6
			c-0.9,1.2-1.7,2.5-2.5,3.8c-0.7,1.3-1.5,2.6-2.1,3.9c-0.7,1.3-1.2,2.6-1.8,3.8c-0.6,1.2-0.9,2.4-1.4,3.5c-0.4,1.1-0.7,2.1-1,3
			c-0.3,0.9-0.5,1.7-0.7,2.4c-0.4,1.3-0.6,2.1-0.6,2.1s0.1-0.8,0.3-2.1c0.1-0.7,0.2-1.5,0.4-2.4c0.2-0.9,0.4-2,0.7-3.1
			c0.3-1.1,0.6-2.4,1-3.7c0.4-1.3,0.8-2.6,1.4-4c0.5-1.4,1.2-2.8,1.8-4.2c0.7-1.4,1.4-2.8,2.2-4.2c0.8-1.4,1.7-2.7,2.5-4
			c0.9-1.3,1.8-2.6,2.7-3.7c0.9-1.2,1.9-2.3,2.7-3.3c0.9-1,1.8-2,2.6-2.9c0.3-0.3,0.6-0.6,0.9-1c-2.8-0.1-5.4,0-7.8,0.1
			c-36.4,2.3-51.5,18.4-58.7,18c-8.1-0.5-29.8-15-29.8-15l-4.1,144c0,0,76.1,16.1,133.2,16c22.5,0,141.5-48,247.3-44
			C628.1,174.2,619.8,96.2,569.5,99.3z"/>
		<path fill="#867BA6" d="M311.9,59.6c-0.6,1-1.2,2.1-1.8,3.3c-0.6,1.1-1.2,2.4-1.7,3.6c-0.5,1.2-1.1,2.5-1.5,3.8
			c-0.2,0.6-0.5,1.3-0.7,1.9c-0.2,0.7-0.4,1.3-0.6,1.9c-0.4,1.3-0.7,2.6-1,3.8c-0.2,1.3-0.6,2.5-0.7,3.6c-0.2,1.2-0.4,2.3-0.4,3.3
			c0,0.5-0.1,1-0.1,1.5c0,0.5,0,0.9,0,1.3c0,0.8,0,1.5,0,2.1c0.1,1.2,0.1,1.9,0.1,1.9s0-0.7,0.1-1.8c0-0.6,0.1-1.3,0.2-2.1
			c0.1-0.4,0.1-0.8,0.2-1.3c0.1-0.4,0.2-0.9,0.3-1.4c0.2-1,0.5-2,0.8-3.1c0.3-1.1,0.7-2.2,1.1-3.4c0.5-1.2,0.9-2.4,1.4-3.6
			c0.3-0.6,0.5-1.2,0.8-1.8l0.9-1.8c0.6-1.2,1.2-2.3,1.9-3.5c0.7-1.1,1.3-2.2,2-3.2c0.7-1,1.4-2,2-2.9c0.7-0.9,1.3-1.7,2-2.4
			c0.6-0.7,1.2-1.4,1.8-1.9c0.5-0.5,0.9-1,1.4-1.4c0.2-0.1,0.3-0.3,0.4-0.4c-1.9-0.3-3.8-0.6-5.6-0.8c-0.4,0.6-0.9,1.2-1.4,1.9
			C313.1,57.6,312.5,58.6,311.9,59.6z"/>
		<path fill="#867BA6" d="M290.7,56.9c-0.9,1.1-1.8,2.1-2.7,3.3c-0.9,1.2-1.8,2.4-2.7,3.7c-0.9,1.3-1.7,2.6-2.5,4
			c-0.8,1.4-1.5,2.8-2.2,4.2c-0.6,1.4-1.3,2.8-1.8,4.2c-0.6,1.4-1,2.7-1.4,4c-0.4,1.3-0.7,2.5-1,3.7c-0.3,1.1-0.5,2.2-0.7,3.1
			c-0.2,0.9-0.3,1.8-0.4,2.4c-0.2,1.3-0.3,2.1-0.3,2.1s0.2-0.8,0.6-2.1c0.2-0.7,0.4-1.5,0.7-2.4c0.3-0.9,0.6-1.9,1-3
			c0.4-1.1,0.8-2.3,1.4-3.5c0.5-1.2,1.1-2.5,1.8-3.8c0.6-1.3,1.4-2.6,2.1-3.9c0.8-1.3,1.6-2.6,2.5-3.8c0.9-1.3,1.8-2.4,2.8-3.6
			c1-1.1,1.9-2.3,2.9-3.3c1-1.1,2-2,2.9-2.9c1-0.9,1.9-1.7,2.7-2.5c1.7-1.5,3.2-2.7,4.3-3.5c0.1-0.1,0.2-0.1,0.2-0.2
			c-2.3-0.2-4.4-0.3-6.5-0.3c-0.3,0.3-0.6,0.6-0.9,1C292.5,54.8,291.7,55.8,290.7,56.9z"/>
	</g>
	<path id="sleeve" fill="#6149A6" d="M7.5,22.8c0,0,115.5,6,138,12s58.5,0,58.5,0s7.5,161.8,6,167.9s-4.5,13.8-4.5,13.8
		s-42-4.3-63,0S84,225.3,63,225.3s-63-8.8-63-8.8L7.5,22.8z"/>
	<g id="hand-closed">
		<path fill="#C5BCCC" d="M747.9,57.2c-10.5-7.7-23.1-15.4-36.3-16.5c-13.2-1.1-24.2,9.9-35.2,13.8c-11,3.9-28.1-0.6-31.4,0
			s-22.6,14.9-39.1,24.2s-27,18.7-34.1,22c-7.2,3.3-34.7,5.5-31.4,45.7c2.5,29.9,23.1,27.5,33,28.6c9.9,1.1,40.2,20.4,60,26
			c19.8,5.7,55.6-10.6,55.6-10.6s8.3,9.3,18.8,11.8c4.4,1,21,0,24.5-4c3.4-3.9,1.8-8.3,1.8-8.3s34.1-24.2,36.3-28.1
			c2.2-3.9-1.1-7.7-1.1-7.7s16.5-13.2,18.2-18.7c1.7-5.5-2.2-8.8-2.2-8.8s5-1.1,11.6-5c6.6-3.9,6.1-8.8,5-16
			C800.8,98.5,758.4,64.9,747.9,57.2z"/>
		<path fill="#867BA6" d="M697.4,189.7c0.8-1,1.6-2.1,2.3-3.2c0.8-1.1,1.4-2.3,2-3.4c0.6-1.2,1.2-2.3,1.6-3.4
			c0.2-0.6,0.5-1.1,0.7-1.7c0.2-0.6,0.4-1.1,0.5-1.7c0.4-1.1,0.6-2.1,0.8-3.1c0.3-0.9,0.3-1.8,0.4-2.6c0.1-0.8,0.1-1.5,0.2-2
			c0-1.1,0.1-1.8,0.1-1.8s-0.1,0.6-0.3,1.7c-0.1,0.5-0.2,1.2-0.5,1.9c-0.3,0.7-0.4,1.6-0.8,2.4c-0.4,0.9-0.7,1.8-1.3,2.8
			c-0.2,0.5-0.5,1-0.8,1.5c-0.3,0.5-0.6,1-0.9,1.5c-0.6,1-1.4,1.9-2.1,2.9c-0.8,0.9-1.5,1.9-2.4,2.8c-0.8,0.9-1.7,1.8-2.6,2.6
			c-0.9,0.8-1.8,1.6-2.7,2.3c-0.7,0.6-1.4,1.1-2.1,1.6c0.7,0.7,2,2,3.9,3.5c0.5-0.6,1-1.1,1.6-1.8
			C695.8,191.8,696.6,190.8,697.4,189.7z"/>
		<path fill="#867BA6" d="M663.5,58.8l-0.2,0.1l-0.3,0.1l-0.7,0.3c-0.4,0.2-0.9,0.3-1.3,0.5c-1.7,0.6-3.4,1.2-4.7,1.8
			c-2.8,1-4.6,1.7-4.6,1.7s2-0.2,4.9-0.4c1.5-0.1,3.2-0.3,5.1-0.5c0.5,0,0.9-0.1,1.4-0.1l0.7-0.1l0.4,0l0.5-0.1
			c1.2-0.3,2.2-0.7,3.1-1.2c1.9-0.9,3.6-2,5.3-3c1.6-1,3.1-2,4.3-2.8c1.2-0.9,2.3-1.6,3-2.1c0.1-0.1,0.2-0.2,0.4-0.3
			c-1.4,0.7-2.8,1.3-4.2,1.8c-2.7,0.9-5.8,1.4-8.9,1.5c-0.6,0.5-1.2,1-1.8,1.5C664.9,58,664.2,58.5,663.5,58.8z"/>
		<path fill="#867BA6" d="M749.1,93c-2.4-1.9-4.4-3.5-5.7-4.6c-0.7-0.6-1.2-1.1-1.5-1.4c-0.3-0.3-0.5-0.6-0.5-0.6s0.1,0.2,0.4,0.6
			c0.3,0.4,0.8,0.9,1.4,1.5c1.2,1.3,3.1,3.1,5.3,5.1c4.5,4.2,10.6,9.6,16.7,15c7.9,6.9,15.9,13.8,20.5,17.8c0.8-0.2,3.1-0.9,6.3-2.3
			c-3.9-2.8-14.4-10.2-24.9-17.9C760.4,101.5,753.9,96.7,749.1,93z"/>
		<path fill="#867BA6" d="M734.7,189.5c0.8-0.6,2.4-1.7,4.5-3.2l-14.5-54.6L734.7,189.5z"/>
		<path fill="#867BA6" d="M771.2,158c-0.4-2.2-1.8-3.9-1.8-3.9s1.4-1.1,3.5-2.9l-40.3-44.5L771.2,158z"/>
	</g>
</g>


<!--FILM GRAIN-->


</svg>
