<svg id="svg-replay" xmlns="http://www.w3.org/2000/svg" viewBox="0 0 800 800">
  <title>svg-replay</title>

  <g id="replay">
    <rect x="299.5" y="345" width="201" height="110" rx="12" ry="12" fill="#fcf083"/>
    <path d="M341.64,406.5q0-1,.11-2.31t0.3-2.79q0.19-1.47.45-3t0.55-2.9q0.29-1.38.59-2.53a16.26,16.26,0,0,1,.59-1.9,4.44,4.44,0,0,1,.36-0.79,1.57,1.57,0,0,1,.42-0.46,1.38,1.38,0,0,1,.59-0.23,5.66,5.66,0,0,1,.87-0.06,5.76,5.76,0,0,1,.91.06,0.73,0.73,0,0,1,.48.27,1.21,1.21,0,0,1,.19.62q0,0.41,0,1.11v2q0,1.18,0,2.33h0.25l1-2a13.12,13.12,0,0,1,1.31-2.09,7.74,7.74,0,0,1,1.69-1.64,3.71,3.71,0,0,1,2.19-.67,2.44,2.44,0,0,1,.83.15,2.16,2.16,0,0,1,.71.42,2,2,0,0,1,.49.67,2.12,2.12,0,0,1,.18.89,7.08,7.08,0,0,1-.11,1.07q-0.11.69-.25,1.44t-0.25,1.47a7.74,7.74,0,0,0-.11,1.18,4.91,4.91,0,0,0,.16,1.35,2.52,2.52,0,0,0,.42.87,1.47,1.47,0,0,0,.59.46,1.78,1.78,0,0,0,.69.14,5.43,5.43,0,0,0,2.1-.45,13.63,13.63,0,0,0,2-1,18.83,18.83,0,0,0,2.08-1.49L363.75,402l-1.33.86a16.75,16.75,0,0,1-1.59.89,11.84,11.84,0,0,1-1.76.7,6.29,6.29,0,0,1-1.86.28,4.86,4.86,0,0,1-2.73-.69,5,5,0,0,1-1.65-1.8,9.15,9.15,0,0,1-.9-2.5q-0.29-1.39-.47-2.81h-0.36l-4,11.26a14.48,14.48,0,0,1-.6,1.45,4.93,4.93,0,0,1-.58.94,1.7,1.7,0,0,1-.63.51,1.85,1.85,0,0,1-.74.15,2.37,2.37,0,0,1-2.36-1.46,5.06,5.06,0,0,1-.41-1.51A14.72,14.72,0,0,1,341.64,406.5Z" fill="#fff"/>
    <path d="M368.76,411.21a8.46,8.46,0,0,1-3.71-.77,7.67,7.67,0,0,1-2.65-2.06,8.82,8.82,0,0,1-1.59-3,12,12,0,0,1-.53-3.58,15.92,15.92,0,0,1,1-5.44,14.47,14.47,0,0,1,1.27-2.58,10.26,10.26,0,0,1,1.79-2.17,8.28,8.28,0,0,1,2.3-1.49,7,7,0,0,1,2.83-.55,6.62,6.62,0,0,1,2.35.41,5.74,5.74,0,0,1,1.88,1.14,5.17,5.17,0,0,1,1.25,1.77,5.78,5.78,0,0,1,.45,2.32,6.29,6.29,0,0,1-.69,2.8,10.2,10.2,0,0,1-1.91,2.64,13.45,13.45,0,0,1-2.9,2.21,15.53,15.53,0,0,1-3.64,1.51,7.16,7.16,0,0,0,.67,1,3,3,0,0,0,.67.63,2.2,2.2,0,0,0,.71.32,3.37,3.37,0,0,0,.8.09,8.42,8.42,0,0,0,2.85-.54,18.69,18.69,0,0,0,2.92-1.35,24.82,24.82,0,0,0,2.68-1.77,23.05,23.05,0,0,0,2.14-1.82l2.91,3a29.76,29.76,0,0,1-4.22,3.63q-1,.68-2.09,1.33A19,19,0,0,1,374,410.1a16.3,16.3,0,0,1-2.55.81A11.84,11.84,0,0,1,368.76,411.21Zm-3-10.6a4.47,4.47,0,0,0,1.77-.42,8,8,0,0,0,1.78-1.07,7.49,7.49,0,0,0,1.39-1.42,2.53,2.53,0,0,0,.56-1.49,3.35,3.35,0,0,0-.37-1.67,1.07,1.07,0,0,0-.91-0.65,3.53,3.53,0,0,0-1.66.36,3.6,3.6,0,0,0-1.15.94,4.85,4.85,0,0,0-.74,1.31A8.9,8.9,0,0,0,366,398a11.19,11.19,0,0,0-.19,1.44Q365.76,400.11,365.76,400.61Z" fill="#fff"/>
    <path d="M388.09,407.2a17.68,17.68,0,0,0,4.15-.45,15.68,15.68,0,0,0,3.4-1.22,14.31,14.31,0,0,0,2.75-1.79,18,18,0,0,0,2.22-2.2l0.25,5.17a11.79,11.79,0,0,1-1.75,1.7,13,13,0,0,1-2.24,1.44,13.65,13.65,0,0,1-2.56,1,9.89,9.89,0,0,1-2.65.37,2.16,2.16,0,0,1-.39,0l-0.82-.16-1.68-.3q-1.09-.19-3-0.46v0.41a37.18,37.18,0,0,1-.69,7.46,24.36,24.36,0,0,1-1.84,5.72,11.24,11.24,0,0,1-2.64,3.65,4.69,4.69,0,0,1-3.09,1.29,3.52,3.52,0,0,1-2.14-.63,4.42,4.42,0,0,1-1.36-1.7,8.94,8.94,0,0,1-.72-2.5,20.57,20.57,0,0,1-.21-3,8.63,8.63,0,0,1,.29-2.09,20.82,20.82,0,0,1,.79-2.44q0.5-1.27,1.12-2.59t1.27-2.56q1.53-2.89,3.5-6l0.51-3.61q0.26-1.85.65-3.59a24,24,0,0,1,1-3.29,9.84,9.84,0,0,1,1.53-2.71,7,7,0,0,1,2.24-1.83,6.8,6.8,0,0,1,3.16-.68,8.62,8.62,0,0,1,2.57.37,5.43,5.43,0,0,1,2.1,1.21,5.74,5.74,0,0,1,1.42,2.15,8.88,8.88,0,0,1,.52,3.24,9.82,9.82,0,0,1-.45,3,9.4,9.4,0,0,1-1.41,2.74,12.28,12.28,0,0,1-2.44,2.45,17.12,17.12,0,0,1-3.51,2Zm-10.69,14a3.49,3.49,0,0,0,.08.59,3.74,3.74,0,0,0,.26.81,2.61,2.61,0,0,0,.47.72,0.94,0.94,0,0,0,.72.32,0.73,0.73,0,0,0,.63-0.42,3.89,3.89,0,0,0,.41-1.12,11.08,11.08,0,0,0,.23-1.58q0.07-.88.11-1.8t0.06-1.8q0-.88.06-1.58,0.07-1.22.1-2.06l0.06-1.41c0-.42,0-0.77,0-1.06a14.82,14.82,0,0,0-.83,1.73q-0.41,1-.77,2t-0.65,2.12q-0.29,1.06-.51,2t-0.34,1.58A6,6,0,0,0,377.4,421.16Zm7.85-16.24a11.61,11.61,0,0,0,2.33-1.51,11.08,11.08,0,0,0,1.69-1.78,10.13,10.13,0,0,0,1.16-2,13.07,13.07,0,0,0,.72-2.08,6.86,6.86,0,0,0,.15-1.16,3.8,3.8,0,0,0-.14-1.25,2.3,2.3,0,0,0-.59-1,1.57,1.57,0,0,0-1.16-.42,2.42,2.42,0,0,0-1.47.46,4.07,4.07,0,0,0-1.09,1.25,8,8,0,0,0-.77,1.87,19.61,19.61,0,0,0-.5,2.32q-0.19,1.24-.27,2.58T385.25,404.92Z" fill="#fff"/>
    <path d="M403.18,411.21a3.14,3.14,0,0,1-2.27-1.07,9.36,9.36,0,0,1-1.83-2.88,19.56,19.56,0,0,1-1.22-4.18,27.44,27.44,0,0,1-.44-5,35.46,35.46,0,0,1,.29-4.36q0.29-2.36.86-4.86t1.34-5a51.28,51.28,0,0,1,1.76-4.85,41,41,0,0,1,2.13-4.34,23.6,23.6,0,0,1,2.41-3.52,11.33,11.33,0,0,1,2.64-2.36,5.24,5.24,0,0,1,2.8-.86,2.74,2.74,0,0,1,1.6.44,3.05,3.05,0,0,1,1,1.16,5.64,5.64,0,0,1,.51,1.64,11.74,11.74,0,0,1,.15,1.86,20.09,20.09,0,0,1-.48,4.32,33.59,33.59,0,0,1-1.31,4.42q-0.82,2.22-1.91,4.46T409,390.63q-1.17,2.2-2.36,4.33t-2.22,4.16a5,5,0,0,0-.24.59q-0.12.36-.24,0.78c-0.08.28-.15,0.58-0.23,0.89s-0.14.62-.18,0.92v0.32a5.17,5.17,0,0,0,.12,1.14,6.19,6.19,0,0,0,.3,1,3,3,0,0,0,.38.7,0.54,0.54,0,0,0,.38.26,3.22,3.22,0,0,0,1-.18,9,9,0,0,0,1.17-.49q0.62-.3,1.27-0.7t1.26-.8q1.42-.95,3-2.19l1.85,4.74a46.32,46.32,0,0,1-4,2.57q-0.86.47-1.77,0.94t-1.84.82a14.4,14.4,0,0,1-1.8.58A7,7,0,0,1,403.18,411.21Zm0-18q1-1.8,2.15-4.06t2.15-4.65q1-2.39,1.76-4.77a22.33,22.33,0,0,0,.95-4.43q0-.65,0-1.12c0-.31-0.09-0.46-0.21-0.46a2,2,0,0,0-1.41.85,11.39,11.39,0,0,0-1.51,2.29,26.82,26.82,0,0,0-1.44,3.36q-0.69,1.92-1.23,4.08a42.07,42.07,0,0,0-.86,4.46A32.54,32.54,0,0,0,403.2,393.17Z" fill="#fff"/>
    <path d="M434.72,405.69a21.14,21.14,0,0,1-1.39,1.69,16.83,16.83,0,0,1-2,1.85,12.18,12.18,0,0,1-2.32,1.49,5.59,5.59,0,0,1-2.48.61,3.43,3.43,0,0,1-2.48-1,7.82,7.82,0,0,1-1.71-2.79,11.09,11.09,0,0,1-1.33,1.29,11.94,11.94,0,0,1-1.73,1.18,11.08,11.08,0,0,1-2,.87,6.39,6.39,0,0,1-2,.34,5.3,5.3,0,0,1-2.11-.44,5.47,5.47,0,0,1-1.82-1.26,6.16,6.16,0,0,1-1.26-2,7.14,7.14,0,0,1-.47-2.67,13.48,13.48,0,0,1,.47-3.47,19,19,0,0,1,1.31-3.49,20,20,0,0,1,2-3.21,15.8,15.8,0,0,1,2.49-2.64,12.16,12.16,0,0,1,2.85-1.79,7.47,7.47,0,0,1,3.06-.67,1.42,1.42,0,0,1,.81.2,2.06,2.06,0,0,1,.48.46l0.37,0.51a1.06,1.06,0,0,0,.45.36,2.09,2.09,0,0,0,.55.15,4.88,4.88,0,0,0,.58,0h1a2.79,2.79,0,0,1,.63.07,1.07,1.07,0,0,1,.52.29,1.51,1.51,0,0,1,.35.63,4,4,0,0,1,.12,1.11,14.36,14.36,0,0,1-.22,2.4q-0.23,1.32-.5,2.71t-0.5,2.77a16.41,16.41,0,0,0-.23,2.63,5.68,5.68,0,0,0,.19,1.66,0.79,0.79,0,0,0,.82.6,2.38,2.38,0,0,0,1-.24,6.19,6.19,0,0,0,1-.62,12,12,0,0,0,1.06-.87q0.53-.48,1-1a34.74,34.74,0,0,0,2.23-2.75Zm-19.27-1.78a7.4,7.4,0,0,0,.08,1.09,3.21,3.21,0,0,0,.28.95,1.86,1.86,0,0,0,.54.68,1.37,1.37,0,0,0,.86.26,2,2,0,0,0,1.51-.72,7,7,0,0,0,1.17-1.74,12.35,12.35,0,0,0,.8-2.1,13.08,13.08,0,0,0,.39-1.8l1.38-6.63a3.83,3.83,0,0,0-1.8.46A6.76,6.76,0,0,0,419,395.6a11.26,11.26,0,0,0-1.43,1.8,14,14,0,0,0-1.13,2.13,13.53,13.53,0,0,0-.73,2.24A9.44,9.44,0,0,0,415.45,403.9Z" fill="#fff"/>
    <path d="M443.6,393.89a3.51,3.51,0,0,1,.64-1.36,4.63,4.63,0,0,1,1.06-1,4.7,4.7,0,0,1,1.25-.61,4.19,4.19,0,0,1,1.24-.2,2.13,2.13,0,0,1,1.17.3,1.05,1.05,0,0,1,.47,1,2,2,0,0,1-.07.47q-0.13.59-.34,1.6t-0.44,2.3q-0.24,1.29-.48,2.72t-0.47,2.85q-0.57,3.34-1.15,7.17a16.67,16.67,0,0,0,1.47-.95,15.37,15.37,0,0,0,1.76-1.51q1-.95,2.17-2.38t2.68-3.58l1.08,5a9.18,9.18,0,0,1-1,1.43q-0.64.73-1.42,1.47T451.56,410q-0.85.69-1.66,1.3-1.92,1.44-4.13,2.8-0.43,2.41-1,4.7a34.57,34.57,0,0,1-1.39,4.29,24.16,24.16,0,0,1-1.83,3.67,13.46,13.46,0,0,1-2.32,2.86,9.8,9.8,0,0,1-2.9,1.86,9.15,9.15,0,0,1-3.54.67,9.61,9.61,0,0,1-1.66-.16,4.59,4.59,0,0,1-1.65-.63,3.7,3.7,0,0,1-1.25-1.35,4.77,4.77,0,0,1-.5-2.35,6.17,6.17,0,0,1,.52-2.29,16.7,16.7,0,0,1,1.42-2.68,32,32,0,0,1,2.14-2.93q1.24-1.52,2.7-3t3-3q1.59-1.47,3.21-2.8l0.61-2.1a11.88,11.88,0,0,1-2.54,1.75,5.68,5.68,0,0,1-2.56.67,5.3,5.3,0,0,1-2.11-.44,5.49,5.49,0,0,1-1.82-1.26,6.18,6.18,0,0,1-1.26-2,7.15,7.15,0,0,1-.47-2.67,31.31,31.31,0,0,1,.19-3.61,25.84,25.84,0,0,1,.55-3.14,22.32,22.32,0,0,1,.9-2.88q0.54-1.39,1.24-2.81A3.56,3.56,0,0,1,435,390.9a3.93,3.93,0,0,1,1.89-.53,2.3,2.3,0,0,1,1.35.4,1.4,1.4,0,0,1,.56,1.23,2.92,2.92,0,0,1-.06.54,3.48,3.48,0,0,1-.19.63q-0.41,1-.8,2.45t-0.7,2.89q-0.3,1.48-.48,2.9a20,20,0,0,0-.18,2.5,7.4,7.4,0,0,0,.08,1.09,3.24,3.24,0,0,0,.28.95,1.87,1.87,0,0,0,.54.68,1.37,1.37,0,0,0,.86.26,2,2,0,0,0,1.51-.72,7,7,0,0,0,1.17-1.74,12.43,12.43,0,0,0,.8-2.1,12.94,12.94,0,0,0,.39-1.8ZM433,427.81a3.22,3.22,0,0,0,1.79-.55,6.56,6.56,0,0,0,1.56-1.46,12.46,12.46,0,0,0,1.3-2.05,22.68,22.68,0,0,0,1-2.36q0.45-1.21.77-2.36T440,417a16.47,16.47,0,0,0-1.79,1.4q-0.91.81-1.78,1.75t-1.65,1.93q-0.78,1-1.36,1.91a11.71,11.71,0,0,0-.92,1.7,3.49,3.49,0,0,0-.34,1.31A0.77,0.77,0,0,0,433,427.81Z" fill="#fff"/>
  </g>

</svg>
