<svg id="svg-clouds" xmlns="http://www.w3.org/2000/svg" viewBox="0 0 800 800">

<!--CLOUDS | SPEEDLINES-->

<g class="cloudGroup">
	<path class="cloud" fill="#FFFFFF" d="M27.7,214.9c-0.6,1.8-1.4,3.5-1.6,5.3c-0.7,4.8-1,9.7-1.8,14.4c-0.5,2.9-1.6,5.7-2.4,8.5
		c-0.3,1.1-0.9,1.3-2.1,1c-3.8-1.2-4.6-4.5-5.4-7.6c-1.2-4.7-1.6-9.4-1.8-14.3c-0.3-10.2,1.1-20.3,0.8-30.4
		c-0.1-3.2-0.2-6.3-0.5-9.4c-0.1-0.8-0.7-1.5-1.1-2.3c-0.2-0.3-0.4-0.6-0.5-1c-0.2-2.2-0.3-4.4-0.3-6.7c-0.1-3.1,0-6.3-0.1-9.4
		c0-0.2-0.2-0.4-0.4-0.9c-1,0.5-2.1,0.8-2.9,1.4c-1.6,1.1-2.8,1-3.9-0.6c-2.5-3.8-3.5-8-3.6-12.5c-0.3-9.1,1-18.1,2.2-27.1
		c1-7.5,2.4-14.9,3.7-22.4c0.2-1.2,0.9-2.3,1.2-3.5c0.8-2.4,1.7-4.8,2.1-7.2c1.2-7.5,2.5-15.1,3.2-22.6c1-9.4,1.4-18.9,2.2-28.4
		c0.2-2.2,1-4.5,0.8-6.6c-0.4-3.7,2.2-6.4,2.5-9.8c0.4-3.4,1.4-6.8,2.1-10.2C20.8,9.3,21.3,6,22,2.7c0.2-0.9,0.7-1.8,1-2.7
		c0.2,0,0.5,0.1,0.7,0.1c0.1,0.9,0.2,1.7,0.3,2.6c0.5,4.9,0.9,9.9,1.4,14.8c0.2,1.8,0.6,3.6,0.7,5.3c0.1,2,0.1,4.1,0.2,6.1
		c0.1,2.4,0.6,2.8,2.8,2.2c2-0.5,3.8,0,4.8,1.7c1.3,2.1,2.6,4.3,3.1,6.6c1.6,7.3,1.9,14.7,1,22.2c-1.3,11.1-2.1,22.2-2.9,33.4
		c-0.2,2.5,0.2,5.1,0.3,7.8c1.8,0.2,2.5,1.5,2.8,3.2c0.5,3.5,1.2,7,1.4,10.5c0.2,3.4,2.1,4.7,5.2,3.3c2.8-1.3,6.4,0.3,7.4,3.7
		c0.8,2.8,1.4,5.8,1.6,8.7c0.2,3.1,0,6.2-0.3,9.3c-0.7,7.1-1.7,14.2-2.4,21.3c-0.2,1.6,0.2,3.2,0.4,4.7c0.2,1.5,0.7,3,0.6,4.4
		c-0.8,8.7-1.8,17.3-4.2,25.7c-0.1,0.2-0.1,0.5-0.2,0.7c-0.8,2.4-1.2,4.8-1.3,7.4c-0.3,6.4-1.4,12.8-2.3,19.2c-0.1,1-0.6,2-0.9,3
		c-1.3,3.4-4.2,3.9-6.7,1.2c-2.2-2.3-3.3-5-4.3-7.9c-0.7-2.2-2-4.2-3-6.2C28.4,214.9,28,214.9,27.7,214.9z"/>
	<path class="cloud" fill="#FFFFFF" d="M104.2,0c0,1.7,0,3.4,0,5c0.5,11.7,1.1,23.3,1.4,35c0.1,4.2,0.8,8.4-0.4,12.6
		c-0.9,3.5-1.6,7-2.4,10.5c-0.1,0.5-0.2,1.1-0.2,1.7c0.9,12,1.6,24,4.4,35.8c0.9,3.7,1,7.5,1.3,11.3c0.9,11.2,1.5,22.3,2.5,33.5
		c0.3,3.9,1.5,7.7,2.2,11.5c0.8,4.1,1.3,8.3,2.3,12.4c1,4.1,2.2,8.2,3.8,12.1c3.5,8.6,4.2,17.6,3.3,26.7c-0.8,7.5-1.5,15.1-2.6,22.6
		c-0.8,5.6-2,11.1-3.1,16.6c-0.1,0.7-0.5,1.4-0.8,2.1c-0.9,1.5-3.6,1.5-4.3-0.2c-1-2.6-1.8-5.2-2.7-7.9c-1.6-4.9-3-9.8-4.7-14.7
		c-0.8-2.2-4.4-3.9-6.7-3.3c-0.6,0.2-1.4,1.1-1.5,1.8c-0.8,3.4-1.7,6.9-2,10.4c-0.6,6.8-2.7,13.2-4.4,19.8c-0.9,3.5-1.7,7-3.9,10
		c-1.5,2-3.3,3.5-5.7,4.2c-2,0.5-3.6-0.1-4.1-2.1c-1-4.2-2.2-8.4-2.6-12.7c-1-11.7-1.6-23.4-2.2-35.2c-0.1-1.9,0.4-3.9,0.6-5.9
		c0.1-0.9,0.3-1.8,0.2-2.8c-0.7-11.8-1.6-23.6-2-35.4c-0.2-4.9,0.4-9.9,1.1-14.8c0.5-3.9,3.9-5.1,7.1-2.7c1.6,1.2,3.2,2.6,4.8,3.9
		c1.1,0.9,1.7,0.6,2-0.8c1.1-5,1.2-10,0.8-15c-0.2-2.2,0.1-3.8,2.5-4.7c0.7-0.3,1.3-1.7,1.5-2.7c0.6-3.7,0.8-7.4,1.4-11.1
		c0.3-1.4,1.2-2.8,2.1-4c1-1.1,1.5-2.2,1.4-3.7c-1-11.1-2-22.1-3-33.2c-0.3-3.6,0.1-6.8,2.7-9.7c2-2.2,0.9-5.2,0.7-7.9
		c-0.2-2.2-0.6-4.4-0.9-6.6c-0.3-2.4,1.2-4.2,2-6.3c0.6-1.7,1.2-3.4,1.3-5.2c0.3-4.6,0.4-9.3,0.7-13.9c0.1-2.3,0.3-4.6,1.9-6.7
		c0.8-1.1,0.9-2.9,1.1-4.4c0.3-3.6,0.5-7.3,0.7-10.9c0.1-1.3,0.2-2.6,0.1-3.9C101,7,102.2,3.5,103.7,0C103.9,0,104.1,0,104.2,0z"/>
	<path class="cloud" fill="#FFFFFF" d="M405.2,118.6c0.6-8.4,2.1-16.7,4.3-24.9c0-0.1,0-0.1,0.1-0.2c0.2-1,0.2-2.4,0.8-2.9
		c0.5-0.4,1.9,0.1,2.9,0.2c2.5,0.3,4.5-1.5,4.7-3.9c0.6-5.7,1.6-11.3,2.2-17c1-11.1,1.6-22.2,2.7-33.3c0.7-6.6,2.1-13.2,2.9-19.8
		c0.6-5.2,0.8-10.4,1.3-15.6c0-0.4,0.5-0.8,0.7-1.2c0.3,0.3,0.6,0.6,0.9,1c0,0,0,0.1,0.1,0.2c0.9,9.4,3.2,18.5,3,28.1
		c-0.3,9.6,0.2,19.3,3.3,28.6c0.8,2.5,2.1,4.9,2.8,7.4c0.6,2.2,0.7,4.5,1.1,6.7c0.2,1.1,0.7,2.2,1.2,3.4c0.1,0.3,0.3,0.5,0.4,0.8
		c1.1,4,2.5,7.9,3.3,11.9c0.6,2.9,0.8,5.9,0.9,8.8c0.1,3.3-0.3,6.7-0.4,10c0,0.6,0.2,1.2,0.5,1.7c2,3.2,3.8,6.6,6.1,9.6
		c1.2,1.6,3.2,2.6,4.9,3.8c1,0.6,2.1,0.9,3.2,1.4c1.1,0.5,1.7,1.4,1.5,2.7c-0.8,5.6-1.6,11.3-2.5,16.9c-0.3,1.9-0.9,3.8-1.3,5.8
		c-0.2,1.1-0.7,1.4-1.7,1.3c-2.8-0.2-5,1.6-5.4,4.4c-0.7,4.7-1.4,9.4-1.9,14.2c-2,18.9-3.8,37.8-6.1,56.7
		c-0.8,6.9-2.4,13.7-4.1,20.4c-0.7,2.7-2.4,5.3-4,7.7c-1.1,1.6-3.6,1.4-4.8-0.2c-2.9-3.8-3.9-8.2-3.9-12.8c0-9.1,0.8-18.1,0-27.2
		c-0.5-6-1.7-11.8-3.1-17.6c-0.1-0.5-0.7-1.2-1-1.2c-1.4-0.1-1.6-0.9-1.9-2.1c-1.4-6.1-0.5-12.2-0.2-18.3c0.5-9.7,1.8-19.4-0.5-29.1
		c-0.4-1.8-1-3.6-1.6-5.3c-0.4-1.1-3.1-1.4-4.9-0.8c-1.2,0.4-2.5,0.8-3.7,0.6c-0.8-0.1-1.9-1.2-2-1.9c-0.6-3.8-1-7.6-1.2-11.4
		C404.4,123.6,404.9,121.1,405.2,118.6z"/>
	<path class="cloud" fill="#FFFFFF" d="M644.7,0c0.1,0.5,0.2,1,0.2,1.5c0.4,16.2,0.8,32.4,1.2,48.7c0.1,5.1,0.4,10.3,0.4,15.4
		c-0.1,6.1-0.6,12.2-0.9,18.3c0,0.6-0.2,1.2,0,1.7c1.7,3.5,1,7.3,1.1,11c0.3,7.1,0.3,14.2,0.6,21.2c0.2,3.7,1,7.3,4,10
		c2.5,2.3,2.5,5.3,2.1,8.3c-0.1,1-1.3,2.1-2.2,2.8c-1.2,1-1.9,2.1-2.1,3.7c-0.2,1.5-0.8,3.1-1.5,4.5c-2.2,4.7-4.1,9.4-3.9,14.8
		c0.3,10,0.5,20,0.8,30c0,1.5,0.2,2.4,2.1,2.4c2,0,3.1,1.6,4,3.4c2.2,4.6,2.8,9.4,2.7,14.4c-0.1,5,0.2,9.9,1.8,14.7
		c0.9,2.5,2.3,4.4,4.4,6c0.7,0.5,1.4,1.6,1.4,2.5c0.3,6.8,0.6,13.6,0.5,20.3c-0.1,3.8-1.1,7.5-1.7,11.3c0,0.3-0.1,0.6-0.2,0.9
		c-0.2,6.1-0.5,12.2-0.7,18.3c-0.3,12.1-1.1,24.1-0.7,36.3c0.1,4.7-1.7,9.4-2.6,14.1c-0.5,2.8-0.9,5.7-1.5,8.5
		c-0.6,2.4-1.3,4.7-2.3,7c-0.3,0.8-1.7,1.5-2.6,1.5c-1.4,0-1.2-1.4-1.3-2.4c-0.9-34-1.8-68-2.6-101.9c0-0.6,0-1.2-0.1-2
		c-2.2,0.9-4.5,1.1-6,3.1c-0.8,1-2.3,1.5-3.1,2.6c-1.6,1.8-3,3.7-4.3,5.8c-1.9,3.1-4.5,4.1-7.4,2.5c-0.6-0.4-1.2-1.3-1.3-2
		c-0.3-10.6-0.8-21.1-0.8-31.7c0.1-6.6,1.1-13.3,1.5-19.9c0.2-2.8-0.1-5.6,0.3-8.3c1.2-8,0-16,0.1-23.9c0-2.9-0.1-5.8-0.2-8.8
		c-0.1-2-0.7-2.6-2.7-2.6c-1.6,0-3.2,0-4.8,0.1c-1.3,0-1.9-0.5-1.9-1.9c0-2.4-0.5-4.9-0.1-7.2c0.6-2.9,2-5.6,3-8.4
		c0.8-2.2,1.8-4.3,2.4-6.5c1.1-4.2,1.1-8.4,0.9-12.7c0-1,0.7-2.2,1.2-3.2c0.7-1.4,1.4-2.8,2.3-4.1c0.8-1.2,1.7-2.6,2.9-3.2
		c3.2-1.7,5.2-4.5,7.6-7c1.9-2,2.5-4.4,2.9-7c1-6.2,2.4-12.4,3-18.7c0.6-5.7,0.3-11.5,0.5-17.3c0.1-2,0.8-3.9,0.8-5.8
		c0.1-3.5-0.3-7-0.1-10.4c0.1-3.6,0.6-7.1,0.8-10.7c0.3-4.3,0.5-8.5,0.6-12.8c0.1-4.1-0.2-8.2-0.1-12.3c0.1-4.9,0.4-9.7,0.6-14.6
		C644.2,0,644.4,0,644.7,0z"/>
	<path class="cloud" fill="#FFFFFF" d="M369.8,81.6c-0.3,4.4-0.6,8.1-0.9,11.8c-0.5,5.4-1.6,10.7-1.1,16.1c0.3,3.3,1.1,6.5,1,9.7
		c-0.1,2.8-1,5.7-1.9,8.4c-0.6,2-2,2.4-4,2c-3-0.7-5.1-3-5.6-6c-0.9-5.7-1.7-11.4-2.6-17c-0.2-1.2-0.5-2-2-2c-0.7,0-1.6-0.9-2.1-1.6
		c-0.5-0.7-0.7-1.8-0.7-2.7c-0.2-7.3-0.9-14.7-0.2-21.9c0.5-4.8,1.4-9.9,4.1-14.3c0.7-1.2,1.1-2.7,1.2-4.1c0.4-4.2,3.3-5.8,6.7-7.1
		c1.4-0.5,2.9-1.1,4.3-1.7c4.5-1.7,5.9-5.3,6-9.8c0.1-4.3,0.1-8.6,0.3-12.8c0.3-4.7,0.9-9.4,2-14.1c0.8-3.4,0.4-7.2,0.5-10.7
		c0-1.2,0-2.4,0-3.7c0.2,0,0.3,0,0.5,0c0,0.7,0,1.3,0,2c0,8.3,0.1,16.7,0,25c-0.1,5.7,0.5,11.2,2.4,16.6c1.1,3.1,1.5,6.2,1.4,9.5
		c-0.3,9.5-0.4,19-0.7,28.4c0,1.1-0.5,2.8-1.2,3c-0.9,0.3-2.2-0.4-3.3-0.9C372.3,83.1,371.2,82.3,369.8,81.6z"/>
	<path class="cloud" fill="#FFFFFF" d="M753,128.1c1.1,2.6,2.5,2.4,3.9,1.2c0.4-0.3,0.7-1.1,0.6-1.6c-1-4.7-0.7-9.3,0.1-14
		c0.7-4.2,0.7-8.6,1.1-12.9c0.4-3.6,0.9-7.2,1.4-10.8c0.7-4.5,1.7-9,2.3-13.5c0.3-2.5-0.1-5.1-0.1-7.6c0-2.4,0-4.9,0-7.3
		c0-0.8,0-1.6,0-2.4c0-0.4-0.2-1,0-1.3c2.1-2.9,0.7-6.2,1.1-9.2c0.4-3,0.5-6,0.9-9c0.2-1.4,1-2.7,1.1-4c0.2-3.3-0.1-6.6,0.1-9.9
		c0.1-2.3,0.8-4.5,1-6.8c0.3-4.2,0.4-8.5,0.3-12.7c0-1.7-0.5-3.4,0.4-5c0.2-0.3,0.4-0.6,0.9-1.2c0.1,0.9,0.2,1.3,0.2,1.8
		c0.1,3,0.3,6,0.3,9c0.1,4.2,0,8.5,0,12.7c0,0.6,0.1,1.1,0.1,1.7c0.4,3.1,0.9,6.2,1.1,9.3c0.2,2.4-0.1,4.8,0,7.1
		c0,1.8,0.3,3.7,0.5,5.5c0,0.4,0.1,0.7,0.1,1.1c-0.2,3.2-0.4,6.5-0.6,9.7c0,0.3,0.1,0.7,0.3,0.8c1.7,1,1.4,2.8,1.6,4.3
		c0.5,5.3,0.8,10.5,1.3,15.8c0.4,4.3,1.1,8.5,1.7,12.7c2.7,0.2,2.6,0.2,3,3c0.4,3.1,1.3,6,1.8,9.1c0.2,1.3,0.7,1.3,1.8,0.8
		c1.5-0.6,3-1,4.6-1.4c2.1-0.4,2.6,0,2.7,2.1c0.1,3,0.3,6.1,0,9.1c-0.8,7.9,0,15.7,0.7,23.6c0.4,4.5,1,9,0.9,13.6
		c-0.1,5.9-0.7,11.9-1.4,17.8c-0.9,7.5-2.2,15-3,22.6c-0.3,2.9,0,5.9-0.1,8.9c-0.1,6.2,0.1,12.4-1.5,18.4c-0.3,1.1-0.7,2-1.9,2.1
		c-1.5,0.1-3.1,0.7-4.3-0.9c-0.3-0.4-0.5-0.9-0.8-1.2c-1.5-1.6-3-1.5-3.8,0.4c-2.1,5.3-4.1,10.7-6.1,16.1c-0.5,1.2-0.2,2.9-1.9,3.2
		c-1.6,0.4-4.1-0.9-4.8-2.6c-0.7-1.8-1.2-3.8-1.6-5.7c-1.9-8.3-1.7-16.7-0.6-25.1c0.6-4.5-0.5-8.6-1.5-12.8
		c-0.2-0.8-0.4-1.5-0.7-2.3c-0.4-1.3-1.2-2.1-2.8-1.7c-1.4,0.3-2-0.8-2.3-1.9c-1.3-4.8-1.4-9.8-1-14.7c0.5-5.8,1.2-11.7,1.5-17.5
		c0.2-3.9-0.3-7.8-0.1-11.7c0.2-4.3,0.7-8.6,1.1-12.9C752.3,129.5,752.6,129.1,753,128.1z"/>

        <circle id="single-star" fill="#FFFFFF" cx="801.6" cy="205.4" r="1.6"/>
    <g id="speedline">
        <line fill="none" stroke="#FFFFFF" stroke-linecap="round" stroke-miterlimit="10" x1="1006.5" y1="0.5" x2="807" y2="200"/>
        <circle fill="#FFFFFF" cx="804" cy="203" r="1.6"/>
    </g>

    </g>

</svg>
