<svg id="svg-clouds" xmlns="http://www.w3.org/2000/svg" viewBox="0 0 800 800">
  <title>svg-clouds</title>
  <g id="cloudGroup01">
    <path id="cloud-12" d="M65-464.72c-0.85,3.32-2.08,6.58-2.49,10-1.09,9-1.56,18.08-2.79,27-0.75,5.44-2.42,10.69-3.72,16-0.49,2-1.31,2.49-3.2,1.78-5.88-2.19-7.07-8.45-8.31-14.29C42.59-432.95,42-441.87,41.78-451c-0.52-19.08,1.62-38,1.3-57q-0.15-8.86-.76-17.69c-0.1-1.45-1.05-2.81-1.62-4.22a6.44,6.44,0,0,1-.71-1.84c-0.23-4.16-.46-8.32-0.53-12.49-0.1-5.88,0-11.77-.09-17.65a7.28,7.28,0,0,0-.67-1.76A33.47,33.47,0,0,0,34.19-561c-2.46,2-4.29,1.88-6-1.21-3.81-7.08-5.29-15-5.53-23.41-0.48-17.07,1.5-33.89,3.36-50.69,1.55-14,3.71-27.95,5.71-41.89,0.32-2.24,1.32-4.33,1.89-6.54,1.15-4.5,2.64-8.95,3.25-13.56,1.87-14.09,3.77-28.21,4.94-42.4,1.46-17.68,2.18-35.46,3.31-53.19,0.27-4.16,1.57-8.36,1.24-12.4-0.56-6.88,3.31-12,3.85-18.44s2.19-12.67,3.23-19c1-6.14,1.77-12.34,2.77-18.49a39.4,39.4,0,0,1,1.51-5.09l1,0.25c0.13,1.62.27,3.24,0.39,4.87,0.7,9.24,1.38,18.48,2.12,27.71,0.27,3.35.85,6.66,1,10,0.22,3.81.13,7.64,0.23,11.45,0.12,4.51.91,5.25,4.26,4.18a5.71,5.71,0,0,1,7.3,3.1c2,3.88,4,8.06,4.79,12.44a154.18,154.18,0,0,1,1.56,41.56C78.57-731,77.34-710.12,76-689.25c-0.3,4.7.26,9.48,0.43,14.54,2.68,0.42,3.83,2.9,4.21,5.92,0.83,6.52,1.8,13,2.17,19.61,0.36,6.33,3.25,8.87,7.91,6.19,4.23-2.43,9.78.62,11.27,6.89a94.12,94.12,0,0,1,2.43,16.37,124.49,124.49,0,0,1-.43,17.38c-1.12,13.32-2.61,26.6-3.75,39.92-0.25,2.91.29,5.93,0.56,8.88,0.26,2.75,1.1,5.54.9,8.22C100.51-529.13,99-513,95.31-497.23c-0.1.45-.2,0.89-0.32,1.34a63.79,63.79,0,0,0-2,13.83c-0.53,12.06-2.2,24-3.51,36a31.43,31.43,0,0,1-1.43,5.64c-2,6.45-6.38,7.3-10.32,2.19-3.29-4.27-5.11-9.31-6.51-14.87-1-4.09-3.05-7.81-4.63-11.69Z" transform="translate(0 867.36)" fill="#fff"/>
    <path id="cloud-11" d="M190.29-867.36c0,3.15,0,6.31.08,9.46,0.72,21.85,1.61,43.7,2.15,65.55,0.19,7.84,1.18,15.74-.55,23.58-1.43,6.48-2.5,13.08-3.7,19.63A13.09,13.09,0,0,0,188-746c1.4,22.47,2.47,45,6.68,67.05,1.3,6.84,1.47,14,1.92,21.09,1.33,20.89,2.35,41.81,3.88,62.68,0.53,7.24,2.26,14.34,3.35,21.53,1.17,7.75,1.93,15.63,3.44,23.27A194.84,194.84,0,0,0,213-527.8c5.31,16.2,6.47,32.91,5,50-1.2,14.11-2.35,28.23-4,42.27-1.2,10.45-3.08,20.79-4.72,31.16a13.54,13.54,0,0,1-1.29,3.86,3.49,3.49,0,0,1-6.51-.32c-1.57-4.8-2.79-9.78-4.09-14.71-2.42-9.17-4.64-18.42-7.26-27.5-1.2-4.15-6.74-7.31-10.28-6.17a4.86,4.86,0,0,0-2.37,3.28,180.55,180.55,0,0,0-3,19.52c-0.91,12.76-4.16,24.78-6.8,37-1.42,6.57-2.67,13.06-6,18.68-2.25,3.81-5,6.62-8.79,7.83-3.09,1-5.46-.2-6.21-4-1.56-7.89-3.42-15.82-4-23.86-1.47-21.93-2.39-43.92-3.36-65.9-0.16-3.65.55-7.36,0.85-11a40.58,40.58,0,0,0,.35-5.15c-1.06-22.09-2.47-44.16-3.13-66.27-0.28-9.21.68-18.54,1.64-27.72,0.75-7.22,6-9.47,10.82-5.06,2.5,2.29,4.84,4.85,7.28,7.26,1.69,1.67,2.61,1.18,3.08-1.48a114.91,114.91,0,0,0,1.21-28.1c-0.29-4.13.14-7.15,3.82-8.84,1.14-.52,2-3.27,2.24-5.14,0.87-6.88,1.19-13.88,2.2-20.72a18.47,18.47,0,0,1,3.22-7.41,9.86,9.86,0,0,0,2.08-6.85c-1.55-20.72-3-41.46-4.54-62.18-0.49-6.71.17-12.7,4.15-18.13,3.05-4.16,1.4-9.8,1-14.82-0.29-4.15-.85-8.28-1.31-12.42-0.51-4.52,1.87-7.9,3-11.79a45.92,45.92,0,0,0,2-9.71c0.53-8.69.62-17.41,1-26.11,0.2-4.37.51-8.6,2.89-12.47,1.29-2.09,1.4-5.47,1.61-8.32,0.52-6.81.81-13.66,1.14-20.49a45.84,45.84,0,0,0,.1-7.31c-0.83-7.31,1-13.91,3.21-20.45Z" transform="translate(0 867.36)" fill="#fff"/>
    <path id="cloud-10" d="M521.27-645.13a289.93,289.93,0,0,1,6.61-46.57c0-.11.07-0.22,0.09-0.33,0.37-1.91.28-4.46,1.26-5.51,0.77-.83,2.87.18,4.38,0.42,3.82,0.59,6.82-2.75,7.26-7.38,1-10.62,2.52-21.16,3.3-31.8,1.54-20.78,2.47-41.63,4.15-62.4,1-12.44,3.16-24.74,4.39-37.17,1-9.69,1.26-19.48,1.93-29.22a6.91,6.91,0,0,1,1.09-2.26c0.44,0.61.88,1.21,1.31,1.83a0.73,0.73,0,0,1,.08.33c1.35,17.53,4.91,34.65,4.52,52.59s0.25,36.19,5.06,53.6c1.29,4.68,3.23,9.12,4.32,13.86,0.94,4.07,1,8.44,1.66,12.62a48.7,48.7,0,0,0,1.77,6.28c0.16,0.52.52,1,.64,1.5,1.75,7.43,3.77,14.78,5.11,22.32a104.54,104.54,0,0,1,1.36,16.51c0.1,6.25-.42,12.52-0.55,18.79a7.3,7.3,0,0,0,.82,3.22c3,6,5.86,12.3,9.36,17.91,1.86,3,4.89,4.94,7.54,7.08,1.47,1.19,3.28,1.74,4.89,2.69a4.78,4.78,0,0,1,2.29,5.09c-1.28,10.55-2.52,21.11-3.89,31.64-0.48,3.65-1.44,7.2-1.92,10.85-0.28,2.15-1,2.64-2.67,2.5-4.21-.34-7.67,3.06-8.29,8.29-1,8.85-2.11,17.7-2.89,26.59-3.11,35.41-5.87,70.87-9.31,106.23a368,368,0,0,1-6.26,38.17c-1,5.1-3.61,9.89-6.07,14.34-1.64,3-5.57,2.59-7.41-.37-4.39-7.06-6-15.33-6-24,0-17,1.18-34,0-51a256.51,256.51,0,0,0-4.78-33c-0.18-.89-1-2.2-1.6-2.26-2.1-.21-2.52-1.69-2.92-3.86-2.08-11.44-.84-22.85-0.35-34.33,0.77-18.15,2.69-36.37-.7-54.44-0.63-3.38-1.52-6.71-2.45-10-0.57-2-4.73-2.62-7.53-1.58-1.86.69-3.88,1.51-5.72,1.21-1.18-.19-2.9-2.18-3.08-3.6-0.87-7.08-1.57-14.23-1.79-21.39C520.14-635.84,520.91-640.5,521.27-645.13Z" transform="translate(0 867.36)" fill="#fff"/>
    <path id="cloud-09" d="M704-867.36c0.11,0.94.29,1.87,0.31,2.81q0.95,45.58,1.87,91.16c0.2,9.62.68,19.25,0.54,28.86-0.17,11.45-.86,22.89-1.32,34.34a8.58,8.58,0,0,0,.06,3.11c2.59,6.63,1.5,13.73,1.75,20.61,0.48,13.26.46,26.55,0.94,39.81,0.25,7,1.52,13.69,6.08,18.77,3.81,4.24,3.78,10,3.17,15.54-0.21,1.94-1.92,3.88-3.3,5.33a10.69,10.69,0,0,0-3.2,6.94,31.89,31.89,0,0,1-2.26,8.44c-3.43,8.77-6.25,17.66-6,27.66q0.7,28.11,1.17,56.23c0,2.79.25,4.48,3.19,4.54,3.13,0.05,4.8,3,6.13,6.36,3.4,8.57,4.26,17.61,4.12,27s0.24,18.49,2.72,27.46a21.94,21.94,0,0,0,6.76,11.2,7.53,7.53,0,0,1,2.13,4.73c0.43,12.68,1,25.38.75,38.06-0.13,7.08-1.65,14.11-2.55,21.17-0.07.57-.22,1.13-0.24,1.7-0.36,11.46-.77,22.91-1,34.37-0.52,22.63-1.61,45.23-1.09,67.93,0.2,8.75-2.6,17.59-4,26.41-0.83,5.31-1.34,10.71-2.35,16a83.47,83.47,0,0,1-3.51,13,5.07,5.07,0,0,1-4,2.74c-2.13,0-1.9-2.58-1.94-4.57q-2-95.49-4-191l-0.08-3.82c-3.39,1.6-6.85,2-9.22,5.76-1.23,1.94-3.45,2.9-4.77,4.78a84.89,84.89,0,0,0-6.53,10.82c-2.87,5.78-6.91,7.74-11.26,4.61a5.51,5.51,0,0,1-1.93-3.66c-0.52-19.78-1.29-39.58-1.16-59.36,0.08-12.43,1.62-24.83,2.36-37.26,0.31-5.2-.19-10.51.44-15.62,1.85-15,0-29.91.13-44.85,0.06-5.47-.2-10.94-0.35-16.4-0.11-3.8-1-4.85-4.16-4.87-2.47,0-4.94.07-7.41,0.16-2,.08-2.9-0.95-2.88-3.52,0-4.54-.83-9.25-0.1-13.57,0.91-5.4,3.06-10.5,4.66-15.73,1.24-4.06,2.74-8,3.66-12.19,1.72-7.78,1.62-15.76,1.38-23.77-0.06-2,1-4,1.81-5.94a64,64,0,0,1,3.54-7.65c1.26-2.21,2.57-4.84,4.41-6,4.91-3.14,8-8.42,11.57-13.15,2.92-3.83,3.81-8.27,4.43-13.13,1.5-11.68,3.64-23.26,4.6-35,0.88-10.71.46-21.58,0.83-32.37,0.12-3.66,1.21-7.28,1.29-10.94,0.13-6.51-.4-13-0.23-19.54,0.17-6.7.94-13.37,1.29-20.07,0.42-8,.83-16,1-24,0.12-7.67-.27-15.36-0.15-23,0.13-9.1.57-18.19,0.87-27.28Z" transform="translate(0 867.36)" fill="#fff"/>
    <path id="cloud-07" d="M734.83-627.4c1.71,4.82,3.81,4.44,5.95,2.24a4.17,4.17,0,0,0,.92-3c-1.54-8.79-1.14-17.42.14-26.26,1.14-7.92,1-16.1,1.66-24.14,0.55-6.78,1.33-13.54,2.2-20.27,1.09-8.43,2.65-16.79,3.5-25.25,0.47-4.66-.15-9.48-0.22-14.23-0.06-4.56,0-9.13,0-13.7,0-1.47,0-2.95-.07-4.42,0-.81-0.36-1.89-0.06-2.4,3.2-5.38,1-11.55,1.75-17.28s0.83-11.29,1.45-16.9c0.28-2.57,1.53-5,1.64-7.57,0.26-6.16-.08-12.37.2-18.53,0.19-4.24,1.29-8.41,1.5-12.65,0.4-7.94.68-15.92,0.52-23.87-0.07-3.24-.77-6.39.55-9.46a26.85,26.85,0,0,1,1.36-2.31c0.15,1.63.26,2.46,0.29,3.29,0.18,5.6.43,11.19,0.49,16.79,0.08,7.93,0,15.86,0,23.79,0,1,.11,2.08.21,3.12,0.57,5.79,1.34,11.57,1.67,17.38,0.25,4.44-.15,8.92-0.06,13.38,0.07,3.45.45,6.88,0.7,10.32a17.05,17.05,0,0,1,.17,2c-0.28,6.08-.61,12.15-0.88,18.23a2.29,2.29,0,0,0,.41,1.55c2.58,1.93,2.2,5.27,2.42,8.11,0.79,9.85,1.2,19.74,2,29.59,0.66,8,1.69,15.91,2.56,23.84,4.14,0.37,3.91.44,4.51,5.65,0.66,5.71,1.92,11.32,2.77,17,0.36,2.39,1.06,2.4,2.71,1.58a35.24,35.24,0,0,1,7-2.55c3.14-.8,4,0,4.16,4a156.72,156.72,0,0,1,0,17.07c-1.16,14.81.06,29.5,1,44.21,0.56,8.46,1.55,16.94,1.41,25.39-0.19,11.1-1,22.22-2.07,33.26-1.33,14.14-3.3,28.19-4.64,42.33-0.52,5.5,0,11.14-.11,16.71-0.21,11.57.22,23.19-2.31,34.55-0.48,2.13-1,3.83-3,4-2.28.16-4.8,1.32-6.55-1.7a23.16,23.16,0,0,0-1.29-2.27c-2.23-3-4.55-2.86-5.76.83-3.28,10-6.29,20.09-9.31,30.19-0.69,2.31-.34,5.35-3,6.09-2.41.67-6.25-1.63-7.32-4.81a78.76,78.76,0,0,1-2.51-10.64c-2.89-15.59-2.53-31.33-.91-47,0.86-8.37-.79-16.13-2.31-24-0.28-1.46-.68-2.89-1.05-4.32-0.66-2.52-1.86-3.84-4.23-3.27-2.19.53-3.06-1.45-3.54-3.57-2-9.07-2.2-18.3-1.52-27.61,0.8-11,1.77-21.9,2.23-32.88,0.31-7.28-.42-14.62-0.19-21.91,0.26-8.09,1.06-16.15,1.67-24.21A19.75,19.75,0,0,1,734.83-627.4Z" transform="translate(0 867.36)" fill="#fff"/>
    <path id="cloud-06" d="M623.7-867.36c0.08,1.07.11,2.15,0.23,3.22,1.53,13.52.65,27,.15,40.57-0.52,14-1.62,28,.23,42,0.37,2.79,2,5.5,1.93,8.19-1,28.26,3.48,56.08,4.17,84.17,0.15,6.24-1.56,12.8-3.35,18.8-3.8,12.81-2.16,25.63-1,38.5a7,7,0,0,0,4.66,6c3.21,1.35,4.69,3.95,5,8,0.55,7.49,1.32,14.88-.51,22.4a39.24,39.24,0,0,0-.5,11.7q1.1,15.62,2.79,31.18a47.69,47.69,0,0,0,2.53,9.86,4.75,4.75,0,0,0,2.58,2.8c2.26,0.65,2.76,2.44,2.92,4.8q1.09,15.49,2.21,31c0.44,6,2.78,8.35,7.71,7.9,8.07-.74,6.77-2.26,7.81,8.22A86.78,86.78,0,0,1,662-464.1a18.59,18.59,0,0,0-.21,4.44c0.8,11.84,1.78,23.66,2.41,35.51a43.67,43.67,0,0,1-1.05,10.2,3.77,3.77,0,0,1-2.5,2.51c-0.71.11-1.71-1.32-2.37-2.28-1.13-1.63-2-3.51-3.16-5.14-2.13-3.06-4.57-5.83-6.49-9.08-1.24-2.1-2.55-1.71-4-1.26-2.34.74-3.78,2.76-3.82,5.69-0.06,3.48.68,7,.32,10.43-1.2,11.29-2.74,22.52-4.12,33.78a15.19,15.19,0,0,0-.19,3.76c2.31,17.32-.28,34-4.17,50.58-0.6,2.54-1.65,3.6-3.84,4.18-8.59,2.3-12.35-4-13.59-14-2.22-17.8-3-35.89-4-53.89-0.21-3.74,1.55-7.58,1.87-11.44a195.11,195.11,0,0,0,0-34.6c-1.25-13.17-2.11-26.41-2.83-39.65a45.36,45.36,0,0,1,1-12c1.44-6.55,1.19-13,.71-19.63-2.11-29.11-4.24-58.22-6.14-87.35-0.39-5.94.72-12,.24-18-0.91-11.26-1.11-22.38,1-33.45a5.2,5.2,0,0,0,0-2.07C605.73-653,608-658,610.47-663a2.58,2.58,0,0,1,.46-0.87c5.4-3.89,4-10.71,4.51-16.51,0.66-7.67.73-15.42,1-23.15,0.19-5.54.22-11.08,0.47-16.61,0.13-2.85.55-5.69,0.93-8.51,0.46-3.39,1.66-6.85,1.39-10.14-0.57-6.82.67-13.33,1.14-20,0.64-9,.72-18,1-27,0.43-13.22.64-26.46,1.32-39.67,0.66-12.76,1.16-25.48,0-38.22-0.09-.92-0.13-1.85-0.12-2.78a2.53,2.53,0,0,1,.34-0.85Z" transform="translate(0 867.36)" fill="#fff"/>
    <path id="cloud-05" d="M442.59-867.36a4.83,4.83,0,0,1,1.15.86c1,8.17,2,16.35,3,24.51,0.24,1.9.8,3.73,1.2,5.6a30.21,30.21,0,0,1,.91,4.65q0.75,14.82,1.31,29.66c0.09,2.51.67,4.39,2.48,5.85,0.57,0.46.68,2.17,0.63,3.28-0.07,1.55-.75,3.1-0.7,4.63,0.26,8.15.4,16.32,1.11,24.41,0.6,6.74-.69,13-1.68,19.49-0.36,2.36-.5,4.77-0.69,7.16-0.33,4.34-.8,8.67-0.89,13s0.55,8.86.22,13.22c-0.35,4.73-1.44,9.38-2.24,14.06a8.73,8.73,0,0,0-.47,1.24c0.19,9.47-2.7,18.81-.89,28.29a6.39,6.39,0,0,0,3,4.1c3.57,1.54,4.66,4.87,4.85,8.79,0.87,17.9,1.59,35.82,2.44,53.73a15,15,0,0,0,1.05,3.53,17.11,17.11,0,0,0,2.39-2.91c1.42-2.73,2.57-5.68,4-8.38a4.33,4.33,0,0,1,2.44-2c3.22-.86,3.91-0.15,4.09,3.82q0.42,8.9.79,17.79c0.15,3.68.66,7.38-1,10.88A7.54,7.54,0,0,0,471-575c0.16,4.3.51,8.61,0.52,12.91,0,10,1.28,19.92-.08,30.15a166.44,166.44,0,0,0-.62,34.6c0.31,4.07-.75,8.37-1.5,12.47-0.47,2.58-3.36,2.67-5.34.36-3.2-3.74-5.71-3.18-7.19,2a35.21,35.21,0,0,0-1.3,9c-0.1,7.13,1,14.19-.63,21.42-0.85,3.85.37,8.32,0.29,12.5-0.11,6.28-.75,12.56-0.79,18.84s0.49,12.57-.67,19c-1.43,7.93-1.74,16.15-2.66,24.23-0.58,5.07-5,7-8.46,3.69a12.85,12.85,0,0,1-4-9.24c-0.18-5.7-.7-11.39-0.65-17.09a42.15,42.15,0,0,0-3.55-17.52A19.38,19.38,0,0,1,433-424.3q-1.86-39.93-3.54-79.87l-0.2-4.61a10,10,0,0,0-1.94-.18c-2.47.32-3.31-1-3.43-4-0.77-19.19-1.66-38.38-2.51-57.56-0.19-4.19-.57-8.38-0.51-12.56,0.06-3.88.68-7.74,0.87-11.62,0.14-2.77,0-5.56-.08-8.33s0.77-4.61,2-6.88a21.38,21.38,0,0,0,2.38-9.63c0-9.07-.72-18.13-1-27.2-0.05-2,.65-4,1-5.94,0.6-3.12,1.44-6.19,1.79-9.34,0.6-5.44.92-10.92,1.31-16.39a24.76,24.76,0,0,1-.06-3.13c1.31-6.11,2.35-12.35,4.18-18.23,3-9.54,5.62-19,4.59-29.47-0.62-6.35-.21-12.86-1-19.16s0.11-12.23.16-18.32c0.09-10.85,2.12-21.37,4.65-31.67,2.82-11.51.83-23,.79-34.55,0-3.56.46-7.11,0.52-10.67,0.08-4.85,0-9.71,0-14.57C442.93-861.07,442.74-863.93,442.59-867.36Z" transform="translate(0 867.36)" fill="#fff"/>
    <path id="cloud-04" d="M238.34-867.36a60.28,60.28,0,0,0,.8,6.63C240-857.1,241.6-853.64,242-850c0.86,8.59,1.26,17.25,1.66,25.9,0.22,4.82.36,5.13,4.17,6.21a3.55,3.55,0,0,1,1.61,2.77c-2.74,12.7-1.21,25.65-1.64,38.48-0.26,8-.67,16-0.79,24,0,2.05,1,4.1,1.17,6.19a27.22,27.22,0,0,1-.06,7.93c-0.74,3.28-2.27,6.29-3.44,9.43-1.79,4.79-1.72,8.84,3.08,10.24,3.32,1,2.21,3.88,2.23,6.37,0.05,5.75.06,11.5,0.19,17.24a4.3,4.3,0,0,0,.93,2.48c2.23,2.52,2,5.38,1.33,8.62-1.18,5.35-2,10.88-5.09,15.22-0.82,1.15-2.13,1.77-3.13,2.76-0.59.57-1.46,1.37-1.47,2.08-0.14,10.05-.15,20.11-0.18,30.16,0,1.16.1,2.32,0.1,3.48q0,20.61,0,41.22c0,4.64,1.55,5.68,5.18,4.67a27.49,27.49,0,0,1,10.56-1.15c1.54,0.19,3.51,3.09,4.08,5.23,0.76,2.87.45,6.2,0.43,9.34,0,8.26-.08,16.52-0.29,24.78-0.07,2.76,0,5.54-3.45,6.38-1.11.27-1.83,4.67-2.21,7.3-4.62,31.24-1.65,62.77-2.23,94.17-0.27,14.65-3.74,27.82-9.24,40.52-1.23,2.84-3,3.06-5.18,3s-2.28-2.07-3.05-3.81c-2.33-5.21-2.4-10.84-2.7-16.5-0.4-7.72-1.28-15.41-1.37-23.13,0-3.93,1.06-7.91,1.83-11.82,0.66-3.33,2.14-6.55,2.29-9.88,0.48-10.89.66-21.8,0.67-32.71,0-10.09-.32-20.19-0.58-30.28a45.55,45.55,0,0,0-.72-7.54c-0.3-1.53-1.35-4.1-1.91-4a6.55,6.55,0,0,0-4.46,2.41c-2.23,3.16-4.8,4.48-8.12,4.51-2.61,0-3.56-1.34-3.54-4.41,0.06-10.13,0-20.25,0-30.38,0-6.87-.15-13.74,0-20.6,0.13-4.84.62-9.68,1.15-14.49a8.77,8.77,0,0,1,1.61-4c4.35-5.85,4.36-13.35,5-20.45a40.12,40.12,0,0,0-1.68-17.35,2.57,2.57,0,0,0-.37-0.9c-3.38-3.29-3.16-7.84-3-12.42,0.23-6.36.37-12.73,0.55-19.1a7.66,7.66,0,0,1,.1-1.39c1.37-6.3,3-12.53,4.06-18.91a75.52,75.52,0,0,0,.92-13.76A102.37,102.37,0,0,1,229-729a7,7,0,0,1,2-3.69c5.3-4.35,6.76-10.84,7.13-18.05,0.28-5.43.89-10.85,0.88-16.27,0-5.58-.69-11.15-0.91-16.73-0.29-7.41-.41-14.83-0.58-22.25a40.63,40.63,0,0,0-.07-4.88,16.64,16.64,0,0,0-1.34-3.23,7.7,7.7,0,0,1-.91-3c0.36-3.76,1.1-7.46,1.43-11.22,0.43-4.93.76-9.89,0.85-14.84,0.12-7,0-14,0-21,0-1.08.09-2.16,0.15-3.25h0.82Z" transform="translate(0 867.36)" fill="#fff"/>
    <path id="cloud-03" d="M278.66-549.85a7.55,7.55,0,0,0-1.93-.33c-2,.24-2.44-0.93-2.37-3.1,0.33-10.44.72-20.87,0.86-31.31,0.15-11.87-.05-23.75.08-35.63,0.13-11.5.55-23,.69-34.5,0-2-.9-4-1-6a67.21,67.21,0,0,1,0-7.81,5.07,5.07,0,0,1,.9-2.15c3.64-6.09,4.61-13.22,5.85-20.39a77.69,77.69,0,0,1,4.58-15,37.41,37.41,0,0,0,2.2-14.52c-0.16-11.51-.3-23-0.1-34.54,0.08-4.93,1.14-9.83,1.54-14.76,0.52-6.45,1.12-12.92,1.18-19.39,0.18-17.89.11-35.78,0.13-53.67q0-10.13,0-20.26,0-2,0-4l0.8-.12a12.85,12.85,0,0,1,.39,2.26c-0.12,23.28-.32,46.55-0.4,69.83q-0.11,33,0,66c0,6.74.95,13.48,0.9,20.21-0.09,12.31-1,24.64-.79,36.93,0.18,8.83,1.71,17.63,2.67,26.43a4.23,4.23,0,0,0,.71,2.24c3.3,3.35,2.66,7.92,2.67,12.29,0,5.59-.1,11.18.08,16.77,0,1.57.53,3.74,1.45,4.56,9.07,8.11,6.17,9.15,9.08,20.26,1.47,5.61,3.12,11.14,4.48,16.79,0.84,3.5,1.84,7.14,1.83,10.71,0,9.38-.61,18.75-0.94,28.13-0.11,3.27-1.26,5-4.1,4.54-2.46-.41-4.1,1-5.51,3.37a56.61,56.61,0,0,1-4,5.4,32.71,32.71,0,0,0-6.86,20c0,1.4-.09,2.8,0,4.19,1,14.91-1.07,29.33-4.35,43.59-0.43,1.89-.48,4-1.19,5.68-2,4.84-6.22,6.47-10.17,4.21-4.28-2.45-5.51-6.46-3.8-12.1s3.86-11,4.74-16.74a35.63,35.63,0,0,0-.67-13.94,48.69,48.69,0,0,1-1-19.64c1.74-11.58,1.29-23.12,1.45-34.7C278.69-543.28,278.66-546.51,278.66-549.85Z" transform="translate(0 867.36)" fill="#fff"/>
    <path id="cloud-02" d="M348.59-867.36c0,0.46.12,0.91,0.12,1.37,0.24,18.49.35,37,.79,55.48a125,125,0,0,0,1.91,16.45,9.52,9.52,0,0,0,2.4,4.54c2.24,2.46,3,5.26,3,8.93-0.19,8,.13,16.07-0.1,24.1a188.21,188.21,0,0,0,2.59,36.68,7,7,0,0,1,.24,1.71c-0.58,6.23,2.17,10.09,6.19,13,3.24,2.32,4.52,5.73,4.29,10.21-0.14,2.67,0,5.36-.19,8-0.26,3.54-1.49,6.4-4.22,8.15-3.09,2-4.4,5.25-4.27,9.45,0.31,10.13-.07,20.2-2.25,30a41.25,41.25,0,0,1-1.79,6.2c-1.57,4-5.1,4.86-7.71,1.76a13.49,13.49,0,0,1-3.13-6C343.91-652,341.6-666.85,341-682a43.53,43.53,0,0,0-1.33-9.17c-0.86-3.32-2.43-3.64-4.36-1a60.52,60.52,0,0,0-3.88,6.44,5.08,5.08,0,0,1-5.7,2.83c-5.37-.78-6.31-1.95-6.27-8.52,0.11-15.82,1.23-31.49,5.23-46.64,0.9-3.4,2.27-6.62,3.46-9.9,1.62-4.45,2.89-9.18,5-13.22a40.69,40.69,0,0,1,7.57-10.16c4-3.84,5.53-8.29,5.33-14.45-0.32-10-.36-20,0-30,0.22-5.69,1.79-11.28,2.24-17,0.31-3.86-.38-7.82-0.43-11.74-0.08-7.59,0-15.19,0-22.79Z" transform="translate(0 867.36)" fill="#fff"/>
    <circle id="single-star" cx="400" cy="-557.1" r="1.5" transform="translate(511.09 987.03) rotate(-45)" fill="#fff"/>
    <g id="speedline">
      <line x1="400" y1="309.26" x2="400" y2="591.39" fill="none" stroke="#fff" stroke-linecap="round" stroke-miterlimit="10"/>
      <circle id="_circle_" data-name="&lt;circle&gt;" cx="400" cy="-268.72" r="1.5" transform="translate(307.17 1071.49) rotate(-45)" fill="#fff"/>
    </g>
    <circle id="cGuide" cx="400" cy="1267.36" r="399.65" fill="none" stroke="#ff2703" stroke-miterlimit="10" stroke-width="0.7"/>
    <line id="cGuide3" x1="301.75" y1="1267.36" x2="498.24" y2="1267.36" fill="none" stroke="#ff2703" stroke-miterlimit="10" stroke-width="0.7"/>
    <line id="cGuide2" x1="400" y1="1169.11" x2="400" y2="1365.6" fill="none" stroke="#ff2703" stroke-miterlimit="10" stroke-width="0.7"/>
  </g>
</svg>
