
<svg id="svg-neon" xmlns="http://www.w3.org/2000/svg" viewBox="0 0 800 800">


<!--NEON LANDSCAPE-->

<g id="landscape">
	<g id="clouds1" opacity="0.1">
		<path id="cloud_69_" fill="#FFFFFF" d="M117.6,179.2c-1.4-0.4-2.7-1-4.1-1.2c-3.7-0.5-7.4-0.7-11.1-1.3c-2.2-0.3-4.4-1.1-6.6-1.7
			c-0.8-0.2-1-0.6-0.7-1.5c0.9-2.7,3.5-3.3,5.9-3.9c3.6-0.9,7.3-1.1,11-1.2c7.9-0.2,15.6,0.8,23.5,0.6c2.4,0,4.9-0.2,7.3-0.4
			c0.6,0,1.2-0.5,1.7-0.7c0.3-0.1,0.5-0.3,0.8-0.3c1.7-0.1,3.4-0.2,5.1-0.2c2.4,0,4.8,0,7.3,0c0.2,0,0.3-0.1,0.7-0.3
			c-0.4-0.7-0.7-1.5-1.1-2.1c-0.8-1.1-0.8-2,0.5-2.8c2.9-1.8,6.2-2.5,9.6-2.6c7-0.2,13.9,0.7,20.9,1.6c5.8,0.7,11.5,1.7,17.2,2.6
			c0.9,0.1,1.8,0.6,2.7,0.9c1.9,0.5,3.7,1.2,5.6,1.5c5.8,0.9,11.6,1.7,17.4,2.3c7.3,0.7,14.6,1,21.9,1.5c1.7,0.1,3.4,0.7,5.1,0.6
			c2.8-0.3,4.9,1.5,7.6,1.8c2.6,0.3,5.2,1,7.8,1.5c2.5,0.5,5.1,0.8,7.6,1.3c0.7,0.1,1.4,0.5,2.1,0.7c0,0.2-0.1,0.3-0.1,0.5
			c-0.7,0.1-1.3,0.1-2,0.2c-3.8,0.3-7.6,0.6-11.4,1c-1.4,0.1-2.7,0.4-4.1,0.5c-1.6,0.1-3.1,0.1-4.7,0.1c-1.9,0.1-2.2,0.4-1.7,2
			c0.4,1.4,0,2.7-1.3,3.4c-1.6,0.9-3.3,1.9-5.1,2.2c-5.6,1.1-11.3,1.3-17.1,0.7c-8.6-0.9-17.1-1.5-25.7-2.1c-1.9-0.1-3.9,0.1-6,0.2
			c-0.2,1.2-1.2,1.8-2.4,2c-2.7,0.4-5.4,0.8-8.1,1c-2.6,0.2-3.7,1.5-2.5,3.7c1,2-0.3,4.5-2.8,5.2c-2.2,0.6-4.5,1-6.7,1.1
			c-2.4,0.2-4.8,0-7.1-0.2c-5.5-0.5-10.9-1.2-16.4-1.7c-1.2-0.1-2.4,0.1-3.7,0.3c-1.1,0.1-2.3,0.5-3.4,0.4c-6.7-0.6-13.3-1.3-19.8-3
			c-0.2,0-0.4-0.1-0.5-0.1c-1.9-0.6-3.7-0.8-5.7-0.9c-5-0.2-9.9-1-14.8-1.6c-0.8-0.1-1.6-0.4-2.3-0.7c-2.7-0.9-3-3-0.9-4.8
			c1.8-1.5,3.8-2.4,6.1-3c1.7-0.5,3.2-1.4,4.8-2.1C117.6,179.7,117.6,179.4,117.6,179.2z"/>
		<path id="cloud_68_" fill="#FFFFFF" d="M474.6,191.3c-1.3,0-2.6,0-3.9,0c-9,0.3-18,0.7-27,1c-3.2,0.1-6.5,0.5-9.7-0.3
			c-2.7-0.7-5.4-1.2-8.1-1.7c-0.4-0.1-0.9-0.2-1.3-0.1c-9.2,0.6-18.5,1.1-27.6,3.1c-2.8,0.6-5.8,0.7-8.7,0.9
			c-8.6,0.6-17.2,1.1-25.8,1.8c-3,0.2-5.9,1-8.9,1.6c-3.2,0.5-6.4,0.9-9.6,1.6c-3.2,0.7-6.3,1.6-9.3,2.7c-6.7,2.5-13.5,3-20.6,2.3
			c-5.8-0.6-11.6-1.1-17.4-1.8c-4.3-0.6-8.6-1.4-12.8-2.2c-0.6-0.1-1.1-0.3-1.6-0.6c-1.2-0.7-1.1-2.5,0.1-3c2-0.7,4-1.3,6.1-1.9
			c3.8-1.1,7.6-2.2,11.3-3.4c1.7-0.6,3-3.1,2.5-4.8c-0.1-0.5-0.8-1-1.3-1.1c-2.7-0.5-5.3-1.2-8-1.4c-5.2-0.4-10.2-1.9-15.2-3.2
			c-2.7-0.7-5.4-1.2-7.7-2.8c-1.6-1-2.7-2.3-3.2-4.1c-0.4-1.4,0.1-2.5,1.6-2.9c3.2-0.7,6.5-1.6,9.8-1.8c9-0.7,18.1-1.1,27.1-1.6
			c1.5-0.1,3,0.3,4.5,0.4c0.7,0.1,1.4,0.2,2.1,0.2c9.1-0.5,18.2-1.1,27.3-1.5c3.8-0.1,7.6,0.3,11.4,0.8c3,0.3,3.9,2.8,2.1,5
			c-0.9,1.2-2,2.2-3,3.4c-0.7,0.8-0.5,1.2,0.6,1.4c3.8,0.8,7.7,0.9,11.6,0.6c1.7-0.1,2.9,0.1,3.6,1.8c0.2,0.5,1.3,0.9,2.1,1
			c2.8,0.4,5.7,0.6,8.5,1c1.1,0.2,2.2,0.8,3,1.5c0.9,0.7,1.7,1.1,2.8,1c8.5-0.7,17.1-1.4,25.6-2.1c2.8-0.2,5.2,0.1,7.5,1.9
			c1.7,1.4,4,0.6,6.1,0.5c1.7-0.1,3.4-0.4,5.1-0.6c1.9-0.2,3.2,0.9,4.8,1.4c1.3,0.4,2.6,0.8,4,0.9c3.6,0.2,7.2,0.3,10.7,0.5
			c1.8,0.1,3.5,0.2,5.1,1.3c0.9,0.6,2.3,0.6,3.4,0.7c2.8,0.2,5.6,0.4,8.4,0.5c1,0.1,2,0.2,3,0c3-0.4,5.7,0.5,8.4,1.5
			C474.6,191.1,474.6,191.2,474.6,191.3z"/>
		<path id="cloud_67_" fill="#FFFFFF" d="M585.1,323.2c4.3,0.2,8.6,0.8,12.8,1.6c0,0,0.1,0,0.1,0c0.5,0.1,1.2,0.1,1.5,0.3
			c0.2,0.2-0.1,0.7-0.1,1c-0.2,0.9,0.8,1.6,2,1.7c2.9,0.2,5.8,0.6,8.7,0.8c5.7,0.4,11.5,0.6,17.2,1c3.4,0.2,6.8,0.7,10.2,1
			c2.7,0.2,5.4,0.3,8,0.5c0.2,0,0.4,0.2,0.6,0.3c-0.2,0.1-0.3,0.2-0.5,0.3c0,0-0.1,0-0.1,0c-4.8,0.3-9.5,1.2-14.5,1.1
			c-4.9-0.1-10,0.1-14.7,1.2c-1.3,0.3-2.5,0.8-3.8,1c-1.1,0.2-2.3,0.2-3.5,0.4c-0.6,0.1-1.2,0.3-1.7,0.4c-0.1,0-0.3,0.1-0.4,0.2
			c-2,0.4-4.1,0.9-6.1,1.2c-1.5,0.2-3,0.3-4.5,0.3c-1.7,0-3.4-0.1-5.2-0.1c-0.3,0-0.6,0.1-0.9,0.2c-1.7,0.7-3.4,1.4-4.9,2.2
			c-0.8,0.4-1.4,1.2-1.9,1.8c-0.3,0.3-0.5,0.8-0.7,1.2c-0.3,0.4-0.7,0.6-1.4,0.5c-2.9-0.3-5.8-0.6-8.7-0.9c-1-0.1-2-0.3-3-0.5
			c-0.6-0.1-0.7-0.2-0.7-0.6c0.1-1-0.8-1.8-2.3-2c-2.4-0.2-4.9-0.5-7.3-0.7c-9.7-0.7-19.5-1.4-29.2-2.2c-3.5-0.3-7-0.9-10.5-1.5
			c-1.4-0.2-2.7-0.9-3.9-1.4c-0.8-0.4-0.7-1.3,0.1-1.8c1.9-1,4.2-1.4,6.6-1.4c4.7,0,9.4,0.3,14,0c3.1-0.2,6.1-0.6,9.1-1.1
			c0.2,0,0.6-0.2,0.6-0.4c0.1-0.5,0.5-0.6,1.1-0.7c3.1-0.5,6.3-0.2,9.4-0.1c5,0.2,10,0.6,15-0.2c0.9-0.2,1.8-0.4,2.7-0.6
			c0.5-0.1,0.7-1.1,0.4-1.8c-0.2-0.4-0.4-0.9-0.3-1.4c0.1-0.3,0.6-0.7,1-0.7c1.9-0.2,3.9-0.4,5.9-0.4
			C582.6,322.9,583.8,323.1,585.1,323.2z"/>
		<path id="cloud_66_" fill="#FFFFFF" d="M341,367.9c-0.2,0-0.3,0-0.5,0c-5.3,0.1-10.6,0.2-15.9,0.3c-1.7,0-3.4,0.1-5,0.1
			c-2,0-4-0.1-6-0.2c-0.2,0-0.4,0-0.5,0c-1.2,0.4-2.4,0.2-3.6,0.3c-2.3,0.1-4.6,0.1-6.9,0.1c-1.2,0-2.4,0.2-3.3,0.9
			c-0.7,0.6-1.7,0.6-2.7,0.5c-0.3,0-0.7-0.3-0.9-0.5c-0.3-0.3-0.7-0.4-1.2-0.5c-0.5,0-1-0.2-1.5-0.3c-1.5-0.5-3.1-0.9-4.8-0.9
			c-3.3,0.1-6.5,0.1-9.8,0.2c-0.5,0-0.8,0-0.8,0.5c0,0.5-0.5,0.7-1.1,0.9c-1.5,0.5-3.1,0.6-4.7,0.6c-1.6,0-3.2,0-4.8,0.4
			c-0.8,0.2-1.4,0.5-2,1c-0.2,0.2-0.5,0.3-0.8,0.3c-2.2,0.1-4.4,0.1-6.6,0.1c-1.2,0-2.5-0.2-3.7-0.4c-0.1,0-0.2,0-0.3,0
			c-2-0.1-4-0.1-6-0.2c-3.9-0.1-7.9-0.2-11.8-0.2c-1.5,0-3.1-0.4-4.6-0.6c-0.9-0.1-1.9-0.2-2.8-0.4c-0.8-0.1-1.5-0.3-2.3-0.5
			c-0.2-0.1-0.5-0.4-0.5-0.6c0-0.3,0.5-0.3,0.8-0.3c11.1-0.2,22.2-0.4,33.3-0.6c0.2,0,0.4,0,0.7,0c-0.3-0.5-0.4-1-1-1.4
			c-0.3-0.2-0.5-0.5-0.8-0.7c-0.6-0.4-1.2-0.7-1.9-1c-1-0.4-1.4-1-0.8-1.7c0.1-0.1,0.4-0.3,0.6-0.3c3.5-0.1,6.9-0.2,10.4-0.2
			c2.2,0,4.3,0.2,6.5,0.4c0.9,0,1.8,0,2.7,0.1c2.6,0.3,5.2,0,7.8,0c1,0,1.9,0,2.9-0.1c0.7,0,0.8-0.1,0.9-0.6c0-0.4,0-0.7,0-1.1
			c0-0.3,0.2-0.4,0.6-0.4c0.8,0,1.6-0.1,2.4,0c0.9,0.1,1.8,0.5,2.7,0.7c0.7,0.2,1.4,0.4,2.1,0.5c1.4,0.3,2.7,0.2,4.1,0.2
			c0.3,0,0.7,0.2,1,0.3c0.5,0.2,0.9,0.3,1.3,0.5c0.4,0.2,0.8,0.4,1,0.7c0.5,0.7,1.5,1.2,2.3,1.7c0.7,0.4,1.4,0.6,2.3,0.7
			c2,0.2,4.1,0.5,6.1,0.7c1.9,0.1,3.8,0.1,5.6,0.1c0.6,0,1.3,0.2,1.9,0.2c1.1,0,2.3-0.1,3.4,0c1.2,0,2.3,0.1,3.5,0.2
			c1.4,0.1,2.8,0.1,4.2,0.1c1.3,0,2.7,0,4,0c1.6,0,3.2,0.1,4.8,0.1C341,367.7,341,367.8,341,367.9z"/>
		<path id="cloud_65_" fill="#FFFFFF" d="M913.8,253.5c-4.8-0.3-8.8-0.4-12.7-0.7c-5.8-0.4-11.6-1.2-17.4-0.9
			c-3.5,0.2-7,0.8-10.5,0.7c-3.1-0.1-6.1-0.8-9.1-1.5c-2.1-0.5-2.6-1.5-2.1-3.1c0.7-2.3,3.2-3.9,6.5-4.3c6.1-0.7,12.3-1.3,18.4-2
			c1.3-0.1,2.1-0.4,2.2-1.5c0-0.6,1-1.2,1.8-1.6c0.8-0.4,1.9-0.5,2.9-0.5c7.9-0.1,15.9-0.7,23.7-0.2c5.2,0.3,10.7,1.1,15.5,3.1
			c1.3,0.5,2.9,0.8,4.4,0.9c4.5,0.3,6.3,2.5,7.7,5.1c0.6,1.1,1.2,2.2,1.8,3.3c1.9,3.4,5.8,4.5,10.6,4.6c4.6,0.1,9.3,0.1,13.9,0.2
			c5.1,0.2,10.2,0.7,15.3,1.5c3.7,0.6,7.7,0.3,11.6,0.4c1.3,0,2.6,0,4,0c0,0.1,0,0.2,0,0.4c-0.7,0-1.4,0-2.1,0c-9,0-18,0.1-27,0
			c-6.2-0.1-12.2,0.4-18,1.8c-3.3,0.8-6.7,1.1-10.3,1.1c-10.3-0.2-20.5-0.3-30.8-0.6c-1.2,0-3-0.4-3.3-0.9c-0.3-0.7,0.5-1.7,1-2.5
			C912.1,255.4,912.9,254.6,913.8,253.5z"/>
		<path id="cloud_64_" fill="#FFFFFF" d="M1240,250.6c-2.5,0.6-2.3,1.4-1.2,2.1c0.3,0.2,1.1,0.4,1.5,0.3c4.6-0.6,9-0.5,13.6-0.1
			c4.1,0.4,8.3,0.3,12.5,0.5c3.5,0.2,7,0.4,10.5,0.7c4.4,0.4,8.7,0.9,13.1,1.1c2.4,0.1,4.9-0.1,7.4-0.1c2.4,0,4.7,0,7.1-0.1
			c0.8,0,1.5,0,2.3,0c0.4,0,1-0.1,1.2,0c2.8,1.1,6,0.3,8.9,0.6c2.9,0.2,5.8,0.3,8.7,0.4c1.3,0.1,2.6,0.5,3.9,0.6
			c3.2,0.1,6.4-0.1,9.6,0c2.2,0.1,4.3,0.4,6.5,0.5c4.1,0.1,8.2,0.2,12.4,0.1c1.7,0,3.3-0.3,4.9,0.2c0.3,0.1,0.5,0.2,1.2,0.5
			c-0.8,0.1-1.3,0.1-1.7,0.1c-2.9,0.1-5.8,0.2-8.7,0.2c-4.1,0.1-8.2,0.1-12.3,0.1c-0.5,0-1.1,0-1.6,0.1c-3,0.2-6,0.5-9,0.7
			c-2.3,0.1-4.6,0-6.9,0c-1.8,0-3.6,0.2-5.4,0.3c-0.3,0-0.7,0.1-1,0.1c-3.1-0.1-6.3-0.2-9.4-0.2c-0.3,0-0.7,0-0.8,0.2
			c-1,0.9-2.7,0.8-4.2,0.9c-5.1,0.3-10.2,0.5-15.3,0.8c-4.1,0.3-8.3,0.7-12.4,1c-0.2,1.5-0.3,1.4-3,1.6c-3,0.3-5.9,0.7-8.8,1
			c-1.2,0.1-1.3,0.4-0.8,1c0.6,0.8,1,1.6,1.3,2.5c0.4,1.1,0,1.4-2.1,1.5c-2.9,0.1-5.9,0.2-8.8,0.1c-7.7-0.4-15.3,0.1-22.9,0.5
			c-4.4,0.2-8.8,0.6-13.2,0.6c-5.8,0-11.5-0.3-17.2-0.6c-7.3-0.4-14.6-1.1-21.9-1.5c-2.8-0.2-5.8,0-8.7,0c-6,0-12,0.2-17.9-0.7
			c-1.1-0.2-2-0.4-2-1c-0.1-0.8-0.7-1.7,0.9-2.3c0.4-0.2,0.8-0.3,1.2-0.5c1.6-0.8,1.5-1.6-0.4-2c-5.1-1.1-10.4-2.1-15.6-3.2
			c-1.2-0.2-2.8-0.1-3.1-1c-0.3-0.8,0.9-2.2,2.5-2.6c1.8-0.4,3.7-0.7,5.5-0.9c8.1-1.1,16.3-1,24.4-0.5c4.3,0.3,8.4-0.3,12.5-0.9
			c0.8-0.1,1.5-0.3,2.2-0.4c1.3-0.2,2-0.7,1.7-1.5c-0.3-0.8,0.8-1.1,1.9-1.3c4.7-0.8,9.5-0.8,14.3-0.6c5.7,0.2,11.3,0.5,17,0.7
			c3.8,0.1,7.6-0.2,11.4-0.2c4.2,0.1,8.4,0.3,12.5,0.5C1238.6,250.3,1239,250.4,1240,250.6z"/>
		<path id="cloud_63_" fill="#FFFFFF" d="M137.2,357c-0.8,0.2-0.7,0.4-0.4,0.7c0.1,0.1,0.3,0.1,0.5,0.1c1.5-0.2,2.9-0.2,4.4,0
			c1.3,0.1,2.7,0.1,4,0.2c1.1,0.1,2.3,0.1,3.4,0.2c1.4,0.1,2.8,0.3,4.2,0.4c0.8,0,1.6,0,2.4,0c0.8,0,1.5,0,2.3,0c0.2,0,0.5,0,0.7,0
			c0.1,0,0.3,0,0.4,0c0.9,0.4,1.9,0.1,2.9,0.2c0.9,0.1,1.9,0.1,2.8,0.1c0.4,0,0.8,0.2,1.3,0.2c1,0,2.1,0,3.1,0
			c0.7,0,1.4,0.1,2.1,0.2c1.3,0,2.7,0.1,4,0c0.5,0,1.1-0.1,1.6,0.1c0.1,0,0.2,0.1,0.4,0.2c-0.3,0-0.4,0-0.6,0
			c-0.9,0-1.9,0.1-2.8,0.1c-1.3,0-2.6,0-4,0c-0.2,0-0.3,0-0.5,0c-1,0.1-1.9,0.2-2.9,0.2c-0.7,0-1.5,0-2.2,0c-0.6,0-1.2,0.1-1.7,0.1
			c-0.1,0-0.2,0-0.3,0c-1,0-2-0.1-3-0.1c-0.1,0-0.2,0-0.3,0c-0.3,0.3-0.9,0.3-1.4,0.3c-1.6,0.1-3.3,0.2-4.9,0.3
			c-1.3,0.1-2.7,0.2-4,0.3c-0.1,0.5-0.1,0.4-1,0.5c-1,0.1-1.9,0.2-2.8,0.3c-0.4,0-0.4,0.1-0.3,0.3c0.2,0.3,0.3,0.5,0.4,0.8
			c0.1,0.4,0,0.5-0.7,0.5c-1,0-1.9,0.1-2.9,0c-2.5-0.1-4.9,0-7.4,0.2c-1.4,0.1-2.8,0.2-4.2,0.2c-1.9,0-3.7-0.1-5.6-0.2
			c-2.4-0.1-4.7-0.3-7.1-0.5c-0.9-0.1-1.9,0-2.8,0c-1.9,0-3.9,0.1-5.8-0.2c-0.4-0.1-0.6-0.1-0.7-0.3c0-0.3-0.2-0.5,0.3-0.7
			c0.1-0.1,0.3-0.1,0.4-0.1c0.5-0.3,0.5-0.5-0.1-0.7c-1.7-0.4-3.3-0.7-5-1c-0.4-0.1-0.9,0-1-0.3c-0.1-0.3,0.3-0.7,0.8-0.8
			c0.6-0.1,1.2-0.2,1.8-0.3c2.6-0.3,5.2-0.3,7.9-0.2c1.4,0.1,2.7-0.1,4-0.3c0.2,0,0.5-0.1,0.7-0.1c0.4-0.1,0.6-0.2,0.6-0.5
			c-0.1-0.2,0.2-0.4,0.6-0.4c1.5-0.2,3.1-0.3,4.6-0.2c1.8,0.1,3.7,0.2,5.5,0.2c1.2,0,2.4-0.1,3.7,0c1.4,0,2.7,0.1,4,0.2
			C136.7,356.9,136.9,357,137.2,357z"/>
		<path id="cloud_62_" fill="#FFFFFF" d="M1282.7,394.1c-0.3,0-0.6,0-0.9,0.1c-3.6,0.3-7.1,0.1-10.7,0c-3.7-0.1-7.4-0.4-11.1,0.1
			c-0.7,0.1-1.5,0.5-2.2,0.4c-7.5-0.2-14.8,0.8-22.2,0.9c-1.6,0-3.4-0.4-5-0.8c-3.4-0.9-6.8-0.5-10.2-0.2c-0.9,0.1-1.3,0.5-1.6,1.1
			c-0.4,0.7-1,1.1-2.1,1.1c-2,0.1-3.9,0.3-5.9-0.1c-1-0.2-2.1-0.2-3.1-0.1c-2.7,0.2-5.5,0.4-8.2,0.6c-0.9,0.1-1.8,0.3-2.6,0.6
			c-0.3,0.1-0.7,0.4-0.7,0.6c-0.2,0.5-0.6,0.6-1.3,0.7c-2.7,0.2-5.4,0.3-8.2,0.5c-1.6,0.1-2.2,0.6-2.1,1.7c0.2,1.8,0.6,1.5-2.2,1.8
			c-2.2,0.2-4.3,0-6.4-0.3c-0.4-0.1-0.8-0.1-1.2,0c-3.1,0.2-6.2,0.4-9.4,0.5c-0.9,0-1.8-0.1-2.7-0.2c-0.3,0-0.6-0.4-0.7-0.6
			c0-0.2,0.3-0.4,0.6-0.5c0.4-0.3,0.9-0.5,1.4-0.7c0.8-0.5,1.5-1,2.4-1.5c0.6-0.3,0.4-0.6,0.3-0.9c-0.2-0.5-0.7-0.9-1.5-0.9
			c-0.9,0-1.9,0.2-2.8,0.1c-3-0.3-5.9-0.6-8.9-0.9c-0.3,0-0.7-0.1-1,0c-4.6,0.5-9-0.1-13.3-0.9c-0.7-0.1-0.9-0.4-1.1-0.9
			c-0.6-2,1.1-2.8,3.7-3.1c4.7-0.5,9.5-0.7,14.2-0.9c1,0,2,0.4,3,0.4c3,0.2,6.1,0.2,9.1,0c3.5-0.3,7-0.5,10.5-0.6c1,0,2.2,0,3.2,0.2
			c1.7,0.3,3.4,0.3,5.2,0.2c7.7-0.5,15.4-1,23-1.4c1.6-0.1,3.2,0.2,4.7,0.1c3-0.2,5.9-0.3,8.8,0.2c0.2,0,0.4,0,0.5,0
			c1.6-0.3,3,0.2,4.3,0.7c0.1,0,0.2,0.1,0.2,0.1c1,1.2,2.8,0.9,4.4,1c2,0.2,4.1,0.2,6.1,0.2c1.5,0,2.9,0,4.4,0.1
			c0.8,0,1.5,0.1,2.2,0.2c0.9,0.1,1.8,0.4,2.7,0.3c1.8-0.1,3.5,0.2,5.3,0.3c2.4,0.1,4.7,0.2,7.1,0.2c3.5,0.1,7,0.1,10.5,0.3
			c3.4,0.1,6.7,0.3,10.1,0c0.2,0,0.5,0,0.7,0c0.1,0,0.1,0.1,0.2,0.1C1282.7,394,1282.7,394.1,1282.7,394.1z"/>
		<path id="cloud_61_" fill="#FFFFFF" d="M256.7,352.9c-0.2,0-0.4,0-0.6,0c-2.4,0.2-4.7,0.1-7.1,0c-2.4-0.1-4.9-0.2-7.3,0
			c-0.5,0.1-1,0.3-1.4,0.3c-4.9-0.2-9.8,0.5-14.7,0.6c-1.1,0-2.2-0.2-3.3-0.5c-2.2-0.6-4.5-0.3-6.7-0.1c-0.6,0-0.9,0.4-1,0.7
			c-0.2,0.5-0.7,0.7-1.4,0.7c-1.3,0.1-2.6,0.2-3.9-0.1c-0.6-0.1-1.4-0.1-2-0.1c-1.8,0.1-3.6,0.2-5.4,0.4c-0.6,0.1-1.2,0.2-1.7,0.4
			c-0.2,0.1-0.4,0.2-0.5,0.4c-0.1,0.3-0.4,0.4-0.8,0.4c-1.8,0.1-3.6,0.2-5.4,0.3c-1,0.1-1.5,0.4-1.4,1.2c0.1,1.2,0.4,1-1.4,1.2
			c-1.4,0.1-2.8,0-4.2-0.2c-0.3,0-0.5,0-0.8,0c-2.1,0.1-4.1,0.3-6.2,0.4c-0.6,0-1.2-0.1-1.8-0.2c-0.2,0-0.4-0.2-0.4-0.4
			c0-0.1,0.2-0.3,0.4-0.4c0.3-0.2,0.6-0.3,0.9-0.5c0.5-0.3,1-0.7,1.6-1c0.4-0.2,0.3-0.4,0.2-0.6c-0.1-0.4-0.5-0.6-1-0.6
			c-0.6,0-1.2,0.1-1.8,0c-2-0.2-3.9-0.4-5.9-0.6c-0.2,0-0.4-0.1-0.7,0c-3,0.3-5.9,0-8.8-0.6c-0.4-0.1-0.6-0.2-0.7-0.6
			c-0.4-1.3,0.7-1.9,2.4-2c3.1-0.3,6.3-0.4,9.4-0.6c0.7,0,1.3,0.2,2,0.3c2,0.1,4,0.2,6,0c2.3-0.2,4.6-0.3,6.9-0.4
			c0.7,0,1.4,0,2.1,0.1c1.1,0.2,2.3,0.2,3.4,0.1c5.1-0.3,10.2-0.6,15.2-0.9c1-0.1,2.1,0.1,3.1,0c2-0.1,3.9-0.2,5.8,0.2
			c0.1,0,0.2,0,0.4,0c1.1-0.2,2,0.1,2.8,0.5c0.1,0,0.1,0,0.2,0.1c0.7,0.8,1.9,0.6,2.9,0.7c1.3,0.1,2.7,0.1,4,0.1c1,0,1.9,0,2.9,0.1
			c0.5,0,1,0.1,1.5,0.1c0.6,0.1,1.2,0.2,1.8,0.2c1.2-0.1,2.3,0.1,3.5,0.2c1.6,0.1,3.1,0.1,4.7,0.2c2.3,0.1,4.6,0.1,6.9,0.2
			c2.2,0.1,4.4,0.2,6.7,0c0.2,0,0.3,0,0.5,0c0,0,0.1,0,0.1,0.1C256.7,352.8,256.7,352.9,256.7,352.9z"/>
		<path id="cloud_60_" fill="#FFFFFF" d="M680.8,393.8c-0.1,0.1-0.1,0.1-0.1,0.1c-0.9,0.1-1.8,0.2-2.7,0.3c-0.2,0-0.4,0.1-0.6,0.1
			c-0.2,0-0.3,0.1-0.5,0.1c-1.1,0-2.2,0.1-3.3,0.1c-0.3,0-0.5,0.1-0.7,0.2c-0.1,0.1-0.2,0.1-0.4,0.1c-0.2,0-0.3-0.1-0.5-0.1
			c-0.9,0-1.8,0-2.7,0.1c-0.8,0.1-1.5-0.1-2.2-0.2c-0.3,0-0.5,0-0.8-0.1c-0.5,0-1-0.1-1.5-0.1c-0.5,0-1,0.1-1.5,0
			c-0.5,0-1-0.1-1.6-0.2c0,0-0.1,0-0.1,0c-1.1,0-2.1-0.3-3.2-0.1c-0.2,0-0.4,0.2-0.5,0.3c-0.2,0.3-0.5,0.4-1,0.5c-2,0.1-4,0.2-6,0.2
			c-0.1,0-0.3,0.1-0.4,0.1c0.1,0.1,0.2,0.2,0.3,0.2c0.3,0.1,0.6,0.2,0.9,0.4c0.1,0,0.2,0.1,0.2,0.2c0.1,0.3,0,0.4-0.4,0.4
			c-0.7,0-1.3,0.1-2,0.1c-0.4,0-0.8,0.1-1.2-0.1c-0.1,0-0.2,0-0.3,0c-0.5,0-1,0-1.4,0.1c-1.1,0-2.2,0.1-3.4,0
			c-1.3-0.1-2.6-0.1-3.9-0.1c-0.5,0-0.9-0.1-1.4-0.1c-0.3,0-0.3-0.3,0-0.5c0.4-0.3,0.4-0.5-0.2-0.7c-0.3-0.1-0.7-0.1-1-0.1
			c-0.8,0-1.6,0.1-2.4-0.1c-0.4-0.1-0.9,0-1.4,0c-0.7,0-1.4-0.1-2.1-0.1c-0.7,0-1.4,0-2.1-0.1c-0.9-0.1-1.8-0.2-2.7-0.3
			c-0.6-0.1-0.8-0.5-0.4-0.8c0.3-0.2,0.6-0.4,1-0.4c0.6,0,1.3-0.1,1.9-0.1c0.7,0,1.3-0.1,2-0.3c0.2-0.1,0.5-0.1,0.7-0.1
			c3-0.1,6-0.2,8.9-0.3c0.2,0,0.3,0,0.5,0c0-0.1,0-0.1,0-0.2c0-0.2,0.1-0.3,0.4-0.3c2.1-0.1,4.3-0.2,6.4-0.2c0.5,0,0.9-0.1,1.4,0
			c0.4,0,0.9,0.1,1.3,0.1c0.3,0,0.6,0,0.9,0c0.3,0,0.5,0.1,0.8,0.2c0.3,0.1,0.7,0.2,1.1,0.2c1,0,2-0.1,3-0.1c0.2,0,0.4,0.1,0.7,0.1
			c0.3,0.1,0.7,0.1,1,0.2c0.6,0.1,1.2,0.1,1.8,0.1c0.1,0,0.2,0,0.3,0c0.7,0.1,1.4,0.2,2,0.4c1.1,0.3,2.1,0.5,3.3,0.4
			c0.7-0.1,1.4,0,2.1-0.1c0.7-0.1,1.4,0,2,0c1.2,0,2.4,0.2,3.5,0.4c1.3,0.3,2.6,0.1,3.9,0.1c0.4,0,0.8,0,1.2,0c0.5,0,1.1,0,1.6,0
			C680.1,393.8,680.4,393.8,680.8,393.8z"/>
		<path id="cloud_59_" fill="#FFFFFF" d="M521.6,304.4c-1.2,0.1-2.5,0.1-3.7,0.4c-2,0.4-3.9,1.2-5.9,1.3c-4.7,0.4-9.5,0.6-14.3,0.8
			c-2.7,0.1-2.8,0.2-3.4,2c-0.1,0.3-1.1,0.8-1.5,0.8c-7-1.3-14.2-0.6-21.3-0.8c-4.4-0.1-8.8-0.3-13.3-0.4c-1.1,0-2.3,0.5-3.4,0.6
			c-1.5,0.1-3,0.2-4.4,0c-1.8-0.4-3.5-1.1-5.2-1.6c-2.6-0.9-4.9-0.8-5.7,1.5c-0.5,1.6-2.1,1-3.5,1.1c-3.2,0-6.4,0-9.5,0.1
			c-0.5,0-1.1,0.2-1.4,0.4c-1.4,1.1-3,1-4.8,0.6c-3-0.6-6-0.9-8.4-2.4c-0.6-0.4-1-1-1.5-1.5c-0.3-0.3-0.8-0.7-1.2-0.7
			c-5.6-0.1-11.1-0.1-16.7-0.1c-0.6,0-1.3,0-1.9,0c-7.6,0-15.2,0-22.8,0c-2.6,0-3.1,0.7-2.6,2.5c0.5,1.6,0.9,3.4,0.6,5
			c-0.1,0.7-1.7,1.7-2.9,1.9c-1.6,0.4-3.4,0.2-5.2,0.2c-4.6,0-9.1,0-13.7-0.1c-1.5,0-3.1,0-3.5-1.6c-0.2-0.5-2.6-0.9-4-1.1
			c-17.3-2.2-34.7-0.8-52-1.1c-8.1-0.1-15.4-1.8-22.4-4.4c-1.6-0.6-1.7-1.4-1.6-2.5c0.1-1,1.1-1.1,2.1-1.5c2.9-1.1,6-1.1,9.1-1.3
			c4.3-0.2,8.5-0.6,12.8-0.7c2.2,0,4.4,0.5,6.5,0.9c1.8,0.3,3.6,1,5.5,1.1c6,0.2,12,0.3,18.1,0.3c5.6,0,11.2-0.2,16.7-0.3
			c1.4,0,2.8-0.1,4.2-0.3c0.8-0.1,2.3-0.6,2.2-0.9c-0.1-0.7-0.6-1.6-1.3-2.1c-1.7-1.1-2.5-2.3-2.5-3.9c0-1.2,0.7-1.7,2.4-1.7
			c5.6,0,11.2,0,16.8,0c3.8,0,7.6-0.1,11.4,0c2.7,0.1,5.4,0.3,8,0.5c0.8,0.1,1.6,0.4,2.2,0.8c3.2,2.1,7.4,2.1,11.3,2.4
			c3.2,0.3,6.5,0.1,9.6-0.8c0.2-0.1,0.4-0.1,0.5-0.2c1.8-1.6,4.3-1.5,6.9-1.4c3.5,0.1,7,0.2,10.6,0.3c0.3,0,0.5,0,0.8,0
			c3.5,0.7,6.9,1.4,10.4,1.9c2.5,0.4,5.1,0.5,7.6,0.4c4.3-0.1,8.6,0.1,12.7,0.9c0.8,0.1,1.6,0.5,2,0.9c2.4,2.5,6,3.2,10,3.4
			c3,0.1,6,0.4,9,0.4c3.1,0,6.2-0.3,9.2-0.4c4.1-0.1,8.2-0.2,12.3-0.3c0.9,0,1.8,0.1,2.7,0c0.6-0.1,1.2-0.4,1.8-0.6
			c0.5-0.2,1.1-0.5,1.7-0.4c2.1,0.2,4.1,0.5,6.2,0.7c2.7,0.2,5.5,0.4,8.2,0.4c3.9,0.1,7.7,0,11.6,0c0.6,0,1.2,0,1.8,0.1
			C521.6,304.1,521.6,304.2,521.6,304.4z"/>
		<path id="cloud_58_" fill="#FFFFFF" d="M622.1,372.6c-0.7-0.1-1.4-0.1-2.1-0.3c-1.1-0.3-2.2-0.9-3.3-1c-2.7-0.3-5.4-0.5-8-0.6
			c-1.5-0.1-1.6-0.1-1.9-1.5c-0.1-0.3-0.6-0.6-0.9-0.6c-3.9,1-8,0.4-11.9,0.6c-2.5,0.1-5,0.2-7.4,0.3c-0.6,0-1.3-0.4-1.9-0.4
			c-0.8-0.1-1.7-0.2-2.5,0c-1,0.3-2,0.8-2.9,1.3c-1.5,0.7-2.7,0.6-3.2-1.1c-0.3-1.2-1.2-0.8-2-0.8c-1.8,0-3.6,0-5.3-0.1
			c-0.3,0-0.6-0.2-0.8-0.3c-0.8-0.8-1.7-0.7-2.7-0.5c-1.7,0.4-3.4,0.7-4.7,1.9c-0.4,0.3-0.6,0.8-0.9,1.1c-0.2,0.2-0.4,0.5-0.6,0.5
			c-3.1,0-6.2,0.1-9.4,0.1c-0.4,0-0.7,0-1.1,0c-4.3,0-8.5,0-12.8,0c-1.4,0-1.8-0.6-1.4-1.9c0.3-1.3,0.5-2.6,0.4-3.9
			c-0.1-0.6-1-1.3-1.6-1.5c-0.9-0.3-1.9-0.2-2.9-0.2c-2.6,0-5.1,0-7.7,0.1c-0.9,0-1.7,0-2,1.3c-0.1,0.4-1.4,0.7-2.3,0.8
			c-9.7,1.7-19.5,0.6-29.2,0.8c-4.5,0.1-8.6,1.4-12.6,3.4c-0.9,0.4-0.9,1.1-0.9,1.9c0,0.8,0.6,0.8,1.2,1.1c1.6,0.8,3.4,0.9,5.1,1
			c2.4,0.1,4.8,0.5,7.2,0.5c1.2,0,2.5-0.4,3.7-0.7c1-0.2,2-0.8,3.1-0.8c3.4-0.2,6.8-0.2,10.1-0.2c3.1,0,6.3,0.1,9.4,0.2
			c0.8,0,1.6,0.1,2.3,0.3c0.5,0.1,1.3,0.5,1.3,0.7c-0.1,0.6-0.3,1.3-0.7,1.6c-1,0.8-1.4,1.8-1.4,3c0,1,0.4,1.3,1.4,1.3
			c3.1,0,6.3,0,9.4,0c2.1,0,4.3,0.1,6.4,0c1.5,0,3-0.2,4.5-0.4c0.4-0.1,0.9-0.3,1.2-0.6c1.8-1.6,4.1-1.6,6.3-1.8
			c1.8-0.2,3.7-0.1,5.4,0.6c0.1,0,0.2,0.1,0.3,0.1c1,1.2,2.4,1.2,3.9,1.1c2-0.1,3.9-0.1,5.9-0.2c0.1,0,0.3,0,0.4,0
			c2-0.5,3.9-1.1,5.9-1.5c1.4-0.3,2.8-0.4,4.3-0.3c2.4,0.1,4.8-0.1,7.1-0.7c0.4-0.1,0.9-0.4,1.1-0.7c1.3-1.9,3.4-2.5,5.6-2.6
			c1.7-0.1,3.4-0.3,5-0.3c1.7,0,3.5,0.3,5.2,0.3c2.3,0.1,4.6,0.1,6.9,0.2c0.5,0,1-0.1,1.5,0c0.4,0.1,0.7,0.3,1,0.5
			c0.3,0.1,0.6,0.4,0.9,0.3c1.2-0.1,2.3-0.4,3.5-0.5c1.5-0.2,3.1-0.3,4.6-0.3c2.2,0,4.3,0,6.5,0c0.3,0,0.7,0,1-0.1
			C622.1,372.8,622.1,372.7,622.1,372.6z"/>
		<path id="cloud_57_" fill="#FFFFFF" d="M219.3,223.3c0.1-0.5,0.2-0.8,0.2-1c-0.1-1.1,0.4-1.3,1.5-1.3c5,0.2,10,0.4,14.9,0.5
			c5.7,0.1,11.3,0,17,0c5.5,0.1,11,0.3,16.4,0.4c0.9,0,1.9-0.5,2.9-0.6c1.2-0.1,2.5-0.1,3.7,0c0.4,0,0.7,0.3,1,0.5
			c2.9,2,6.3,2.5,9.7,3.2c2.5,0.5,4.8,1.5,7.1,2.5c2.2,1,4.5,1.2,6.9,1.2c5.5-0.1,11-0.2,16.5-0.1c2.4,0,4.7,0.6,7,0.8
			c3.1,0.3,6.2,0.6,9.2,0.6c8.5,0.1,17.1,0.1,25.6,0.1c3.2,0,6.4,0,9.7,0c0.6,0,1.3,0,1.9,0c0,0.1,0,0.3,0.1,0.4
			c-0.4,0.1-0.7,0.2-1.1,0.2c-11.1-0.1-22.2-0.2-33.3-0.2c-10.5,0-21-0.1-31.5,0c-3.2,0-6.4,0.5-9.6,0.5c-5.9,0-11.7-0.6-17.6-0.4
			c-4.2,0.1-8.4,0.9-12.6,1.5c-0.4,0-0.9,0.1-1.1,0.4c-1.6,1.8-3.8,1.4-5.9,1.5c-2.7,0-5.3-0.1-8,0c-0.7,0-1.8,0.3-2.2,0.8
			c-3.9,4.9-4.4,3.4-9.7,4.9c-2.7,0.8-5.3,1.7-8,2.4c-1.7,0.5-3.4,1-5.1,1c-4.5,0-8.9-0.3-13.4-0.5c-1.6-0.1-2.4-0.7-2.2-2.2
			c0.2-1.3-0.5-2.2-1.6-3c-0.9-0.6-1.7-1.4-2.6-2.2c-2.7-2.3-5.8-3.7-9.5-3.7c-0.7,0-1.3,0-2,0c-7.1,0.6-14-0.6-20.8-2.4
			c-0.9-0.2-1.9-0.3-2.7-0.6c-2.3-1.1-3.1-3.4-2-5.5c1.2-2.3,3.1-3,5.8-2.1c2.6,0.9,5.2,2.1,8,2.6c2.1,0.4,4.6,0.3,6.6-0.4
			c3.1-1,6.4-1.1,9.4-0.6c5.5,0.9,11,0.7,16.5,0.8C216.2,223.3,217.7,223.3,219.3,223.3z"/>
		<path id="cloud_56_" fill="#FFFFFF" d="M743.3,286.8c-0.3,0-0.7,0.1-1,0.1c-14.2,0.2-28.4,0.2-42.5,0.5c-4.2,0.1-8.4,0.7-12.6,1.3
			c-1.3,0.2-2.6,0.9-3.5,1.6c-1.9,1.5-4,2-6.8,1.9c-6.2-0.1-12.3,0.1-18.5-0.1c-9.5-0.2-18.9,0.4-28.1,1.7c-0.4,0.1-0.9,0.2-1.3,0.2
			c-4.8-0.4-7.7,1.4-9.9,4.1c-1.8,2.1-4.4,3-7.8,2.8c-2-0.1-4.1,0-6.1-0.1c-2.7-0.2-4.9-1-6.2-2.8c-1.5-2-4-2.9-7.2-2.8
			c-7.8,0.2-15.5,0-23-1.5c-1.6-0.3-3.2-0.7-4.8-1.2c-3-1-3.7-3.4-1.4-5.1c1.2-0.9,2.9-1.8,4.6-2.1c11.3-1.6,22.7-3.2,34.3-3.5
			c2.4-0.1,4.8-0.4,7-0.9c2.5-0.6,2.8-1.6,0.8-2.9c-1.5-1-3.3-1.7-4.9-2.6c-1.9-0.9-2.4-2.2-2.2-3.8c0.6-3.5,1.5-4.2,6.5-4.1
			c12.1,0.1,24.2,0.8,35.8,3.4c2.6,0.6,5.1,1.5,7.6,2.3c3.4,1.1,7,1.9,10.1,3.3c2.9,1.3,5.6,3.1,7.8,5c2.9,2.6,6.4,3.6,11.1,3.5
			c7.7-0.2,15.4-0.2,23,0c4.4,0.1,8.6,1.2,13,1.5c3,0.2,6-0.3,9-0.3c5.8-0.1,11.7,0,17.5,0C743.3,286.6,743.3,286.7,743.3,286.8z"/>
		<path id="cloud_55_" fill="#FFFFFF" d="M109.2,264.5c0.2,0,0.3,0,0.5,0c6.7,0.1,13.5,0.1,20.2,0.3c2,0,4,0.4,6,0.7
			c0.6,0.1,1.2,0.5,1.7,0.8c0.9,0.8,1.9,1.1,3.2,1c2.9-0.1,5.8,0,8.8,0c4.5-0.1,8.9,0.2,13.3,0.9c0.2,0,0.4,0.1,0.6,0.1
			c2.3-0.2,3.7,0.8,4.7,2.2c0.8,1.1,2.1,1.6,3.7,1.5c1,0,2,0,2.9-0.1c1.3-0.1,2.3-0.5,3-1.5c0.7-1.1,1.9-1.6,3.4-1.5
			c3.7,0.1,7.3,0,10.9-0.8c0.8-0.2,1.5-0.4,2.3-0.6c1.4-0.6,1.8-1.8,0.6-2.7c-0.6-0.5-1.4-1-2.2-1.1c-5.4-0.9-10.8-1.7-16.3-1.9
			c-1.1,0-2.3-0.2-3.3-0.5c-1.2-0.3-1.3-0.9-0.4-1.5c0.7-0.5,1.5-0.9,2.3-1.4c0.9-0.5,1.2-1.2,1-2c-0.3-1.9-0.7-2.2-3.1-2.2
			c-5.8,0-11.5,0.4-17,1.8c-1.2,0.3-2.4,0.8-3.6,1.2c-1.6,0.6-3.3,1-4.8,1.8c-1.4,0.7-2.7,1.6-3.7,2.7c-1.4,1.4-3,2-5.3,1.9
			c-3.6-0.1-7.3-0.1-10.9,0c-2.1,0.1-4.1,0.6-6.2,0.8c-1.4,0.1-2.8-0.1-4.3-0.2c-2.8,0-5.5,0-8.3,0
			C109.2,264.4,109.2,264.4,109.2,264.5z"/>
		<path id="cloud_54_" fill="#FFFFFF" d="M533.8,259.7c-0.6,0.1-1.3,0.2-1.9,0.2c-9.3,0-18.5-0.1-27.8-0.2
			c-6.6-0.1-13.3-0.2-19.9-0.2c-1.5,0-3.2,0.5-4.5,1.1c-2.2,1.1-4.4,0.5-6.7,0.5c-2.1-0.1-4.3-0.5-6.2-0.1c-1.6,0.3-3.2,1.3-4.1,2.3
			c-1.8,2.1-4.2,2.8-7.5,2.8c-3.3,0-6.1,0.6-7.8,3c-0.4,0.6-1.8,1-2.8,1.2c-2.7,0.5-5.5,0.8-8.2,1.1c-1.5,0.2-3.1,0.3-4.5,0
			c-4.6-0.9-9.2-1.9-13.7-2.9c-1-0.2-1.9-0.7-2.6-1.2c-2.4-1.6-1.9-4.4,1.2-5.2c2.7-0.7,5.7-0.9,8.5-1.4c1.3-0.2,2.4-0.7,3.6-1.1
			c-1.1-0.5-2.1-1.1-3.3-1.5c-1.6-0.5-3.3-0.8-5-1.2c-2.5-0.7-3.1-2-0.8-3c2.4-1.1,5.3-1.7,8-2.4c1.3-0.3,2.7-0.4,4.1-0.4
			c3-0.1,4.8-1.3,6.2-3c0.8-1,2-1.4,3.6-1.4c6.1,0,12.2-0.1,18.3,0.1c1.6,0,3.2,0.7,4.6,1.3c2.5,1.3,4.9,2.7,7.1,4.2
			c2.6,1.8,5.7,2.6,9.2,2.7c4.8,0.3,9.6,0.2,14.3,0.6c4.5,0.4,9,0.4,13.3,1.8c5.1,1.6,10.7,1.7,16.2,1.6c2.3,0,4.6,0,6.9,0
			c0.7,0,1.5,0.1,2.2,0.2C533.8,259.5,533.8,259.6,533.8,259.7z"/>
		<path id="cloud_53_" fill="#FFFFFF" d="M448.8,374.3c-0.4,0.1-0.8,0.1-1.2,0.1c-5.7,0-11.4-0.1-17.1-0.1c-4.1,0-8.1-0.1-12.2-0.1
			c-0.9,0-2,0.3-2.7,0.7c-1.4,0.7-2.7,0.3-4.1,0.3c-1.3,0-2.6-0.3-3.8-0.1c-1,0.2-2,0.8-2.5,1.4c-1.1,1.3-2.6,1.7-4.6,1.7
			c-2,0-3.8,0.4-4.8,1.8c-0.3,0.4-1.1,0.6-1.7,0.7c-1.7,0.3-3.4,0.5-5.1,0.7c-0.9,0.1-1.9,0.2-2.7,0c-2.8-0.5-5.6-1.1-8.4-1.8
			c-0.6-0.1-1.1-0.4-1.6-0.7c-1.5-1-1.2-2.7,0.8-3.2c1.7-0.4,3.5-0.6,5.2-0.9c0.8-0.1,1.5-0.4,2.2-0.7c-0.7-0.3-1.3-0.7-2-0.9
			c-1-0.3-2.1-0.5-3.1-0.8c-1.6-0.4-1.9-1.2-0.5-1.9c1.4-0.7,3.2-1,4.9-1.5c0.8-0.2,1.7-0.2,2.5-0.3c1.8,0,3-0.8,3.8-1.8
			c0.5-0.6,1.2-0.8,2.2-0.8c3.8,0,7.5,0,11.3,0.1c1,0,2,0.4,2.8,0.8c1.5,0.8,3,1.6,4.4,2.6c1.6,1.1,3.5,1.6,5.6,1.7
			c2.9,0.2,5.9,0.1,8.8,0.4c2.7,0.3,5.5,0.3,8.2,1.1c3.1,1,6.6,1,10,1c1.4,0,2.8,0,4.2,0c0.4,0,0.9,0.1,1.3,0.1
			C448.8,374.1,448.8,374.2,448.8,374.3z"/>
		<path id="cloud_52_" fill="#FFFFFF" d="M1561.3,163.9c-1.3,0-2.6,0-3.9,0c-9,0.3-18,0.6-27,0.8c-3.2,0.1-6.5,0.4-9.7-0.2
			c-2.7-0.5-5.4-0.9-8.1-1.3c-0.4-0.1-0.9-0.1-1.3-0.1c-9.2,0.5-18.5,0.9-27.6,2.4c-2.8,0.5-5.8,0.5-8.7,0.7
			c-8.6,0.5-17.2,0.8-25.8,1.4c-3,0.2-5.9,0.8-8.9,1.2c-3.2,0.4-6.4,0.7-9.6,1.2c-3.2,0.5-6.3,1.2-9.3,2c-6.7,1.9-13.5,2.3-20.6,1.8
			c-5.8-0.4-11.6-0.8-17.4-1.4c-4.3-0.4-8.6-1.1-12.8-1.7c-0.6-0.1-1.1-0.2-1.6-0.5c-1.2-0.5-1.1-1.9,0.1-2.3c2-0.6,4-1,6.1-1.4
			c3.8-0.9,7.6-1.6,11.3-2.6c1.7-0.4,3-2.4,2.5-3.6c-0.1-0.3-0.8-0.8-1.3-0.8c-2.7-0.4-5.3-0.9-8-1.1c-5.2-0.3-10.2-1.5-15.2-2.4
			c-2.7-0.5-5.4-0.9-7.7-2.1c-1.6-0.8-2.7-1.8-3.2-3.1c-0.4-1.1,0.1-1.9,1.6-2.2c3.2-0.6,6.5-1.2,9.8-1.4c9-0.5,18.1-0.8,27.1-1.2
			c1.5-0.1,3,0.2,4.5,0.3c0.7,0,1.4,0.2,2.1,0.1c9.1-0.4,18.2-0.9,27.3-1.1c3.8-0.1,7.6,0.2,11.4,0.6c3,0.3,3.9,2.1,2.1,3.8
			c-0.9,0.9-2,1.7-3,2.6c-0.7,0.6-0.5,0.9,0.6,1.1c3.8,0.6,7.7,0.7,11.6,0.4c1.7-0.1,2.9,0,3.6,1.4c0.2,0.4,1.3,0.7,2.1,0.8
			c2.8,0.3,5.7,0.4,8.5,0.8c1.1,0.1,2.2,0.6,3,1.1c0.9,0.5,1.7,0.8,2.8,0.7c8.5-0.5,17.1-1.1,25.6-1.6c2.8-0.2,5.2,0.1,7.5,1.5
			c1.7,1.1,4,0.5,6.1,0.4c1.7-0.1,3.4-0.3,5.1-0.5c1.9-0.2,3.2,0.7,4.8,1.1c1.3,0.3,2.6,0.6,4,0.7c3.6,0.2,7.2,0.2,10.7,0.4
			c1.8,0.1,3.5,0.2,5.1,1c0.9,0.5,2.3,0.5,3.4,0.6c2.8,0.2,5.6,0.3,8.4,0.4c1,0,2,0.1,3,0c3-0.3,5.7,0.4,8.4,1.1
			C1561.3,163.7,1561.3,163.8,1561.3,163.9z"/>
		<path id="cloud_51_" fill="#FFFFFF" d="M895.2,329.4c7.9,0.4,15.7,1.4,23.4,2.9c0.1,0,0.1,0,0.2,0c1,0.2,2.2,0.1,2.8,0.5
			c0.4,0.3-0.1,1.2-0.2,1.9c-0.3,1.7,1.4,3,3.7,3.1c5.3,0.4,10.6,1.1,16,1.4c10.5,0.7,20.9,1.1,31.4,1.8c6.3,0.4,12.4,1.4,18.7,1.9
			c4.9,0.4,9.8,0.5,14.7,0.8c0.4,0,0.8,0.3,1.1,0.5c-0.3,0.2-0.6,0.4-0.9,0.6c0,0-0.1,0-0.2,0c-8.8,0.6-17.4,2.1-26.4,2
			c-9-0.2-18.2,0.1-27,2.2c-2.4,0.6-4.6,1.4-7,1.9c-2,0.4-4.2,0.4-6.3,0.7c-1.1,0.1-2.1,0.5-3.2,0.8c-0.3,0.1-0.5,0.2-0.8,0.3
			c-3.7,0.8-7.4,1.6-11.2,2.2c-2.7,0.4-5.5,0.5-8.3,0.6c-3.1,0-6.3-0.2-9.4-0.2c-0.5,0-1.2,0.1-1.6,0.4c-3,1.3-6.2,2.5-9,4
			c-1.5,0.8-2.5,2.1-3.6,3.3c-0.6,0.6-0.9,1.4-1.4,2.1c-0.5,0.7-1.4,1.1-2.6,1c-5.3-0.6-10.6-1.1-15.9-1.7c-1.8-0.2-3.6-0.6-5.5-0.8
			c-1.1-0.1-1.3-0.5-1.3-1.2c0.2-1.8-1.5-3.3-4.2-3.6c-4.5-0.5-8.9-0.9-13.4-1.3c-17.8-1.3-35.6-2.5-53.4-4
			c-6.5-0.5-12.9-1.6-19.2-2.7c-2.6-0.5-5-1.6-7.2-2.6c-1.5-0.7-1.3-2.4,0.2-3.2c3.5-1.9,7.7-2.6,12.1-2.6c8.6,0,17.1,0.5,25.7,0
			c5.7-0.3,11.1-1.1,16.6-2.1c0.4-0.1,1.1-0.4,1.1-0.7c0.1-0.9,0.8-1.1,1.9-1.3c5.8-0.9,11.5-0.4,17.3-0.2
			c9.1,0.3,18.3,1.2,27.4-0.3c1.7-0.3,3.4-0.7,5-1.1c1-0.2,1.3-2,0.8-3.3c-0.3-0.8-0.8-1.7-0.6-2.5c0.1-0.5,1.1-1.3,1.8-1.3
			c3.6-0.4,7.2-0.7,10.8-0.8C890.5,328.9,892.9,329.2,895.2,329.4z"/>
		<path id="cloud_50_" fill="#FFFFFF" d="M908.3,222.5c-0.5,0.1-1.1,0.1-1.6,0.2c-17.5,0.3-34.9,0.6-52.4,0.9
			c-5.5,0.1-11.1,0.3-16.6,0.3c-6.6-0.1-13.2-0.4-19.7-0.7c-0.6,0-1.3-0.1-1.8,0c-3.8,1.3-7.9,0.7-11.8,0.9
			c-7.6,0.2-15.2,0.2-22.9,0.5c-4,0.1-7.9,0.8-10.8,3c-2.4,1.9-5.7,1.9-8.9,1.6c-1.1-0.1-2.2-0.9-3.1-1.6c-1.1-0.9-2.2-1.4-4-1.6
			c-1.7-0.1-3.3-0.6-4.9-1.1c-5-1.7-10.1-3.1-15.9-3c-10.8,0.2-21.5,0.4-32.3,0.6c-1.6,0-2.6,0.1-2.6,1.6c0,1.5-1.7,2.4-3.7,3
			c-4.9,1.7-10.1,2.1-15.5,2c-5.3-0.1-10.6,0.1-15.8,1.3c-2.7,0.6-4.8,1.7-6.4,3.3c-0.6,0.5-1.8,1-2.7,1.1
			c-7.3,0.2-14.6,0.5-21.9,0.4c-4.1-0.1-8.1-0.8-12.2-1.3c-0.3,0-0.7-0.1-1-0.1c-6.6-0.2-13.2-0.4-19.7-0.5c-13-0.3-26-0.8-39-0.5
			c-5,0.1-10.1-1.3-15.2-2c-3.1-0.4-6.2-0.7-9.2-1.2c-2.6-0.4-5.1-1-7.5-1.7c-0.8-0.3-1.6-1.3-1.6-2c0-1.1,1.5-0.9,2.6-1
			c36.6-0.7,73.1-1.3,109.7-2c0.7,0,1.3,0,2.2,0c-0.9-1.7-1.2-3.4-3.3-4.6c-1.1-0.6-1.7-1.7-2.7-2.4c-2-1.2-4-2.3-6.2-3.2
			c-3.3-1.4-4.4-3.4-2.6-5.6c0.4-0.5,1.4-0.9,2.1-1c11.4-0.3,22.7-0.6,34.1-0.6c7.1,0,14.3,0.8,21.4,1.2c3,0.2,6-0.1,9,0.2
			c8.6,0.9,17.2,0,25.8,0.1c3.1,0,6.3-0.1,9.4-0.2c2.2-0.1,2.8-0.5,2.8-2.1c0-1.2,0-2.4-0.1-3.7c0-1,0.5-1.4,2-1.4
			c2.6,0,5.3-0.4,7.8-0.1c3.1,0.4,6,1.5,9,2.3c2.3,0.6,4.6,1.4,7,1.8c4.5,0.8,9.1,0.8,13.7,0.7c1.1,0,2.3,0.5,3.4,0.9
			c1.5,0.5,3,1.1,4.4,1.7c1.3,0.6,2.8,1.3,3.4,2.2c1.8,2.4,4.8,3.9,7.6,5.7c2.2,1.4,4.8,1.9,7.5,2.2c6.7,0.7,13.4,1.8,20.1,2.3
			c6.2,0.4,12.4,0.2,18.6,0.4c2.1,0.1,4.2,0.6,6.3,0.6c3.7,0.1,7.5-0.2,11.2-0.1c3.8,0.1,7.7,0.5,11.5,0.6c4.6,0.2,9.2,0.4,13.8,0.5
			c4.4,0.1,8.8-0.1,13.2-0.1c5.2,0.1,10.4,0.3,15.7,0.4C908.3,222.1,908.3,222.3,908.3,222.5z"/>
		<path id="cloud_49_" fill="#FFFFFF" d="M857.9,50.2c-3.4-0.2-6.2-0.3-9.1-0.5c-4.1-0.3-8.2-0.9-12.4-0.6c-2.5,0.2-5,0.6-7.5,0.5
			c-2.2-0.1-4.4-0.6-6.5-1c-1.5-0.3-1.9-1.1-1.5-2.2c0.5-1.6,2.3-2.8,4.6-3c4.4-0.5,8.7-0.9,13.1-1.4c1-0.1,1.5-0.3,1.5-1.1
			c0-0.4,0.7-0.9,1.3-1.1c0.6-0.3,1.4-0.4,2.1-0.4c5.6-0.1,11.3-0.5,16.9-0.1c3.7,0.2,7.6,0.8,11,2.2c0.9,0.4,2.1,0.6,3.1,0.7
			c3.2,0.2,4.5,1.8,5.5,3.6c0.4,0.8,0.9,1.6,1.3,2.3c1.3,2.4,4.1,3.2,7.5,3.2c3.3,0,6.6,0,9.9,0.2c3.7,0.1,7.3,0.5,10.9,1.1
			c2.6,0.4,5.5,0.2,8.3,0.3c0.9,0,1.9,0,2.8,0c0,0.1,0,0.2,0,0.3c-0.5,0-1,0-1.5,0c-6.4,0-12.8,0.1-19.3,0
			c-4.4-0.1-8.7,0.3-12.8,1.3c-2.4,0.6-4.8,0.8-7.3,0.8c-7.3-0.2-14.6-0.2-21.9-0.4c-0.8,0-2.1-0.3-2.3-0.7
			c-0.2-0.5,0.3-1.2,0.7-1.8C856.7,51.5,857.3,50.9,857.9,50.2z"/>
		<path id="cloud_48_" fill="#FFFFFF" d="M446.4,15.3c-5.5,1.4-5.1,3-2.6,4.7c0.7,0.5,2.3,0.8,3.4,0.7c10-1.3,19.9-1,29.9-0.1
			c9,0.8,18.3,0.6,27.5,1.1c7.7,0.4,15.4,0.9,23.1,1.5c9.6,0.8,19.1,1.9,28.7,2.5c5.3,0.3,10.8-0.2,16.2-0.3
			c5.2-0.1,10.4-0.1,15.6-0.2c1.7,0,3.4-0.1,5-0.1c0.9,0,2.2-0.3,2.7-0.1c6.1,2.4,13.1,0.7,19.7,1.2c6.4,0.5,12.9,0.6,19.2,1
			c2.9,0.2,5.7,1.1,8.6,1.2c7,0.2,14.1-0.2,21.1,0c4.8,0.1,9.6,0.9,14.4,1.1c9,0.2,18.1,0.4,27.2,0.2c3.7-0.1,7.3-0.7,10.8,0.3
			c0.6,0.2,1.2,0.5,2.6,1c-1.9,0.1-2.8,0.2-3.8,0.3c-6.4,0.2-12.8,0.4-19.1,0.5c-9,0.1-18.1,0.1-27.1,0.2c-1.2,0-2.4,0.1-3.6,0.2
			c-6.6,0.5-13.2,1.1-19.8,1.5c-5.1,0.2-10.2,0-15.3,0.1c-3.9,0.1-7.9,0.4-11.8,0.6c-0.8,0-1.5,0.2-2.3,0.2
			c-6.9-0.2-13.8-0.4-20.8-0.5c-0.6,0-1.5,0.1-1.8,0.3c-2.2,2-6,1.8-9.3,2c-11.2,0.7-22.5,1.1-33.7,1.8c-9.1,0.6-18.2,1.5-27.2,2.2
			c-0.5,3.2-0.6,3-6.5,3.6c-6.5,0.6-12.9,1.6-19.4,2.3c-2.7,0.3-2.8,0.8-1.8,2.1c1.2,1.7,2.1,3.6,2.8,5.5c0.9,2.4,0,3.1-4.6,3.3
			c-6.5,0.2-13,0.4-19.5,0.1c-16.9-0.8-33.6,0.3-50.4,1.2c-9.6,0.5-19.3,1.4-29,1.3c-12.6,0-25.3-0.6-37.9-1.3
			c-16.1-0.9-32.1-2.3-48.2-3.3c-6.3-0.4-12.7,0.1-19,0.1c-13.2-0.1-26.4,0.4-39.3-1.5c-2.4-0.4-4.3-0.8-4.5-2.3
			c-0.1-1.8-1.4-3.7,2-5.1c0.9-0.3,1.8-0.6,2.6-1c3.4-1.8,3.3-3.6-0.9-4.5c-11.3-2.5-22.8-4.7-34.3-7c-2.6-0.5-6.1-0.2-6.9-2.3
			c-0.7-1.9,2-4.9,5.6-5.7c3.9-0.9,8.1-1.5,12.2-2c17.8-2.4,35.7-2.2,53.6-1.1c9.5,0.6,18.4-0.8,27.4-2c1.7-0.2,3.3-0.6,4.9-0.9
			c2.9-0.5,4.4-1.5,3.8-3.3c-0.6-1.7,1.7-2.4,4.1-2.8c10.4-1.7,20.9-1.9,31.5-1.4c12.5,0.5,24.9,1.2,37.4,1.5
			c8.3,0.2,16.7-0.5,25-0.3c9.2,0.1,18.4,0.7,27.6,1.1C443.4,14.5,444.3,14.8,446.4,15.3z"/>
		<path id="cloud_47_" fill="#FFFFFF" d="M515,166.5c-1.9,0.8-1.8,1.8-0.9,2.8c0.2,0.3,0.8,0.5,1.2,0.4c3.5-0.7,6.9-0.5,10.4,0.2
			c3.1,0.6,6.3,0.5,9.5,0.9c2.7,0.3,5.3,0.7,8,1.1c3.3,0.5,6.6,1.3,10,1.7c1.8,0.2,3.7,0,5.6,0c1.8,0,3.6,0,5.4,0c0.6,0,1.2,0,1.7,0
			c0.3,0,0.7-0.2,0.9,0c2.1,1.5,4.6,0.5,6.8,0.9c2.2,0.3,4.5,0.4,6.7,0.8c1,0.1,2,0.7,3,0.8c2.4,0.1,4.9,0,7.3,0.2
			c1.7,0.1,3.3,0.6,5,0.8c3.1,0.2,6.3,0.4,9.4,0.3c1.3,0,2.5-0.3,3.7,0.3c0.2,0.1,0.4,0.3,0.9,0.7c-0.6,0.1-1,0.1-1.3,0.1
			c-2.2,0.1-4.4,0.2-6.6,0.2c-3.1,0-6.3-0.1-9.4-0.1c-0.4,0-0.8,0-1.2,0.1c-2.3,0.2-4.6,0.6-6.9,0.7c-1.7,0.1-3.5-0.1-5.3-0.1
			c-1.4,0-2.7,0.2-4.1,0.3c-0.3,0-0.5,0.1-0.8,0.1c-2.4-0.2-4.8-0.3-7.2-0.5c-0.2,0-0.5,0-0.6,0.2c-0.8,1.2-2.1,1-3.2,1.1
			c-3.9,0.3-7.8,0.5-11.7,0.8c-3.1,0.3-6.3,0.7-9.4,1.1c-0.1,2-0.2,1.8-2.2,2.1c-2.3,0.3-4.5,0.9-6.7,1.2c-0.9,0.2-0.9,0.5-0.6,1.3
			c0.4,1.1,0.8,2.2,1,3.3c0.3,1.5,0,1.9-1.6,1.9c-2.2,0.1-4.5,0.1-6.7-0.1c-5.8-0.6-11.6-0.1-17.4,0.3c-3.3,0.2-6.7,0.7-10,0.6
			c-4.4-0.1-8.8-0.6-13.1-1.1c-5.6-0.7-11.1-1.7-16.7-2.4c-2.2-0.3-4.4,0-6.6-0.1c-4.6-0.1-9.1,0-13.6-1.2c-0.8-0.2-1.5-0.5-1.6-1.4
			c-0.1-1.1-0.5-2.3,0.7-3.1c0.3-0.2,0.6-0.4,0.9-0.6c1.2-1,1.1-2.1-0.3-2.7c-3.9-1.6-7.9-3-11.9-4.5c-0.9-0.3-2.1-0.2-2.4-1.4
			c-0.3-1.1,0.6-2.9,1.9-3.4c1.3-0.5,2.8-0.8,4.2-1.1c6.1-1.3,12.4-1.1,18.5-0.2c3.3,0.4,6.4-0.3,9.5-1c0.6-0.1,1.1-0.3,1.7-0.5
			c1-0.3,1.5-0.9,1.3-2c-0.2-1,0.6-1.4,1.4-1.7c3.6-0.9,7.2-1,10.9-0.6c4.3,0.4,8.6,0.9,13,1.2c2.9,0.2,5.8-0.1,8.6,0
			c3.2,0.2,6.4,0.6,9.5,0.9C514,166,514.3,166.2,515,166.5z"/>
		<path id="cloud_46_" fill="#FFFFFF" d="M1202.5,181.7c-0.4,0-0.9,0-1.3,0.1c-5.6,0.5-11.1,0.2-16.7,0.1
			c-5.8-0.2-11.5-0.6-17.3,0.1c-1.1,0.1-2.3,0.7-3.4,0.7c-11.6-0.4-23.1,1.2-34.6,1.5c-2.6,0.1-5.3-0.6-7.7-1.2
			c-5.3-1.3-10.5-0.8-15.8-0.3c-1.3,0.1-2.1,0.8-2.5,1.7c-0.6,1.1-1.6,1.7-3.3,1.8c-3.1,0.2-6.1,0.5-9.2-0.2
			c-1.5-0.3-3.2-0.3-4.8-0.2c-4.3,0.3-8.6,0.6-12.8,1c-1.4,0.1-2.7,0.5-4.1,0.9c-0.5,0.1-1,0.6-1.2,0.9c-0.3,0.8-1,1-2,1
			c-4.2,0.3-8.5,0.5-12.7,0.8c-2.5,0.2-3.4,1-3.2,2.7c0.3,2.9,0.9,2.4-3.4,2.8c-3.4,0.3-6.6,0.1-9.9-0.4c-0.6-0.1-1.2-0.1-1.8-0.1
			c-4.9,0.3-9.7,0.6-14.6,0.9c-1.4,0.1-2.8-0.2-4.2-0.4c-0.4-0.1-1-0.6-1-0.9c0-0.3,0.5-0.6,0.9-0.8c0.7-0.4,1.4-0.7,2.1-1.1
			c1.3-0.8,2.4-1.6,3.7-2.3c0.9-0.4,0.7-0.9,0.5-1.4c-0.3-0.8-1.1-1.3-2.3-1.4c-1.4,0-2.9,0.2-4.3,0.1c-4.6-0.4-9.3-1-13.9-1.5
			c-0.5-0.1-1-0.1-1.5-0.1c-7.1,0.8-14-0.1-20.8-1.5c-1-0.2-1.5-0.6-1.7-1.4c-0.9-3,1.7-4.4,5.7-4.8c7.3-0.8,14.8-1.1,22.2-1.4
			c1.5-0.1,3.1,0.5,4.7,0.7c4.7,0.3,9.5,0.4,14.2,0c5.4-0.4,10.9-0.7,16.3-1c1.6-0.1,3.4,0.1,4.9,0.4c2.7,0.5,5.4,0.4,8.1,0.3
			c12-0.7,23.9-1.5,35.9-2.2c2.4-0.1,5,0.3,7.4,0.1c4.6-0.3,9.2-0.4,13.8,0.4c0.3,0,0.6,0,0.9,0c2.6-0.5,4.6,0.3,6.7,1.2
			c0.1,0.1,0.3,0.1,0.4,0.2c1.6,1.9,4.4,1.4,6.8,1.6c3.2,0.2,6.3,0.3,9.5,0.4c2.3,0.1,4.6,0.1,6.8,0.2c1.2,0,2.3,0.2,3.5,0.3
			c1.4,0.2,2.8,0.6,4.2,0.5c2.8-0.2,5.5,0.2,8.2,0.4c3.7,0.2,7.4,0.3,11.1,0.4c5.4,0.2,10.9,0.2,16.3,0.5c5.2,0.2,10.5,0.4,15.7,0
			c0.4,0,0.8,0,1.1,0c0.1,0,0.2,0.1,0.3,0.1C1202.5,181.5,1202.5,181.6,1202.5,181.7z"/>
		<path id="cloud_45_" fill="#FFFFFF" d="M182.9,306.9c-0.3,0-0.7,0-1,0.1c-4.1,0.4-8.2,0.2-12.3,0c-4.2-0.1-8.5-0.4-12.8,0.1
			c-0.8,0.1-1.7,0.5-2.5,0.5c-8.6-0.3-17,0.9-25.6,1.1c-1.9,0-3.9-0.4-5.7-0.9c-3.9-1-7.8-0.6-11.7-0.3c-1,0.1-1.5,0.6-1.8,1.2
			c-0.4,0.8-1.2,1.2-2.4,1.3c-2.3,0.1-4.5,0.3-6.8-0.1c-1.1-0.2-2.4-0.2-3.6-0.1c-3.2,0.2-6.3,0.4-9.5,0.7c-1,0.1-2,0.4-3,0.7
			c-0.4,0.1-0.8,0.4-0.9,0.7c-0.2,0.6-0.7,0.7-1.5,0.8c-3.1,0.2-6.3,0.4-9.4,0.6c-1.8,0.1-2.5,0.7-2.4,2c0.2,2.1,0.7,1.8-2.5,2
			c-2.5,0.2-4.9,0-7.3-0.3c-0.4-0.1-0.9-0.1-1.3-0.1c-3.6,0.2-7.2,0.5-10.8,0.6c-1,0-2.1-0.1-3.1-0.3c-0.3-0.1-0.7-0.4-0.8-0.7
			c0-0.2,0.4-0.4,0.7-0.6c0.5-0.3,1.1-0.5,1.6-0.8c0.9-0.6,1.8-1.2,2.8-1.7c0.6-0.3,0.5-0.7,0.4-1c-0.2-0.6-0.8-1-1.7-1
			c-1.1,0-2.1,0.2-3.2,0.1c-3.4-0.3-6.8-0.7-10.3-1.1c-0.4,0-0.8-0.1-1.1,0c-5.3,0.6-10.3-0.1-15.4-1.1c-0.8-0.2-1.1-0.4-1.3-1
			c-0.7-2.2,1.2-3.2,4.2-3.6c5.4-0.6,10.9-0.8,16.4-1c1.1-0.1,2.3,0.4,3.5,0.5c3.5,0.2,7,0.3,10.5,0c4-0.3,8-0.6,12-0.7
			c1.2-0.1,2.5,0,3.6,0.3c2,0.4,4,0.3,6,0.2c8.8-0.6,17.7-1.1,26.5-1.6c1.8-0.1,3.7,0.2,5.5,0.1c3.4-0.2,6.8-0.3,10.2,0.3
			c0.2,0,0.4,0,0.6,0c1.9-0.4,3.4,0.2,4.9,0.9c0.1,0,0.2,0.1,0.3,0.1c1.2,1.4,3.3,1,5,1.2c2.3,0.2,4.7,0.2,7,0.3
			c1.7,0.1,3.4,0.1,5,0.1c0.9,0,1.7,0.1,2.6,0.2c1,0.1,2.1,0.4,3.1,0.4c2.1-0.1,4,0.2,6.1,0.3c2.7,0.2,5.5,0.2,8.2,0.3
			c4,0.1,8,0.2,12.1,0.3c3.9,0.2,7.7,0.3,11.6,0c0.3,0,0.6,0,0.8,0c0.1,0,0.2,0.1,0.3,0.1C182.8,306.7,182.8,306.8,182.9,306.9z"/>
		<path id="cloud_44_" fill="#FFFFFF" d="M806.8,390.1c-0.2,0-0.4,0-0.6,0c-2.6,0.3-5.1,0-7.7-0.1c-2.7-0.1-5.3-0.4-8-0.1
			c-0.5,0.1-1,0.4-1.6,0.3c-5.4-0.3-10.6,0.5-16,0.6c-1.2,0-2.4-0.3-3.6-0.7c-2.4-0.8-4.9-0.5-7.3-0.3c-0.6,0-0.9,0.4-1.1,0.9
			c-0.2,0.6-0.7,0.9-1.5,0.9c-1.4,0.1-2.8,0.2-4.3-0.2c-0.7-0.2-1.5-0.2-2.2-0.1c-2,0.1-4,0.3-5.9,0.4c-0.6,0.1-1.3,0.3-1.9,0.5
			c-0.2,0.1-0.5,0.3-0.5,0.5c-0.1,0.4-0.5,0.5-0.9,0.5c-2,0.1-3.9,0.2-5.9,0.3c-1.1,0.1-1.6,0.5-1.5,1.5c0.2,1.6,0.4,1.3-1.5,1.5
			c-1.6,0.1-3.1,0-4.6-0.3c-0.3-0.1-0.6-0.1-0.8-0.1c-2.2,0.1-4.5,0.3-6.7,0.4c-0.6,0-1.3-0.1-1.9-0.2c-0.2,0-0.5-0.3-0.5-0.5
			c0-0.1,0.2-0.3,0.4-0.4c0.3-0.2,0.7-0.4,1-0.6c0.6-0.4,1.1-0.9,1.7-1.2c0.4-0.2,0.3-0.5,0.2-0.8c-0.1-0.5-0.5-0.7-1.1-0.8
			c-0.7,0-1.3,0.1-2,0c-2.1-0.3-4.3-0.6-6.4-0.9c-0.2,0-0.5-0.1-0.7,0c-3.3,0.4-6.5-0.2-9.6-1c-0.5-0.1-0.7-0.3-0.8-0.8
			c-0.5-1.7,0.7-2.4,2.6-2.6c3.4-0.4,6.8-0.5,10.2-0.6c0.7,0,1.4,0.3,2.2,0.4c2.2,0.2,4.4,0.3,6.6,0.1c2.5-0.2,5-0.3,7.5-0.4
			c0.8,0,1.6,0.1,2.3,0.2c1.2,0.3,2.5,0.3,3.7,0.2c5.5-0.3,11.1-0.6,16.6-0.9c1.1-0.1,2.3,0.2,3.4,0.1c2.1-0.1,4.3-0.1,6.4,0.3
			c0.1,0,0.3,0,0.4,0c1.2-0.3,2.1,0.2,3.1,0.7c0.1,0,0.1,0,0.2,0.1c0.8,1.1,2,0.8,3.1,0.9c1.5,0.2,2.9,0.2,4.4,0.3
			c1.1,0.1,2.1,0.1,3.2,0.1c0.5,0,1.1,0.1,1.6,0.2c0.6,0.1,1.3,0.3,1.9,0.3c1.3-0.1,2.5,0.2,3.8,0.3c1.7,0.1,3.4,0.2,5.1,0.3
			c2.5,0.1,5,0.2,7.5,0.4c2.4,0.2,4.8,0.3,7.3,0.1c0.2,0,0.4,0,0.5,0c0.1,0,0.1,0,0.2,0.1C806.8,390,806.8,390.1,806.8,390.1z"/>
		<path id="cloud_43_" fill="#FFFFFF" d="M1425.6,56.7c-0.6,0.7-0.6,0.8-0.7,0.9c-7.1,0.8-14.2,1.5-21.3,2.2
			c-1.6,0.2-3.2,0.6-4.9,0.9c-1.3,0.2-2.7,0.6-4,0.7c-8.6,0.4-17.2,0.7-25.8,1c-2.2,0.1-3.8,0.5-5.1,1.9c-0.4,0.4-1.9,0.5-2.8,0.5
			c-1.4-0.1-2.7-0.6-4-0.5c-7.1,0.2-14.2,0.3-21.2,0.8c-5.9,0.4-11.3-0.5-16.9-1.3c-2-0.3-4.1-0.4-6.2-0.5
			c-3.8-0.2-7.5-0.6-11.3-0.7c-3.8-0.1-7.7,0.4-11.5,0.2c-4.1-0.3-8.1-1.1-12.2-1.7c-0.4-0.1-0.7-0.4-1.1-0.3
			c-8.2,0.1-16.3-2-24.6-0.7c-1.4,0.2-3.1,1.3-3.6,2.2c-1.3,2.7-4.2,3.5-7.6,3.6c-15.6,0.7-31.1,1.2-46.7,1.8c-1,0-2,0.5-3.1,0.8
			c0.8,0.6,1.5,1.3,2.5,1.8c2.4,1.1,4.9,1.9,7.3,3c0.8,0.4,1.5,1.2,1.7,1.8c0.7,2.4,0.1,2.9-3.3,3.1c-5.2,0.2-10.3,0.4-15.5,0.6
			c-3.2,0.1-6.4,0.5-9.5-0.7c-0.7-0.3-1.8-0.1-2.7-0.1c-3.7,0.1-7.5,0.4-11.2,0.4c-8.7,0-17.3,1-26.2-0.1c-9.8-1.1-20-1.1-30.1-0.5
			c-3.5,0.2-7.3-0.6-10.8-1.1c-2.2-0.4-2.3-2.5-0.3-4c3.3-2.4,2.8-4.3-1.7-5.4c-2.5-0.6-5.2-0.9-7.8-1c-6.2-0.1-12.3,0.7-18.6-0.5
			c-3.3-0.6-7.2,0.3-10.9,0.2c-5.5-0.1-10.9-0.6-16.4-0.6c-5.5,0-10.9,0.4-16.5-0.5c-6.9-1.1-14-1.3-21-2c-4.4-0.4-6.1-3.8-3.2-6.3
			c2-1.8,4.6-2.9,8-3c5-0.1,9.9-0.5,14.8-0.5c5.5,0,10.4-0.9,15.2-2.6c1.7-0.6,3.8-1,5.7-1.1c23.1-0.9,46.3-1.8,69.4-2.6
			c1.3,0,2.6-0.1,4-0.2c0.1-0.6,0.2-1.1,0.2-1.5c-0.3-1.8,0.9-2.5,3.5-2.6c16.7-0.6,33.3-1.2,50-1.9c3.6-0.1,7.3-0.4,10.9-0.4
			c3.4,0,6.7,0.5,10.1,0.6c2.4,0.1,4.8,0,7.2-0.1c2.3-0.1,4,0.6,6,1.5c2.3,1.1,5.5,1.8,8.4,1.8c7.9,0,15.7-0.5,23.6-0.7
			c1.7,0,3.4,0.5,5.2,0.8c2.7,0.4,5.4,1.1,8.1,1.3c4.7,0.4,9.5,0.7,14.2,1c0.9,0.1,1.9-0.2,2.7,0c5.3,1,10.7,1.8,15.8,3.1
			c8.3,2.2,16.5,4.2,25.6,3.4c5.5-0.5,11.2-0.2,16.6-0.8c5.4-0.6,10.6,0.1,15.9,0.1c9.4,0.1,18.6,1.6,27.5,3.5c10,2.1,20,0.6,30,0.6
			c3.1,0,6.2,0.3,9.3,0.4c4.2,0.1,8.4,0,12.7,0C1420.1,57,1422.6,56.8,1425.6,56.7z"/>
		<path id="cloud_42_" fill="#FFFFFF" d="M996.9,95.4c-2.1,0.3-4.3,0.4-6.3,1.1c-3.4,1.1-6.7,3.3-10.2,3.7
			c-8.1,1.1-16.4,1.7-24.6,2.2c-4.6,0.3-4.9,0.5-5.9,5.5c-0.2,0.9-1.9,2.3-2.6,2.1c-12.1-3.6-24.3-1.6-36.5-2.2
			c-7.6-0.3-15.2-0.9-22.7-1c-1.9,0-3.9,1.3-5.9,1.5c-2.5,0.3-5.2,0.7-7.5-0.1c-3.1-1-6-3-8.9-4.6c-4.5-2.4-8.4-2.3-9.7,4.1
			c-0.9,4.4-3.7,2.9-6,3c-5.5,0.1-10.9,0.1-16.4,0.3c-0.8,0-1.8,0.5-2.3,1.2c-2.4,3-5.1,2.7-8.2,1.8c-5.1-1.6-10.3-2.6-14.4-6.7
			c-1.1-1.1-1.7-2.8-2.6-4.1c-0.5-0.8-1.3-1.9-2-1.9c-9.5-0.2-19.1-0.2-28.6-0.2c-1.1,0-2.2,0.1-3.3,0.1c-13,0-26.1,0-39.1,0
			c-4.4,0-5.4,2-4.4,6.9c0.9,4.5,1.5,9.4,1.1,14c-0.2,2-2.9,4.6-5,5.4c-2.7,1-5.9,0.6-8.9,0.6c-7.8,0-15.7-0.1-23.5-0.4
			c-2.6-0.1-5.3,0-6.1-4.6c-0.3-1.5-4.4-2.4-6.9-2.9c-29.6-6.1-59.5-2.2-89.3-3c-13.9-0.4-26.4-4.9-38.4-12.2
			c-2.7-1.6-2.9-3.9-2.8-6.8c0.1-2.8,2-3,3.6-4c4.9-3.1,10.3-3.2,15.7-3.6c7.3-0.5,14.6-1.7,21.9-1.8c3.7-0.1,7.5,1.4,11.2,2.4
			c3.2,0.9,6.2,2.8,9.4,3c10.3,0.6,20.7,0.9,31,0.9c9.6,0,19.1-0.4,28.7-0.8c2.4-0.1,4.8-0.3,7.1-0.9c1.5-0.4,3.9-1.8,3.8-2.5
			c-0.2-2.1-1-4.6-2.3-5.9c-3-2.9-4.2-6.3-4.3-10.7c0-3.5,1.3-4.7,4.2-4.7c9.6,0.1,19.2,0,28.8,0c6.5,0,13-0.2,19.5,0.1
			c4.6,0.2,9.2,0.8,13.7,1.5c1.3,0.2,2.8,1.1,3.8,2.1c5.6,5.8,12.7,5.8,19.4,6.7c5.5,0.7,11.2,0.4,16.5-2.2c0.3-0.1,0.7-0.2,0.9-0.5
			c3.1-4.5,7.4-4.2,11.8-4c6,0.3,12.1,0.5,18.1,0.7c0.4,0,0.9,0,1.3,0.1c6,1.8,11.9,4,17.9,5.4c4.3,1,8.7,1.3,13.1,1.2
			c7.4-0.2,14.7,0.4,21.8,2.5c1.3,0.4,2.8,1.4,3.5,2.6c4.1,7,10.3,8.9,17.1,9.4c5.1,0.4,10.3,1.2,15.4,1.2c5.3,0,10.6-0.9,15.9-1.2
			c7-0.4,14.1-0.5,21.1-0.8c1.5-0.1,3.1,0.2,4.6-0.1c1.1-0.2,2-1.2,3.1-1.8c0.9-0.5,2-1.3,2.9-1.2c3.6,0.5,7.1,1.5,10.6,1.9
			c4.7,0.6,9.4,1,14.1,1.1c6.6,0.2,13.3,0,19.9,0c1,0,2.1,0.1,3.1,0.2C996.9,94.6,996.9,95,996.9,95.4z"/>
		<path id="cloud_41_" fill="#FFFFFF" d="M533.8,113.3c-2.5-0.3-5.1-0.4-7.5-1.1c-4.1-1.1-8-3.3-12.2-3.8
			c-9.7-1.1-19.5-1.7-29.3-2.2c-5.4-0.3-5.8-0.5-7-5.5c-0.2-0.9-2.3-2.3-3.1-2.1c-14.4,3.6-29,1.6-43.5,2.2
			c-9,0.4-18.1,0.9-27.1,1.1c-2.3,0-4.6-1.3-7-1.6c-3-0.3-6.2-0.7-9,0.1c-3.7,1-7.1,3-10.7,4.6c-5.4,2.4-10,2.3-11.6-4.1
			c-1.1-4.4-4.4-2.9-7.2-3c-6.5-0.1-13-0.1-19.5-0.3c-1,0-2.1-0.6-2.8-1.2c-2.8-3-6.1-2.7-9.7-1.8c-6.1,1.6-12.3,2.7-17.2,6.8
			c-1.3,1.1-2,2.8-3.1,4.2c-0.6,0.8-1.6,1.9-2.4,1.9c-11.4,0.2-22.7,0.2-34.1,0.2c-1.3,0-2.6-0.1-3.9-0.1c-15.5,0-31.1,0-46.6,0
			c-5.2,0-6.4-2.1-5.3-6.9c1.1-4.6,1.8-9.4,1.3-14c-0.2-2.1-3.5-4.7-5.9-5.4c-3.2-1-7-0.6-10.5-0.6c-9.3,0-18.7,0.1-28,0.4
			c-3.1,0.1-6.3,0-7.2,4.6c-0.3,1.5-5.3,2.4-8.2,2.9c-35.3,6.1-70.9,2.2-106.4,3c-16.6,0.4-31.4,5-45.8,12.3c-3.2,1.6-3.5,4-3.3,6.9
			c0.1,2.8,2.3,3,4.3,4.1c5.9,3.1,12.2,3.2,18.6,3.6c8.7,0.5,17.4,1.7,26.1,1.8c4.4,0.1,8.9-1.4,13.4-2.4c3.8-0.9,7.4-2.8,11.2-3
			c12.3-0.6,24.6-0.9,37-0.9c11.4,0,22.8,0.4,34.2,0.8c2.9,0.1,5.8,0.3,8.5,1c1.7,0.4,4.6,1.8,4.6,2.5c-0.2,2.1-1.1,4.6-2.7,5.9
			c-3.6,3-5.1,6.4-5.1,10.8c0,3.5,1.5,4.7,5,4.7c11.4-0.1,22.9,0,34.3,0c7.8,0,15.5,0.2,23.3-0.1c5.5-0.2,10.9-0.8,16.4-1.5
			c1.6-0.2,3.3-1.1,4.5-2.1c6.6-5.8,15.1-5.8,23.1-6.7c6.6-0.7,13.3-0.4,19.6,2.2c0.4,0.1,0.8,0.2,1,0.5c3.7,4.5,8.9,4.2,14,4
			c7.2-0.3,14.4-0.5,21.6-0.7c0.5,0,1.1,0,1.6-0.1c7.1-1.8,14.2-4,21.4-5.4c5.1-1,10.4-1.4,15.6-1.2c8.8,0.2,17.5-0.4,26-2.5
			c1.5-0.4,3.3-1.4,4.2-2.6c4.9-7.1,12.2-9,20.4-9.5c6.1-0.4,12.3-1.2,18.4-1.2c6.3,0,12.6,0.9,18.9,1.2c8.4,0.4,16.8,0.5,25.1,0.8
			c1.8,0.1,3.7-0.2,5.5,0.1c1.3,0.2,2.4,1.2,3.7,1.8c1.1,0.5,2.3,1.3,3.4,1.2c4.2-0.5,8.4-1.5,12.7-1.9c5.6-0.6,11.2-1,16.8-1.1
			c7.9-0.2,15.8,0,23.7,0.1c1.2,0,2.4-0.1,3.7-0.2C533.8,114,533.8,113.6,533.8,113.3z"/>
		<path id="cloud_40_" fill="#FFFFFF" d="M1669.2,306.3c0.1-0.4,0.2-0.6,0.2-0.9c-0.1-0.9,0.5-1.1,1.6-1.1
			c5.4,0.2,10.9,0.3,16.3,0.4c6.2,0.1,12.4,0,18.6,0c6,0.1,12,0.2,18,0.3c1,0,2.1-0.4,3.1-0.5c1.3-0.1,2.7,0,4.1,0
			c0.4,0,0.8,0.2,1.1,0.4c3.2,1.6,6.9,2.1,10.6,2.6c2.7,0.4,5.3,1.2,7.8,2.1c2.4,0.8,4.9,1,7.6,1c6-0.1,12-0.1,18,0
			c2.6,0,5.1,0.5,7.7,0.7c3.4,0.2,6.7,0.5,10.1,0.5c9.3,0.1,18.7,0.1,28,0.1c3.5,0,7,0,10.6,0c0.7,0,1.4,0,2.1,0
			c0,0.1,0,0.2,0.1,0.4c-0.4,0.1-0.8,0.2-1.2,0.2c-12.1-0.1-24.3-0.1-36.4-0.2c-11.5,0-23,0-34.5,0c-3.5,0-7,0.4-10.5,0.4
			c-6.4,0-12.9-0.5-19.3-0.4c-4.6,0.1-9.2,0.8-13.8,1.2c-0.4,0-0.9,0.1-1.2,0.3c-1.7,1.5-4.1,1.2-6.4,1.2c-2.9,0-5.8,0-8.8,0
			c-0.8,0-2,0.2-2.4,0.6c-4.2,4.1-4.8,2.8-10.6,4.1c-2.9,0.7-5.8,1.4-8.8,2c-1.8,0.4-3.7,0.8-5.6,0.8c-4.9,0-9.8-0.3-14.7-0.4
			c-1.7-0.1-2.6-0.6-2.4-1.8c0.2-1.1-0.5-1.8-1.8-2.5c-1-0.5-1.9-1.2-2.8-1.8c-2.9-1.9-6.4-3-10.4-3.1c-0.7,0-1.5,0-2.2,0
			c-7.8,0.5-15.3-0.5-22.8-2c-1-0.2-2.1-0.2-3-0.5c-2.5-0.9-3.4-2.8-2.2-4.6c1.3-1.9,3.4-2.5,6.3-1.7c2.9,0.8,5.7,1.7,8.7,2.1
			c2.3,0.3,5,0.2,7.3-0.3c3.4-0.8,7-0.9,10.3-0.5c6,0.8,12.1,0.6,18.1,0.6C1665.8,306.3,1667.5,306.3,1669.2,306.3z"/>
		<path id="cloud_39_" fill="#FFFFFF" d="M809.2,146.6c-0.2,0-0.4,0-0.6,0c-7.6,0.1-15.2,0.1-22.8,0.3c-2.3,0-4.5,0.4-6.8,0.7
			c-0.7,0.1-1.4,0.5-1.9,0.8c-1,0.8-2.2,1.1-3.7,1c-3.3-0.1-6.6,0-9.9,0c-5.1-0.1-10.1,0.2-15.1,0.9c-0.2,0-0.5,0.1-0.7,0.1
			c-2.6-0.2-4.2,0.8-5.3,2.2c-1,1.1-2.4,1.6-4.2,1.5c-1.1,0-2.2,0-3.3-0.1c-1.5-0.1-2.6-0.5-3.4-1.5c-0.8-1.1-2.2-1.6-3.9-1.5
			c-4.2,0.1-8.3,0-12.4-0.8c-0.9-0.2-1.7-0.4-2.5-0.6c-1.6-0.6-2-1.8-0.7-2.7c0.7-0.5,1.6-1,2.5-1.1c6.1-0.9,12.2-1.7,18.4-1.9
			c1.3,0,2.6-0.2,3.8-0.5c1.4-0.3,1.5-0.9,0.4-1.5c-0.8-0.5-1.7-0.9-2.6-1.4c-1-0.5-1.3-1.2-1.2-2c0.3-1.9,0.8-2.2,3.5-2.2
			c6.5,0,13,0.4,19.2,1.8c1.4,0.3,2.7,0.8,4.1,1.2c1.8,0.6,3.8,1,5.4,1.8c1.6,0.7,3,1.6,4.2,2.7c1.6,1.4,3.4,2,5.9,1.9
			c4.1-0.1,8.2-0.1,12.4,0c2.3,0.1,4.6,0.6,7,0.8c1.6,0.1,3.2-0.1,4.8-0.2c3.1,0,6.2,0,9.4,0C809.2,146.4,809.2,146.5,809.2,146.6z"
			/>
		<path id="cloud_38_" fill="#FFFFFF" d="M318.1,270.9c0.1,0,0.3,0,0.4,0c5.7,0.1,11.3,0.1,17,0.2c1.7,0,3.4,0.3,5,0.6
			c0.5,0.1,1,0.4,1.4,0.7c0.8,0.7,1.6,0.9,2.7,0.9c2.5-0.1,4.9,0,7.4,0c3.8-0.1,7.5,0.2,11.3,0.8c0.2,0,0.4,0.1,0.5,0.1
			c1.9-0.2,3.1,0.6,4,1.8c0.7,1,1.8,1.3,3.1,1.3c0.8,0,1.6,0,2.5-0.1c1.1-0.1,2-0.4,2.5-1.3c0.6-0.9,1.6-1.3,2.9-1.3
			c3.1,0.1,6.2,0,9.2-0.7c0.6-0.1,1.3-0.3,1.9-0.5c1.2-0.5,1.5-1.5,0.5-2.3c-0.5-0.4-1.2-0.8-1.8-0.9c-4.5-0.7-9.1-1.4-13.7-1.6
			c-0.9,0-1.9-0.2-2.8-0.4c-1-0.3-1.1-0.7-0.3-1.3c0.6-0.4,1.3-0.8,2-1.2c0.8-0.4,1-1,0.9-1.7c-0.2-1.6-0.6-1.9-2.6-1.9
			c-4.9,0-9.7,0.4-14.3,1.6c-1,0.3-2,0.7-3,1c-1.4,0.5-2.8,0.9-4.1,1.5c-1.2,0.6-2.3,1.4-3.1,2.3c-1.2,1.2-2.5,1.6-4.4,1.6
			c-3.1-0.1-6.1-0.1-9.2,0c-1.7,0.1-3.5,0.5-5.2,0.7c-1.2,0.1-2.4-0.1-3.6-0.1c-2.3,0-4.7,0-7,0
			C318.1,270.8,318.1,270.8,318.1,270.9z"/>
		<path id="cloud_37_" fill="#FFFFFF" d="M870.7,9.5c-0.5,0.1-0.9,0.2-1.4,0.2c-6.7,0-13.5-0.1-20.2-0.1c-4.8,0-9.7-0.2-14.5-0.1
			c-1.1,0-2.3,0.3-3.3,0.8c-1.6,0.8-3.2,0.4-4.8,0.3c-1.5,0-3.1-0.3-4.5-0.1c-1.1,0.2-2.4,0.9-3,1.7c-1.3,1.5-3.1,2.1-5.5,2
			c-2.4,0-4.5,0.5-5.7,2.2c-0.3,0.4-1.3,0.7-2.1,0.9c-2,0.3-4,0.6-6,0.8c-1.1,0.1-2.2,0.2-3.3,0c-3.4-0.6-6.7-1.4-10-2.1
			c-0.7-0.2-1.4-0.5-1.9-0.9c-1.8-1.2-1.4-3.2,0.9-3.8c2-0.5,4.2-0.7,6.2-1.1c0.9-0.2,1.8-0.5,2.7-0.8c-0.8-0.4-1.5-0.8-2.4-1.1
			c-1.2-0.4-2.4-0.6-3.6-0.9c-1.9-0.5-2.2-1.4-0.6-2.2c1.7-0.8,3.8-1.2,5.8-1.7c0.9-0.2,2-0.3,3-0.3c2.2,0,3.5-1,4.5-2.2
			c0.6-0.7,1.4-1,2.6-1c4.5,0,8.9-0.1,13.4,0.1c1.1,0,2.4,0.5,3.3,1c1.8,0.9,3.6,1.9,5.2,3c1.9,1.3,4.2,1.9,6.7,2
			c3.5,0.2,7,0.2,10.4,0.5c3.3,0.3,6.6,0.3,9.7,1.3C856,9,860.1,9.1,864.1,9c1.7,0,3.3,0,5,0c0.5,0,1.1,0.1,1.6,0.2
			C870.7,9.3,870.7,9.4,870.7,9.5z"/>
		<path id="cloud_36_" fill="#FFFFFF" d="M1063.2,119.5c-0.5,0.1-0.9,0.2-1.4,0.2c-6.7,0-13.5-0.1-20.2-0.1c-4.8,0-9.7-0.2-14.5-0.1
			c-1.1,0-2.3,0.3-3.3,0.8c-1.6,0.8-3.2,0.4-4.8,0.3c-1.5,0-3.1-0.3-4.5-0.1c-1.1,0.2-2.4,0.9-3,1.7c-1.3,1.5-3.1,2.1-5.5,2
			c-2.4,0-4.5,0.5-5.7,2.2c-0.3,0.4-1.3,0.7-2.1,0.9c-2,0.3-4,0.6-6,0.8c-1.1,0.1-2.2,0.2-3.3,0c-3.4-0.6-6.7-1.4-10-2.1
			c-0.7-0.2-1.4-0.5-1.9-0.9c-1.8-1.2-1.4-3.2,0.9-3.8c2-0.5,4.2-0.7,6.2-1.1c0.9-0.2,1.8-0.5,2.7-0.8c-0.8-0.4-1.5-0.8-2.4-1.1
			c-1.2-0.4-2.4-0.6-3.6-0.9c-1.9-0.5-2.2-1.4-0.6-2.2c1.7-0.8,3.8-1.2,5.8-1.7c0.9-0.2,2-0.3,3-0.3c2.2,0,3.5-1,4.5-2.2
			c0.6-0.7,1.4-1,2.6-1c4.5,0,8.9-0.1,13.4,0.1c1.1,0,2.4,0.5,3.3,1c1.8,0.9,3.6,1.9,5.2,3c1.9,1.3,4.2,1.9,6.7,2
			c3.5,0.2,7,0.2,10.4,0.5c3.3,0.3,6.6,0.3,9.7,1.3c3.7,1.2,7.8,1.2,11.8,1.2c1.7,0,3.3,0,5,0c0.5,0,1.1,0.1,1.6,0.2
			C1063.2,119.3,1063.2,119.4,1063.2,119.5z"/>
		<path id="cloud_35_" fill="#FFFFFF" d="M1112.6,310.2c-0.5,0.1-0.9,0.2-1.4,0.2c-6.7,0-13.5-0.1-20.2-0.1c-4.8,0-9.7-0.2-14.5-0.1
			c-1.1,0-2.3,0.3-3.3,0.8c-1.6,0.8-3.2,0.4-4.8,0.3c-1.5,0-3.1-0.3-4.5-0.1c-1.1,0.2-2.4,0.9-3,1.7c-1.3,1.5-3.1,2.1-5.5,2
			c-2.4,0-4.5,0.5-5.7,2.2c-0.3,0.4-1.3,0.7-2.1,0.9c-2,0.3-4,0.6-6,0.8c-1.1,0.1-2.2,0.2-3.3,0c-3.4-0.6-6.7-1.4-10-2.1
			c-0.7-0.2-1.4-0.5-1.9-0.9c-1.8-1.2-1.4-3.2,0.9-3.8c2-0.5,4.2-0.7,6.2-1.1c0.9-0.2,1.8-0.5,2.7-0.8c-0.8-0.4-1.5-0.8-2.4-1.1
			c-1.2-0.4-2.4-0.6-3.6-0.9c-1.9-0.5-2.2-1.4-0.6-2.2c1.7-0.8,3.8-1.2,5.8-1.7c0.9-0.2,2-0.3,3-0.3c2.2,0,3.5-1,4.5-2.2
			c0.6-0.7,1.4-1,2.6-1c4.5,0,8.9-0.1,13.4,0.1c1.1,0,2.4,0.5,3.3,1c1.8,0.9,3.6,1.9,5.2,3c1.9,1.3,4.2,1.9,6.7,2
			c3.5,0.2,7,0.2,10.4,0.5c3.3,0.3,6.6,0.3,9.7,1.3c3.7,1.2,7.8,1.2,11.8,1.2c1.7,0,3.3,0,5,0c0.5,0,1.1,0.1,1.6,0.2
			C1112.6,310,1112.6,310.1,1112.6,310.2z"/>
		<linearGradient id="SVGID" gradientUnits="userSpaceOnUse" x1="917.4589" y1="-4.119102e-08" x2="917.4589" y2="521.7668">
			<stop  offset="0" style="stop-color:#000000"/>
			<stop  offset="1" style="stop-color:#000000;stop-opacity:0"/>
		</linearGradient>
		<rect fill="url(#SVGID)" width="1834.9" height="521.8"/>
	</g>
	<g id="mountains">
		<path fill="#232323" d="M1168.9,443.2c-12.6-3.7-22.8-11.1-34.3-17.3c-7.5-4-18.1-11.3-26.5-12.4c-8-1-13.5,2.2-21.7-0.9
			c-12-4.6-19.6-8.6-32.8-4.5c-15,4.7-27,16.8-42.5,16.1c-4.5-0.2-7.8-3-11.6-3.9c-3.2-0.8-4.7,0.4-8.3,0.1
			c-6.5-0.6-12.6-3.9-18.7-6c-6.5-2.3-12.5-5.4-19.3-4c-10.1,2.1-21.5,9-30.9,13.2c-4.6,2.1-12.7,8.4-17.8,8.2
			c-6.4-0.3-11.5-9.2-17.2-10.3c-4.1-0.8-8.6,3-12.9,2.6c-3.2-0.3-5.9-2.2-8.6-3.6c-4.9-2.5-12.3-11.4-17.5-12.2
			c-7.2-1.1-12.2,8.7-19.7,8.1c-11.9-0.9-24.5-17-35.6-21.8c-16.7-7.2-23.9-0.5-38.9,7.3c-5.7,3-14.4,10.9-20.6,11.9
			c-6,1-9.8-4.2-16.2-2.9c-9.8,5.4-35,25.6-44.3,19.3c-16.1-4.8-29.3-14.3-44-22.2c-9.6-5.1-23.2-14.5-34-15.9
			c-10.2-1.3-17.4,2.8-27.8-1.2c-15.4-5.9-25.2-11-42.1-5.7c-19.3,6-34.7,21.5-54.6,20.7c-5.7-0.2-10-3.9-14.9-5.1
			c-4.1-1-6,0.5-10.7,0.1c-8.3-0.7-16.2-5-24-7.7c-8.4-2.9-16-7-24.8-5.1c-12.9,2.7-27.6,11.5-39.7,17c-5.8,2.7-16.3,10.7-22.9,10.5
			c-8.2-0.3-14.7-11.8-22.1-13.2c-5.2-1-11,3.8-16.6,3.3c-4.1-0.4-7.6-2.9-11.1-4.6c-6.3-3.3-15.8-14.6-22.4-15.6
			c-9.3-1.4-15.6,11.1-25.3,10.4c-15.3-1.1-31.4-21.8-45.7-28c-21.4-9.2-30.6-0.7-49.9,9.4c-7.3,3.8-18.5,14-26.4,15.3
			c-7.7,1.3-12.6-5.4-20.8-3.8c-13.9,2.8-32,24.3-61.5,40.2c-8.4,4.5-29.4-21.3-31.4-10L0,454.3v22.2h644v3h545.4l2.5-26.1
			C1186.8,446.2,1176.6,445.5,1168.9,443.2C1156.3,439.5,1176.6,445.5,1168.9,443.2z"/>
	</g>
	<g id="land">
		<path fill="#353535" d="M388.2,618.6l-143.3,15.7l1.7-4.8l-40.5,8h8.3l-68.3,7.6v-3.6l-3.8,4l-1.1,0.1l-5.3-5.7l1,6.1L48,655.8
			v-9.7l-4.6,10.3L0,661.1v-192c65,0.1,148.4,0.3,213.4,0.4c201.5,0.4,978.6,1.2,978.6,1.2v59.8l-217.4,23.8l-4.6-5v5.5l-1.2,0.1
			l-3.1-2l-4.7,2.8l-3-3l-6.4,2.7h9.1l-105.7,11.8c0.7-0.4,1.4-0.8,2.2-1.2l4.7-0.5c0,0,0.4-1.9,1.8-3.4c1.6-1,2.5-1.6,1.7-1.2
			c-0.7,0.3-1.2,0.7-1.7,1.2c-1.7,1.1-4.2,2.6-6.5,3.9l-3.4,0.4l2-3.4l-7,4l5-0.5l-0.7,1.2L742,579.8l1.4-4.3l-31.4,6h9.9l-56.9,6.7
			V585l-3.2,3.6l-0.1,0l-4.3-4.7l0.8,5.1l-69.1,7.6v-8l-4,8.4l-40.8,4.5l-5.3-6v6.5l-2.4,0.3l-3.4-2.1l-5.4,3.1l-1.4,0.1L523,600
			l-8.3,3.5h7.2L391.2,618c0.6-0.4,1.2-0.6,1.9-1l-2.9,0.9l-0.2-1.4L388.2,618.6z"/>
	</g>
</g>


<!--NEON-->

<g id="neon">
  <defs>
    <linearGradient id="linear-gradient" x1="368.87" y1="559.15" x2="405.09" y2="702.77" gradientUnits="userSpaceOnUse">
      <stop offset="0.39" stop-color="#324450"/>
      <stop offset="0.4" stop-color="#415562"/>
    </linearGradient>
  </defs>

    <g class="sign-group">

  <g id="arrow-base">
    <path d="M172.35,504.69H678.16v84.38L787,478.86,678.16,368.79v79.27L186.83,435.46c-39.1,0-65.29-40.59-45.09-91.44,35.17-88.54,193.85-116.44,193.85-116.44L226.51,171.5s-36.59-97.94-39.26-95.62-170,117.39-170,302.49C17.26,462,100.76,504.69,172.35,504.69Z" fill="#4e6675"/>
    <path class="arrowoverlay" d="M750.71,442L678.08,368.5H678v79.55L186.74,435.46a49.7,49.7,0,0,1-35.56-14.32c-0.4-.39-0.77-0.8-1.16-1.21a52.16,52.16,0,0,1-7.14-9.6,56.12,56.12,0,0,1-3.16-6.33,66.12,66.12,0,0,1-5-26.31q0-1,0-2.09t0.1-2.12A95.55,95.55,0,0,1,141.74,344c9.34-23.52,27.4-42.76,48.88-58.33l1.9-1.36c17.85-12.65,37.92-22.83,57.26-30.87l2.07-.85,4.12-1.66,2-.81q3.06-1.2,6.08-2.32l2-.74,4-1.44q3-1.06,5.86-2c3.86-1.32,7.62-2.54,11.26-3.68q2.73-.85,5.36-1.64l3.46-1,3.36-1,3.25-.91c4.26-1.18,8.22-2.21,11.81-3.11q2.69-.67,5.1-1.24l2.32-.54L324,230c7.3-1.65,11.57-2.4,11.57-2.4L226.51,171.5s-35.73-95.66-39.15-95.66h0a0.16,0.16,0,0,0-.11,0c-2.68,2.32-170,112.74-170,309,0,57.86,59.17,119.6,155.1,119.6H678v84h0.08l54.46-54.82L787,478.74v0Zm-569-341.84c7.51,18,19.44,48.68,30,76.86l2.15,5.74,5.45,2.8,71.39,36.71c-11.53,3.39-24.66,7.71-38.42,13.09l-95-113.79C166.43,113,174.78,105.81,181.71,100.18Zm-30.5,27.17,92.91,111.3q-11.9,4.94-22.78,10.33l-2.53,1.16-95.14-93.66C133.11,145.6,142.45,135.87,151.21,127.36ZM108.48,175q4.86-6.25,9.76-12.1l92.87,91.43a266.22,266.22,0,0,0-30.52,19.11l-85.67-80Q101.4,184.08,108.48,175ZM90.19,200.36l83.69,78.15a184,184,0,0,0-19.05,17.32c-2,1.61-3.84,3.21-5.55,4.75L68.14,238A381.38,381.38,0,0,1,90.19,200.36ZM56.16,264q3.79-9.24,8.21-18.41l80.35,62A131.16,131.16,0,0,0,132.19,327L48,286.15Q51.65,275,56.16,264ZM45.51,294.21l83.06,40.26c-0.54,1.23-1.06,2.46-1.56,3.7a119.06,119.06,0,0,0-5.84,19.17l-86-13.48A300,300,0,0,1,45.51,294.21ZM33.1,378.36q0-13.11,1.21-26.2l85.45,13.4a96.06,96.06,0,0,0-.79,16.21L35.24,400.6A113,113,0,0,1,33.1,378.36ZM45,427.62a92.6,92.6,0,0,1-7.77-18.92l82.48-18.55a78.32,78.32,0,0,0,4.75,18.35L61.73,449.6A95.07,95.07,0,0,1,45,427.62Zm31.18,33.92q-4.23-2.95-8.06-6.16L128,416.14a71,71,0,0,0,3.78,6.25,67.6,67.6,0,0,0,6.39,8L105.84,477A138.53,138.53,0,0,1,76.17,461.55Zm72.31,25.85A185.09,185.09,0,0,1,114,479.87l30.31-43.64A64.42,64.42,0,0,0,156,444Zm23.87,1.1c-5.22,0-10.41,0-15.56-.45l7.11-40.74a68.06,68.06,0,0,0,22.7,3.95l490.81,12.61,7.58,0.23V488.5H172.35ZM694,504.69V407.35l17,16.87V533.58l-17,16.89V504.69Zm25,20.44V432.65l18,18.56v55.34Zm27-27V459.65l19,19.22Z" fill="#415562"/>
  </g>
  <g id="glow-lines">

      <line class="line" x1="139.76" y1="147.64" x2="225.54" y2="238.25" fill="none" stroke="#5fe6ff" stroke-linecap="round" stroke-miterlimit="10" stroke-width="5"/>

      <line class="line" x1="184.98" y1="257.15" x2="111.32" y2="183.49" fill="none" stroke="#5fe6ff" stroke-linecap="round" stroke-miterlimit="10" stroke-width="5"/>

      <line class="line" x1="81.14" y1="225.46" x2="154.95" y2="284.38" fill="none" stroke="#5fe6ff" stroke-linecap="round" stroke-miterlimit="10" stroke-width="5"/>

      <line class="line" x1="131.8" y1="311.62" x2="61.57" y2="271.04" fill="none" stroke="#5fe6ff" stroke-linecap="round" stroke-miterlimit="10" stroke-width="5"/>

      <line class="line" x1="44.33" y1="324.21" x2="115.48" y2="344.41" fill="none" stroke="#5fe6ff" stroke-linecap="round" stroke-miterlimit="10" stroke-width="5"/>

      <line class="line" x1="111.32" y1="373.62" x2="37.11" y2="376.7" fill="none" stroke="#5fe6ff" stroke-linecap="round" stroke-miterlimit="10" stroke-width="5"/>

      <line class="line" x1="52.3" y1="428.34" x2="115.48" y2="402.19" fill="none" stroke="#5fe6ff" stroke-linecap="round" stroke-miterlimit="10" stroke-width="5"/>

      <line class="line" x1="128.82" y1="428.34" x2="91.03" y2="462.64" fill="none" stroke="#5fe6ff" stroke-linecap="round" stroke-miterlimit="10" stroke-width="5"/>

      <line class="line" x1="134.15" y1="480.59" x2="148.15" y2="445.49" fill="none" stroke="#5fe6ff" stroke-linecap="round" stroke-miterlimit="10" stroke-width="5"/>

      <line class="line" x1="171.07" y1="453.91" x2="166.91" y2="483.37" fill="none" stroke="#5fe6ff" stroke-linecap="round" stroke-miterlimit="10" stroke-width="5"/>

      <line class="line" x1="675.5" y1="470.5" x2="675.5" y2="482.5" fill="none" stroke="#5fe6ff" stroke-linecap="round" stroke-miterlimit="10" stroke-width="5"/>

      <line class="line" x1="701.5" y1="424.5" x2="701.5" y2="529.5" fill="none" stroke="#5fe6ff" stroke-linecap="round" stroke-miterlimit="10" stroke-width="5"/>

      <line class="line" x1="728.5" y1="452.5" x2="728.5" y2="503.5" fill="none" stroke="#5fe6ff" stroke-linecap="round" stroke-miterlimit="10" stroke-width="5"/>

      <line class="line" x1="751.5" y1="473.5" x2="751.5" y2="485.5" fill="none" stroke="#5fe6ff" stroke-linecap="round" stroke-miterlimit="10" stroke-width="5"/>

  </g>

<path class="glow-arrow" fill="none" stroke="#EA46A8" stroke-width="8" stroke-miterlimit="10" d="M679,504.5H172.4c-39.2,0-77.3-11.3-104.7-30.4
	c-32.3-22.5-49.4-55.7-49.4-95.6c0-40.5,8.1-81,24.2-120.1c13-31.8,31.3-62.9,54.3-92.6c35-45,71.4-74.7,89.9-88.3
	c0.2-0.2,0.5-0.3,0.6-0.5c4.1,5.4,24.9,59,38.3,94.8l0.1,0.4l106.8,54.9c-9.9,2-44.1,9.4-81.1,24.5c-73.2,30-100.6,66.6-110.7,92
	c-10.4,26.3-9.3,52,3.3,70.4c9.7,14.2,25.2,22.4,42.7,22.4L679,449.1v-77.9l106.4,107.6L679,586.6V504.5z"/>

  <g id="neon-base">
    <path d="M300.89,577.79s13.68,34.47,20.56,62,12.2,55.73,12.2,55.73h85.88s-3.76-16.88,0-53.15,24.6-73,24.6-73Z" fill="url(#linear-gradient)"/>
    <polygon points="665 569.23 177 608.45 177 349.38 665 388.61 665 569.23" fill="#415562"/>
    <circle cx="205.42" cy="379.92" r="4.89" fill="#4e6675"/>
    <circle cx="641.67" cy="411.67" r="4.89" fill="#4e6675"/>
    <circle cx="205.42" cy="576.75" r="4.89" fill="#4e6675"/>
    <circle cx="641.67" cy="547.89" r="4.89" fill="#4e6675"/>
<g>
	<path fill="#4E6875" d="M323.2,418.5h-13c-7.7,0-12.3,5.1-12.3,12.8v32.2h-30v-32.2c0-7.8-4.4-12.8-12.2-12.8H243
		c-7.9,0-12,5-12,12.8v94.4c0,7.7,4.2,12.9,12,12.9h12.8c7.7,0,12.2-5.2,12.2-12.9v-31.1h30v31.1c0,7.7,4.6,12.9,12.3,12.9h13
		c7.7,0,11.8-5.2,11.8-12.9v-94.4C335,423.6,330.9,418.5,323.2,418.5z"/>
	<path fill="#4E6875" d="M417,505.5h-31v-12h20.4c7.9,0,12.6-3.6,12.6-11.4v-8c0-7.7-4.8-11.6-12.6-11.6H386v-11h29
		c7.7,0,12-4.5,12-12.2v-8c0-7.7-4.3-12.8-12-12.8h-53.7c-7.9,0-12.4,5-12.4,12.8v94.4c0,7.7,4.6,12.9,12.4,12.9H417
		c7.8,0,13-5.2,13-12.9v-8C430,510,424.7,505.5,417,505.5z"/>
	<path fill="#4E6875" d="M517.2,496.9c-1.6-2.9-3.3-5.1-4.3-6.4c11.3-7.8,15.4-22,15.4-32.8c0-16.9-9.5-31.6-23.7-36.4
		c-5.1-1.7-12.1-2.8-23.5-2.8H450c-7.9,0-12,5-12,12.8v94.4c0,7.7,4.2,12.9,12,12.9h12.8c7.7,0,12.2-5.2,12.2-12.9v-23.1h5.2
		l14.1,27.5c2.9,5.5,7.5,8.5,13.8,8.5H523c4.6,0,8.1-1.9,9.7-4.8c1.2-2,1.9-5.8-1.1-11.2L517.2,496.9z M475,451.5h3.3
		c3.7,0,6.1,0,8.3,1c3.4,1.4,4.1,3.5,4.1,6.8c0,7.5-3,10.3-10.3,10.3H475V451.5z"/>
	<path fill="#4E6875" d="M608.1,505.5H577v-12h20.5c7.9,0,12.5-3.6,12.5-11.4v-8c0-7.7-4.7-11.6-12.5-11.6H577v-11h29.2
		c7.7,0,11.8-4.5,11.8-12.2v-8c0-7.7-4.2-12.8-11.8-12.8h-53.7c-7.9,0-12.5,5-12.5,12.8v94.4c0,7.7,4.7,12.9,12.5,12.9h55.6
		c7.8,0,11.9-5.2,11.9-12.9v-8C620,510,615.9,505.5,608.1,505.5z"/>
</g>

<path fill="#353535" d="M368.4,694.8c0.7-2,1.4-4.2,2.3-6.3c0.9-2.1,1.8-4.3,3-6.3l0.2-0.4c0,0,0.1-0.3,0.2-0.4l0.5-0.8
	c0.3-0.6,0.6-1.1,1-1.6c0.6-1,1.3-2.1,2-3.1c5.7-8.2,13-15.6,18.8-20.8c5.8-5.2,10.1-8.3,10.1-8.3s-4.8,2.4-11.5,6.7
	c-6.7,4.3-15.3,10.6-22.8,18.4c-0.9,1-1.8,1.9-2.8,3c-0.5,0.5-0.9,1-1.3,1.5l-0.6,0.7c-0.1,0.1-0.2,0.2-0.3,0.4l-0.3,0.4
	c-1.7,2.2-3.2,4.3-4.5,6.5c-1.3,2.2-2.6,4.3-3.6,6.3c-0.5,0.9-1,1.9-1.4,2.8c0.1-0.8,0.2-1.7,0.3-2.6c0.3-2.1,0.6-4.4,1-6.9
	c0.4-2.4,0.9-5,1.5-7.6c0.3-1.3,0.6-2.6,1-3.9l0.3-1c0-0.1,0.1-0.4,0.1-0.4l0.2-0.5c0.2-0.7,0.5-1.4,0.7-2c0.9-2.5,2.1-5.2,3.4-7.8
	c2.6-5.2,5.6-10.2,8.7-14.8c3.1-4.6,6.1-8.8,8.9-12.3c5.5-7,9.5-11.4,9.5-11.4s-4.5,4-10.7,10.5c-3.1,3.3-6.6,7.1-10.2,11.5
	c-3.6,4.3-7.2,9.2-10.5,14.3c-1.6,2.6-3.1,5.2-4.5,8c-0.4,0.7-0.6,1.3-0.9,2l-0.2,0.5l-0.2,0.6l-0.4,1c-0.6,1.4-1.1,2.7-1.6,4
	c-1,2.7-1.8,5.3-2.5,7.7c-0.7,2.5-1.4,4.8-1.9,7c-0.4,1.7-0.8,3.2-1.1,4.6c0-0.3-0.1-0.7-0.1-1.1c-0.2-2.8-0.3-6.1-0.1-9.6
	c0-0.4,0.1-0.9,0.1-1.3c0.1-0.5,0.1-0.9,0.2-1.4c0.1-0.9,0.2-1.9,0.4-2.8c0.3-1.9,0.6-3.8,1-5.7c1.5-7.6,3.6-15.2,5.5-20.8
	c1.8-5.6,3.4-9.3,3.4-9.3s-2,3.4-4.7,8.8c-2.7,5.4-6,12.7-8.6,20.3c-0.7,1.9-1.3,3.8-1.9,5.7c-0.3,1-0.5,1.9-0.8,2.8
	c0,0.1-0.1,0.3-0.1,0.4c-0.1-2-0.1-4,0-6c0-0.5,0-1,0-1.6l0.1-1.7c0.1-1.1,0.1-2.3,0.3-3.3c0.2-2.2,0.5-4.4,0.8-6.6
	c0.2-1.1,0.3-2.2,0.5-3.2c0.2-1.1,0.4-2.1,0.6-3.2c0.8-4.1,1.7-8,2.5-11.3c1.7-6.6,3.2-10.9,3.2-10.9s-2.1,4-4.8,10.4
	c-1.3,3.2-2.8,6.9-4.2,11c-0.3,1-0.7,2.1-1,3.1c-0.3,1.1-0.7,2.1-1,3.2c-0.6,2.2-1.3,4.4-1.8,6.7c-0.3,1.1-0.5,2.2-0.8,3.4l-0.4,1.7
	c-0.1,0.6-0.2,1.2-0.3,1.7c-0.4,2.3-0.7,4.5-0.9,6.7c-0.5,4.3-0.8,8.5-0.9,11.9c-0.1,1.5-0.1,2.4-0.2,4.4h34.3
	C368.1,695.5,368.3,695.3,368.4,694.8z"/>

  </g>
  <g class="here">
    <g class="e2">
      <g>
        <path d="M602.12,435.57H563.93a6.84,6.84,0,0,0-6.84,6.84v73.87a6.84,6.84,0,0,0,6.84,6.84h40.69" fill="none" stroke="#ea46a8" stroke-linecap="round" stroke-miterlimit="10" stroke-width="6"/>
        <line x1="594" y1="479.5" x2="557" y2="479.5" fill="none" stroke="#ea46a8" stroke-linecap="round" stroke-miterlimit="10" stroke-width="6"/>
      </g>
      <path d="M546.68,527.56V429.45a6,6,0,0,1,6-6h49.14a11.47,11.47,0,0,1,11.57,10.69A11.27,11.27,0,0,1,602.12,446h-27a6,6,0,0,0-6,6v9.73a6,6,0,0,0,6,6h18.3A11.47,11.47,0,0,1,605,478.36a11.27,11.27,0,0,1-11.24,11.82H575.16a6,6,0,0,0-6,6v8.9a6,6,0,0,0,6,6H604.3a11.47,11.47,0,0,1,11.57,10.69,11.27,11.27,0,0,1-11.24,11.82h-52A6,6,0,0,1,546.68,527.56Z" fill="none" stroke="#ea46a8" stroke-miterlimit="10" stroke-width="6"/>
    </g>
    <g class="r">
      <path d="M455,523.5V442.32c0-3.88-.87-4.82,3.92-4.82H490.4s21.68-.39,21.68,20.46c0,23.14-10.84,27.54-33.35,27.54H457" fill="none" stroke="#ea46a8" stroke-linecap="round" stroke-miterlimit="10" stroke-width="6"/>
      <line x1="513.46" y1="523.95" x2="493.45" y2="485.04" fill="none" stroke="#ea46a8" stroke-linecap="round" stroke-miterlimit="10" stroke-width="6"/>
      <path d="M513.47,535.36a11,11,0,0,1-9.93-5.79l-18.33-34a49.18,49.18,0,0,1-6.48.48H466.5v25.45a11,11,0,1,1-22,0V431.82c0-5.63,1.9-6.66,7.94-6.67s38,0,38,0h0.88c4.32,0,15.22.87,23.34,8.91,5.94,5.88,8.69,12.79,8.69,21.74,0,16.55-5.13,27.54-15.65,33.46l15.71,29.44A11.41,11.41,0,0,1,513.47,535.36Z" fill="none" stroke="#ea46a8" stroke-miterlimit="10" stroke-width="6"/>
      <path d="M482.64,474.76c8.86,0,14.4-5.48,14.4-14.5,0-5.7-1.42-9.67-6.65-11.73-2.53-1.11-5.86-1.29-10.44-1.29h-4.2a6.19,6.19,0,0,0-6.19,6.19v15.13a6.19,6.19,0,0,0,6.19,6.19h6.89Z" fill="none" stroke="#ea46a8" stroke-linecap="round" stroke-miterlimit="10" stroke-width="6"/>
    </g>
    <g class="e1">
      <g>
        <path d="M411.19,435.57H373a6.84,6.84,0,0,0-6.84,6.84v73.87a6.84,6.84,0,0,0,6.84,6.84h40.69" fill="none" stroke="#ea46a8" stroke-linecap="round" stroke-miterlimit="10" stroke-width="6"/>
        <line x1="403" y1="479.5" x2="366" y2="479.5" fill="none" stroke="#ea46a8" stroke-linecap="round" stroke-miterlimit="10" stroke-width="6"/>
      </g>
      <path d="M355.74,527.56V429.45a6,6,0,0,1,6-6h49.14a11.47,11.47,0,0,1,11.57,10.69A11.27,11.27,0,0,1,411.19,446h-27a6,6,0,0,0-6,6v9.73a6,6,0,0,0,6,6h18.3a11.47,11.47,0,0,1,11.57,10.69,11.27,11.27,0,0,1-11.24,11.82H384.23a6,6,0,0,0-6,6v8.9a6,6,0,0,0,6,6h29.13a11.47,11.47,0,0,1,11.57,10.69,11.27,11.27,0,0,1-11.24,11.82h-52A6,6,0,0,1,355.74,527.56Z" fill="none" stroke="#ea46a8" stroke-miterlimit="10" stroke-width="6"/>
    </g>
    <g class="h">
      <line x1="249" y1="433.5" x2="249" y2="520.5" fill="none" stroke="#ea46a8" stroke-linecap="round" stroke-miterlimit="10" stroke-width="6"/>
      <line x1="319" y1="433.5" x2="319" y2="520.5" fill="none" stroke="#ea46a8" stroke-linecap="round" stroke-miterlimit="10" stroke-width="6"/>
      <line x1="319" y1="479.5" x2="250" y2="479.5" fill="none" stroke="#ea46a8" stroke-linecap="round" stroke-miterlimit="10" stroke-width="6"/>
      <path d="M318,532.7a11.48,11.48,0,0,1-11.5-11.26V490h-46v31.45a11.05,11.05,0,0,1-11,11.26c-6.21,0-11-5-11-12.09V433.9c0-5.37,4.79-10.42,11-10.42a11.05,11.05,0,0,1,11,11.26V468h46V434.74A11.48,11.48,0,0,1,318,423.48c6.21,0,11.5,5,11.5,10.42v86.71C329.5,527.65,324.21,532.7,318,532.7Z" fill="none" stroke="#ea46a8" stroke-miterlimit="10" stroke-width="6"/>
    </g>
  </g>
<polygon id="glow-sign" fill="none" stroke="#EA46A8" stroke-width="8" stroke-miterlimit="10" points="177,353.5 177,608.5 662,568.2 662,391.8
	"/>

  <path id="over-base" d="M536.53,333.52c-6.65-16.28-21.84.39-21.84,0.39a43,43,0,0,1-4.66,3.53,28,28,0,0,1-3.8,2.08c0-.27.07-0.58,0.12-1q0.27-1.87.59-3.86c0.23-1.42.44-2.78,0.63-4.08a27.17,27.17,0,0,0,.35-4.22,14.13,14.13,0,0,0-1.25-5.76,13.27,13.27,0,0,0-7.67-7.06,13.87,13.87,0,0,0-4.86-.82,17.17,17.17,0,0,0-10.23,3.39q-0.64.48-1.26,1l-0.08-.11a9.66,9.66,0,0,0-6.26-3.79,25.32,25.32,0,0,0-7.28.07,11.15,11.15,0,0,0-4.81,2.06,12.11,12.11,0,0,0-3.17,3.62,19.85,19.85,0,0,0-1.57,3.54,53.21,53.21,0,0,0-1.75,6.06l-0.24,1.06a22.46,22.46,0,0,0-.91-2.5,22.15,22.15,0,0,0-5.29-7.49,22.93,22.93,0,0,0-7.57-4.62,24.75,24.75,0,0,0-9-1.52,25.83,25.83,0,0,0-10.58,2.3,29.82,29.82,0,0,0-8.19,5.6,36.08,36.08,0,0,0-6,7.68c-0.12.21-.23,0.42-0.35,0.63a20.63,20.63,0,0,0,.16-2.79,12.33,12.33,0,0,0-5.64-10.31,17,17,0,0,0-9.93-2.69,15.77,15.77,0,0,0-4.76.78,17.31,17.31,0,0,0-3.79,1.77,13.31,13.31,0,0,0-3.7,3.42,12.59,12.59,0,0,0-1.6,2.92,12.54,12.54,0,0,0-2.8-4.9,11.48,11.48,0,0,0-8.88-3.69,12.69,12.69,0,0,0-1.44.1c-0.33,0-.67.1-1,0.17l-7,1.23c-0.24,0-.52.1-0.82,0.18,0-.18,0-0.37,0-0.55a69.34,69.34,0,0,0-3.21-20.73A50.64,50.64,0,0,0,346,277.76a41.63,41.63,0,0,0-14.83-11.28,45.07,45.07,0,0,0-19.35-3.83A49.73,49.73,0,0,0,297,265a52.84,52.84,0,0,0-12.69,6.07,56.54,56.54,0,0,0-10.65,9.08,75.09,75.09,0,0,0-8.36,11,86.19,86.19,0,0,0-6.41,12.51,103.33,103.33,0,0,0-7.09,26.82,99.81,99.81,0,0,0-.77,13.28,82.47,82.47,0,0,0,3.27,22.77,58,58,0,0,0,9.22,18.6,43.83,43.83,0,0,0,15,12.61,41.67,41.67,0,0,0,19.67,4.41,43.77,43.77,0,0,0,19-4.46,55.91,55.91,0,0,0,15.22-11.11A75,75,0,0,0,344,371.08a105.25,105.25,0,0,0,6.73-14.35c0.09,1.61.19,3.37,0.28,5.3l0.15,2.15c0.14,2,.32,4.14.53,6.41a34,34,0,0,0,1.68,8,19,19,0,0,0,5,7.82,15,15,0,0,0,10.69,3.81,14.46,14.46,0,0,0,9.34-3.94,39.69,39.69,0,0,0,5.86-6.5q1.33-1.8,2.6-3.83a21.15,21.15,0,0,0,5.09,2.8,22.84,22.84,0,0,0,8.58,1.46,30.46,30.46,0,0,0,10-1.94l0.07,0.09A28.27,28.27,0,0,0,420.4,386a29.45,29.45,0,0,0,13.26,2.74,38.31,38.31,0,0,0,8.84-1.14,50.05,50.05,0,0,0,8-2.72,58,58,0,0,0,5.57-2.81,14.48,14.48,0,0,0,3.73,3.84,14,14,0,0,0,8.44,2.43,12,12,0,0,0,9.62-4.86,21.39,21.39,0,0,0,2.43-4.12,48.27,48.27,0,0,0,1.87-4.82l3.77-11.24a21.1,21.1,0,0,0,4.28,3.77,20,20,0,0,0,11.58,3.08,23.81,23.81,0,0,0,7.22-1.21,38.85,38.85,0,0,0,5.79-2.45,52.42,52.42,0,0,0,4.93-2.92q2-1.35,3.59-2.44l3.22-2.23S542,346.95,536.53,333.52Zm-134,16.81a9.47,9.47,0,0,1,.09-1.44,11.87,11.87,0,0,1,.28-1.4l0.06-.24c0.1-.42.23-0.84,0.37-1.25,0.3-.7.58-1.36,0.86-2-0.19.87-.36,1.75-0.5,2.62-0.19,1.22-.34,2.42-0.45,3.6a3,3,0,0,1-.38.09h-0.34ZM305,369.84a13.39,13.39,0,0,1-5.74,1.28,13.8,13.8,0,0,1-6.79-1.49,15.66,15.66,0,0,1-5.28-4.57,24.53,24.53,0,0,1-3.75-7.79,39.48,39.48,0,0,1-1.52-10.74,56.85,56.85,0,0,1,1.19-11.77,78,78,0,0,1,3.66-12.56,76.05,76.05,0,0,1,5.72-11.76,53.76,53.76,0,0,1,7.14-9.5,32.23,32.23,0,0,1,7.74-6.07,14.82,14.82,0,0,1,7.08-1.94,10.28,10.28,0,0,1,5.25,1.15,11.06,11.06,0,0,1,3.82,3.55,20.53,20.53,0,0,1,2.76,6.48,39.41,39.41,0,0,1,1.13,9.21,81.75,81.75,0,0,1-.38,8.21c-0.28,3-.74,6.27-1.36,9.58s-1.45,6.74-2.43,10.16a89.57,89.57,0,0,1-3.43,9.77,61.12,61.12,0,0,1-4.37,8.53,34.92,34.92,0,0,1-5,6.42A19.58,19.58,0,0,1,305,369.84Z" fill="#ea46a8"/>
  <path class="o" d="M318.24,276.8c-25.92-5.69-48.79,29.88-52.36,57.89s6.37,49.88,27.07,51.63c27.82,2.36,41.76-23.13,46.05-43.83S349,283.56,318.24,276.8Z" fill="none" stroke="#5fe6ff" stroke-linecap="round" stroke-miterlimit="10" stroke-width="7"/>
  <path class="ver" d="M364.72,330.21s0.14,46.65,4.07,46.49c8.48-.35,21-50.17,24.89-50.49,6.94-.58-14.37,37.88,4.4,40.24,9.6,1.21,28.56-5.06,39.51-14.78,8.83-7.85,10.88-19.87,6-23.3-14.9-10.56-28.69,13.57-26.22,32.53,2.08,16,20.66,21.4,42.05,3.5C476.12,350.46,475.35,325,472,325c-4.61-.06-8,36.06-6,45.36s17-44.82,24.72-44.25-1,27.32,8.09,30.54,22.51-10.25,22.51-10.25" fill="none" stroke="#5fe6ff" stroke-linecap="round" stroke-miterlimit="10" stroke-width="7"/>

    </g> <!-- end neon-group -->


</g>

</svg>
