<svg id="svg-clouds" xmlns="http://www.w3.org/2000/svg" viewBox="0 0 800 800">
  <title>svg-clouds2</title>
  <g id="cloudGroup02">
    <path id="cloud-06" d="M46.23-322c-1.21,2.69-3,5.33-3.54,8.08-1.54,7.27-2.22,14.64-4,21.89-1.06,4.41-3.43,8.66-5.29,13-0.7,1.61-1.87,2-4.55,1.44-8.34-1.78-10-6.84-11.8-11.57-2.65-7.08-3.45-14.31-3.81-21.72-0.74-15.46,2.3-30.77,1.84-46.17Q14.91-364.3,14-371.46c-0.14-1.18-1.5-2.28-2.29-3.42a4.24,4.24,0,0,1-1-1.49c-0.33-3.37-.65-6.74-0.75-10.12-0.14-4.76-.06-9.53-0.12-14.3a4.71,4.71,0,0,0-1-1.43A62.09,62.09,0,0,0,2.52-400c-3.49,1.63-6.09,1.53-8.45-1a28.43,28.43,0,0,1-7.84-19C-14.45-433.8-11.65-447.42-9-461-6.8-472.39-3.74-483.67-.9-495c0.46-1.82,1.87-3.51,2.68-5.29,1.64-3.64,3.75-7.25,4.62-11,2.65-11.41,5.35-22.85,7-34.34,2.08-14.32,3.09-28.72,4.7-43.08,0.38-3.37,2.24-6.77,1.77-10-0.8-5.57,4.7-9.73,5.47-14.94s3.12-10.26,4.58-15.41c1.42-5,2.52-10,3.93-15A23,23,0,0,1,36-648.15l1.48,0.2c0.19,1.31.38,2.63,0.56,3.94,1,7.48,2,15,3,22.44,0.38,2.71,1.2,5.39,1.47,8.11,0.31,3.08.18,6.18,0.33,9.28,0.17,3.65,1.29,4.25,6.05,3.38,4.26-.77,8.15,0,10.36,2.51,2.8,3.14,5.69,6.53,6.8,10.07a72.22,72.22,0,0,1,2.22,33.66c-2.75,16.84-4.51,33.75-6.39,50.65-0.42,3.81.37,7.68,0.62,11.77,3.81,0.34,5.44,2.35,6,4.79,1.18,5.28,2.56,10.56,3.09,15.88,0.51,5.13,4.61,7.19,11.23,5,6-2,13.88.5,16,5.58a46.61,46.61,0,0,1,3.46,13.26,57.77,57.77,0,0,1-.61,14.07C100.08-422.74,98-412,96.34-401.2c-0.35,2.35.41,4.8,0.8,7.2,0.36,2.23,1.56,4.48,1.28,6.66-1.74,13.13-4,26.22-9.13,39-0.15.36-.29,0.72-0.46,1.08A31.5,31.5,0,0,0,86-336.1c-0.75,9.77-3.12,19.47-5,29.19a17.37,17.37,0,0,1-2,4.57c-2.78,5.22-9.06,5.91-14.65,1.77a28.19,28.19,0,0,1-9.24-12c-1.46-3.31-4.34-6.32-6.58-9.47Z" transform="translate(13.88 649.73)" fill="#fff"/>
    <path id="cloud-05" d="M448.36-452.07a142.62,142.62,0,0,1,11.59-41.42c0-.1.12-0.19,0.16-0.29,0.65-1.7.49-4,2.22-4.9,1.35-.73,5,0.16,7.68.37,6.7,0.52,12-2.45,12.73-6.57,1.74-9.44,4.41-18.82,5.8-28.28,2.7-18.48,4.34-37,7.28-55.5,1.76-11.07,5.55-22,7.7-33.06,1.68-8.62,2.21-17.33,3.39-26,0.1-.7,1.26-1.34,1.92-2,0.77,0.54,1.55,1.08,2.31,1.63a0.42,0.42,0,0,1,.14.29c2.37,15.59,8.62,30.82,7.93,46.77s0.45,32.19,8.87,47.67c2.27,4.16,5.66,8.11,7.58,12.32,1.65,3.62,1.75,7.5,2.92,11.22,0.6,1.92,2,3.74,3.11,5.59,0.28,0.47.9,0.86,1.12,1.33,3.07,6.61,6.62,13.15,9,19.85a48.72,48.72,0,0,1,2.38,14.68c0.17,5.56-.73,11.14-1,16.71a4.27,4.27,0,0,0,1.43,2.87c5.33,5.37,10.27,10.94,16.43,15.93,3.27,2.65,8.58,4.4,13.23,6.3,2.59,1.06,5.76,1.55,8.59,2.4,3,0.9,4.52,2.4,4,4.53-2.25,9.38-4.42,18.78-6.83,28.15-0.84,3.25-2.53,6.41-3.37,9.65-0.5,1.91-1.83,2.35-4.68,2.23-7.39-.3-13.46,2.73-14.54,7.37-1.84,7.87-3.7,15.75-5.07,23.65-5.47,31.49-10.3,63-16.33,94.48-2.19,11.43-6.46,22.76-11,33.95-1.83,4.54-6.33,8.8-10.65,12.76-2.88,2.64-9.77,2.31-13-.32-7.71-6.28-10.54-13.63-10.56-21.37-0.05-15.13,2.07-30.23,0-45.4-1.37-10-4.54-19.71-8.39-29.39a4,4,0,0,0-2.8-2c-3.68-.19-4.43-1.5-5.12-3.43-3.65-10.17-1.47-20.33-.61-30.54,1.36-16.14,4.72-32.35-1.22-48.42a62.55,62.55,0,0,0-4.31-8.89c-1-1.78-8.3-2.33-13.2-1.41-3.26.61-6.81,1.34-10,1.07-2.07-.17-5.09-1.94-5.4-3.2a110.73,110.73,0,0,1-3.15-19C446.36-443.81,447.72-448,448.36-452.07Z" transform="translate(13.88 649.73)" fill="#fff"/>
    <path id="cloud-04" d="M788.91-524.42c-0.65,6.66-1.1,12.27-1.77,17.86-1,8.13-3.16,16.19-2.17,24.42,0.59,4.93,2.11,9.87,1.86,14.77-0.22,4.3-2,8.61-3.7,12.77-1.21,3-3.84,3.69-7.77,3-5.71-1.05-9.89-4.51-10.8-9.12q-2.55-12.91-4.94-25.85c-0.35-1.89-.93-3-3.89-3-1.41,0-3.16-1.38-4.05-2.49a6.9,6.9,0,0,1-1.34-4.05c-0.34-11.07-1.7-22.24-.39-33.2,0.88-7.32,2.69-15,7.82-21.73a12.59,12.59,0,0,0,2.35-6.15c0.71-6.35,6.29-8.86,12.8-10.8,2.78-.83,5.54-1.7,8.32-2.54,8.61-2.63,11.38-8.08,11.55-14.81,0.17-6.49.13-13,.61-19.48a100.41,100.41,0,0,1,3.84-21.38c1.55-5.21.79-10.85,1-16.3,0.08-1.86,0-3.71,0-5.57l0.9,0q0,1.5,0,3c0,12.64.29,25.28-.07,37.91A57.33,57.33,0,0,0,803.62-582a32,32,0,0,1,2.67,14.4c-0.56,14.38-.84,28.77-1.44,43.15-0.07,1.62-1,4.2-2.33,4.56-1.72.47-4.31-.68-6.37-1.4C793.77-522.13,791.55-523.26,788.91-524.42Z" transform="translate(13.88 649.73)" fill="#fff"/>
    <path id="cloud-03" d="M286.29-427.61c3.55,4.43,7.9,4.08,12.33,2.05,1.23-.56,2.24-1.9,1.91-2.72-3.2-8.08-2.36-16,.29-24.13,2.37-7.28,2.08-14.8,3.44-22.19a187.19,187.19,0,0,1,4.56-18.63c2.27-7.75,5.49-15.43,7.25-23.21,1-4.28-.32-8.71-0.45-13.07-0.12-4.19-.06-8.39-0.09-12.59,0-1.36-.07-2.71-0.14-4.07,0-.75-0.76-1.74-0.13-2.2,6.62-4.95,2.17-10.61,3.62-15.88s1.73-10.38,3-15.53c0.59-2.36,3.17-4.61,3.4-7,0.55-5.66-.17-11.36.41-17,0.4-3.89,2.68-7.73,3.12-11.63a137.48,137.48,0,0,0,1.07-21.94c-0.14-3-1.59-5.88,1.13-8.69a31.87,31.87,0,0,1,2.83-2.13,30.24,30.24,0,0,1,.6,3c0.37,5.14.9,10.29,1,15.43,0.16,7.29,0,14.57,0,21.86a13.58,13.58,0,0,0,.44,2.87c1.18,5.32,2.78,10.63,3.47,16,0.53,4.08-.31,8.2-0.12,12.3a83.64,83.64,0,0,0,1.46,9.49,7.29,7.29,0,0,1,.36,1.83c-0.59,5.59-1.26,11.17-1.83,16.76a1.43,1.43,0,0,0,.84,1.42c5.34,1.78,4.55,4.84,5,7.45,1.63,9.05,2.49,18.14,4.18,27.19,1.37,7.33,3.51,14.62,5.3,21.91,8.57,0.34,8.11.41,9.36,5.19,1.37,5.25,4,10.41,5.74,15.63,0.74,2.2,2.21,2.21,5.62,1.45a141.89,141.89,0,0,1,14.59-2.34c6.51-.73,8.36,0,8.62,3.64,0.37,5.22.84,10.5-.07,15.69-2.4,13.61.12,27.11,2.13,40.63,1.15,7.77,3.22,15.57,2.93,23.33a181,181,0,0,1-4.29,30.57c-2.75,13-6.84,25.91-9.62,38.9-1.08,5.06,0,10.24-.22,15.36-0.44,10.63.46,21.32-4.79,31.75-1,2-2.14,3.52-6.15,3.64-4.73.14-10,1.22-13.58-1.56a26.58,26.58,0,0,0-2.67-2.09c-4.62-2.74-9.43-2.63-11.94.76-6.8,9.17-13,18.46-19.3,27.75-1.43,2.12-.7,4.92-6.16,5.59-5,.61-13-1.5-15.17-4.42a43.15,43.15,0,0,1-5.21-9.78c-6-14.32-5.23-28.8-1.89-43.21,1.78-7.69-1.63-14.82-4.79-22.08a37.28,37.28,0,0,0-2.18-4c-1.37-2.32-3.86-3.53-8.78-3-4.55.49-6.35-1.33-7.33-3.28-4.23-8.34-4.56-16.82-3.14-25.37C278-361.93,280-372,280.91-382.08c0.64-6.69-.87-13.44-0.39-20.14,0.53-7.43,2.19-14.84,3.47-22.25C284.13-425.22,285-425.94,286.29-427.61Z" transform="translate(13.88 649.73)" fill="#fff"/>
    <path id="cloud-02" d="M672.85-648.15c0.1,0.87.14,1.75,0.3,2.61,1.92,10.95.82,21.89,0.19,32.86-0.65,11.32-2,22.69.29,34,0.46,2.26,2.56,4.46,2.43,6.63-1.29,22.89,4.38,45.42,5.24,68.17,0.19,5.05-2,10.37-4.21,15.23-4.79,10.38-2.72,20.75-1.24,31.18,0.37,2.65,3,4.07,5.87,4.84,4,1.09,5.9,3.2,6.27,6.44,0.69,6.07,1.67,12-.65,18.14-1.12,3-1,6.34-.62,9.48q1.38,12.65,3.51,25.25a28.26,28.26,0,0,0,3.18,8,5.22,5.22,0,0,0,3.24,2.27c2.84,0.53,3.47,2,3.68,3.88q1.37,12.54,2.78,25.09c0.55,4.87,3.5,6.76,9.7,6.4,10.16-.6,8.52-1.83,9.83,6.66a45.8,45.8,0,0,1-1.56,19.5,9.79,9.79,0,0,0-.27,3.6c1,9.59,2.24,19.16,3,28.76a23.38,23.38,0,0,1-1.32,8.26c-0.25.87-2,1.91-3.15,2-0.89.09-2.15-1.07-3-1.84-1.43-1.32-2.55-2.85-4-4.17-2.68-2.48-5.76-4.72-8.16-7.35-1.55-1.7-3.21-1.38-5-1-2.95.6-4.75,2.23-4.81,4.61-0.07,2.82.86,5.69,0.4,8.45-1.51,9.14-3.45,18.24-5.19,27.36a8,8,0,0,0-.23,3c2.91,14-.36,27.55-5.24,41-0.75,2.06-2.08,2.91-4.83,3.39-10.81,1.86-15.54-3.25-17.1-11.3-2.79-14.42-3.74-29.07-5-43.65-0.26-3,2-6.14,2.36-9.26a102,102,0,0,0,0-28C658-308.37,657-319.1,656-329.82a24.13,24.13,0,0,1,1.25-9.72c1.82-5.31,1.5-10.55.9-15.9-2.66-23.58-5.34-47.15-7.72-70.74-0.49-4.81.9-9.75,0.3-14.54-1.14-9.12-1.39-18.12,1.32-27.09a2.75,2.75,0,0,0,0-1.68c-1.82-5,1-9.14,4.15-13.19a2,2,0,0,1,.57-0.71c6.8-3.15,5-8.67,5.68-13.37,0.84-6.21.92-12.49,1.26-18.75,0.24-4.48.27-9,.59-13.45a52.29,52.29,0,0,1,1.17-6.89c0.57-2.75,2.09-5.55,1.74-8.21-0.72-5.52.84-10.79,1.43-16.18,0.8-7.26.91-14.56,1.28-21.85,0.55-10.71.81-21.43,1.66-32.13,0.83-10.33,1.46-20.64-.06-31a14.65,14.65,0,0,1-.15-2.25,1.74,1.74,0,0,1,.43-0.69Z" transform="translate(13.88 649.73)" fill="#fff"/>
    <path id="cloud-01" d="M230.29-648.15a15.22,15.22,0,0,1,.74,3.37q-0.22,24.28-.57,48.56c-0.18,11.58-.73,23.17-0.6,34.75a12.88,12.88,0,0,0,3.44,7.8c3.41,3.84,1.65,7.71,1.43,11.62-0.2,3.65-1.45,7.51-.33,10.88,0.92,2.75,4.07,5.65,7.24,7.21,6.5,3.18,8.94,7.35,8.79,13.17s2,10.72,9.43,13.6c1.88,0.73,3.23,3.13,3.81,5a117.11,117.11,0,0,1,3.57,14.38c0.48,2.56.82,5.37,0,7.8-2.7,8-5.85,16-9.09,23.93a12.88,12.88,0,0,1-3.8,4.56c-5.14,4.25-13.9,3.29-16.45-2.18-2.22-4.77-2.89-10-4.56-14.92-0.75-2.21-2.28-4.25-3.45-6.36-1.61,1.89-3.56,3.67-4.74,5.71-1.61,2.8-2.49,5.85-3.94,8.71-2.24,4.45-6.2,5.38-9.56,1.47-3.53-4.12-5.33-9.22-7.46-14a19.25,19.25,0,0,1-1.33-7.09c-0.2-5.25-4.13-8.42-9.39-10.79-3.22-1.45-4.31-3.42-4.29-6.21,0.11-10.68-.22-21.36.27-32,0.12-2.71,2.11-5.67,4.21-8a125,125,0,0,1,13.16-12.4,22.66,22.66,0,0,0,8.67-16.06c0.81-8.32.67-16.73,2-25,1.3-7.8,1.41-15.72,5.69-23.3,5-8.86,5.32-18.66,5.15-28.32-0.07-4-.13-8-0.07-12.05a22.74,22.74,0,0,1,.69-3.81h1.27Z" transform="translate(13.88 649.73)" fill="#fff"/>
    <circle id="single-star" cx="400" cy="-291.16" r="1.5" transform="translate(336.92 847.29) rotate(-45)" fill="#fff"/>
    <g id="speedline">
      <line x1="413.88" y1="57.77" x2="413.88" y2="339.9" fill="none" stroke="#fff" stroke-linecap="round" stroke-miterlimit="10"/>
      <circle id="_circle_" data-name="&lt;circle&gt;" cx="400" cy="-302.58" r="1.5" transform="translate(345 843.95) rotate(-45)" fill="#fff"/>
    </g>
    <circle id="cGuide02" cx="413.88" cy="1049.73" r="399.65" fill="none" stroke="#ff2703" stroke-miterlimit="10" stroke-width="0.7"/>
    <line id="cGuide-" x1="413.88" y1="950.73" x2="413.88" y2="1148.73" fill="none" stroke="#ff2703" stroke-miterlimit="10" stroke-width="0.7"/>
    <line id="cGuide--2" data-name="cGuide-" x1="314.88" y1="1049.73" x2="512.88" y2="1049.73" fill="none" stroke="#ff2703" stroke-miterlimit="10" stroke-width="0.7"/>
  </g>
</svg>
