<svg id="svg-clouds" xmlns="http://www.w3.org/2000/svg" viewBox="0 0 800 800">
  <title>svg-clouds</title>
  <g id="cloudGroup01">
    <path id="cloud-12" d="M65-343.67c-0.85,1.77-2.08,3.51-2.49,5.33-1.09,4.79-1.56,9.65-2.79,14.43-0.75,2.9-2.42,5.71-3.72,8.55-0.49,1.06-1.31,1.33-3.2,1-5.88-1.17-7.07-4.51-8.31-7.63a43.8,43.8,0,0,1-2.68-14.32c-0.52-10.19,1.62-20.28,1.3-30.43q-0.15-4.73-.76-9.45c-0.1-.77-1.05-1.5-1.62-2.25a2.79,2.79,0,0,1-.71-1c-0.23-2.22-.46-4.44-0.53-6.67-0.1-3.14,0-6.28-.09-9.42a3.09,3.09,0,0,0-.67-0.94,45.83,45.83,0,0,0-4.51,1.44c-2.46,1.07-4.29,1-6-.65a18.13,18.13,0,0,1-5.53-12.5c-0.48-9.11,1.5-18.09,3.36-27.06,1.55-7.49,3.71-14.92,5.71-22.36,0.32-1.2,1.32-2.31,1.89-3.49,1.15-2.4,2.64-4.78,3.25-7.24,1.87-7.52,3.77-15.06,4.94-22.63,1.46-9.44,2.18-18.93,3.31-28.39,0.27-2.22,1.57-4.46,1.24-6.62-0.56-3.67,3.31-6.41,3.85-9.85s2.19-6.76,3.23-10.16,1.77-6.59,2.77-9.87a14.84,14.84,0,0,1,1.51-2.72l1,0.13c0.13,0.87.27,1.73,0.39,2.6,0.7,4.93,1.38,9.86,2.12,14.79,0.27,1.79.85,3.56,1,5.34,0.22,2,.13,4.08.23,6.11,0.12,2.41.91,2.8,4.26,2.23,3-.51,5.74,0,7.3,1.65,2,2.07,4,4.3,4.79,6.64a44.67,44.67,0,0,1,1.56,22.19c-1.94,11.1-3.17,22.25-4.5,33.38-0.3,2.51.26,5.06,0.43,7.76,2.68,0.23,3.83,1.55,4.21,3.16a84.1,84.1,0,0,1,2.17,10.47c0.36,3.38,3.25,4.74,7.91,3.31,4.23-1.3,9.78.33,11.27,3.68a29.15,29.15,0,0,1,2.43,8.74,35.66,35.66,0,0,1-.43,9.27c-1.12,7.11-2.61,14.2-3.75,21.31-0.25,1.55.29,3.17,0.56,4.74s1.1,3,.9,4.39c-1.23,8.65-2.78,17.28-6.43,25.68-0.1.24-.2,0.48-0.32,0.71a19.69,19.69,0,0,0-2,7.38c-0.53,6.44-2.2,12.84-3.51,19.24a11.09,11.09,0,0,1-1.43,3c-2,3.44-6.38,3.89-10.32,1.17a18.78,18.78,0,0,1-6.51-7.94c-1-2.18-3.05-4.17-4.63-6.24Z" transform="translate(0 558.6)" fill="#fff"/>
    <path id="cloud-11" d="M190.29-558.6c0,1.68,0,3.37.08,5,0.72,11.66,1.61,23.32,2.15,35,0.19,4.18,1.18,8.4-.55,12.59-1.43,3.46-2.5,7-3.7,10.48a3.86,3.86,0,0,0-.27,1.66c1.4,12,2.47,24,6.68,35.79,1.3,3.65,1.47,7.49,1.92,11.26,1.33,11.15,2.35,22.32,3.88,33.46,0.53,3.86,2.26,7.66,3.35,11.49,1.17,4.14,1.93,8.34,3.44,12.42A68.86,68.86,0,0,0,213-377.35c5.31,8.65,6.47,17.57,5,26.71-1.2,7.53-2.35,15.07-4,22.56-1.2,5.58-3.08,11.1-4.72,16.63a5.44,5.44,0,0,1-1.29,2.06c-1.44,1.54-5.5,1.49-6.51-.17-1.57-2.56-2.79-5.22-4.09-7.85-2.42-4.89-4.64-9.83-7.26-14.68-1.2-2.21-6.74-3.9-10.28-3.29a3.51,3.51,0,0,0-2.37,1.75c-1.18,3.45-2.53,6.91-3,10.42-0.91,6.81-4.16,13.23-6.8,19.76-1.42,3.5-2.67,7-6,10A16.85,16.85,0,0,1,153-289.3c-3.09.53-5.46-.11-6.21-2.13-1.56-4.21-3.42-8.45-4-12.73-1.47-11.71-2.39-23.45-3.36-35.18-0.16-1.95.55-3.93,0.85-5.89a11.8,11.8,0,0,0,.35-2.75c-1.06-11.79-2.47-23.57-3.13-35.37-0.28-4.92.68-9.9,1.64-14.8,0.75-3.86,6-5.05,10.82-2.7,2.5,1.22,4.84,2.59,7.28,3.88,1.69,0.89,2.61.63,3.08-.79a33.27,33.27,0,0,0,1.21-15c-0.29-2.21.14-3.82,3.82-4.72a3.85,3.85,0,0,0,2.24-2.74c0.87-3.67,1.19-7.41,2.2-11.06a8.76,8.76,0,0,1,3.22-4c1.46-1.13,2.29-2.16,2.08-3.66-1.55-11.06-3-22.13-4.54-33.19-0.49-3.58.17-6.78,4.15-9.68,3.05-2.22,1.4-5.23,1-7.91-0.29-2.22-.85-4.42-1.31-6.63-0.51-2.41,1.87-4.21,3-6.29a15.16,15.16,0,0,0,2-5.18c0.53-4.64.62-9.3,1-13.94,0.2-2.33.51-4.59,2.89-6.66,1.29-1.12,1.4-2.92,1.61-4.44,0.52-3.64.81-7.29,1.14-10.94a13.12,13.12,0,0,0,.1-3.9c-0.83-3.9,1-7.42,3.21-10.91h0.87Z" transform="translate(0 558.6)" fill="#fff"/>
    <path id="cloud-10" d="M521.27-440a89.13,89.13,0,0,1,6.61-24.86c0-.06.07-0.12,0.09-0.18,0.37-1,.28-2.38,1.26-2.94,0.77-.44,2.87.1,4.38,0.22,3.82,0.31,6.82-1.47,7.26-3.94,1-5.67,2.52-11.3,3.3-17,1.54-11.09,2.47-22.22,4.15-33.31,1-6.64,3.16-13.21,4.39-19.84,1-5.17,1.26-10.4,1.93-15.6a3.52,3.52,0,0,1,1.09-1.21l1.31,1a0.26,0.26,0,0,1,.08.18c1.35,9.36,4.91,18.5,4.52,28.07s0.25,19.32,5.06,28.61c1.29,2.5,3.23,4.87,4.32,7.4,0.94,2.17,1,4.5,1.66,6.74a17.92,17.92,0,0,0,1.77,3.35c0.16,0.28.52,0.52,0.64,0.8,1.75,4,3.77,7.89,5.11,11.91a30.66,30.66,0,0,1,1.36,8.81c0.1,3.34-.42,6.68-0.55,10a2.61,2.61,0,0,0,.82,1.72,120.09,120.09,0,0,0,9.36,9.56c1.86,1.59,4.89,2.64,7.54,3.78,1.47,0.64,3.28.93,4.89,1.44s2.58,1.44,2.29,2.72c-1.28,5.63-2.52,11.27-3.89,16.89-0.48,1.95-1.44,3.84-1.92,5.79-0.28,1.15-1,1.41-2.67,1.34-4.21-.18-7.67,1.64-8.29,4.42-1,4.72-2.11,9.45-2.89,14.19-3.11,18.9-5.87,37.83-9.31,56.7-1.25,6.86-3.68,13.66-6.26,20.37-1,2.72-3.61,5.28-6.07,7.66-1.64,1.59-5.57,1.38-7.41-.19a16.2,16.2,0,0,1-6-12.83c0-9.08,1.18-18.14,0-27.25A79,79,0,0,0,546.4-363a2.31,2.31,0,0,0-1.6-1.2c-2.1-.11-2.52-0.9-2.92-2.06-2.08-6.1-.84-12.2-0.35-18.33,0.77-9.69,2.69-19.41-.7-29.06a38.43,38.43,0,0,0-2.45-5.33c-0.57-1.07-4.73-1.4-7.53-.84a21.14,21.14,0,0,1-5.72.64c-1.18-.1-2.9-1.16-3.08-1.92a69.69,69.69,0,0,1-1.79-11.42C520.14-435,520.91-437.5,521.27-440Z" transform="translate(0 558.6)" fill="#fff"/>
    <path id="cloud-09" d="M704-558.6a9.14,9.14,0,0,1,.31,1.5q0.95,24.33,1.87,48.66c0.2,5.14.68,10.28,0.54,15.41-0.17,6.11-.86,12.22-1.32,18.33a2.5,2.5,0,0,0,.06,1.66c2.59,3.54,1.5,7.33,1.75,11,0.48,7.08.46,14.17,0.94,21.25a11.6,11.6,0,0,0,6.08,10c3.81,2.26,3.78,5.34,3.17,8.3-0.21,1-1.92,2.07-3.3,2.84-1.82,1-2.91,2.06-3.2,3.7a11.53,11.53,0,0,1-2.26,4.51c-3.43,4.68-6.25,9.43-6,14.76,0.47,10,.84,20,1.17,30,0,1.49.25,2.39,3.19,2.42a7.22,7.22,0,0,1,6.13,3.39c3.4,4.58,4.26,9.4,4.12,14.42s0.24,9.87,2.72,14.66a13.53,13.53,0,0,0,6.76,6,3.7,3.7,0,0,1,2.13,2.53c0.43,6.77,1,13.55.75,20.32-0.13,3.78-1.65,7.53-2.55,11.3a5.58,5.58,0,0,0-.24.91c-0.36,6.12-.77,12.23-1,18.35-0.52,12.08-1.61,24.14-1.09,36.26,0.2,4.67-2.6,9.39-4,14.1-0.83,2.84-1.34,5.72-2.35,8.52a30.16,30.16,0,0,1-3.51,7c-0.53.76-2.64,1.46-4,1.46-2.13,0-1.9-1.38-1.94-2.44q-2-51-4-101.94l-0.08-2c-3.39.85-6.85,1.07-9.22,3.07-1.23,1-3.45,1.55-4.77,2.55a52.25,52.25,0,0,0-6.53,5.78A9.84,9.84,0,0,1,673-297.65a3,3,0,0,1-1.93-2c-0.52-10.56-1.29-21.13-1.16-31.69,0.08-6.63,1.62-13.26,2.36-19.89,0.31-2.77-.19-5.61.44-8.34,1.85-8,0-16,.13-23.94,0.06-2.92-.2-5.84-0.35-8.76-0.11-2-1-2.59-4.16-2.6-2.47,0-4.94,0-7.41.09-2,0-2.9-.51-2.88-1.88,0-2.42-.83-4.94-0.1-7.25,0.91-2.88,3.06-5.6,4.66-8.39a59.88,59.88,0,0,0,3.66-6.51c1.72-4.15,1.62-8.41,1.38-12.69-0.06-1,1-2.16,1.81-3.17a31.6,31.6,0,0,1,3.54-4.08,12.75,12.75,0,0,1,4.41-3.21c4.91-1.68,8-4.49,11.57-7a10.62,10.62,0,0,0,4.43-7c1.5-6.23,3.64-12.42,4.6-18.68,0.88-5.72.46-11.52,0.83-17.28,0.12-2,1.21-3.89,1.29-5.84,0.13-3.47-.4-7-0.23-10.43s0.94-7.14,1.29-10.71c0.42-4.27.83-8.54,1-12.81,0.12-4.1-.27-8.2-0.15-12.3,0.13-4.86.57-9.71,0.87-14.56Z" transform="translate(0 558.6)" fill="#fff"/>
    <path id="cloud-07" d="M734.83-430.51c1.71,2.57,3.81,2.37,5.95,1.19a1.67,1.67,0,0,0,.92-1.58c-1.54-4.69-1.14-9.3.14-14,1.14-4.23,1-8.59,1.66-12.89,0.55-3.62,1.33-7.23,2.2-10.82,1.09-4.5,2.65-9,3.5-13.48,0.47-2.49-.15-5.06-0.22-7.59s0-4.87,0-7.31c0-.79,0-1.57-0.07-2.36,0-.43-0.36-1-0.06-1.28,3.2-2.87,1-6.16,1.75-9.22s0.83-6,1.45-9c0.28-1.37,1.53-2.68,1.64-4,0.26-3.29-.08-6.6.2-9.89,0.19-2.26,1.29-4.49,1.5-6.75a96,96,0,0,0,.52-12.74c-0.07-1.73-.77-3.41.55-5a16,16,0,0,1,1.36-1.24c0.15,0.87.26,1.31,0.29,1.76,0.18,3,.43,6,0.49,9,0.08,4.23,0,8.46,0,12.7a9.39,9.39,0,0,0,.21,1.67c0.57,3.09,1.34,6.17,1.67,9.28,0.25,2.37-.15,4.76-0.06,7.14,0.07,1.84.45,3.67,0.7,5.51a5,5,0,0,1,.17,1.06c-0.28,3.24-.61,6.49-0.88,9.73a0.87,0.87,0,0,0,.41.83c2.58,1,2.2,2.81,2.42,4.33,0.79,5.26,1.2,10.54,2,15.79,0.66,4.26,1.69,8.49,2.56,12.72,4.14,0.2,3.91.24,4.51,3,0.66,3.05,1.92,6,2.77,9.08,0.36,1.28,1.06,1.28,2.71.84a57.86,57.86,0,0,1,7-1.36c3.14-.43,4,0,4.16,2.11a44.74,44.74,0,0,1,0,9.11c-1.16,7.91.06,15.74,1,23.6,0.56,4.52,1.55,9,1.41,13.55a125.33,125.33,0,0,1-2.07,17.75c-1.33,7.55-3.3,15-4.64,22.59-0.52,2.94,0,5.95-.11,8.92-0.21,6.17.22,12.38-2.31,18.44a2.87,2.87,0,0,1-3,2.11c-2.28.08-4.8,0.71-6.55-.91a13.49,13.49,0,0,0-1.29-1.21c-2.23-1.59-4.55-1.53-5.76.44-3.28,5.33-6.29,10.72-9.31,16.12-0.69,1.23-.34,2.86-3,3.25-2.41.36-6.25-.87-7.32-2.57a27.1,27.1,0,0,1-2.51-5.68c-2.89-8.32-2.53-16.72-.91-25.1,0.86-4.47-.79-8.61-2.31-12.82a23.3,23.3,0,0,0-1.05-2.31c-0.66-1.35-1.86-2.05-4.23-1.74a3,3,0,0,1-3.54-1.9A27.4,27.4,0,0,1,730-386.51c0.8-5.85,1.77-11.69,2.23-17.55,0.31-3.89-.42-7.81-0.19-11.7,0.26-4.32,1.06-8.62,1.67-12.93A7.67,7.67,0,0,1,734.83-430.51Z" transform="translate(0 558.6)" fill="#fff"/>
    <path id="cloud-06" d="M623.7-558.6c0.08,0.57.11,1.15,0.23,1.72,1.53,7.22.65,14.42,0.15,21.66-0.52,7.46-1.62,15,.23,22.41,0.37,1.49,2,2.94,1.93,4.37-1,15.08,3.48,29.93,4.17,44.93,0.15,3.33-1.56,6.83-3.35,10-3.8,6.84-2.16,13.68-1,20.55,0.3,1.74,2.39,2.68,4.66,3.19,3.21,0.72,4.69,2.11,5,4.25,0.55,4,1.32,7.94-.51,12a11.41,11.41,0,0,0-.5,6.25q1.1,8.34,2.79,16.64a16.93,16.93,0,0,0,2.53,5.26,4.21,4.21,0,0,0,2.58,1.5c2.26,0.35,2.76,1.3,2.92,2.56q1.09,8.27,2.21,16.53c0.44,3.21,2.78,4.46,7.71,4.22,8.07-.39,6.77-1.21,7.81,4.39A25.27,25.27,0,0,1,662-343.34a5.39,5.39,0,0,0-.21,2.37c0.8,6.32,1.78,12.63,2.41,19a13,13,0,0,1-1.05,5.44,3.53,3.53,0,0,1-2.5,1.34,4.57,4.57,0,0,1-2.37-1.22c-1.13-.87-2-1.88-3.16-2.75-2.13-1.63-4.57-3.11-6.49-4.85-1.24-1.12-2.55-.91-4-0.67-2.34.39-3.78,1.47-3.82,3-0.06,1.86.68,3.75,0.32,5.57-1.2,6-2.74,12-4.12,18a4.41,4.41,0,0,0-.19,2c2.31,9.25-.28,18.16-4.17,27-0.6,1.36-1.65,1.92-3.84,2.23-8.59,1.23-12.35-2.14-13.59-7.45-2.22-9.5-3-19.16-4-28.77-0.21-2,1.55-4,1.87-6.11a55.87,55.87,0,0,0,0-18.47c-1.25-7-2.11-14.1-2.83-21.16a13.39,13.39,0,0,1,1-6.4c1.44-3.5,1.19-7,.71-10.48-2.11-15.54-4.24-31.08-6.14-46.62-0.39-3.17.72-6.42,0.24-9.58-0.91-6-1.11-11.95,1-17.85a1.52,1.52,0,0,0,0-1.11c-1.45-3.32.8-6,3.29-8.7a1.41,1.41,0,0,1,.46-0.47c5.4-2.08,4-5.72,4.51-8.81,0.66-4.1.73-8.23,1-12.35,0.19-3,.22-5.91.47-8.87a29.14,29.14,0,0,1,.93-4.54c0.46-1.81,1.66-3.66,1.39-5.41-0.57-3.64.67-7.11,1.14-10.67,0.64-4.78.72-9.6,1-14.4,0.43-7.06.64-14.13,1.32-21.17,0.66-6.81,1.16-13.6,0-20.4a8,8,0,0,1-.12-1.48,1.14,1.14,0,0,1,.34-0.45Z" transform="translate(0 558.6)" fill="#fff"/>
    <path id="cloud-05" d="M442.59-558.6a5.57,5.57,0,0,1,1.15.46c1,4.36,2,8.73,3,13.08a23.4,23.4,0,0,0,1.2,3,9.86,9.86,0,0,1,.91,2.48q0.75,7.91,1.31,15.83c0.09,1.34.67,2.34,2.48,3.12a1.78,1.78,0,0,1,.63,1.75c-0.07.83-.75,1.65-0.7,2.47a125.69,125.69,0,0,0,1.11,13c0.6,3.6-.69,7-1.68,10.4a27.86,27.86,0,0,0-.69,3.82,68,68,0,0,0-.89,7c-0.09,2.35.55,4.73,0.22,7.06-0.35,2.53-1.44,5-2.24,7.51a3.74,3.74,0,0,0-.47.66c0.19,5.05-2.7,10-.89,15.1a4.64,4.64,0,0,0,3,2.19c3.57,0.82,4.66,2.6,4.85,4.69,0.87,9.56,1.59,19.12,2.44,28.68a5.69,5.69,0,0,0,1.05,1.88,13.88,13.88,0,0,0,2.39-1.55c1.42-1.46,2.57-3,4-4.47a4.84,4.84,0,0,1,2.44-1.05c3.22-.46,3.91-0.08,4.09,2q0.42,4.75.79,9.5c0.15,2,.66,3.94-1,5.81a2.23,2.23,0,0,0-.16,1.64c0.16,2.3.51,4.59,0.52,6.89,0,5.36,1.28,10.63-.08,16.1a47.8,47.8,0,0,0-.62,18.47c0.31,2.17-.75,4.47-1.5,6.66-0.47,1.38-3.36,1.43-5.34.19-3.2-2-5.71-1.7-7.19,1.06a10.91,10.91,0,0,0-1.3,4.8c-0.1,3.81,1,7.58-.63,11.43-0.85,2.05.37,4.44,0.29,6.67-0.11,3.35-.75,6.7-0.79,10.06s0.49,6.71-.67,10.13c-1.43,4.23-1.74,8.62-2.66,12.93-0.58,2.7-5,3.73-8.46,2-2.41-1.24-3.85-2.85-4-4.93-0.18-3-.7-6.08-0.65-9.12a14.12,14.12,0,0,0-3.55-9.35A6.55,6.55,0,0,1,433-322.1c-1.24-14.21-2.38-28.42-3.54-42.63l-0.2-2.46a18.45,18.45,0,0,0-1.94-.1c-2.47.17-3.31-.56-3.43-2.15-0.77-10.24-1.66-20.48-2.51-30.73a61.75,61.75,0,0,1-.51-6.7c0.06-2.07.68-4.13,0.87-6.2a27,27,0,0,0-.08-4.45c-0.1-1.43.77-2.46,2-3.67a7.61,7.61,0,0,0,2.38-5.14c0-4.84-.72-9.68-1-14.52-0.05-1,.65-2.12,1-3.17a38.29,38.29,0,0,0,1.79-5c0.6-2.9.92-5.83,1.31-8.75a7.08,7.08,0,0,1-.06-1.67c1.31-3.26,2.35-6.59,4.18-9.73,3-5.09,5.62-10.12,4.59-15.73-0.62-3.39-.21-6.87-1-10.23s0.11-6.53.16-9.78c0.09-5.79,2.12-11.41,4.65-16.91,2.82-6.14.83-12.29,0.79-18.44,0-1.9.46-3.8,0.52-5.7,0.08-2.59,0-5.19,0-7.78C442.93-555.24,442.74-556.77,442.59-558.6Z" transform="translate(0 558.6)" fill="#fff"/>
    <path id="cloud-04" d="M238.34-558.6a18.14,18.14,0,0,0,.8,3.54c0.84,1.94,2.46,3.79,2.83,5.74,0.86,4.58,1.26,9.21,1.66,13.83,0.22,2.57.36,2.74,4.17,3.32,0.7,0.11,1.76,1.08,1.61,1.48-2.74,6.78-1.21,13.69-1.64,20.54-0.26,4.27-.67,8.53-0.79,12.8,0,1.1,1,2.19,1.17,3.31a7.86,7.86,0,0,1-.06,4.23c-0.74,1.75-2.27,3.36-3.44,5-1.79,2.55-1.72,4.72,3.08,5.47,3.32,0.52,2.21,2.07,2.23,3.4,0.05,3.07.06,6.14,0.19,9.21a1.87,1.87,0,0,0,.93,1.32c2.23,1.34,2,2.87,1.33,4.6-1.18,2.86-2,5.81-5.09,8.12a24.72,24.72,0,0,1-3.13,1.47c-0.59.31-1.46,0.73-1.47,1.11-0.14,5.37-.15,10.73-0.18,16.1,0,0.62.1,1.24,0.1,1.86q0,11,0,22c0,2.48,1.55,3,5.18,2.49a50.52,50.52,0,0,1,10.56-.61,6,6,0,0,1,4.08,2.79c0.76,1.53.45,3.31,0.43,5,0,4.41-.08,8.82-0.29,13.22-0.07,1.48,0,3-3.45,3.41-1.11.15-1.83,2.49-2.21,3.9-4.62,16.67-1.65,33.51-2.23,50.27-0.27,7.82-3.74,14.85-9.24,21.63-1.23,1.52-3,1.63-5.18,1.58s-2.28-1.1-3.05-2c-2.33-2.78-2.4-5.79-2.7-8.81-0.4-4.12-1.28-8.23-1.37-12.35,0-2.1,1.06-4.22,1.83-6.31,0.66-1.78,2.14-3.5,2.29-5.28,0.48-5.81.66-11.64,0.67-17.46,0-5.39-.32-10.77-0.58-16.16a13.47,13.47,0,0,0-.72-4c-0.3-.82-1.35-2.19-1.91-2.16a9.18,9.18,0,0,0-4.46,1.29,12.84,12.84,0,0,1-8.12,2.41c-2.61,0-3.56-.72-3.54-2.35,0.06-5.4,0-10.81,0-16.21,0-3.67-.15-7.33,0-11a50.69,50.69,0,0,1,1.15-7.74,4,4,0,0,1,1.61-2.14c4.35-3.12,4.36-7.12,5-10.92a12.16,12.16,0,0,0-1.68-9.26,1.17,1.17,0,0,0-.37-0.48c-3.38-1.76-3.16-4.19-3-6.63,0.23-3.4.37-6.8,0.55-10.19a2.23,2.23,0,0,1,.1-0.74c1.37-3.36,3-6.69,4.06-10.09a22,22,0,0,0,.92-7.35A30.11,30.11,0,0,1,229-484.72a3.89,3.89,0,0,1,2-2c5.3-2.32,6.76-5.79,7.13-9.64,0.28-2.9.89-5.79,0.88-8.68s-0.69-6-.91-8.93c-0.29-4-.41-7.92-0.58-11.88a11.61,11.61,0,0,0-.07-2.6,7.57,7.57,0,0,0-1.34-1.72c-0.37-.53-1-1.11-0.91-1.62,0.36-2,1.1-4,1.43-6a62,62,0,0,0,.85-7.92c0.12-3.73,0-7.46,0-11.18,0-.58.09-1.16,0.15-1.73h0.82Z" transform="translate(0 558.6)" fill="#fff"/>
    <path id="cloud-03" d="M278.66-389.11a13.7,13.7,0,0,0-1.93-.18c-2,.13-2.44-0.5-2.37-1.66,0.33-5.57.72-11.14,0.86-16.71,0.15-6.34-.05-12.68.08-19,0.13-6.14.55-12.28,0.69-18.41,0-1.06-.9-2.12-1-3.2a19.19,19.19,0,0,1,0-4.17,2.32,2.32,0,0,1,.9-1.15c3.64-3.25,4.61-7.06,5.85-10.88a29.73,29.73,0,0,1,4.58-8,11.8,11.8,0,0,0,2.2-7.75c-0.16-6.15-.3-12.3-0.1-18.44,0.08-2.63,1.14-5.25,1.54-7.88a79.62,79.62,0,0,0,1.18-10.35c0.18-9.55.11-19.1,0.13-28.65,0-3.6,0-7.21,0-10.81q0-1.08,0-2.16l0.8-.06a4.08,4.08,0,0,1,.39,1.21c-0.12,12.42-.32,24.85-0.4,37.27-0.07,11.75-.09,23.5,0,35.24,0,3.6.95,7.19,0.9,10.79-0.09,6.57-1,13.15-.79,19.71,0.18,4.72,1.71,9.41,2.67,14.11a1.69,1.69,0,0,0,.71,1.2c3.3,1.79,2.66,4.23,2.67,6.56,0,3-.1,6,0.08,8.95a3,3,0,0,0,1.45,2.44c9.07,4.33,6.17,4.89,9.08,10.81,1.47,3,3.12,5.95,4.48,9,0.84,1.87,1.84,3.81,1.83,5.72,0,5-.61,10-0.94,15-0.11,1.75-1.26,2.67-4.1,2.42a6.74,6.74,0,0,0-5.51,1.8,42,42,0,0,1-4,2.88c-4.32,3-6.75,6.52-6.86,10.68a14.29,14.29,0,0,0,0,2.24c1,8-1.07,15.66-4.35,23.27-0.43,1-.48,2.12-1.19,3-2,2.58-6.22,3.45-10.17,2.25-4.28-1.31-5.51-3.45-3.8-6.46s3.86-5.87,4.74-8.94a10.49,10.49,0,0,0-.67-7.44,14.36,14.36,0,0,1-1-10.48c1.74-6.18,1.29-12.34,1.45-18.52C278.69-385.61,278.66-387.33,278.66-389.11Z" transform="translate(0 558.6)" fill="#fff"/>
    <path id="cloud-02" d="M348.59-558.6a5,5,0,0,1,.12.73c0.24,9.87.35,19.75,0.79,29.61a37.51,37.51,0,0,0,1.91,8.78,5.23,5.23,0,0,0,2.4,2.42c2.24,1.31,3,2.81,3,4.77-0.19,4.28.13,8.58-.1,12.86a54.94,54.94,0,0,0,2.59,19.58,2.14,2.14,0,0,1,.24.91c-0.58,3.32,2.17,5.39,6.19,6.92,3.24,1.24,4.52,3.06,4.29,5.45-0.14,1.42,0,2.86-.19,4.28-0.26,1.89-1.49,3.42-4.22,4.35-3.09,1.05-4.4,2.8-4.27,5,0.31,5.41-.07,10.78-2.25,16a15.35,15.35,0,0,1-1.79,3.31c-1.57,2.12-5.1,2.59-7.71.94-1.36-.87-2.77-2-3.13-3.19-2.48-7.88-4.79-15.77-5.36-23.84a13.46,13.46,0,0,0-1.33-4.9c-0.86-1.77-2.43-1.94-4.36-.55a37.19,37.19,0,0,0-3.88,3.44c-1.41,1.34-3.35,1.69-5.7,1.51-5.37-.42-6.31-1-6.27-4.55,0.11-8.44,1.23-16.81,5.23-24.9a47,47,0,0,1,3.46-5.29c1.62-2.37,2.89-4.9,5-7.05a30.26,30.26,0,0,1,7.57-5.42c4-2,5.53-4.43,5.33-7.71a120.76,120.76,0,0,1,0-16c0.22-3,1.79-6,2.24-9.06,0.31-2.06-.38-4.17-0.43-6.27-0.08-4.05,0-8.11,0-12.16Z" transform="translate(0 558.6)" fill="#fff"/>
    <circle id="single-star" cx="400" cy="-557.1" r="1.5" transform="translate(511.09 678.27) rotate(-45)" fill="#fff"/>
    <g id="speedline">
      <line x1="400" y1="0.5" x2="400" y2="282.64" fill="none" stroke="#fff" stroke-linecap="round" stroke-miterlimit="10"/>
      <circle id="_circle_" data-name="&lt;circle&gt;" cx="400" cy="-268.72" r="1.5" transform="translate(307.17 762.74) rotate(-45)" fill="#fff"/>
    </g>
      <circle  id="cGuide" cx="400" cy="958.6" r="399.65" fill="none" stroke="#ff2703" stroke-miterlimit="10" stroke-width="0.7"/>
   <line id="cGuide3" x1="301.75" y1="958.6" x2="498.24" y2="958.6" fill="none" stroke="#ff2703" stroke-miterlimit="10" stroke-width="0.7"/>
    <line id="cGuide2" x1="400" y1="860.35" x2="400" y2="1056.84" fill="none" stroke="#ff2703" stroke-miterlimit="10" stroke-width="0.7"/>
  </g>
</svg>
