<svg id="main" xmlns="http://www.w3.org/2000/svg" style="display:none">
    <symbol id="tap-on" viewBox="0 0 360.01 269.78">
        <path  fill="#ff0" d="M299.51,121l-87.86-20.4v16.17h-10a18.37,18.37,0,0,0-.44,2.64c0,6.8,0,13.59-.05,20.39,0,2,.54,2.79,2.63,3.13,12.76,2,22.9,8.6,31,18.51a5.17,5.17,0,0,0,4.62,2.18c6.1-.13,12.2,0,18.57,0v41.4H237.41c8.25,10.23,17,18,30.2,18.1,10.81,0.08,21.64-.69,32.43-0.29,14.68,0.55,28.66,4.21,41.25,12.13,16.17,10.18,25.8,25.27,31.62,43,4.87,14.88,6.85,30.25,7.08,45.87,0.05,3.43,0,6.86,0,10.54H323.23c-0.4-5.64-.25-11.21-1.27-16.56-2.94-15.46-13.42-25.38-29.12-27.67a120.17,120.17,0,0,0-16.84-.79c-1.38,0-3,1-4.13,2-23.61,19.28-50.28,30.4-81.09,30.13-23.71-.21-45.07-8.14-64.77-20.9a16.53,16.53,0,0,0-7.69-2.31c-12.21-1.37-23.14,1.47-32.94,8.9a7.88,7.88,0,0,1-4.42,1.5c-19.81.1-39.62,0.06-59.43,0.05-0.44,0-.89-0.08-1.53-0.15V205.13c0.76,0,1.42-.11,2.08-0.11,19.12,0,38.24,0,57.36-.06a4.65,4.65,0,0,1,4.44,2.43c2.94,4.54,6.08,8.95,9,13.47,1,1.51,2,1.85,3.89,1.76q19.49-.82,39-1.06c2.68,0,4.16-.82,5.37-3.15,2.27-4.35,4.85-8.54,7.57-13.28H128.86v-41.6c7.93,0,15.74.06,23.54-.06a5.08,5.08,0,0,0,3.5-1.32c9.81-11.91,14.67-15.15,29.52-19.23v-26H170.15V100.55L82.17,121V65.22l87.66,20.36,0.54-4.84h40.94l0.54,4.83,87.66-20.36V121Z" transform="translate(-20 -65.22)"/>
    </symbol>

    <symbol id="tap-off" viewBox="0 0 360.01 269.78" >
        <path  fill="#ff9900" d="M380,324.13c-0.23-15.62-2.21-31.15-7.08-46-5.82-17.78-15.45-32.95-31.62-43.13C328.7,227,314.72,223.35,300,222.8c-10.79-.4-21.62.38-32.43,0.3-13.19-.1-21.94-8.1-30.2-18.1H258V163.54c-7,0-12.49-.09-18.59,0a5.18,5.18,0,0,1-4.63-2.18c-8.06-9.91-18.2-16.48-31-18.51-2.09-.33-2.66-1.17-2.63-3.13,0.08-6.79,0-13.47.05-20.26a14.69,14.69,0,0,1,.44-2.52H211V100.58a68.77,68.77,0,0,1,12.92,3.87c2.82,7.32,8.28,13,15,15.35A10.13,10.13,0,0,0,241,121v-0.55a25.3,25.3,0,0,0,5.17.6c13.35,0,24.25-12.49,24.25-27.91s-10.94-27.91-24.29-27.91a24.93,24.93,0,0,0-5.12.6v-0.6a11.46,11.46,0,0,0-2.11,1.29c-6.62,2.41-11.92,8-14.72,15.26a72.06,72.06,0,0,1-12.37,3.94c-0.21-1.83-.33-2.7-0.5-4.7H170.37c-0.17,2-.34,2.87-0.54,4.71-8.33-1.93-13.2-3.61-16.23-5.07a21.59,21.59,0,0,0-11.42-10.3A12.15,12.15,0,0,0,140,69.22V69.7a14.27,14.27,0,0,0-3.84-.47c-11.21,0-20.21,10.7-20.21,23.89s9,23.89,20.17,23.89a14.61,14.61,0,0,0,3.89-.47V117a8.86,8.86,0,0,0,2-1,21.17,21.17,0,0,0,11.46-10.35c3.06-1.49,7.55-3.13,16.55-5.1V117h15v25.92c-15,4.09-19.5,7.33-29.31,19.23-0.7.85-2.63,1.31-3.83,1.32-7.8.12-15.87,0.06-23.87,0.06V205h20.75c-2.73,5-5.3,9-7.57,13.35-1.22,2.33-2.69,3.15-5.37,3.19q-19.5.24-39,1.08c-1.93.08-2.9-.25-3.89-1.76-3-4.52-6.11-8.93-9-13.47A4.65,4.65,0,0,0,79.43,205C60.31,205,41.2,205,22.08,205a17.59,17.59,0,0,0-2.08.11V308.52a7,7,0,0,0,1.53.15c19.81,0,39.62,0,59.43-.05a7.88,7.88,0,0,0,4.42-1.5c9.8-7.44,20.73-10.27,32.94-8.9a16.53,16.53,0,0,1,7.69,2.31c19.7,12.77,41.06,20.7,64.77,20.9,30.81,0.27,57.48-10.86,81.09-30.13,1.16-.95,2.74-2,4.13-2a120.16,120.16,0,0,1,16.84.79c15.7,2.29,26.18,12.54,29.12,28,1,5.35.87,10.89,1.27,16.89H380C380,331,380,327.56,380,324.13Z" transform="translate(-20 -65.22)"/>
    </symbol>
</svg>
