<svg id="Layer_1" data-name="Layer 1" xmlns="http://www.w3.org/2000/svg" viewBox="0 0 800 800">
  <title>6 - thanks</title>
  <rect id="bg" width="800" height="800"/>

<!--    STAR-->


<g id="stars-big">
	<circle fill="#FFFFFF" cx="304.6" cy="131.2" r="2.5"/>
	<circle fill="#FFFFFF" cx="318.6" cy="131.2" r="2.5"/>
	<circle fill="#FFFFFF" cx="417.6" cy="132.2" r="2.5"/>
	<circle fill="#FFFFFF" cx="582.6" cy="132.2" r="2.5"/>
	<circle fill="#FFFFFF" cx="712.6" cy="132.2" r="2.5"/>
	<circle fill="#FFFFFF" cx="834.6" cy="132.2" r="2.5"/>
	<circle fill="#FFFFFF" cx="893.6" cy="136.2" r="2.5"/>
	<circle fill="#FFFFFF" cx="937.6" cy="185.2" r="2.5"/>
	<circle fill="#FFFFFF" cx="923.6" cy="298.2" r="2.5"/>
	<circle fill="#FFFFFF" cx="827.6" cy="422.2" r="2.5"/>
	<circle fill="#FFFFFF" cx="692.6" cy="308.2" r="2.5"/>
	<circle fill="#FFFFFF" cx="570.6" cy="217.2" r="2.5"/>
	<circle fill="#FFFFFF" cx="482.6" cy="225.2" r="2.5"/>
	<circle fill="#FFFFFF" cx="403.6" cy="352.2" r="2.5"/>
	<circle fill="#FFFFFF" cx="369.6" cy="478.2" r="2.5"/>
	<circle fill="#FFFFFF" cx="404.6" cy="574.2" r="2.5"/>
	<circle fill="#FFFFFF" cx="347.6" cy="729.2" r="2.5"/>
	<circle fill="#FFFFFF" cx="328.6" cy="740.2" r="2.5"/>
	<circle fill="#FFFFFF" cx="463.6" cy="808.2" r="2.5"/>
	<circle fill="#FFFFFF" cx="648.6" cy="725.2" r="2.5"/>
	<circle fill="#FFFFFF" cx="582.6" cy="418.2" r="2.5"/>
	<circle fill="#FFFFFF" cx="630.6" cy="476.2" r="2.5"/>
	<circle fill="#FFFFFF" cx="721.6" cy="723.2" r="2.5"/>
	<circle fill="#FFFFFF" cx="772.6" cy="686.2" r="2.5"/>
	<circle fill="#FFFFFF" cx="921.6" cy="732.2" r="2.5"/>
	<circle fill="#FFFFFF" cx="940.6" cy="688.2" r="2.5"/>
	<circle fill="#FFFFFF" cx="968.6" cy="468.2" r="2.5"/>
	<circle fill="#FFFFFF" cx="1050.6" cy="628.2" r="2.5"/>
	<circle fill="#FFFFFF" cx="783.6" cy="818.2" r="2.5"/>
	<circle fill="#FFFFFF" cx="707.6" cy="768.2" r="2.5"/>
	<circle fill="#FFFFFF" cx="700.6" cy="698.2" r="2.5"/>
	<circle fill="#FFFFFF" cx="785.6" cy="987.2" r="2.5"/>
	<circle fill="#FFFFFF" cx="583.6" cy="707.2" r="2.5"/>
	<circle fill="#FFFFFF" cx="516.6" cy="560.2" r="2.5"/>
	<circle fill="#FFFFFF" cx="423.6" cy="589.2" r="2.5"/>
	<circle fill="#FFFFFF" cx="294.6" cy="438.2" r="2.5"/>
	<circle fill="#FFFFFF" cx="244.6" cy="266.2" r="2.5"/>
	<circle fill="#FFFFFF" cx="270.6" cy="165.2" r="2.5"/>
	<circle fill="#FFFFFF" cx="257.6" cy="185.2" r="2.5"/>
	<circle fill="#FFFFFF" cx="155.6" cy="581.2" r="2.5"/>
	<circle fill="#FFFFFF" cx="205.6" cy="729.2" r="2.5"/>
	<circle fill="#FFFFFF" cx="228.6" cy="810.2" r="2.5"/>
	<circle fill="#FFFFFF" cx="286.6" cy="860.2" r="2.5"/>
	<circle fill="#FFFFFF" cx="684.6" cy="831.2" r="2.5"/>
	<circle fill="#FFFFFF" cx="993.6" cy="836.2" r="2.5"/>
	<circle fill="#FFFFFF" cx="1028.6" cy="856.2" r="2.5"/>
	<circle fill="#FFFFFF" cx="1042.6" cy="735.2" r="2.5"/>
	<circle fill="#FFFFFF" cx="1024.6" cy="376.2" r="2.5"/>
	<circle fill="#FFFFFF" cx="1029.6" cy="234.2" r="2.5"/>
	<circle fill="#FFFFFF" cx="988.6" cy="143.2" r="2.5"/>
	<circle fill="#FFFFFF" cx="992.6" cy="106.2" r="2.5"/>
	<circle fill="#FFFFFF" cx="720.6" cy="227.2" r="2.5"/>
	<circle fill="#FFFFFF" cx="697.6" cy="229.2" r="2.5"/>
	<circle fill="#FFFFFF" cx="430.6" cy="300.2" r="2.5"/>
	<circle fill="#FFFFFF" cx="371.6" cy="254.2" r="2.5"/>
	<circle fill="#FFFFFF" cx="348.6" cy="239.2" r="2.5"/>
	<circle fill="#FFFFFF" cx="529.6" cy="860.2" r="2.5"/>
	<circle fill="#FFFFFF" cx="431.6" cy="11.2" r="2.5"/>
	<circle fill="#FFFFFF" cx="435.6" cy="32.2" r="2.5"/>
	<circle fill="#FFFFFF" cx="472.6" cy="66.2" r="2.5"/>
	<circle fill="#FFFFFF" cx="628.6" cy="49.2" r="2.5"/>
	<circle fill="#FFFFFF" cx="752.6" cy="23.2" r="2.5"/>
	<circle fill="#FFFFFF" cx="835.6" cy="11.2" r="2.5"/>
	<circle fill="#FFFFFF" cx="929.6" cy="29.2" r="2.5"/>
	<circle fill="#FFFFFF" cx="978.6" cy="65.2" r="2.5"/>
	<circle fill="#FFFFFF" cx="1045.6" cy="72.2" r="2.5"/>
	<circle fill="#FFFFFF" cx="1141.6" cy="139.2" r="2.5"/>
	<circle fill="#FFFFFF" cx="1145.6" cy="352.2" r="2.5"/>
	<circle fill="#FFFFFF" cx="1117.6" cy="470.2" r="2.5"/>
	<circle fill="#FFFFFF" cx="1123.6" cy="634.2" r="2.5"/>
	<circle fill="#FFFFFF" cx="1165.6" cy="741.2" r="2.5"/>
	<circle fill="#FFFFFF" cx="1115.6" cy="848.2" r="2.5"/>
	<circle fill="#FFFFFF" cx="945.6" cy="989.2" r="2.5"/>
	<circle fill="#FFFFFF" cx="714.6" cy="991.2" r="2.5"/>
	<circle fill="#FFFFFF" cx="662.6" cy="963.2" r="2.5"/>
	<circle fill="#FFFFFF" cx="501.6" cy="953.2" r="2.5"/>
	<circle fill="#FFFFFF" cx="345.6" cy="999.2" r="2.5"/>
	<circle fill="#FFFFFF" cx="242.6" cy="965.2" r="2.5"/>
	<circle fill="#FFFFFF" cx="191.6" cy="808.2" r="2.5"/>
	<circle fill="#FFFFFF" cx="185.6" cy="544.2" r="2.5"/>
	<circle fill="#FFFFFF" cx="219.6" cy="358.2" r="2.5"/>
	<circle fill="#FFFFFF" cx="208.6" cy="268.2" r="2.5"/>
	<circle fill="#FFFFFF" cx="206.6" cy="238.2" r="2.5"/>
	<circle fill="#FFFFFF" cx="578.6" cy="636.2" r="2.5"/>
</g>
<g id="stars-small">
	<circle fill="#FFFFFF" cx="880.9" cy="218.5" r="1.2"/>
	<circle fill="#FFFFFF" cx="880.9" cy="225.3" r="1.2"/>
	<circle fill="#FFFFFF" cx="880.4" cy="274.1" r="1.2"/>
	<circle fill="#FFFFFF" cx="880.4" cy="355.4" r="1.2"/>
	<circle fill="#FFFFFF" cx="880.4" cy="419.4" r="1.2"/>
	<circle fill="#FFFFFF" cx="880.4" cy="479.5" r="1.2"/>
	<circle fill="#FFFFFF" cx="878.5" cy="508.5" r="1.2"/>
	<circle fill="#FFFFFF" cx="854.3" cy="530.2" r="1.2"/>
	<circle fill="#FFFFFF" cx="798.7" cy="523.3" r="1.2"/>
	<circle fill="#FFFFFF" cx="737.6" cy="476" r="1.2"/>
	<circle fill="#FFFFFF" cx="793.8" cy="409.5" r="1.2"/>
	<circle fill="#FFFFFF" cx="838.6" cy="349.4" r="1.2"/>
	<circle fill="#FFFFFF" cx="834.6" cy="306.1" r="1.2"/>
	<circle fill="#FFFFFF" cx="772.1" cy="267.2" r="1.2"/>
	<circle fill="#FFFFFF" cx="710.1" cy="250.5" r="1.2"/>
	<circle fill="#FFFFFF" cx="662.8" cy="267.7" r="1.2"/>
	<circle fill="#FFFFFF" cx="586.5" cy="239.6" r="1.2"/>
	<circle fill="#FFFFFF" cx="581" cy="230.3" r="1.2"/>
	<circle fill="#FFFFFF" cx="547.6" cy="296.8" r="1.2"/>
	<circle fill="#FFFFFF" cx="588.4" cy="387.9" r="1.2"/>
	<circle fill="#FFFFFF" cx="739.6" cy="355.4" r="1.2"/>
	<circle fill="#FFFFFF" cx="711" cy="379" r="1.2"/>
	<circle fill="#FFFFFF" cx="589.4" cy="423.8" r="1.2"/>
	<circle fill="#FFFFFF" cx="607.6" cy="448.9" r="1.2"/>
	<circle fill="#FFFFFF" cx="585" cy="522.3" r="1.2"/>
	<circle fill="#FFFFFF" cx="606.6" cy="531.7" r="1.2"/>
	<circle fill="#FFFFFF" cx="715" cy="545.4" r="1.2"/>
	<circle fill="#FFFFFF" cx="636.2" cy="585.8" r="1.2"/>
	<circle fill="#FFFFFF" cx="542.6" cy="454.3" r="1.2"/>
	<circle fill="#FFFFFF" cx="567.2" cy="416.9" r="1.2"/>
	<circle fill="#FFFFFF" cx="601.7" cy="413.5" r="1.2"/>
	<circle fill="#FFFFFF" cx="459.4" cy="455.3" r="1.2"/>
	<circle fill="#FFFFFF" cx="597.3" cy="355.8" r="1.2"/>
	<circle fill="#FFFFFF" cx="669.7" cy="322.9" r="1.2"/>
	<circle fill="#FFFFFF" cx="655.4" cy="277.1" r="1.2"/>
	<circle fill="#FFFFFF" cx="729.8" cy="213.5" r="1.2"/>
	<circle fill="#FFFFFF" cx="814.5" cy="188.9" r="1.2"/>
	<circle fill="#FFFFFF" cx="864.2" cy="201.7" r="1.2"/>
	<circle fill="#FFFFFF" cx="854.3" cy="195.3" r="1.2"/>
	<circle fill="#FFFFFF" cx="659.3" cy="145.1" r="1.2"/>
	<circle fill="#FFFFFF" cx="586.5" cy="169.7" r="1.2"/>
	<circle fill="#FFFFFF" cx="546.6" cy="181" r="1.2"/>
	<circle fill="#FFFFFF" cx="521.9" cy="209.6" r="1.2"/>
	<circle fill="#FFFFFF" cx="536.2" cy="405.6" r="1.2"/>
	<circle fill="#FFFFFF" cx="533.8" cy="557.8" r="1.2"/>
	<circle fill="#FFFFFF" cx="523.9" cy="575" r="1.2"/>
	<circle fill="#FFFFFF" cx="583.5" cy="581.9" r="1.2"/>
	<circle fill="#FFFFFF" cx="760.3" cy="573" r="1.2"/>
	<circle fill="#FFFFFF" cx="830.2" cy="575.5" r="1.2"/>
	<circle fill="#FFFFFF" cx="875" cy="555.3" r="1.2"/>
	<circle fill="#FFFFFF" cx="893.2" cy="557.3" r="1.2"/>
	<circle fill="#FFFFFF" cx="833.7" cy="423.3" r="1.2"/>
	<circle fill="#FFFFFF" cx="832.7" cy="412" r="1.2"/>
	<circle fill="#FFFFFF" cx="797.7" cy="280.5" r="1.2"/>
	<circle fill="#FFFFFF" cx="820.4" cy="251.4" r="1.2"/>
	<circle fill="#FFFFFF" cx="827.8" cy="240.1" r="1.2"/>
	<circle fill="#FFFFFF" cx="521.9" cy="329.3" r="1.2"/>
	<circle fill="#FFFFFF" cx="940" cy="281" r="1.2"/>
	<circle fill="#FFFFFF" cx="929.7" cy="283" r="1.2"/>
	<circle fill="#FFFFFF" cx="912.9" cy="301.2" r="1.2"/>
	<circle fill="#FFFFFF" cx="921.3" cy="378" r="1.2"/>
	<circle fill="#FFFFFF" cx="934.1" cy="439.1" r="1.2"/>
	<circle fill="#FFFFFF" cx="940" cy="479.9" r="1.2"/>
	<circle fill="#FFFFFF" cx="931.2" cy="526.2" r="1.2"/>
	<circle fill="#FFFFFF" cx="913.4" cy="550.4" r="1.2"/>
	<circle fill="#FFFFFF" cx="910" cy="583.4" r="1.2"/>
	<circle fill="#FFFFFF" cx="877" cy="630.6" r="1.2"/>
	<circle fill="#FFFFFF" cx="772.1" cy="632.6" r="1.2"/>
	<circle fill="#FFFFFF" cx="714" cy="618.8" r="1.2"/>
	<circle fill="#FFFFFF" cx="633.2" cy="621.8" r="1.2"/>
	<circle fill="#FFFFFF" cx="580.5" cy="642.5" r="1.2"/>
	<circle fill="#FFFFFF" cx="527.9" cy="617.8" r="1.2"/>
	<circle fill="#FFFFFF" cx="458.4" cy="534.1" r="1.2"/>
	<circle fill="#FFFFFF" cx="457.4" cy="420.4" r="1.2"/>
	<circle fill="#FFFFFF" cx="471.2" cy="394.8" r="1.2"/>
	<circle fill="#FFFFFF" cx="476.1" cy="315.5" r="1.2"/>
	<circle fill="#FFFFFF" cx="453.5" cy="238.6" r="1.2"/>
	<circle fill="#FFFFFF" cx="470.2" cy="187.9" r="1.2"/>
	<circle fill="#FFFFFF" cx="547.6" cy="162.8" r="1.2"/>
	<circle fill="#FFFFFF" cx="677.6" cy="159.9" r="1.2"/>
	<circle fill="#FFFFFF" cx="769.2" cy="176.6" r="1.2"/>
	<circle fill="#FFFFFF" cx="813.5" cy="171.2" r="1.2"/>
	<circle fill="#FFFFFF" cx="828.2" cy="170.2" r="1.2"/>
	<circle fill="#FFFFFF" cx="632.3" cy="353.4" r="1.2"/>
	<circle fill="#FFFFFF" cx="493.3" cy="656.8" r="1.2"/>
	<circle fill="#FFFFFF" cx="493.3" cy="663.7" r="1.2"/>
	<circle fill="#FFFFFF" cx="492.8" cy="712.4" r="1.2"/>
	<circle fill="#FFFFFF" cx="492.8" cy="793.7" r="1.2"/>
	<circle fill="#FFFFFF" cx="492.8" cy="857.7" r="1.2"/>
	<circle fill="#FFFFFF" cx="492.8" cy="917.8" r="1.2"/>
	<circle fill="#FFFFFF" cx="490.8" cy="946.8" r="1.2"/>
	<circle fill="#FFFFFF" cx="466.7" cy="968.5" r="1.2"/>
	<circle fill="#FFFFFF" cx="411" cy="961.6" r="1.2"/>
	<circle fill="#FFFFFF" cx="350" cy="914.3" r="1.2"/>
	<circle fill="#FFFFFF" cx="406.1" cy="847.9" r="1.2"/>
	<circle fill="#FFFFFF" cx="450.9" cy="787.8" r="1.2"/>
	<circle fill="#FFFFFF" cx="447" cy="744.4" r="1.2"/>
	<circle fill="#FFFFFF" cx="384.4" cy="705.5" r="1.2"/>
	<circle fill="#FFFFFF" cx="322.4" cy="688.8" r="1.2"/>
	<circle fill="#FFFFFF" cx="275.1" cy="706" r="1.2"/>
	<circle fill="#FFFFFF" cx="198.8" cy="678" r="1.2"/>
	<circle fill="#FFFFFF" cx="193.4" cy="668.6" r="1.2"/>
	<circle fill="#FFFFFF" cx="200.7" cy="826.2" r="1.2"/>
	<circle fill="#FFFFFF" cx="351.9" cy="793.7" r="1.2"/>
	<circle fill="#FFFFFF" cx="323.4" cy="817.3" r="1.2"/>
	<circle fill="#FFFFFF" cx="201.7" cy="862.1" r="1.2"/>
	<circle fill="#FFFFFF" cx="219.9" cy="887.3" r="1.2"/>
	<circle fill="#FFFFFF" cx="197.3" cy="960.6" r="1.2"/>
	<circle fill="#FFFFFF" cx="219" cy="970" r="1.2"/>
	<circle fill="#FFFFFF" cx="327.3" cy="983.8" r="1.2"/>
	<circle fill="#FFFFFF" cx="248.5" cy="1024.2" r="1.2"/>
	<circle fill="#FFFFFF" cx="154.9" cy="892.7" r="1.2"/>
	<circle fill="#FFFFFF" cx="179.6" cy="855.2" r="1.2"/>
	<circle fill="#FFFFFF" cx="214" cy="851.8" r="1.2"/>
	<circle fill="#FFFFFF" cx="209.6" cy="794.2" r="1.2"/>
	<circle fill="#FFFFFF" cx="282" cy="761.2" r="1.2"/>
	<circle fill="#FFFFFF" cx="267.7" cy="715.4" r="1.2"/>
	<circle fill="#FFFFFF" cx="342.1" cy="651.9" r="1.2"/>
	<circle fill="#FFFFFF" cx="426.8" cy="627.2" r="1.2"/>
	<circle fill="#FFFFFF" cx="476.5" cy="640" r="1.2"/>
	<circle fill="#FFFFFF" cx="466.7" cy="633.6" r="1.2"/>
	<circle fill="#FFFFFF" cx="271.7" cy="583.4" r="1.2"/>
	<circle fill="#FFFFFF" cx="198.8" cy="608" r="1.2"/>
	<circle fill="#FFFFFF" cx="158.9" cy="619.4" r="1.2"/>
	<circle fill="#FFFFFF" cx="134.3" cy="647.9" r="1.2"/>
	<circle fill="#FFFFFF" cx="148.5" cy="843.9" r="1.2"/>
	<circle fill="#FFFFFF" cx="146.1" cy="996.1" r="1.2"/>
	<circle fill="#FFFFFF" cx="136.2" cy="1013.3" r="1.2"/>
	<circle fill="#FFFFFF" cx="195.8" cy="1020.2" r="1.2"/>
	<circle fill="#FFFFFF" cx="372.6" cy="1011.4" r="1.2"/>
	<circle fill="#FFFFFF" cx="442.5" cy="1013.8" r="1.2"/>
	<circle fill="#FFFFFF" cx="487.3" cy="993.6" r="1.2"/>
	<circle fill="#FFFFFF" cx="505.6" cy="995.6" r="1.2"/>
	<circle fill="#FFFFFF" cx="446" cy="861.6" r="1.2"/>
	<circle fill="#FFFFFF" cx="445" cy="850.3" r="1.2"/>
	<circle fill="#FFFFFF" cx="410" cy="718.8" r="1.2"/>
	<circle fill="#FFFFFF" cx="432.7" cy="689.8" r="1.2"/>
	<circle fill="#FFFFFF" cx="440.1" cy="678.5" r="1.2"/>
	<circle fill="#FFFFFF" cx="552.4" cy="719.3" r="1.2"/>
	<circle fill="#FFFFFF" cx="542" cy="721.3" r="1.2"/>
	<circle fill="#FFFFFF" cx="525.3" cy="739.5" r="1.2"/>
	<circle fill="#FFFFFF" cx="533.6" cy="816.3" r="1.2"/>
	<circle fill="#FFFFFF" cx="546.4" cy="877.4" r="1.2"/>
	<circle fill="#FFFFFF" cx="552.4" cy="918.3" r="1.2"/>
	<circle fill="#FFFFFF" cx="543.5" cy="964.6" r="1.2"/>
	<circle fill="#FFFFFF" cx="525.8" cy="988.7" r="1.2"/>
	<circle fill="#FFFFFF" cx="522.3" cy="1021.7" r="1.2"/>
	<circle fill="#FFFFFF" cx="489.3" cy="1069" r="1.2"/>
	<circle fill="#FFFFFF" cx="384.4" cy="1070.9" r="1.2"/>
	<circle fill="#FFFFFF" cx="326.3" cy="1057.1" r="1.2"/>
	<circle fill="#FFFFFF" cx="245.6" cy="1060.1" r="1.2"/>
	<circle fill="#FFFFFF" cx="192.9" cy="1080.8" r="1.2"/>
	<circle fill="#FFFFFF" cx="140.2" cy="1056.2" r="1.2"/>
	<circle fill="#FFFFFF" cx="70.7" cy="972.4" r="1.2"/>
	<circle fill="#FFFFFF" cx="65.8" cy="677" r="1.2"/>
	<circle fill="#FFFFFF" cx="82.6" cy="626.3" r="1.2"/>
	<circle fill="#FFFFFF" cx="159.9" cy="601.1" r="1.2"/>
	<circle fill="#FFFFFF" cx="289.9" cy="598.2" r="1.2"/>
	<circle fill="#FFFFFF" cx="381.5" cy="614.9" r="1.2"/>
	<circle fill="#FFFFFF" cx="425.8" cy="609.5" r="1.2"/>
	<circle fill="#FFFFFF" cx="440.6" cy="608.5" r="1.2"/>
	<circle fill="#FFFFFF" cx="244.6" cy="791.7" r="1.2"/>
	<circle fill="#FFFFFF" cx="1182.9" cy="143.2" r="1.2"/>
	<circle fill="#FFFFFF" cx="1135.6" cy="160.5" r="1.2"/>
	<circle fill="#FFFFFF" cx="1059.3" cy="132.4" r="1.2"/>
	<circle fill="#FFFFFF" cx="1053.9" cy="123" r="1.2"/>
	<circle fill="#FFFFFF" cx="1020.4" cy="189.5" r="1.2"/>
	<circle fill="#FFFFFF" cx="1061.3" cy="280.6" r="1.2"/>
	<circle fill="#FFFFFF" cx="1062.2" cy="316.6" r="1.2"/>
	<circle fill="#FFFFFF" cx="1080.5" cy="341.7" r="1.2"/>
	<circle fill="#FFFFFF" cx="1057.8" cy="415.1" r="1.2"/>
	<circle fill="#FFFFFF" cx="1079.5" cy="424.4" r="1.2"/>
	<circle fill="#FFFFFF" cx="1187.8" cy="438.2" r="1.2"/>
	<circle fill="#FFFFFF" cx="1109" cy="478.6" r="1.2"/>
	<circle fill="#FFFFFF" cx="1015.5" cy="347.1" r="1.2"/>
	<circle fill="#FFFFFF" cx="1040.1" cy="309.7" r="1.2"/>
	<circle fill="#FFFFFF" cx="1074.6" cy="306.2" r="1.2"/>
	<circle fill="#FFFFFF" cx="932.2" cy="348.1" r="1.2"/>
	<circle fill="#FFFFFF" cx="1070.1" cy="248.6" r="1.2"/>
	<circle fill="#FFFFFF" cx="1142.5" cy="215.6" r="1.2"/>
	<circle fill="#FFFFFF" cx="1128.2" cy="169.8" r="1.2"/>
	<circle fill="#FFFFFF" cx="1202.6" cy="106.3" r="1.2"/>
	<circle fill="#FFFFFF" cx="1132.2" cy="37.9" r="1.2"/>
	<circle fill="#FFFFFF" cx="1059.3" cy="62.5" r="1.2"/>
	<circle fill="#FFFFFF" cx="1019.4" cy="73.8" r="1.2"/>
	<circle fill="#FFFFFF" cx="994.8" cy="102.4" r="1.2"/>
	<circle fill="#FFFFFF" cx="1009.1" cy="298.4" r="1.2"/>
	<circle fill="#FFFFFF" cx="1006.6" cy="450.5" r="1.2"/>
	<circle fill="#FFFFFF" cx="996.7" cy="467.8" r="1.2"/>
	<circle fill="#FFFFFF" cx="1056.3" cy="474.7" r="1.2"/>
	<circle fill="#FFFFFF" cx="994.8" cy="222" r="1.2"/>
	<circle fill="#FFFFFF" cx="1186.8" cy="511.6" r="1.2"/>
	<circle fill="#FFFFFF" cx="1106.1" cy="514.5" r="1.2"/>
	<circle fill="#FFFFFF" cx="1053.4" cy="535.2" r="1.2"/>
	<circle fill="#FFFFFF" cx="1000.7" cy="510.6" r="1.2"/>
	<circle fill="#FFFFFF" cx="931.3" cy="426.9" r="1.2"/>
	<circle fill="#FFFFFF" cx="930.3" cy="313.1" r="1.2"/>
	<circle fill="#FFFFFF" cx="944.1" cy="287.5" r="1.2"/>
	<circle fill="#FFFFFF" cx="949" cy="208.2" r="1.2"/>
	<circle fill="#FFFFFF" cx="926.3" cy="131.4" r="1.2"/>
	<circle fill="#FFFFFF" cx="943.1" cy="80.7" r="1.2"/>
	<circle fill="#FFFFFF" cx="1020.4" cy="55.6" r="1.2"/>
	<circle fill="#FFFFFF" cx="1150.4" cy="52.6" r="1.2"/>
	<circle fill="#FFFFFF" cx="1105.1" cy="246.2" r="1.2"/>
	<circle fill="#FFFFFF" cx="423.8" cy="24.4" r="1.2"/>
	<circle fill="#FFFFFF" cx="423.8" cy="31.3" r="1.2"/>
	<circle fill="#FFFFFF" cx="423.3" cy="80" r="1.2"/>
	<circle fill="#FFFFFF" cx="423.3" cy="161.3" r="1.2"/>
	<circle fill="#FFFFFF" cx="423.3" cy="225.3" r="1.2"/>
	<circle fill="#FFFFFF" cx="423.3" cy="285.4" r="1.2"/>
	<circle fill="#FFFFFF" cx="421.3" cy="314.4" r="1.2"/>
	<circle fill="#FFFFFF" cx="397.2" cy="336.1" r="1.2"/>
	<circle fill="#FFFFFF" cx="341.5" cy="329.2" r="1.2"/>
	<circle fill="#FFFFFF" cx="280.4" cy="281.9" r="1.2"/>
	<circle fill="#FFFFFF" cx="336.6" cy="215.4" r="1.2"/>
	<circle fill="#FFFFFF" cx="381.4" cy="155.4" r="1.2"/>
	<circle fill="#FFFFFF" cx="377.5" cy="112" r="1.2"/>
	<circle fill="#FFFFFF" cx="314.9" cy="73.1" r="1.2"/>
	<circle fill="#FFFFFF" cx="252.9" cy="56.4" r="1.2"/>
	<circle fill="#FFFFFF" cx="205.6" cy="73.6" r="1.2"/>
	<circle fill="#FFFFFF" cx="131.2" cy="193.8" r="1.2"/>
	<circle fill="#FFFFFF" cx="282.4" cy="161.3" r="1.2"/>
	<circle fill="#FFFFFF" cx="253.9" cy="184.9" r="1.2"/>
	<circle fill="#FFFFFF" cx="132.2" cy="229.7" r="1.2"/>
	<circle fill="#FFFFFF" cx="150.4" cy="254.8" r="1.2"/>
	<circle fill="#FFFFFF" cx="127.8" cy="328.2" r="1.2"/>
	<circle fill="#FFFFFF" cx="149.5" cy="337.6" r="1.2"/>
	<circle fill="#FFFFFF" cx="257.8" cy="351.4" r="1.2"/>
	<circle fill="#FFFFFF" cx="179" cy="391.7" r="1.2"/>
	<circle fill="#FFFFFF" cx="85.4" cy="260.3" r="1.2"/>
	<circle fill="#FFFFFF" cx="110.1" cy="222.8" r="1.2"/>
	<circle fill="#FFFFFF" cx="144.5" cy="219.4" r="1.2"/>
	<circle fill="#FFFFFF" cx="140.1" cy="161.8" r="1.2"/>
	<circle fill="#FFFFFF" cx="212.5" cy="128.8" r="1.2"/>
	<circle fill="#FFFFFF" cx="198.2" cy="83" r="1.2"/>
	<circle fill="#FFFFFF" cx="272.6" cy="19.5" r="1.2"/>
	<circle fill="#FFFFFF" cx="407" cy="7.6" r="1.2"/>
	<circle fill="#FFFFFF" cx="397.2" cy="1.2" r="1.2"/>
	<circle fill="#FFFFFF" cx="79" cy="211.5" r="1.2"/>
	<circle fill="#FFFFFF" cx="76.6" cy="363.7" r="1.2"/>
	<circle fill="#FFFFFF" cx="66.7" cy="380.9" r="1.2"/>
	<circle fill="#FFFFFF" cx="126.3" cy="387.8" r="1.2"/>
	<circle fill="#FFFFFF" cx="303.1" cy="378.9" r="1.2"/>
	<circle fill="#FFFFFF" cx="373" cy="381.4" r="1.2"/>
	<circle fill="#FFFFFF" cx="417.8" cy="361.2" r="1.2"/>
	<circle fill="#FFFFFF" cx="436.1" cy="363.2" r="1.2"/>
	<circle fill="#FFFFFF" cx="376.5" cy="229.2" r="1.2"/>
	<circle fill="#FFFFFF" cx="375.5" cy="217.9" r="1.2"/>
	<circle fill="#FFFFFF" cx="340.5" cy="86.4" r="1.2"/>
	<circle fill="#FFFFFF" cx="363.2" cy="57.4" r="1.2"/>
	<circle fill="#FFFFFF" cx="370.6" cy="46" r="1.2"/>
	<circle fill="#FFFFFF" cx="482.8" cy="86.9" r="1.2"/>
	<circle fill="#FFFFFF" cx="472.5" cy="88.9" r="1.2"/>
	<circle fill="#FFFFFF" cx="455.8" cy="107.1" r="1.2"/>
	<circle fill="#FFFFFF" cx="464.1" cy="183.9" r="1.2"/>
	<circle fill="#FFFFFF" cx="476.9" cy="245" r="1.2"/>
	<circle fill="#FFFFFF" cx="482.8" cy="285.9" r="1.2"/>
	<circle fill="#FFFFFF" cx="474" cy="332.2" r="1.2"/>
	<circle fill="#FFFFFF" cx="456.3" cy="356.3" r="1.2"/>
	<circle fill="#FFFFFF" cx="452.8" cy="389.3" r="1.2"/>
	<circle fill="#FFFFFF" cx="419.8" cy="436.6" r="1.2"/>
	<circle fill="#FFFFFF" cx="314.9" cy="438.5" r="1.2"/>
	<circle fill="#FFFFFF" cx="256.8" cy="424.7" r="1.2"/>
	<circle fill="#FFFFFF" cx="176" cy="427.7" r="1.2"/>
	<circle fill="#FFFFFF" cx="123.4" cy="448.4" r="1.2"/>
	<circle fill="#FFFFFF" cx="70.7" cy="423.8" r="1.2"/>
	<circle fill="#FFFFFF" cx="1.2" cy="340" r="1.2"/>
	<circle fill="#FFFFFF" cx="175.1" cy="159.3" r="1.2"/>
	<circle fill="#FFFFFF" cx="1024.5" cy="603.2" r="1.2"/>
	<circle fill="#FFFFFF" cx="1024.5" cy="610.1" r="1.2"/>
	<circle fill="#FFFFFF" cx="1024" cy="658.8" r="1.2"/>
	<circle fill="#FFFFFF" cx="1024" cy="740.1" r="1.2"/>
	<circle fill="#FFFFFF" cx="1024" cy="804.1" r="1.2"/>
	<circle fill="#FFFFFF" cx="1024" cy="864.2" r="1.2"/>
	<circle fill="#FFFFFF" cx="1022.1" cy="893.2" r="1.2"/>
	<circle fill="#FFFFFF" cx="997.9" cy="914.9" r="1.2"/>
	<circle fill="#FFFFFF" cx="942.3" cy="908" r="1.2"/>
	<circle fill="#FFFFFF" cx="881.2" cy="860.7" r="1.2"/>
	<circle fill="#FFFFFF" cx="937.4" cy="794.3" r="1.2"/>
	<circle fill="#FFFFFF" cx="982.2" cy="734.2" r="1.2"/>
	<circle fill="#FFFFFF" cx="978.3" cy="690.8" r="1.2"/>
	<circle fill="#FFFFFF" cx="915.7" cy="651.9" r="1.2"/>
	<circle fill="#FFFFFF" cx="853.7" cy="635.2" r="1.2"/>
	<circle fill="#FFFFFF" cx="806.4" cy="652.4" r="1.2"/>
	<circle fill="#FFFFFF" cx="730.1" cy="624.4" r="1.2"/>
	<circle fill="#FFFFFF" cx="724.6" cy="615" r="1.2"/>
	<circle fill="#FFFFFF" cx="691.2" cy="681.5" r="1.2"/>
	<circle fill="#FFFFFF" cx="732" cy="772.6" r="1.2"/>
	<circle fill="#FFFFFF" cx="883.2" cy="740.1" r="1.2"/>
	<circle fill="#FFFFFF" cx="854.6" cy="763.7" r="1.2"/>
	<circle fill="#FFFFFF" cx="733" cy="808.5" r="1.2"/>
	<circle fill="#FFFFFF" cx="751.2" cy="833.7" r="1.2"/>
	<circle fill="#FFFFFF" cx="728.6" cy="907" r="1.2"/>
	<circle fill="#FFFFFF" cx="750.2" cy="916.4" r="1.2"/>
	<circle fill="#FFFFFF" cx="858.6" cy="930.2" r="1.2"/>
	<circle fill="#FFFFFF" cx="779.8" cy="970.6" r="1.2"/>
	<circle fill="#FFFFFF" cx="686.2" cy="839.1" r="1.2"/>
	<circle fill="#FFFFFF" cx="710.9" cy="801.6" r="1.2"/>
	<circle fill="#FFFFFF" cx="745.3" cy="798.2" r="1.2"/>
	<circle fill="#FFFFFF" cx="603" cy="840.1" r="1.2"/>
	<circle fill="#FFFFFF" cx="740.9" cy="740.6" r="1.2"/>
	<circle fill="#FFFFFF" cx="813.3" cy="707.6" r="1.2"/>
	<circle fill="#FFFFFF" cx="799" cy="661.8" r="1.2"/>
	<circle fill="#FFFFFF" cx="873.4" cy="598.3" r="1.2"/>
	<circle fill="#FFFFFF" cx="958.1" cy="573.6" r="1.2"/>
	<circle fill="#FFFFFF" cx="1007.8" cy="586.4" r="1.2"/>
	<circle fill="#FFFFFF" cx="997.9" cy="580" r="1.2"/>
	<circle fill="#FFFFFF" cx="802.9" cy="529.8" r="1.2"/>
	<circle fill="#FFFFFF" cx="730.1" cy="554.4" r="1.2"/>
	<circle fill="#FFFFFF" cx="690.2" cy="565.8" r="1.2"/>
	<circle fill="#FFFFFF" cx="665.5" cy="594.3" r="1.2"/>
	<circle fill="#FFFFFF" cx="679.8" cy="790.3" r="1.2"/>
	<circle fill="#FFFFFF" cx="677.4" cy="942.5" r="1.2"/>
	<circle fill="#FFFFFF" cx="667.5" cy="959.7" r="1.2"/>
	<circle fill="#FFFFFF" cx="727.1" cy="966.6" r="1.2"/>
	<circle fill="#FFFFFF" cx="903.9" cy="957.8" r="1.2"/>
	<circle fill="#FFFFFF" cx="973.8" cy="960.2" r="1.2"/>
	<circle fill="#FFFFFF" cx="1018.6" cy="940" r="1.2"/>
	<circle fill="#FFFFFF" cx="1036.9" cy="942" r="1.2"/>
	<circle fill="#FFFFFF" cx="977.3" cy="808" r="1.2"/>
	<circle fill="#FFFFFF" cx="976.3" cy="796.7" r="1.2"/>
	<circle fill="#FFFFFF" cx="941.3" cy="665.2" r="1.2"/>
	<circle fill="#FFFFFF" cx="964" cy="636.2" r="1.2"/>
	<circle fill="#FFFFFF" cx="971.4" cy="624.9" r="1.2"/>
	<circle fill="#FFFFFF" cx="665.5" cy="714" r="1.2"/>
	<circle fill="#FFFFFF" cx="1083.6" cy="665.7" r="1.2"/>
	<circle fill="#FFFFFF" cx="1073.3" cy="667.7" r="1.2"/>
	<circle fill="#FFFFFF" cx="1056.5" cy="685.9" r="1.2"/>
	<circle fill="#FFFFFF" cx="1064.9" cy="762.7" r="1.2"/>
	<circle fill="#FFFFFF" cx="1077.7" cy="823.8" r="1.2"/>
	<circle fill="#FFFFFF" cx="1083.6" cy="864.7" r="1.2"/>
	<circle fill="#FFFFFF" cx="1074.8" cy="911" r="1.2"/>
	<circle fill="#FFFFFF" cx="1057" cy="935.1" r="1.2"/>
	<circle fill="#FFFFFF" cx="1053.6" cy="968.1" r="1.2"/>
	<circle fill="#FFFFFF" cx="1020.6" cy="1015.4" r="1.2"/>
	<circle fill="#FFFFFF" cx="915.7" cy="1017.3" r="1.2"/>
	<circle fill="#FFFFFF" cx="857.6" cy="1003.5" r="1.2"/>
	<circle fill="#FFFFFF" cx="776.8" cy="1006.5" r="1.2"/>
	<circle fill="#FFFFFF" cx="724.1" cy="1027.2" r="1.2"/>
	<circle fill="#FFFFFF" cx="671.5" cy="1002.6" r="1.2"/>
	<circle fill="#FFFFFF" cx="602" cy="918.8" r="1.2"/>
	<circle fill="#FFFFFF" cx="601" cy="805.1" r="1.2"/>
	<circle fill="#FFFFFF" cx="614.8" cy="779.5" r="1.2"/>
	<circle fill="#FFFFFF" cx="619.7" cy="700.2" r="1.2"/>
	<circle fill="#FFFFFF" cx="597.1" cy="623.4" r="1.2"/>
	<circle fill="#FFFFFF" cx="613.8" cy="572.7" r="1.2"/>
	<circle fill="#FFFFFF" cx="691.2" cy="547.5" r="1.2"/>
	<circle fill="#FFFFFF" cx="821.2" cy="544.6" r="1.2"/>
	<circle fill="#FFFFFF" cx="912.8" cy="561.3" r="1.2"/>
	<circle fill="#FFFFFF" cx="957.1" cy="555.9" r="1.2"/>
	<circle fill="#FFFFFF" cx="971.8" cy="554.9" r="1.2"/>
	<circle fill="#FFFFFF" cx="775.9" cy="738.1" r="1.2"/>
</g>

<!--CLOUDS | SPEEDLINES-->

<g class="cloudGroup">
	<path class="cloud" fill="#FFFFFF" d="M27.7,214.9c-0.6,1.8-1.4,3.5-1.6,5.3c-0.7,4.8-1,9.7-1.8,14.4c-0.5,2.9-1.6,5.7-2.4,8.5
		c-0.3,1.1-0.9,1.3-2.1,1c-3.8-1.2-4.6-4.5-5.4-7.6c-1.2-4.7-1.6-9.4-1.8-14.3c-0.3-10.2,1.1-20.3,0.8-30.4
		c-0.1-3.2-0.2-6.3-0.5-9.4c-0.1-0.8-0.7-1.5-1.1-2.3c-0.2-0.3-0.4-0.6-0.5-1c-0.2-2.2-0.3-4.4-0.3-6.7c-0.1-3.1,0-6.3-0.1-9.4
		c0-0.2-0.2-0.4-0.4-0.9c-1,0.5-2.1,0.8-2.9,1.4c-1.6,1.1-2.8,1-3.9-0.6c-2.5-3.8-3.5-8-3.6-12.5c-0.3-9.1,1-18.1,2.2-27.1
		c1-7.5,2.4-14.9,3.7-22.4c0.2-1.2,0.9-2.3,1.2-3.5c0.8-2.4,1.7-4.8,2.1-7.2c1.2-7.5,2.5-15.1,3.2-22.6c1-9.4,1.4-18.9,2.2-28.4
		c0.2-2.2,1-4.5,0.8-6.6c-0.4-3.7,2.2-6.4,2.5-9.8c0.4-3.4,1.4-6.8,2.1-10.2C20.8,9.3,21.3,6,22,2.7c0.2-0.9,0.7-1.8,1-2.7
		c0.2,0,0.5,0.1,0.7,0.1c0.1,0.9,0.2,1.7,0.3,2.6c0.5,4.9,0.9,9.9,1.4,14.8c0.2,1.8,0.6,3.6,0.7,5.3c0.1,2,0.1,4.1,0.2,6.1
		c0.1,2.4,0.6,2.8,2.8,2.2c2-0.5,3.8,0,4.8,1.7c1.3,2.1,2.6,4.3,3.1,6.6c1.6,7.3,1.9,14.7,1,22.2c-1.3,11.1-2.1,22.2-2.9,33.4
		c-0.2,2.5,0.2,5.1,0.3,7.8c1.8,0.2,2.5,1.5,2.8,3.2c0.5,3.5,1.2,7,1.4,10.5c0.2,3.4,2.1,4.7,5.2,3.3c2.8-1.3,6.4,0.3,7.4,3.7
		c0.8,2.8,1.4,5.8,1.6,8.7c0.2,3.1,0,6.2-0.3,9.3c-0.7,7.1-1.7,14.2-2.4,21.3c-0.2,1.6,0.2,3.2,0.4,4.7c0.2,1.5,0.7,3,0.6,4.4
		c-0.8,8.7-1.8,17.3-4.2,25.7c-0.1,0.2-0.1,0.5-0.2,0.7c-0.8,2.4-1.2,4.8-1.3,7.4c-0.3,6.4-1.4,12.8-2.3,19.2c-0.1,1-0.6,2-0.9,3
		c-1.3,3.4-4.2,3.9-6.7,1.2c-2.2-2.3-3.3-5-4.3-7.9c-0.7-2.2-2-4.2-3-6.2C28.4,214.9,28,214.9,27.7,214.9z"/>
	<path class="cloud" fill="#FFFFFF" d="M104.2,0c0,1.7,0,3.4,0,5c0.5,11.7,1.1,23.3,1.4,35c0.1,4.2,0.8,8.4-0.4,12.6
		c-0.9,3.5-1.6,7-2.4,10.5c-0.1,0.5-0.2,1.1-0.2,1.7c0.9,12,1.6,24,4.4,35.8c0.9,3.7,1,7.5,1.3,11.3c0.9,11.2,1.5,22.3,2.5,33.5
		c0.3,3.9,1.5,7.7,2.2,11.5c0.8,4.1,1.3,8.3,2.3,12.4c1,4.1,2.2,8.2,3.8,12.1c3.5,8.6,4.2,17.6,3.3,26.7c-0.8,7.5-1.5,15.1-2.6,22.6
		c-0.8,5.6-2,11.1-3.1,16.6c-0.1,0.7-0.5,1.4-0.8,2.1c-0.9,1.5-3.6,1.5-4.3-0.2c-1-2.6-1.8-5.2-2.7-7.9c-1.6-4.9-3-9.8-4.7-14.7
		c-0.8-2.2-4.4-3.9-6.7-3.3c-0.6,0.2-1.4,1.1-1.5,1.8c-0.8,3.4-1.7,6.9-2,10.4c-0.6,6.8-2.7,13.2-4.4,19.8c-0.9,3.5-1.7,7-3.9,10
		c-1.5,2-3.3,3.5-5.7,4.2c-2,0.5-3.6-0.1-4.1-2.1c-1-4.2-2.2-8.4-2.6-12.7c-1-11.7-1.6-23.4-2.2-35.2c-0.1-1.9,0.4-3.9,0.6-5.9
		c0.1-0.9,0.3-1.8,0.2-2.8c-0.7-11.8-1.6-23.6-2-35.4c-0.2-4.9,0.4-9.9,1.1-14.8c0.5-3.9,3.9-5.1,7.1-2.7c1.6,1.2,3.2,2.6,4.8,3.9
		c1.1,0.9,1.7,0.6,2-0.8c1.1-5,1.2-10,0.8-15c-0.2-2.2,0.1-3.8,2.5-4.7c0.7-0.3,1.3-1.7,1.5-2.7c0.6-3.7,0.8-7.4,1.4-11.1
		c0.3-1.4,1.2-2.8,2.1-4c1-1.1,1.5-2.2,1.4-3.7c-1-11.1-2-22.1-3-33.2c-0.3-3.6,0.1-6.8,2.7-9.7c2-2.2,0.9-5.2,0.7-7.9
		c-0.2-2.2-0.6-4.4-0.9-6.6c-0.3-2.4,1.2-4.2,2-6.3c0.6-1.7,1.2-3.4,1.3-5.2c0.3-4.6,0.4-9.3,0.7-13.9c0.1-2.3,0.3-4.6,1.9-6.7
		c0.8-1.1,0.9-2.9,1.1-4.4c0.3-3.6,0.5-7.3,0.7-10.9c0.1-1.3,0.2-2.6,0.1-3.9C101,7,102.2,3.5,103.7,0C103.9,0,104.1,0,104.2,0z"/>
	<path class="cloud" fill="#FFFFFF" d="M405.2,118.6c0.6-8.4,2.1-16.7,4.3-24.9c0-0.1,0-0.1,0.1-0.2c0.2-1,0.2-2.4,0.8-2.9
		c0.5-0.4,1.9,0.1,2.9,0.2c2.5,0.3,4.5-1.5,4.7-3.9c0.6-5.7,1.6-11.3,2.2-17c1-11.1,1.6-22.2,2.7-33.3c0.7-6.6,2.1-13.2,2.9-19.8
		c0.6-5.2,0.8-10.4,1.3-15.6c0-0.4,0.5-0.8,0.7-1.2c0.3,0.3,0.6,0.6,0.9,1c0,0,0,0.1,0.1,0.2c0.9,9.4,3.2,18.5,3,28.1
		c-0.3,9.6,0.2,19.3,3.3,28.6c0.8,2.5,2.1,4.9,2.8,7.4c0.6,2.2,0.7,4.5,1.1,6.7c0.2,1.1,0.7,2.2,1.2,3.4c0.1,0.3,0.3,0.5,0.4,0.8
		c1.1,4,2.5,7.9,3.3,11.9c0.6,2.9,0.8,5.9,0.9,8.8c0.1,3.3-0.3,6.7-0.4,10c0,0.6,0.2,1.2,0.5,1.7c2,3.2,3.8,6.6,6.1,9.6
		c1.2,1.6,3.2,2.6,4.9,3.8c1,0.6,2.1,0.9,3.2,1.4c1.1,0.5,1.7,1.4,1.5,2.7c-0.8,5.6-1.6,11.3-2.5,16.9c-0.3,1.9-0.9,3.8-1.3,5.8
		c-0.2,1.1-0.7,1.4-1.7,1.3c-2.8-0.2-5,1.6-5.4,4.4c-0.7,4.7-1.4,9.4-1.9,14.2c-2,18.9-3.8,37.8-6.1,56.7
		c-0.8,6.9-2.4,13.7-4.1,20.4c-0.7,2.7-2.4,5.3-4,7.7c-1.1,1.6-3.6,1.4-4.8-0.2c-2.9-3.8-3.9-8.2-3.9-12.8c0-9.1,0.8-18.1,0-27.2
		c-0.5-6-1.7-11.8-3.1-17.6c-0.1-0.5-0.7-1.2-1-1.2c-1.4-0.1-1.6-0.9-1.9-2.1c-1.4-6.1-0.5-12.2-0.2-18.3c0.5-9.7,1.8-19.4-0.5-29.1
		c-0.4-1.8-1-3.6-1.6-5.3c-0.4-1.1-3.1-1.4-4.9-0.8c-1.2,0.4-2.5,0.8-3.7,0.6c-0.8-0.1-1.9-1.2-2-1.9c-0.6-3.8-1-7.6-1.2-11.4
		C404.4,123.6,404.9,121.1,405.2,118.6z"/>
	<path class="cloud" fill="#FFFFFF" d="M644.7,0c0.1,0.5,0.2,1,0.2,1.5c0.4,16.2,0.8,32.4,1.2,48.7c0.1,5.1,0.4,10.3,0.4,15.4
		c-0.1,6.1-0.6,12.2-0.9,18.3c0,0.6-0.2,1.2,0,1.7c1.7,3.5,1,7.3,1.1,11c0.3,7.1,0.3,14.2,0.6,21.2c0.2,3.7,1,7.3,4,10
		c2.5,2.3,2.5,5.3,2.1,8.3c-0.1,1-1.3,2.1-2.2,2.8c-1.2,1-1.9,2.1-2.1,3.7c-0.2,1.5-0.8,3.1-1.5,4.5c-2.2,4.7-4.1,9.4-3.9,14.8
		c0.3,10,0.5,20,0.8,30c0,1.5,0.2,2.4,2.1,2.4c2,0,3.1,1.6,4,3.4c2.2,4.6,2.8,9.4,2.7,14.4c-0.1,5,0.2,9.9,1.8,14.7
		c0.9,2.5,2.3,4.4,4.4,6c0.7,0.5,1.4,1.6,1.4,2.5c0.3,6.8,0.6,13.6,0.5,20.3c-0.1,3.8-1.1,7.5-1.7,11.3c0,0.3-0.1,0.6-0.2,0.9
		c-0.2,6.1-0.5,12.2-0.7,18.3c-0.3,12.1-1.1,24.1-0.7,36.3c0.1,4.7-1.7,9.4-2.6,14.1c-0.5,2.8-0.9,5.7-1.5,8.5
		c-0.6,2.4-1.3,4.7-2.3,7c-0.3,0.8-1.7,1.5-2.6,1.5c-1.4,0-1.2-1.4-1.3-2.4c-0.9-34-1.8-68-2.6-101.9c0-0.6,0-1.2-0.1-2
		c-2.2,0.9-4.5,1.1-6,3.1c-0.8,1-2.3,1.5-3.1,2.6c-1.6,1.8-3,3.7-4.3,5.8c-1.9,3.1-4.5,4.1-7.4,2.5c-0.6-0.4-1.2-1.3-1.3-2
		c-0.3-10.6-0.8-21.1-0.8-31.7c0.1-6.6,1.1-13.3,1.5-19.9c0.2-2.8-0.1-5.6,0.3-8.3c1.2-8,0-16,0.1-23.9c0-2.9-0.1-5.8-0.2-8.8
		c-0.1-2-0.7-2.6-2.7-2.6c-1.6,0-3.2,0-4.8,0.1c-1.3,0-1.9-0.5-1.9-1.9c0-2.4-0.5-4.9-0.1-7.2c0.6-2.9,2-5.6,3-8.4
		c0.8-2.2,1.8-4.3,2.4-6.5c1.1-4.2,1.1-8.4,0.9-12.7c0-1,0.7-2.2,1.2-3.2c0.7-1.4,1.4-2.8,2.3-4.1c0.8-1.2,1.7-2.6,2.9-3.2
		c3.2-1.7,5.2-4.5,7.6-7c1.9-2,2.5-4.4,2.9-7c1-6.2,2.4-12.4,3-18.7c0.6-5.7,0.3-11.5,0.5-17.3c0.1-2,0.8-3.9,0.8-5.8
		c0.1-3.5-0.3-7-0.1-10.4c0.1-3.6,0.6-7.1,0.8-10.7c0.3-4.3,0.5-8.5,0.6-12.8c0.1-4.1-0.2-8.2-0.1-12.3c0.1-4.9,0.4-9.7,0.6-14.6
		C644.2,0,644.4,0,644.7,0z"/>
	<path class="cloud" fill="#FFFFFF" d="M369.8,81.6c-0.3,4.4-0.6,8.1-0.9,11.8c-0.5,5.4-1.6,10.7-1.1,16.1c0.3,3.3,1.1,6.5,1,9.7
		c-0.1,2.8-1,5.7-1.9,8.4c-0.6,2-2,2.4-4,2c-3-0.7-5.1-3-5.6-6c-0.9-5.7-1.7-11.4-2.6-17c-0.2-1.2-0.5-2-2-2c-0.7,0-1.6-0.9-2.1-1.6
		c-0.5-0.7-0.7-1.8-0.7-2.7c-0.2-7.3-0.9-14.7-0.2-21.9c0.5-4.8,1.4-9.9,4.1-14.3c0.7-1.2,1.1-2.7,1.2-4.1c0.4-4.2,3.3-5.8,6.7-7.1
		c1.4-0.5,2.9-1.1,4.3-1.7c4.5-1.7,5.9-5.3,6-9.8c0.1-4.3,0.1-8.6,0.3-12.8c0.3-4.7,0.9-9.4,2-14.1c0.8-3.4,0.4-7.2,0.5-10.7
		c0-1.2,0-2.4,0-3.7c0.2,0,0.3,0,0.5,0c0,0.7,0,1.3,0,2c0,8.3,0.1,16.7,0,25c-0.1,5.7,0.5,11.2,2.4,16.6c1.1,3.1,1.5,6.2,1.4,9.5
		c-0.3,9.5-0.4,19-0.7,28.4c0,1.1-0.5,2.8-1.2,3c-0.9,0.3-2.2-0.4-3.3-0.9C372.3,83.1,371.2,82.3,369.8,81.6z"/>
	<path class="cloud" fill="#FFFFFF" d="M753,128.1c1.1,2.6,2.5,2.4,3.9,1.2c0.4-0.3,0.7-1.1,0.6-1.6c-1-4.7-0.7-9.3,0.1-14
		c0.7-4.2,0.7-8.6,1.1-12.9c0.4-3.6,0.9-7.2,1.4-10.8c0.7-4.5,1.7-9,2.3-13.5c0.3-2.5-0.1-5.1-0.1-7.6c0-2.4,0-4.9,0-7.3
		c0-0.8,0-1.6,0-2.4c0-0.4-0.2-1,0-1.3c2.1-2.9,0.7-6.2,1.1-9.2c0.4-3,0.5-6,0.9-9c0.2-1.4,1-2.7,1.1-4c0.2-3.3-0.1-6.6,0.1-9.9
		c0.1-2.3,0.8-4.5,1-6.8c0.3-4.2,0.4-8.5,0.3-12.7c0-1.7-0.5-3.4,0.4-5c0.2-0.3,0.4-0.6,0.9-1.2c0.1,0.9,0.2,1.3,0.2,1.8
		c0.1,3,0.3,6,0.3,9c0.1,4.2,0,8.5,0,12.7c0,0.6,0.1,1.1,0.1,1.7c0.4,3.1,0.9,6.2,1.1,9.3c0.2,2.4-0.1,4.8,0,7.1
		c0,1.8,0.3,3.7,0.5,5.5c0,0.4,0.1,0.7,0.1,1.1c-0.2,3.2-0.4,6.5-0.6,9.7c0,0.3,0.1,0.7,0.3,0.8c1.7,1,1.4,2.8,1.6,4.3
		c0.5,5.3,0.8,10.5,1.3,15.8c0.4,4.3,1.1,8.5,1.7,12.7c2.7,0.2,2.6,0.2,3,3c0.4,3.1,1.3,6,1.8,9.1c0.2,1.3,0.7,1.3,1.8,0.8
		c1.5-0.6,3-1,4.6-1.4c2.1-0.4,2.6,0,2.7,2.1c0.1,3,0.3,6.1,0,9.1c-0.8,7.9,0,15.7,0.7,23.6c0.4,4.5,1,9,0.9,13.6
		c-0.1,5.9-0.7,11.9-1.4,17.8c-0.9,7.5-2.2,15-3,22.6c-0.3,2.9,0,5.9-0.1,8.9c-0.1,6.2,0.1,12.4-1.5,18.4c-0.3,1.1-0.7,2-1.9,2.1
		c-1.5,0.1-3.1,0.7-4.3-0.9c-0.3-0.4-0.5-0.9-0.8-1.2c-1.5-1.6-3-1.5-3.8,0.4c-2.1,5.3-4.1,10.7-6.1,16.1c-0.5,1.2-0.2,2.9-1.9,3.2
		c-1.6,0.4-4.1-0.9-4.8-2.6c-0.7-1.8-1.2-3.8-1.6-5.7c-1.9-8.3-1.7-16.7-0.6-25.1c0.6-4.5-0.5-8.6-1.5-12.8
		c-0.2-0.8-0.4-1.5-0.7-2.3c-0.4-1.3-1.2-2.1-2.8-1.7c-1.4,0.3-2-0.8-2.3-1.9c-1.3-4.8-1.4-9.8-1-14.7c0.5-5.8,1.2-11.7,1.5-17.5
		c0.2-3.9-0.3-7.8-0.1-11.7c0.2-4.3,0.7-8.6,1.1-12.9C752.3,129.5,752.6,129.1,753,128.1z"/>
    </g>



<circle id="single-star" fill="#FFFFFF" cx="801.6" cy="205.4" r="1.6"/>
<g id="speedline">
	<line fill="none" stroke="#FFFFFF" stroke-linecap="round" stroke-miterlimit="10" x1="1006.5" y1="0.5" x2="807" y2="200"/>
	<circle fill="#FFFFFF" cx="804" cy="203" r="1.6"/>
</g>





  <g id="thanks">
    <path id="t" d="M195.84,314.13h-19c-4.21,0-6.43-2.22-6.43-6.43V303c0-4.21,2.22-6.43,6.43-6.43h58.38c4.21,0,6.43,2.22,6.43,6.43v4.68c0,4.21-2.22,6.43-6.43,6.43h-19v59.66c0,4.21-2.22,6.43-6.43,6.43h-7.6c-4.21,0-6.43-2.22-6.43-6.43V314.13Z" fill="none" stroke="#fff" stroke-linecap="round" stroke-miterlimit="10" stroke-width="3"/>
    <path id="h" d="M250.47,303c0-4.21,2.22-6.43,6.43-6.43h7.6c4.21,0,6.43,2.22,6.43,6.43v27h30.42V303c0-4.21,2.22-6.43,6.43-6.43h7.6c4.21,0,6.43,2.22,6.43,6.43v70.78c0,4.21-2.22,6.43-6.43,6.43h-7.6c-4.21,0-6.43-2.22-6.43-6.43V347.47H270.94v26.32c0,4.21-2.22,6.43-6.43,6.43h-7.6c-4.21,0-6.43-2.22-6.43-6.43V303Z" fill="none" stroke="#fff" stroke-linecap="round" stroke-miterlimit="10" stroke-width="3"/>
    <path id="a" d="M355.64,301.85c1.17-3.63,3.51-5.26,7.25-5.26h10.53c3.74,0,6.08,1.64,7.25,5.26l24.22,71c1.52,4.45-.58,7.37-5.26,7.37h-7.72c-3.74,0-6.08-1.75-7.25-5.38l-3.51-12.17H355.05l-3.51,12.17c-1.05,3.63-3.39,5.38-7.14,5.38h-7.72c-4.68,0-6.79-2.92-5.26-7.37Zm20.71,44.46L371.67,330c-1.52-5.26-3.39-14.39-3.39-14.39H368s-1.87,9.13-3.39,14.39l-4.8,16.26h16.5Z" fill="none" stroke="#fff" stroke-linecap="round" stroke-miterlimit="10" stroke-width="3"/>
    <path id="n" d="M414.48,303c0-4.21,2.22-6.43,6.43-6.43H430c3.63,0,6,1.29,7.72,4.33l20.59,34.75a149.78,149.78,0,0,1,7,14.27h0.23s-0.94-9-.94-14.27V303c0-4.21,2.22-6.43,6.43-6.43h7.6c4.21,0,6.43,2.22,6.43,6.43v70.78c0,4.21-2.22,6.43-6.43,6.43h-9.12a7.92,7.92,0,0,1-7.6-4.33l-20.71-34.63a149.66,149.66,0,0,1-7-14.27H434s0.94,9,.94,14.27v32.52c0,4.21-2.22,6.43-6.43,6.43h-7.6c-4.21,0-6.43-2.22-6.43-6.43V303Z" fill="none" stroke="#fff" stroke-linecap="round" stroke-miterlimit="10" stroke-width="3"/>
    <path id="k" d="M501.28,303c0-4.21,2.22-6.43,6.43-6.43h7.6c4.21,0,6.43,2.22,6.43,6.43v25.85h8.42L545,301.15a7.94,7.94,0,0,1,7.6-4.56h8c5.15,0,7,3.28,4.56,7.72l-18.25,32.29v0.23l19.65,35.68c2.46,4.45.58,7.72-4.56,7.72h-9a7.94,7.94,0,0,1-7.6-4.56L530.18,346.3h-8.42v27.49c0,4.21-2.22,6.43-6.43,6.43h-7.6c-4.21,0-6.43-2.22-6.43-6.43V303Z" fill="none" stroke="#fff" stroke-linecap="round" stroke-miterlimit="10" stroke-width="3"/>
    <path id="s" d="M576.27,364.44l3.63-5.26c2.34-3.39,5-3.63,8.89-1.52,2.69,1.4,8,5.15,15.21,5.15,6.08,0,8.89-2.57,8.89-5.85,0-11.82-37-9.94-37-36.15,0-15.44,12.87-25.62,29.83-25.62,9.71,0,18.6,3.39,22.58,6.2,3.39,2.46,3.74,5.38,2,8.77l-2.81,5.5c-2.34,4.56-5.5,3.86-8.77,2.22C614.88,316,611,314,605.52,314c-6.43,0-9.12,2.57-9.12,5.85,0,12.17,37,9.24,37,35.68,0,14-10.53,26.09-29.36,26.09-11.7,0-22.11-4.8-26.56-8.31C575,371.34,573.23,368.76,576.27,364.44Z" fill="none" stroke="#fff" stroke-linecap="round" stroke-miterlimit="10" stroke-width="3"/>
  </g>
  <path id="for" d="M158.33,477s50,0,85.17-43.5c9-11.13,10.5-28.5,2.5-28S229.5,421,226.5,437s-8,49.5-6.5,61,15.5,17,18.5-4.5-8.85-33.5-8.85-33.5,1.85,3,8.85,2,12.5-1,18.5-9.5,13.5-8,16-5,7.5,9.5,5,20-9,14.5-14.5,14S252,471,252.5,462s16.36-23.5,26.18-16,8.82,10.12,14.32,10.81,6.5-11.31,6.5-11.31-7.83,36.5-3.5,37,10.5-33,16.5-34.5,1.12,11.25,3.5,16c4.5,9,15.5,0,15.5,0" fill="none" stroke="#fff" stroke-linecap="round" stroke-miterlimit="10" stroke-width="3"/>
  <path id="coming" d="M377,456.81s1.5-11.77-5.5-11.31c-12.5.83-22.15,9.3-17.5,25,6.67,22.5,29.74,5.57,33.5-1,0,0-2.17-11.83,7-20.5,5.87-5.55,14.36-4.55,18,3,4.5,9.33.5,26.67-7,29.53-9,3.43-21.23-7.26-17.5-21.87,3.83-15,17.41-18.2,24.21-14.18s8.79,11.63,14.29,11.32,7.5-13,7.5-13S429,461,428.5,468s-1.5,15.88,1,13.69S441,460.62,443,456.81s6.5-12.31,8.5-10.81-6,36.56-2.5,36,16-36.25,21-35.53c0,0-4.33,31.17-1,34s6.67,2.83,13-5.17S493.5,447,493.5,447s-7.21,35.12-.5,35c19.33-.33,21.5-37,23.5-36.5s-5.5,34.5-3.5,35S530,445,534.5,445s-2.22,29.18,1,33c4.5,5.33,12.5.5,13.5-2.5s3-13,8.5-18.5A151,151,0,0,1,571,445.5s-9.83,5.06-15.67,13.83c-4.82,7.25-6.93,18.18,1.67,20.67,19,5.5,21-31.5,21-31.5s-4,62.2-14,71c-13,11.5-22.33-.67-16.33-11.17s11.43-16.54,18-22c19.83-16.5,74-18,74-18" fill="none" stroke="#fff" stroke-linecap="round" stroke-miterlimit="10" stroke-width="3"/>
  <ellipse id="coming-dot" cx="495.98" cy="420.64" r="3.02" fill="#fff"/>

<g class="cloudGroup">

    <path class="cloud" fill="#FFFFFF" d="M493.7,0c0,0.6,0.1,1.2,0.2,1.7c1,7.2,0.4,14.4,0.1,21.7c-0.3,7.5-1.1,15,0.1,22.4
		c0.2,1.5,1.3,2.9,1.3,4.4c-0.7,15.1,2.3,29.9,2.7,44.9c0.1,3.3-1,6.8-2.2,10c-2.5,6.8-1.4,13.7-0.6,20.5c0.2,1.7,1.6,2.7,3,3.2
		c2.1,0.7,3.1,2.1,3.3,4.2c0.4,4,0.9,7.9-0.3,12c-0.6,1.9-0.5,4.2-0.3,6.2c0.5,5.6,1.1,11.1,1.8,16.6c0.2,1.8,1,3.6,1.7,5.3
		c0.3,0.6,1,1.3,1.7,1.5c1.5,0.3,1.8,1.3,1.9,2.6c0.5,5.5,0.9,11,1.4,16.5c0.3,3.2,1.8,4.5,5,4.2c5.3-0.4,4.4-1.2,5.1,4.4
		c0.5,4.4,0.1,8.6-0.8,12.9c-0.2,0.8-0.2,1.6-0.1,2.4c0.5,6.3,1.2,12.6,1.6,19c0.1,1.8-0.3,3.7-0.7,5.4c-0.1,0.6-1,1.3-1.6,1.3
		c-0.5,0.1-1.1-0.7-1.6-1.2c-0.7-0.9-1.3-1.9-2.1-2.7c-1.4-1.6-3-3.1-4.2-4.8c-0.8-1.1-1.7-0.9-2.6-0.7c-1.5,0.4-2.5,1.5-2.5,3
		c0,1.9,0.4,3.8,0.2,5.6c-0.8,6-1.8,12-2.7,18c-0.1,0.7-0.2,1.4-0.1,2c1.5,9.2-0.2,18.2-2.7,27c-0.4,1.4-1.1,1.9-2.5,2.2
		c-5.6,1.2-8.1-2.1-8.9-7.4c-1.5-9.5-1.9-19.2-2.6-28.8c-0.1-2,1-4,1.2-6.1c0.6-6.1,0.7-12.3,0-18.5c-0.8-7-1.4-14.1-1.9-21.2
		c-0.1-2.1,0.1-4.4,0.6-6.4c0.9-3.5,0.8-7,0.5-10.5c-1.4-15.5-2.8-31.1-4-46.6c-0.3-3.2,0.5-6.4,0.2-9.6c-0.6-6-0.7-11.9,0.7-17.9
		c0.1-0.3,0.1-0.8,0-1.1c-0.9-3.3,0.5-6,2.2-8.7c0.1-0.2,0.2-0.4,0.3-0.5c3.5-2.1,2.6-5.7,3-8.8c0.4-4.1,0.5-8.2,0.7-12.4
		c0.1-3,0.1-5.9,0.3-8.9c0.1-1.5,0.4-3,0.6-4.5c0.3-1.8,1.1-3.7,0.9-5.4c-0.4-3.6,0.4-7.1,0.7-10.7c0.4-4.8,0.5-9.6,0.7-14.4
		c0.3-7.1,0.4-14.1,0.9-21.2c0.4-6.8,0.8-13.6,0-20.4c-0.1-0.5-0.1-1-0.1-1.5c0-0.2,0.1-0.3,0.2-0.5C493.3,0,493.5,0,493.7,0z"/>
	<path class="cloud" fill="#FFFFFF" d="M703.7,0c0.6,0.3,0.7,0.4,0.8,0.5c0.7,4.4,1.3,8.7,2,13.1c0.2,1,0.5,2,0.8,3
		c0.2,0.8,0.5,1.6,0.6,2.5c0.3,5.3,0.6,10.6,0.9,15.8c0.1,1.3,0.4,2.3,1.6,3.1c0.4,0.2,0.4,1.2,0.4,1.7c0,0.8-0.5,1.7-0.5,2.5
		c0.2,4.3,0.3,8.7,0.7,13c0.4,3.6-0.4,7-1.1,10.4c-0.2,1.3-0.3,2.5-0.4,3.8c-0.2,2.3-0.5,4.6-0.6,7c-0.1,2.4,0.4,4.7,0.1,7.1
		c-0.2,2.5-0.9,5-1.5,7.5c0,0.2-0.3,0.4-0.3,0.7c0.1,5.1-1.8,10-0.6,15.1c0.2,0.9,1.1,1.9,2,2.2c2.3,0.8,3,2.6,3.2,4.7
		c0.6,9.6,1,19.1,1.6,28.7c0,0.6,0.5,1.3,0.7,1.9c0.5-0.5,1.2-0.9,1.6-1.6c0.9-1.5,1.7-3,2.6-4.5c0.3-0.5,1-0.9,1.6-1.1
		c2.1-0.5,2.6-0.1,2.7,2c0.2,3.2,0.4,6.3,0.5,9.5c0.1,2,0.4,3.9-0.6,5.8c-0.2,0.4-0.1,1.1-0.1,1.6c0.1,2.3,0.3,4.6,0.3,6.9
		c0,5.4,0.8,10.6-0.1,16.1c-1,6-1,12.3-0.4,18.5c0.2,2.2-0.5,4.5-1,6.7c-0.3,1.4-2.2,1.4-3.5,0.2c-2.1-2-3.7-1.7-4.7,1.1
		c-0.5,1.5-0.8,3.2-0.9,4.8c-0.1,3.8,0.6,7.6-0.4,11.4c-0.6,2.1,0.2,4.4,0.2,6.7c-0.1,3.4-0.5,6.7-0.5,10.1c0,3.4,0.3,6.7-0.4,10.1
		c-0.9,4.2-1.1,8.6-1.7,12.9c-0.4,2.7-3.3,3.7-5.5,2c-1.6-1.2-2.5-2.8-2.6-4.9c-0.1-3-0.5-6.1-0.4-9.1c0-3.4-0.7-6.4-2.3-9.4
		c-0.6-1-0.9-2.3-0.9-3.5c-0.8-14.2-1.6-28.4-2.3-42.6c0-0.8-0.1-1.6-0.1-2.5c-0.6,0-0.9-0.1-1.3-0.1c-1.6,0.2-2.2-0.6-2.2-2.1
		c-0.5-10.2-1.1-20.5-1.6-30.7c-0.1-2.2-0.4-4.5-0.3-6.7c0-2.1,0.4-4.1,0.6-6.2c0.1-1.5,0-3-0.1-4.4c-0.1-1.4,0.5-2.5,1.3-3.7
		c1-1.4,1.6-3.4,1.6-5.1c0-4.8-0.5-9.7-0.6-14.5c0-1,0.4-2.1,0.7-3.2c0.4-1.7,0.9-3.3,1.2-5c0.4-2.9,0.6-5.8,0.9-8.8
		c0-0.6-0.2-1.2,0-1.7c0.9-3.3,1.5-6.6,2.7-9.7c1.9-5.1,3.7-10.1,3-15.7c-0.4-3.4-0.1-6.9-0.7-10.2c-0.5-3.3,0.1-6.5,0.1-9.8
		c0.1-5.8,1.4-11.4,3-16.9c1.8-6.1,0.5-12.3,0.5-18.4c0-1.9,0.3-3.8,0.3-5.7c0.1-2.6,0-5.2,0-7.8C703.9,3.4,703.8,1.8,703.7,0z"/>
	<path class="cloud" fill="#FFFFFF" d="M567.8,0c0.2,1.2,0.2,2.4,0.5,3.5c0.5,1.9,1.6,3.8,1.9,5.7c0.6,4.6,0.8,9.2,1.1,13.8
		c0.1,2.6,0.2,2.7,2.7,3.3c0.5,0.1,1.2,1.1,1,1.5c-1.8,6.8-0.8,13.7-1.1,20.5c-0.2,4.3-0.4,8.5-0.5,12.8c0,1.1,0.7,2.2,0.8,3.3
		c0.1,1.4,0.3,2.9,0,4.2c-0.5,1.8-1.5,3.4-2.3,5c-1.2,2.6-1.1,4.7,2,5.5c2.2,0.5,1.4,2.1,1.5,3.4c0,3.1,0,6.1,0.1,9.2
		c0,0.5,0.3,1,0.6,1.3c1.5,1.3,1.3,2.9,0.9,4.6c-0.8,2.9-1.3,5.8-3.3,8.1c-0.5,0.6-1.4,0.9-2,1.5c-0.4,0.3-1,0.7-1,1.1
		c-0.1,5.4-0.1,10.7-0.1,16.1c0,0.6,0.1,1.2,0.1,1.9c0,7.3,0,14.7,0,22c0,2.5,1,3,3.4,2.5c2.2-0.5,4.6-0.8,6.9-0.6
		c1,0.1,2.3,1.6,2.7,2.8c0.5,1.5,0.3,3.3,0.3,5c0,4.4-0.1,8.8-0.2,13.2c0,1.5,0,3-2.3,3.4c-0.7,0.1-1.2,2.5-1.4,3.9
		c-3,16.7-1.1,33.5-1.5,50.3c-0.2,7.8-2.4,14.9-6,21.6c-0.8,1.5-1.9,1.6-3.4,1.6c-1.4-0.1-1.5-1.1-2-2c-1.5-2.8-1.6-5.8-1.8-8.8
		c-0.3-4.1-0.8-8.2-0.9-12.3c0-2.1,0.7-4.2,1.2-6.3c0.4-1.8,1.4-3.5,1.5-5.3c0.3-5.8,0.4-11.6,0.4-17.5c0-5.4-0.2-10.8-0.4-16.2
		c0-1.3-0.2-2.7-0.5-4c-0.2-0.8-0.9-2.2-1.3-2.2c-1,0.1-2.3,0.5-2.9,1.3c-1.5,1.7-3.1,2.4-5.3,2.4c-1.7,0-2.3-0.7-2.3-2.4
		c0-5.4,0-10.8,0-16.2c0-3.7-0.1-7.3,0-11c0.1-2.6,0.4-5.2,0.8-7.7c0.1-0.8,0.5-1.6,1.1-2.1c2.8-3.1,2.8-7.1,3.3-10.9
		c0.4-3.1,0.2-6.3-1.1-9.3c-0.1-0.2-0.1-0.4-0.2-0.5c-2.2-1.8-2.1-4.2-2-6.6c0.1-3.4,0.2-6.8,0.4-10.2c0-0.2,0-0.5,0.1-0.7
		c0.9-3.4,2-6.7,2.7-10.1c0.5-2.4,0.7-4.9,0.6-7.3c-0.1-4.2,0.2-8.3,1.2-12.3c0.2-0.7,0.7-1.6,1.3-2c3.5-2.3,4.4-5.8,4.7-9.6
		c0.2-2.9,0.6-5.8,0.6-8.7c0-3-0.5-6-0.6-8.9c-0.2-4-0.3-7.9-0.4-11.9c0-0.9,0.1-1.8,0-2.6c-0.1-0.6-0.6-1.1-0.9-1.7
		c-0.2-0.5-0.7-1.1-0.6-1.6c0.2-2,0.7-4,0.9-6c0.3-2.6,0.5-5.3,0.6-7.9c0.1-3.7,0-7.5,0-11.2c0-0.6,0.1-1.2,0.1-1.7
		C567.5,0,567.6,0,567.8,0z"/>
	<path class="cloud" fill="#FFFFFF" d="M217,169.5c-0.5-0.1-0.9-0.2-1.3-0.2c-1.3,0.1-1.6-0.5-1.6-1.7c0.2-5.6,0.5-11.1,0.6-16.7
		c0.1-6.3,0-12.7,0.1-19c0.1-6.1,0.4-12.3,0.4-18.4c0-1.1-0.6-2.1-0.7-3.2c-0.1-1.4-0.1-2.8,0-4.2c0-0.4,0.3-0.8,0.6-1.1
		c2.4-3.2,3-7.1,3.8-10.9c0.6-2.8,1.8-5.4,3-8c1.2-2.5,1.5-5,1.4-7.8c-0.1-6.1-0.2-12.3-0.1-18.4c0.1-2.6,0.7-5.2,1-7.9
		c0.3-3.4,0.7-6.9,0.8-10.4c0.1-9.5,0.1-19.1,0.1-28.7c0-3.6,0-7.2,0-10.8c0-0.7,0-1.4,0-2.2c0.2,0,0.3,0,0.5-0.1
		c0.1,0.4,0.3,0.8,0.3,1.2c-0.1,12.4-0.2,24.8-0.3,37.3c0,11.7-0.1,23.5,0,35.2c0,3.6,0.6,7.2,0.6,10.8c-0.1,6.6-0.7,13.2-0.5,19.7
		c0.1,4.7,1.1,9.4,1.7,14.1c0.1,0.4,0.2,1,0.5,1.2c2.2,1.8,1.7,4.2,1.7,6.6c0,3-0.1,6,0,8.9c0,0.8,0.3,2,0.9,2.4
		c5.9,4.3,4,4.9,5.9,10.8c1,3,2,5.9,2.9,9c0.6,1.9,1.2,3.8,1.2,5.7c0,5-0.4,10-0.6,15c-0.1,1.7-0.8,2.7-2.7,2.4
		c-1.6-0.2-2.7,0.5-3.6,1.8c-0.8,1-1.7,1.9-2.6,2.9c-2.8,3-4.4,6.5-4.5,10.7c0,0.7-0.1,1.5,0,2.2c0.7,8-0.7,15.7-2.8,23.3
		c-0.3,1-0.3,2.1-0.8,3c-1.3,2.6-4.1,3.5-6.6,2.2c-2.8-1.3-3.6-3.4-2.5-6.5c1.1-3,2.5-5.9,3.1-8.9c0.4-2.4,0.3-5.1-0.4-7.4
		c-1.1-3.5-1.3-7.1-0.7-10.5c1.1-6.2,0.8-12.3,0.9-18.5C217,173,217,171.3,217,169.5z"/>
	<path class="cloud" fill="#FFFFFF" d="M298.1,0c0,0.2,0.1,0.5,0.1,0.7c0.2,9.9,0.2,19.7,0.5,29.6c0.1,2.9,0.7,5.9,1.2,8.8
		c0.2,0.9,0.9,1.8,1.6,2.4c1.5,1.3,2,2.8,1.9,4.8c-0.1,4.3,0.1,8.6-0.1,12.9c-0.2,6.6,0.4,13.1,1.7,19.6c0.1,0.3,0.2,0.6,0.2,0.9
		c-0.4,3.3,1.4,5.4,4,6.9c2.1,1.2,3,3.1,2.8,5.4c-0.1,1.4,0,2.9-0.1,4.3c-0.2,1.9-1,3.4-2.8,4.3c-2,1.1-2.9,2.8-2.8,5
		c0.2,5.4,0,10.8-1.5,16c-0.3,1.1-0.7,2.3-1.2,3.3c-1,2.1-3.3,2.6-5,0.9c-0.9-0.9-1.8-2-2-3.2c-1.6-7.9-3.1-15.8-3.5-23.8
		c-0.1-1.6-0.4-3.3-0.9-4.9c-0.6-1.8-1.6-1.9-2.8-0.5c-1,1.1-1.7,2.3-2.5,3.4c-0.9,1.3-2.2,1.7-3.7,1.5c-3.5-0.4-4.1-1-4.1-4.5
		c0.1-8.4,0.8-16.8,3.4-24.9c0.6-1.8,1.5-3.5,2.3-5.3c1.1-2.4,1.9-4.9,3.3-7.1c1.3-2,3-3.9,5-5.4c2.6-2,3.6-4.4,3.5-7.7
		c-0.2-5.3-0.2-10.7,0-16c0.1-3,1.2-6,1.5-9.1c0.2-2.1-0.3-4.2-0.3-6.3c-0.1-4.1,0-8.1,0-12.2C297.9,0,298,0,298.1,0z"/>
	<path class="cloud" fill="#FFFFFF" d="M159.5,0c0.1,0.6,0.3,1.2,0.3,1.8c-0.1,8.8-0.1,17.5-0.2,26.3c-0.1,6.3-0.3,12.5-0.3,18.8
		c0,1.4,0.6,3,1.5,4.2c1.5,2.1,0.7,4.2,0.6,6.3c-0.1,2-0.6,4.1-0.1,5.9c0.4,1.5,1.7,3.1,3.1,3.9c2.8,1.7,3.8,4,3.8,7.1
		c-0.1,3.1,0.9,5.8,4,7.4c0.8,0.4,1.4,1.7,1.6,2.7c0.6,2.6,1.1,5.2,1.5,7.8c0.2,1.4,0.3,2.9,0,4.2c-1.2,4.4-2.5,8.7-3.9,12.9
		c-0.3,0.9-0.9,1.8-1.6,2.5c-2.2,2.3-5.9,1.8-7-1.2c-0.9-2.6-1.2-5.4-1.9-8.1c-0.3-1.2-1-2.3-1.5-3.4c-0.7,1-1.5,2-2,3.1
		c-0.7,1.5-1.1,3.2-1.7,4.7c-1,2.4-2.6,2.9-4.1,0.8c-1.5-2.2-2.3-5-3.2-7.6c-0.4-1.2-0.5-2.5-0.6-3.8c-0.1-2.8-1.8-4.6-4-5.8
		c-1.4-0.8-1.8-1.8-1.8-3.4c0-5.8-0.1-11.6,0.1-17.3c0.1-1.5,0.9-3.1,1.8-4.3c1.7-2.4,3.6-4.6,5.6-6.7c2.4-2.5,3.4-5.4,3.7-8.7
		c0.3-4.5,0.3-9,0.9-13.5c0.6-4.2,0.6-8.5,2.4-12.6c2.1-4.8,2.3-10.1,2.2-15.3c0-2.2-0.1-4.3,0-6.5c0-0.7,0.2-1.4,0.3-2.1
		C159.1,0,159.3,0,159.5,0z"/>
</g>
</svg>
